<svg height="479pt" viewBox="-55 0 479 479.2" width="479pt" xmlns="http://www.w3.org/2000/svg"><path d="m64.101562 8h32c44.179688 0 80 35.816406 80 80h-32c-44.183593 0-80-35.816406-80-80zm0 0" fill="#c8d952"/><path d="m168.101562 168s-18.867187-101.464844 68.6875-142.503906c2.164063-.992188 4.519532-1.503906 6.902344-1.496094h3.898438c6.707031-.007812 12.707031 4.167969 15.027344 10.460938 2.324218 6.289062.476562 13.363281-4.628907 17.714843-32.007812 27.550781-69.503906 71.6875-49.886719 115.824219 0 0-24 16-40 0zm0 0" fill="#55b56a"/><path d="m232.101562 128c-17.15625.1875-33.867187 5.480469-48 15.199219-14.136718-9.71875-30.847656-15.011719-48-15.199219-61.859374 0-128 25.839844-128 112s66.140626 231.199219 128 231.199219c17.152344-.1875 33.863282-5.480469 48-15.199219 14.132813 9.71875 30.84375 15.011719 48 15.199219 61.855469 0 128-145.054688 128-231.199219s-66.144531-112-128-112zm0 0" fill="#dd3e46"/><path d="m288.101562 376c-2.667968 0-5.15625-1.324219-6.644531-3.539062-1.484375-2.210938-1.773437-5.019532-.765625-7.484376 36.472656-89.160156 30.289063-136.550781 18.679688-160.609374-5.539063-13.140626-16.15625-23.480469-29.4375-28.671876-4.175782-1.246093-6.589844-5.601562-5.425782-9.800781 1.164063-4.199219 5.476563-6.695312 9.695313-5.613281 17.507813 6.292969 31.6875 19.464844 39.25 36.460938 19.351563 39.242187 13.3125 97.882812-17.945313 174.28125-1.230468 3.011718-4.15625 4.976562-7.40625 4.976562zm0 0" fill="#f4f4e6"/><path d="m248.101562 432c-3.238281 0-6.152343-1.949219-7.390624-4.9375-1.238282-2.988281-.554688-6.429688 1.734374-8.71875l24-24c3.136719-3.03125 8.128907-2.988281 11.214844.097656 3.085938 3.085938 3.128906 8.074219.097656 11.214844l-24 24c-1.5 1.5-3.535156 2.34375-5.65625 2.34375zm0 0" fill="#f4f4e6"/><path d="m136.101562 120c-85.160156 0-136 44.855469-136 120 0 87.855469 67.199219 239.199219 136 239.199219 16.957032-.097657 33.5625-4.859375 48-13.757813 14.433594 8.898438 31.039063 13.660156 48 13.757813 68.796876 0 136-151.359375 136-239.199219 0-75.144531-50.839843-120-136-120-5.964843.070312-11.90625.742188-17.738281 2.007812 8.5625-25 30.503907-48 48.800781-63.769531 7.632813-6.527343 10.394532-17.117187 6.917969-26.542969-3.472656-9.421874-12.449219-15.6875-22.492187-15.695312h-3.898438c-3.554687-.007812-7.070312.765625-10.296875 2.257812-21.59375 9.792969-39.910156 25.597657-52.757812 45.527344-10.832031-37.714844-45.296875-63.7187498-84.535157-63.785156h-32c-4.417968 0-8 3.582031-8 8 .054688 48.578125 39.421876 87.941406 88 88h21.597657c-2.777344 8.898438-4.757813 18.023438-5.910157 27.273438-7.714843-2.15625-15.679687-3.257813-23.6875-3.273438zm-63.5625-104h23.5625c36.652344.042969 67.4375 27.578125 71.558594 64h-23.558594c-36.65625-.042969-67.441406-27.578125-71.5625-64zm279.5625 224c0 86.113281-65.523437 223.199219-120 223.199219-15.589843-.179688-30.765624-5.011719-43.585937-13.878907-2.667969-1.757812-6.128906-1.757812-8.800781 0-12.828125 8.875-28.015625 13.707032-43.613282 13.878907-54.480468 0-120-137.101563-120-223.199219 0-93.863281 83.917969-104 120-104 15.585938.179688 30.761719 5.011719 43.582032 13.878906 2.671875 1.757813 6.128906 1.757813 8.800781 0 12.828125-8.871094 28.019531-13.707031 43.617187-13.878906 36.078126 0 120 10.136719 120 104zm-111.914062-207.257812c1.101562-.496094 2.296875-.75 3.503906-.742188h3.898438c3.34375-.070312 6.355468 2.011719 7.46875 5.167969 1.234375 3.175781.292968 6.785156-2.335938 8.953125-22.328125 19.246094-49.648437 48.65625-56.414062 81.414062-4.203125 1.804688-8.28125 3.882813-12.207032 6.226563-2.9375-1.761719-5.9375-3.203125-8.9375-4.625 3.167969-32.695313 17.382813-74.066407 65.023438-96.394531zm0 0"/><path d="m269.933594 175.695312c13.28125 5.191407 23.898437 15.53125 29.4375 28.671876 11.609375 24.058593 17.792968 71.449218-18.679688 160.609374-1.667968 4.089844.292969 8.761719 4.382813 10.429688 4.09375 1.671875 8.765625-.289062 10.433593-4.382812 31.257813-76.398438 37.296876-135.039063 17.945313-174.28125-7.5625-16.996094-21.742187-30.167969-39.25-36.460938-4.21875-1.082031-8.53125 1.414062-9.695313 5.613281-1.164062 4.199219 1.25 8.554688 5.425782 9.800781zm0 0"/><path d="m248.101562 432c2.121094 0 4.15625-.84375 5.65625-2.34375l24-24c3.03125-3.140625 2.988282-8.128906-.097656-11.214844-3.085937-3.085937-8.078125-3.128906-11.214844-.097656l-24 24c-2.289062 2.289062-2.972656 5.730469-1.734374 8.71875 1.238281 2.988281 4.152343 4.9375 7.390624 4.9375zm0 0"/></svg>