<svg height="480pt" viewBox="0 0 480 480" width="480pt" xmlns="http://www.w3.org/2000/svg"><g fill="#5a6470"><path d="m472 151.902344h-464c-4.417969 0-8-3.582032-8-8 0-4.417969 3.582031-8 8-8h464c4.417969 0 8 3.582031 8 8 0 4.417968-3.582031 8-8 8zm0 0"/><path d="m192 335.902344h32v136h-32zm0 0"/><path d="m112 471.902344h-40l64-152 32 16zm0 0"/><path d="m304 471.902344h40l-64-152-32 16zm0 0"/></g><path d="m208 367.902344c70.691406 0 128-57.308594 128-128h-256c0 70.691406 57.308594 128 128 128zm0 0" fill="#dd3e46"/><path d="m56 207.902344h304v32h-304zm0 0" fill="#5a6470"/><path d="m224 87.902344c-2.121094 0-4.15625-.84375-5.65625-2.34375l-24-24c-1.640625-1.640625-2.488281-3.910156-2.324219-6.222656.164063-2.316407 1.324219-4.441407 3.179688-5.835938l24.625-18.460938-17.480469-17.480468c-3.03125-3.140625-2.988281-8.128906.097656-11.214844 3.085938-3.085938 8.074219-3.128906 11.214844-.097656l24 24c1.640625 1.640625 2.488281 3.910156 2.324219 6.222656-.164063 2.3125-1.324219 4.441406-3.179688 5.832031l-24.625 18.464844 17.480469 17.480469c2.285156 2.289062 2.972656 5.726562 1.734375 8.71875-1.238281 2.988281-4.15625 4.9375-7.390625 4.9375zm0 0" fill="#ffd782"/><path d="m160 87.902344c-2.121094 0-4.15625-.84375-5.65625-2.34375l-24-24c-1.640625-1.640625-2.488281-3.910156-2.324219-6.222656.164063-2.316407 1.324219-4.441407 3.179688-5.835938l24.625-18.460938-17.480469-17.480468c-3.03125-3.140625-2.988281-8.128906.097656-11.214844 3.085938-3.085938 8.074219-3.128906 11.214844-.097656l24 24c1.640625 1.640625 2.488281 3.910156 2.324219 6.222656-.164063 2.3125-1.324219 4.441406-3.179688 5.832031l-24.625 18.464844 17.480469 17.480469c2.285156 2.289062 2.972656 5.726562 1.734375 8.71875-1.238281 2.988281-4.15625 4.9375-7.390625 4.9375zm0 0" fill="#ffd782"/><path d="m288 87.902344c-2.121094 0-4.15625-.84375-5.65625-2.34375l-24-24c-1.640625-1.640625-2.488281-3.910156-2.324219-6.222656.164063-2.316407 1.324219-4.441407 3.179688-5.835938l24.625-18.460938-17.480469-17.480468c-3.03125-3.140625-2.988281-8.128906.097656-11.214844 3.085938-3.085938 8.074219-3.128906 11.214844-.097656l24 24c1.640625 1.640625 2.488281 3.910156 2.324219 6.222656-.164063 2.3125-1.324219 4.441406-3.179688 5.832031l-24.625 18.464844 17.480469 17.480469c2.285156 2.289062 2.972656 5.726562 1.734375 8.71875-1.238281 2.988281-4.15625 4.9375-7.390625 4.9375zm0 0" fill="#ffd782"/><path d="m104 143.902344c0 17.671875-14.328125 32-32 32s-32-14.328125-32-32 14.328125-32 32-32 32 14.328125 32 32zm0 0" fill="#c8d952"/><path d="m280 143.902344c0 17.671875-14.328125 32-32 32s-32-14.328125-32-32 14.328125-32 32-32 32 14.328125 32 32zm0 0" fill="#c8d952"/><path d="m136 111.902344h48v64h-48zm0 0" fill="#e97424"/><path d="m312 111.902344h48v64h-48zm0 0" fill="#e97424"/><path d="m118.136719 341.710938-53.511719 127.085937c-1.042969 2.472656-.773438 5.296875.707031 7.53125 1.484375 2.234375 3.988281 3.574219 6.667969 3.574219h40c3.242188 0 6.164062-1.953125 7.398438-4.953125l43.945312-106.734375c6.730469 2.359375 13.636719 4.179687 20.65625 5.4375v98.25c0 4.417968 3.582031 8 8 8h32c4.417969 0 8-3.582032 8-8v-98.25c7.019531-1.257813 13.925781-3.078125 20.65625-5.4375l43.945312 106.734375c1.234376 3 4.15625 4.953125 7.398438 4.953125h40c2.679688 0 5.183594-1.339844 6.667969-3.574219 1.480469-2.234375 1.75-5.058594.707031-7.53125l-53.511719-127.085937c27.15625-23.910157 43.621094-57.6875 45.730469-93.808594h16.40625c4.417969 0 8-3.582032 8-8v-32c0-4.417969-3.582031-8-8-8h-304c-4.417969 0-8 3.582031-8 8v32c0 4.417968 3.582031 8 8 8h16.40625c2.113281 36.117187 18.578125 69.894531 45.730469 93.808594zm-11.496094 122.191406h-22.59375l47.152344-111.898438c5.550781 3.773438 11.371093 7.128906 17.417969 10.042969zm109.359375 0h-16v-88.410156c2.664062.160156 5.296875.410156 8 .410156s5.335938-.25 8-.410156zm115.953125 0h-22.59375l-41.945313-101.855469c6.035157-2.914063 11.847657-6.269531 17.386719-10.042969zm-123.953125-104c-63.140625-.078125-115.449219-49.007813-119.734375-112h239.46875c-4.285156 62.992187-56.59375 111.921875-119.734375 112zm-144-144h288v16h-288zm0 0"/><path d="m240 32.46875c.164062-2.3125-.6875-4.585938-2.328125-6.222656l-24-24c-3.140625-3.03125-8.128906-2.988282-11.214844.097656-3.085937 3.085938-3.128906 8.074219-.097656 11.214844l17.480469 17.480468-24.640625 18.460938c-1.855469 1.394531-3.015625 3.519531-3.179688 5.835938-.164062 2.3125.683594 4.582031 2.324219 6.222656l24 24c3.140625 3.03125 8.128906 2.988281 11.214844-.097656 3.085937-3.085938 3.128906-8.078126.097656-11.214844l-17.480469-17.480469 24.625-18.464844c1.863281-1.386719 3.03125-3.515625 3.199219-5.832031zm0 0"/><path d="m176 32.46875c.164062-2.3125-.6875-4.585938-2.328125-6.222656l-24-24c-3.140625-3.03125-8.128906-2.988282-11.214844.097656-3.085937 3.085938-3.128906 8.074219-.097656 11.214844l17.480469 17.480468-24.640625 18.460938c-1.855469 1.394531-3.015625 3.519531-3.179688 5.835938-.164062 2.3125.683594 4.582031 2.324219 6.222656l24 24c3.140625 3.03125 8.128906 2.988281 11.214844-.097656 3.085937-3.085938 3.128906-8.078126.097656-11.214844l-17.480469-17.480469 24.625-18.464844c1.863281-1.386719 3.03125-3.515625 3.199219-5.832031zm0 0"/><path d="m304 32.46875c.164062-2.3125-.6875-4.585938-2.328125-6.222656l-24-24c-3.140625-3.03125-8.128906-2.988282-11.214844.097656-3.085937 3.085938-3.128906 8.074219-.097656 11.214844l17.480469 17.480468-24.640625 18.460938c-1.855469 1.394531-3.015625 3.519531-3.179688 5.835938-.164062 2.3125.683594 4.582031 2.324219 6.222656l24 24c3.140625 3.03125 8.128906 2.988281 11.214844-.097656 3.085937-3.085938 3.128906-8.078126.097656-11.214844l-17.480469-17.480469 24.625-18.464844c1.863281-1.386719 3.03125-3.515625 3.199219-5.832031zm0 0"/><path d="m472 135.902344h-104v-24c0-4.417969-3.582031-8-8-8h-48c-4.417969 0-8 3.582031-8 8v24h-16.800781c-3.785157-18.644532-20.175781-32.039063-39.199219-32.039063s-35.414062 13.394531-39.199219 32.039063h-16.800781v-24c0-4.417969-3.582031-8-8-8h-48c-4.417969 0-8 3.582031-8 8v24h-16.800781c-3.785157-18.644532-20.175781-32.039063-39.199219-32.039063s-35.414062 13.394531-39.199219 32.039063h-24.800781c-4.417969 0-8 3.582031-8 8 0 4.417968 3.582031 8 8 8h24.800781c3.785157 18.640625 20.175781 32.039062 39.199219 32.039062s35.414062-13.398437 39.199219-32.039062h16.800781v24c0 4.417968 3.582031 8 8 8h48c4.417969 0 8-3.582032 8-8v-24h16.800781c3.785157 18.640625 20.175781 32.039062 39.199219 32.039062s35.414062-13.398437 39.199219-32.039062h16.800781v24c0 4.417968 3.582031 8 8 8h48c4.417969 0 8-3.582032 8-8v-24h104c4.417969 0 8-3.582032 8-8 0-4.417969-3.582031-8-8-8zm-400 32c-13.253906 0-24-10.746094-24-24s10.746094-24 24-24 24 10.746094 24 24-10.746094 24-24 24zm104 0h-32v-48h32zm72 0c-13.253906 0-24-10.746094-24-24s10.746094-24 24-24 24 10.746094 24 24-10.746094 24-24 24zm104 0h-32v-48h32zm0 0"/></svg>