<svg height="480pt" viewBox="0 0 480 480" width="480pt" xmlns="http://www.w3.org/2000/svg"><path d="m432 472h-384v-326l40-50 80-48h144l80 48 40 50zm0 0" fill="#d3843d"/><path d="m104 288h272v184h-272zm0 0" fill="#9c2d20"/><path d="m144 160h72v64h-72zm0 0" fill="#9c2d20"/><path d="m264 160h72v64h-72zm0 0" fill="#9c2d20"/><g fill="#ffd782"><path d="m104 128h-32c-4.417969 0-8-3.582031-8-8s3.582031-8 8-8h32c4.417969 0 8 3.582031 8 8s-3.582031 8-8 8zm0 0"/><path d="m416 136h-40c-4.417969 0-8-3.582031-8-8s3.582031-8 8-8h40c4.417969 0 8 3.582031 8 8s-3.582031 8-8 8zm0 0"/><path d="m208 88h-32c-4.417969 0-8-3.582031-8-8s3.582031-8 8-8h32c4.417969 0 8 3.582031 8 8s-3.582031 8-8 8zm0 0"/><path d="m304 88h-32c-4.417969 0-8-3.582031-8-8s3.582031-8 8-8h32c4.417969 0 8 3.582031 8 8s-3.582031 8-8 8zm0 0"/><path d="m256 120h-32c-4.417969 0-8-3.582031-8-8s3.582031-8 8-8h32c4.417969 0 8 3.582031 8 8s-3.582031 8-8 8zm0 0"/><path d="m96 160h-48c-4.417969 0-8-3.582031-8-8s3.582031-8 8-8h48c4.417969 0 8 3.582031 8 8s-3.582031 8-8 8zm0 0"/><path d="m432 168h-48c-4.417969 0-8-3.582031-8-8s3.582031-8 8-8h48c4.417969 0 8 3.582031 8 8s-3.582031 8-8 8zm0 0"/></g><path d="m96 256h288c8.835938 0 16 7.164062 16 16s-7.164062 16-16 16h-288c-8.835938 0-16-7.164062-16-16s7.164062-16 16-16zm0 0" fill="#5a6470"/><path d="m472 136-65.121094-80-89.542968-48h-154.671876l-89.542968 48-65.121094 80v40h16l64-80 80-48h144l80 48 64 80h16zm0 0" fill="#9c2d20"/><path d="m319.335938 0h-158.671876l-92.734374 49.703125-67.929688 83.457031v50.839844h27.839844l12.160156-15.199219v303.199219c0 4.417969 3.582031 8 8 8h384c4.417969 0 8-3.582031 8-8v-303.199219l12.160156 15.199219h27.839844v-50.839844l-67.929688-83.457031zm-79.335938 366.472656-108.910156-70.472656h217.820312zm128-63.769531v146.59375l-113.273438-73.296875zm-142.726562 73.296875-113.273438 73.296875v-146.59375zm14.726562 9.527344 121.273438 78.472656h-242.546876zm-144-105.527344c-4.417969 0-8-3.582031-8-8s3.582031-8 8-8h288c4.417969 0 8 3.582031 8 8s-3.582031 8-8 8zm288 184v-168c13.253906 0 24-10.746094 24-24s-10.746094-24-24-24h-288c-13.253906 0-24 10.746094-24 24s10.746094 24 24 24v168h-40v-304h40c4.417969 0 8-3.582031 8-8s-3.582031-8-8-8h-36.152344l12.800782-16h31.351562c4.417969 0 8-3.582031 8-8s-3.582031-8-8-8h-18.550781l7.894531-9.878906 76.871094-46.121094h139.570312l76.871094 46.121094 14.296875 17.878906h-24.953125c-4.417969 0-8 3.582031-8 8s3.582031 8 8 8h37.753906l10.246094 12.800781v3.199219h-40c-4.417969 0-8 3.582031-8 8s3.582031 8 8 8h40v296zm80-296h-4.160156l-62.496094-78.121094-83.128906-49.878906h-148.429688l-83.128906 49.878906-62.496094 78.121094h-4.160156v-29.160156l62.3125-76.542969 86.359375-46.296875h150.65625l86.398437 46.296875 62.273438 76.542969zm0 0"/><path d="m216 152h-72c-4.417969 0-8 3.582031-8 8v64c0 4.417969 3.582031 8 8 8h72c4.417969 0 8-3.582031 8-8v-64c0-4.417969-3.582031-8-8-8zm-8 64h-56v-48h56zm0 0"/><path d="m336 152h-72c-4.417969 0-8 3.582031-8 8v64c0 4.417969 3.582031 8 8 8h72c4.417969 0 8-3.582031 8-8v-64c0-4.417969-3.582031-8-8-8zm-8 64h-56v-48h56zm0 0"/><path d="m176 88h32c4.417969 0 8-3.582031 8-8s-3.582031-8-8-8h-32c-4.417969 0-8 3.582031-8 8s3.582031 8 8 8zm0 0"/><path d="m272 88h32c4.417969 0 8-3.582031 8-8s-3.582031-8-8-8h-32c-4.417969 0-8 3.582031-8 8s3.582031 8 8 8zm0 0"/><path d="m264 112c0-4.417969-3.582031-8-8-8h-32c-4.417969 0-8 3.582031-8 8s3.582031 8 8 8h32c4.417969 0 8-3.582031 8-8zm0 0"/></svg>