<svg height="480pt" viewBox="-24 0 480 480" width="480pt" xmlns="http://www.w3.org/2000/svg"><path d="m320 400h-208v-288l104-56 104 56zm0 0" fill="#d3843d"/><path d="m24 400h384c8.835938 0 16 7.164062 16 16s-7.164062 16-16 16h-384c-8.835938 0-16-7.164062-16-16s7.164062-16 16-16zm0 0" fill="#ad6327"/><path d="m176 432h80v40h-80zm0 0" fill="#d3843d"/><path d="m288 184c0 39.765625-32.234375 72-72 72s-72-32.234375-72-72 32.234375-72 72-72 72 32.234375 72 72zm0 0" fill="#9c2d20"/><path d="m256 184c0 22.089844-17.910156 40-40 40s-40-17.910156-40-40 17.910156-40 40-40 40 17.910156 40 40zm0 0" fill="#cfdfe8"/><path d="m216 8-176 104h72l104-56 104 56h72zm0 0" fill="#ad6327"/><path d="m248 320c0 17.671875-14.328125 32-32 32s-32-14.328125-32-32 14.328125-32 32-32 32 14.328125 32 32zm0 0" fill="#9c2d20"/><path d="m136 376h-24c-4.417969 0-8-3.582031-8-8s3.582031-8 8-8h24c4.417969 0 8 3.582031 8 8s-3.582031 8-8 8zm0 0" fill="#ffd782"/><path d="m152 344h-40c-4.417969 0-8-3.582031-8-8s3.582031-8 8-8h40c4.417969 0 8 3.582031 8 8s-3.582031 8-8 8zm0 0" fill="#ffd782"/><path d="m104 392h-80c-13.253906 0-24 10.746094-24 24s10.746094 24 24 24h144v40h96v-40h144c13.253906 0 24-10.746094 24-24s-10.746094-24-24-24h-80v-272h64c3.605469 0 6.769531-2.410156 7.71875-5.890625.953125-3.476563-.542969-7.164063-3.648438-8.996094l-176-104s-.566406-.234375-.796874-.335937c-.726563-.265625-1.46875-.476563-2.226563-.632813-.34375-.0742185-.695313-.1210935-1.046875-.144531-.355469.0195312-.707031.0625-1.054688.128906-.753906.15625-1.496093.367188-2.21875.632813-.222656.101562-.796874.316406-.796874.335937l-176 104c-3.125 1.824219-4.628907 5.519532-3.675782 9.011719.953125 3.488281 4.128906 5.90625 7.746094 5.890625h64zm144 72h-64v-24h64zm160-56c4.417969 0 8 3.582031 8 8s-3.582031 8-8 8h-384c-4.417969 0-8-3.582031-8-8s3.582031-8 8-8zm-288-16v-16h16c4.417969 0 8-3.582031 8-8s-3.582031-8-8-8h-16v-16h32c4.417969 0 8-3.582031 8-8s-3.582031-8-8-8h-32v-211.199219l96-51.695312 96 51.695312v275.199219zm202.023438-288-98.023438-52.800781v-29.175781l138.734375 81.976562zm-114.023438-81.976562v29.175781l-98.023438 52.800781h-40.710937zm0 0"/><path d="m216 104c-44.183594 0-80 35.816406-80 80s35.816406 80 80 80 80-35.816406 80-80c-.046875-44.164062-35.835938-79.953125-80-80zm0 144c-35.347656 0-64-28.652344-64-64s28.652344-64 64-64 64 28.652344 64 64c-.039062 35.328125-28.671875 63.960938-64 64zm0 0"/><path d="m216 136c-26.507812 0-48 21.492188-48 48s21.492188 48 48 48 48-21.492188 48-48c-.027344-26.5-21.5-47.972656-48-48zm0 80c-17.671875 0-32-14.328125-32-32s14.328125-32 32-32 32 14.328125 32 32-14.328125 32-32 32zm0 0"/><path d="m216 280c-22.089844 0-40 17.910156-40 40s17.910156 40 40 40 40-17.910156 40-40c-.027344-22.082031-17.917969-39.972656-40-40zm0 64c-13.253906 0-24-10.746094-24-24s10.746094-24 24-24 24 10.746094 24 24-10.746094 24-24 24zm0 0"/></svg>