<svg height="480pt" viewBox="0 -80 480.68356 480" width="480pt" xmlns="http://www.w3.org/2000/svg"><path d="m360 8.339844h-7.199219c-5.839843 0-11.632812 1.066406-17.089843 3.144531l-327.710938 124.855469h464s16-128-112-128zm0 0" fill="#fcf05a"/><path d="m8 136.339844v56c17.671875 0 32 14.328125 32 32 0 17.675781-14.328125 32-32 32v56h272c0-26.507813 21.492188-48 48-48s48 21.492187 48 48h96v-176zm0 0" fill="#ffd782"/><g fill="#e97424"><path d="m128 256.339844c0 13.257812-10.746094 24-24 24s-24-10.742188-24-24c0-13.253906 10.746094-24 24-24s24 10.746094 24 24zm0 0"/><path d="m192 192.339844c0 8.839844-7.164062 16-16 16s-16-7.160156-16-16c0-8.835938 7.164062-16 16-16s16 7.164062 16 16zm0 0"/><path d="m304 216.339844c0 13.257812-10.746094 24-24 24s-24-10.742188-24-24c0-13.253906 10.746094-24 24-24s24 10.746094 24 24zm0 0"/><path d="m440 200.339844c0 17.675781-14.328125 32-32 32s-32-14.324219-32-32c0-17.671875 14.328125-32 32-32s32 14.328125 32 32zm0 0"/><path d="m72 176.339844h-64c-4.417969 0-8-3.578125-8-8 0-4.417969 3.582031-8 8-8h64c4.417969 0 8 3.582031 8 8 0 4.421875-3.582031 8-8 8zm0 0"/><path d="m472 288.339844h-64c-4.417969 0-8-3.578125-8-8 0-4.417969 3.582031-8 8-8h64c4.417969 0 8 3.582031 8 8 0 4.421875-3.582031 8-8 8zm0 0"/><path d="m120 176.339844h-16c-4.417969 0-8-3.578125-8-8 0-4.417969 3.582031-8 8-8h16c4.417969 0 8 3.582031 8 8 0 4.421875-3.582031 8-8 8zm0 0"/><path d="m400 64.339844c0 13.257812-10.746094 24-24 24s-24-10.742188-24-24c0-13.253906 10.746094-24 24-24s24 10.746094 24 24zm0 0"/><path d="m280 88.339844c0 8.839844-7.164062 16-16 16s-16-7.160156-16-16c0-8.835938 7.164062-16 16-16s16 7.164062 16 16zm0 0"/></g><path d="m451.664062 35.941406c-20.847656-23.601562-51.664062-35.601562-91.664062-35.601562h-7.199219c-6.816406 0-13.574219 1.238281-19.945312 3.664062l-327.703125 124.859375c-.054688 0-.089844.0625-.136719.078125-.867187.457032-1.695313.992188-2.464844 1.601563-.632812.722656-1.199219 1.503906-1.6875 2.335937-.152343.347656-.28125.703125-.382812 1.070313-.214844.785156-.375 1.585937-.480469 2.390625v56c0 4.421875 3.582031 8 8 8 13.253906 0 24 10.746094 24 24 0 13.257812-10.746094 24-24 24-4.417969 0-8 3.582031-8 8v56c0 4.421875 3.582031 8 8 8h272c4.417969 0 8-3.578125 8-8 0-22.089844 17.910156-40 40-40s40 17.910156 40 40c0 4.421875 3.582031 8 8 8h96c4.417969 0 8-3.578125 8-8v-175.566406c.65625-5.777344 6-61.9375-28.335938-100.832032zm-113.078124-16.976562c4.539062-1.734375 9.355468-2.621094 14.214843-2.625h7.199219c35.144531 0 61.921875 10.128906 79.601562 30.113281 24.085938 27.199219 25.46875 66.128906 24.917969 81.886719h-413.046875zm44.847656 285.375c-3.957032-27.570313-27.578125-48.042969-55.433594-48.042969s-51.476562 20.472656-55.433594 48.042969h-256.566406v-40.796875c18.644531-3.785157 32.039062-20.179688 32.039062-39.203125 0-19.019532-13.394531-35.414063-32.039062-39.199219v-8.800781h56c4.417969 0 8-3.578125 8-8 0-4.417969-3.582031-8-8-8h-56v-16h448v128h-56c-4.417969 0-8 3.582031-8 8 0 4.421875 3.582031 8 8 8h56v16zm0 0"/><path d="m104 224.339844c-17.671875 0-32 14.328125-32 32 0 17.675781 14.328125 32 32 32s32-14.324219 32-32c0-17.671875-14.328125-32-32-32zm0 48c-8.835938 0-16-7.160156-16-16 0-8.835938 7.164062-16 16-16s16 7.164062 16 16c0 8.839844-7.164062 16-16 16zm0 0"/><path d="m176 168.339844c-13.253906 0-24 10.746094-24 24 0 13.257812 10.746094 24 24 24s24-10.742188 24-24c0-13.253906-10.746094-24-24-24zm0 32c-4.417969 0-8-3.578125-8-8 0-4.417969 3.582031-8 8-8s8 3.582031 8 8c0 4.421875-3.582031 8-8 8zm0 0"/><path d="m280 184.339844c-17.671875 0-32 14.328125-32 32 0 17.675781 14.328125 32 32 32s32-14.324219 32-32c0-17.671875-14.328125-32-32-32zm0 48c-8.835938 0-16-7.160156-16-16 0-8.835938 7.164062-16 16-16s16 7.164062 16 16c0 8.839844-7.164062 16-16 16zm0 0"/><path d="m448 200.339844c0-22.089844-17.910156-40-40-40s-40 17.910156-40 40c0 22.09375 17.910156 40 40 40 22.082031-.023438 39.972656-17.917969 40-40zm-64 0c0-13.253906 10.746094-24 24-24s24 10.746094 24 24c0 13.257812-10.746094 24-24 24s-24-10.742188-24-24zm0 0"/><path d="m104 176.339844h16c4.417969 0 8-3.578125 8-8 0-4.417969-3.582031-8-8-8h-16c-4.417969 0-8 3.582031-8 8 0 4.421875 3.582031 8 8 8zm0 0"/><path d="m376 32.339844c-17.671875 0-32 14.328125-32 32 0 17.675781 14.328125 32 32 32s32-14.324219 32-32c0-17.671875-14.328125-32-32-32zm0 48c-8.835938 0-16-7.160156-16-16 0-8.835938 7.164062-16 16-16s16 7.164062 16 16c0 8.839844-7.164062 16-16 16zm0 0"/><path d="m264 64.339844c-13.253906 0-24 10.746094-24 24 0 13.257812 10.746094 24 24 24s24-10.742188 24-24c0-13.253906-10.746094-24-24-24zm0 32c-4.417969 0-8-3.578125-8-8 0-4.417969 3.582031-8 8-8s8 3.582031 8 8c0 4.421875-3.582031 8-8 8zm0 0"/></svg>