<svg height="480pt" viewBox="0 0 480 480.04334" width="480pt" xmlns="http://www.w3.org/2000/svg"><path d="m275.621094 464.839844-27.574219-13.785156v-19.054688c0-4.417969-3.582031-8-8-8s-8 3.582031-8 8v19.054688l-27.578125 13.785156c-3.953125 1.976562-5.558594 6.78125-3.582031 10.734375 1.972656 3.957031 6.78125 5.5625 10.734375 3.585937l28.425781-14.214844 28.421875 14.253907c3.957031 1.976562 8.761719.371093 10.738281-3.582031 1.972657-3.957032.371094-8.761719-3.585937-10.738282zm0 0" fill="#5a6470"/><path d="m216.046875 360h48v48c0 13.253906-10.746094 24-24 24s-24-10.746094-24-24zm0 0" fill="#cfdfe8"/><path d="m392.046875 152h80l-56-48s0-48-48-48c-80 0-43.777344 83.777344-80 120-24 24-96 32-160 0-31.761719-15.878906-120-56-120-56s18.886719 64 66.886719 96l-66.886719-8c8.066406 20.632812 23.289063 37.667969 42.886719 48h-42.886719c29.632813 24.507812 57.34375 51.253906 82.886719 80 34.710937 39.679688 72.082031 48 144 48 82.472656 0 152-50.144531 152-112 0-12.894531-1.800782-79.199219 5.113281-120zm0 0" fill="#f4f4e6"/><path d="m376.046875 112c0 8.835938-7.164063 16-16 16s-16-7.164062-16-16 7.164063-16 16-16 16 7.164062 16 16zm0 0" fill="#5a6470"/><path d="m416.046875 104-24 48h80zm0 0" fill="#d3843d"/><path d="m408.046875 32h-16c0-8 0-24-24-24s-24 16-24 24h-16c-13.253906 0-24 10.746094-24 24s10.746094 24 24 24c12.925781-.765625 23.234375-11.074219 24-24 4.171875 4.539062 9.863281 7.386719 16 8 6.132813-.613281 11.828125-3.460938 16-8 .761719 12.925781 11.074219 23.234375 24 24 13.253906 0 24-10.746094 24-24s-10.746094-24-24-24zm0 0" fill="#dd3e46"/><path d="m104.046875 240h152c22.089844 0 40 17.910156 40 40v16c0 22.089844-17.910156 40-40 40h-72c-44.183594 0-80-35.816406-80-80zm0 0" fill="#cfdfe8"/><g fill="#5a6470"><path d="m192.046875 280h-80c-4.417969 0-8-3.582031-8-8s3.582031-8 8-8h80c4.417969 0 8 3.582031 8 8s-3.582031 8-8 8zm0 0"/><path d="m240.046875 312h-120c-4.417969 0-8-3.582031-8-8s3.582031-8 8-8h120c4.417969 0 8 3.582031 8 8s-3.582031 8-8 8zm0 0"/><path d="m240.046875 280h-16c-4.417969 0-8-3.582031-8-8s3.582031-8 8-8h16c4.417969 0 8 3.582031 8 8s-3.582031 8-8 8zm0 0"/><path d="m352.046875 272h-16c-4.417969 0-8-3.582031-8-8s3.582031-8 8-8h16c4.417969 0 8 3.582031 8 8s-3.582031 8-8 8zm0 0"/><path d="m344.046875 304h-16c-4.417969 0-8-3.582031-8-8s3.582031-8 8-8h16c4.417969 0 8 3.582031 8 8s-3.582031 8-8 8zm0 0"/></g><path d="m360.046875 136c13.253906 0 24-10.746094 24-24s-10.746094-24-24-24-24 10.746094-24 24 10.746094 24 24 24zm0-32c4.417969 0 8 3.582031 8 8s-3.582031 8-8 8-8-3.582031-8-8 3.582031-8 8-8zm0 0"/><path d="m256.046875 232h-152c-4.417969 0-8 3.582031-8 8v16c0 19.066406 6.234375 37.605469 17.75 52.800781.21875.339844.460937.660157.722656.96875 16.613281 21.570313 42.296875 34.214844 69.527344 34.230469h72c26.496094-.027344 47.972656-21.5 48-48v-16c-.027344-26.5-21.503906-47.972656-48-48zm32 64c0 17.671875-14.328125 32-32 32h-72c-16.441406.003906-32.382813-5.644531-45.152344-16h101.152344c4.417969 0 8-3.582031 8-8s-3.582031-8-8-8h-115.824219c-3.320312-4.980469-6.007812-10.355469-8-16h75.824219c4.417969 0 8-3.582031 8-8s-3.582031-8-8-8h-79.527344c-.308593-2.65625-.464843-5.328125-.472656-8v-8h144c17.671875 0 32 14.328125 32 32zm0 0"/><path d="m240.046875 264h-16c-4.417969 0-8 3.582031-8 8s3.582031 8 8 8h16c4.417969 0 8-3.582031 8-8s-3.582031-8-8-8zm0 0"/><path d="m336.046875 272h16c4.417969 0 8-3.582031 8-8s-3.582031-8-8-8h-16c-4.417969 0-8 3.582031-8 8s3.582031 8 8 8zm0 0"/><path d="m328.046875 304h16c4.417969 0 8-3.582031 8-8s-3.582031-8-8-8h-16c-4.417969 0-8 3.582031-8 8s3.582031 8 8 8zm0 0"/><path d="m282.390625 170.34375c-20.558594 20.566406-87.871094 29.960938-150.769531-1.503906-31.527344-15.761719-119.382813-55.71875-120.261719-56.121094-2.851563-1.292969-6.195313-.808594-8.558594 1.246094-2.363281 2.054687-3.3125 5.296875-2.425781 8.300781 9.875 30.792969 26.488281 59 48.632812 82.574219l-40-4.800782c-2.742187-.316406-5.453124.78125-7.203124 2.914063-1.726563 2.132813-2.242188 5.003906-1.359376 7.605469 5.472657 14.21875 14.089844 27.019531 25.199219 37.441406h-17.597656c-3.394531 0-6.417969 2.140625-7.546875 5.339844-1.125 3.199218-.113281 6.765625 2.53125 8.890625 29.253906 24.238281 56.625 50.660156 81.878906 79.042969 32.734375 37.414062 67.734375 48.070312 123.136719 50.246093v16.480469c.054687 14.546875 9.914063 27.226562 24 30.863281v12.191407l-27.578125 13.785156c-3.953125 1.976562-5.558594 6.78125-3.582031 10.734375 1.972656 3.957031 6.78125 5.5625 10.734375 3.585937l28.425781-14.214844 28.421875 14.253907c3.957031 1.976562 8.761719.371093 10.738281-3.582031 1.972657-3.957032.371094-8.761719-3.585937-10.738282l-27.574219-13.824218v-12.191407c14.085937-3.636719 23.945313-16.316406 24-30.863281v-19.390625c70.351563-12.609375 122.886719-60.035156 122.886719-116.609375 0-1.601562 0-4.054688-.0625-7.199219-.929688-34.984375.410156-69.988281 4-104.800781h73.175781c3.347656 0 6.339844-2.085938 7.5-5.222656 1.164063-3.140625.246094-6.671875-2.292969-8.847656l-53.421875-45.792969c-.519531-5.023438-1.554687-9.976563-3.097656-14.785157 13.898437-6.035156 21.660156-20.992187 18.589844-35.832031-3.066407-14.839843-16.125-25.492187-31.277344-25.519531h-8.585937c-2.503907-15.9375-13.015626-24-31.414063-24-18.402344 0-28.914063 8.0625-31.417969 24h-8.582031c-13.949219-.023438-26.300781 9.003906-30.511719 22.300781-4.210937 13.292969.691406 27.785157 12.109375 35.796875-4.550781 12.148438-7.636719 24.796875-9.191406 37.679688-3.125 19.839844-6.070313 38.574218-18.0625 50.566406zm-26.34375 237.65625c0 8.835938-7.164063 16-16 16s-16-7.164062-16-16v-16.078125c3.558594.046875 7.160156.078125 10.886719.078125 7.199218 0 14.183594-.480469 21.113281-1.167969zm148.941406-264 13.601563-27.257812 31.855468 27.257812zm-76.941406-104h16c4.417969 0 8-3.582031 8-8 0-8.222656 0-16 16-16s16 7.777344 16 16c0 4.417969 3.582031 8 8 8h16c8.835937 0 16 7.164062 16 16s-7.164063 16-16 16c-8.699219-.78125-15.511719-7.824219-16-16.542969-.207031-3.070312-2.15625-5.746093-5.011719-6.890625-2.859375-1.140625-6.117187-.542968-8.382812 1.539063-2.78125 3.089843-6.511719 5.164062-10.605469 5.894531-4.089844-.734375-7.816406-2.808594-10.59375-5.894531-2.265625-2.089844-5.527344-2.695313-8.390625-1.550781-2.863281 1.140624-4.8125 3.824218-5.015625 6.902343-.488281 8.71875-7.300781 15.761719-16 16.542969-8.835937 0-16-7.164062-16-16s7.164063-16 16-16zm0 48c12.351563-.34375 23.445313-7.652344 28.632813-18.871094 7.199218 3.382813 15.535156 3.382813 22.734374 0 4.738282 10.078125 14.25 17.078125 25.28125 18.605469 1.75 4.679687 2.847657 9.582031 3.253907 14.5625l-23.0625 46.128906c-.328125.667969-.558594 1.382813-.6875 2.117188v.121093c-6.175781 36.441407-5.527344 93.03125-5.289063 114.335938l.0625 7c0 56.375-65.941406 104-144 104-68 0-104.09375-6.535156-137.984375-45.273438-20.984375-23.628906-43.433593-45.914062-67.214843-66.726562h21.160156c3.746094.042969 7.019531-2.519531 7.878906-6.167969.855469-3.644531-.929688-7.398437-4.300781-9.03125-13.648438-7.09375-25.015625-17.890625-32.800781-31.152343l52.261718 6.253906c3.679688.445312 7.179688-1.695313 8.460938-5.167969 1.285156-3.476563.015625-7.375-3.066406-9.429687-29.832032-19.890626-48-53.472657-56.945313-73.984376 27.449219 12.558594 79.449219 36.496094 102.039063 47.800782 65.898437 32.941406 142.082031 25.65625 169.234374-1.503906 15.671876-15.671876 19.199219-37.898438 22.550782-59.394532 1.359375-11.835937 4.179687-23.460937 8.390625-34.605468 1.128906.1875 2.265625.316406 3.410156.382812zm0 0"/></svg>