<svg height="480pt" viewBox="0 -24 480.62961 480" width="480pt" xmlns="http://www.w3.org/2000/svg"><path d="m360.007812 312.316406c99.601563 0 112-77.503906 112.617188-111.898437.042969-4.265625-1.625-8.371094-4.632812-11.398438-3.007813-3.023437-7.101563-4.71875-11.367188-4.703125h-96.617188v40h64s-8 48-64 48zm0 0" fill="#9c2d20"/><path d="m417.328125 424.316406h-354.640625c-9.917969.117188-19.574219-3.195312-27.335938-9.378906l-27.34375-22.621094h464l-27.34375 22.621094c-7.757812 6.183594-17.414062 9.496094-27.335937 9.378906zm0 0" fill="#9c2d20"/><path d="m96.007812 136.316406h288v176c0 44.179688-35.816406 80-80 80h-128c-44.179687 0-80-35.820312-80-80zm0 0" fill="#d3843d"/><path d="m128.007812 232.316406c-4.417968 0-8-3.582031-8-8v-56c0-4.417968 3.582032-8 8-8 4.417969 0 8 3.582032 8 8v56c0 4.417969-3.582031 8-8 8zm0 0" fill="#ffd782"/><path d="m128.007812 328.316406c-4.417968 0-8-3.582031-8-8v-64c0-4.417968 3.582032-8 8-8 4.417969 0 8 3.582032 8 8v64c0 4.417969-3.582031 8-8 8zm0 0" fill="#ffd782"/><g fill="#e97424"><path d="m248.007812 112.316406c-4.417968 0-8-3.582031-8-8 0-1.691406-.796874-2.578125-4.796874-5.601562-6.632813-3.816406-10.855469-10.757813-11.203126-18.398438.347657-7.644531 4.570313-14.582031 11.203126-18.402344 4-3.03125 4.796874-3.917968 4.796874-5.597656 0-1.679687-.796874-2.578125-4.796874-5.601562-6.632813-3.816406-10.855469-10.757813-11.203126-18.398438.347657-7.644531 4.570313-14.582031 11.203126-18.402344 4-3.023437 4.796874-3.910156 4.796874-5.597656 0-4.417968 3.582032-8 8-8 4.417969 0 8 3.582032 8 8-.34375 7.640625-4.566406 14.582032-11.199218 18.398438-4 3.023437-4.800782 3.910156-4.800782 5.601562 0 1.6875.800782 2.566406 4.800782 5.597656 6.632812 3.820313 10.855468 10.757813 11.199218 18.402344-.34375 7.640625-4.566406 14.582032-11.199218 18.398438-4.039063 3.03125-4.800782 3.929687-4.800782 5.601562s.800782 2.566406 4.800782 5.597656c6.632812 3.820313 10.855468 10.757813 11.199218 18.402344 0 4.417969-3.582031 8-8 8zm0 0"/><path d="m296.007812 112.316406c-4.417968 0-8-3.582031-8-8 0-1.691406-.796874-2.578125-4.796874-5.601562-6.632813-3.816406-10.855469-10.757813-11.203126-18.398438.347657-7.644531 4.570313-14.582031 11.203126-18.402344 4.039062-3.03125 4.796874-3.917968 4.796874-5.597656 0-1.679687-.796874-2.578125-4.796874-5.601562-6.632813-3.816406-10.855469-10.757813-11.203126-18.398438.347657-7.644531 4.570313-14.582031 11.203126-18.402344 4-3.023437 4.796874-3.910156 4.796874-5.597656 0-4.417968 3.582032-8 8-8 4.417969 0 8 3.582032 8 8-.34375 7.640625-4.566406 14.582032-11.199218 18.398438-4 3.023437-4.800782 3.910156-4.800782 5.601562 0 1.6875.800782 2.566406 4.800782 5.597656 6.632812 3.820313 10.855468 10.757813 11.199218 18.402344-.34375 7.640625-4.566406 14.582032-11.199218 18.398438-4.039063 3.03125-4.800782 3.929687-4.800782 5.601562s.800782 2.566406 4.800782 5.597656c6.632812 3.820313 10.855468 10.757813 11.199218 18.402344 0 4.417969-3.582031 8-8 8zm0 0"/><path d="m200.007812 112.316406c-4.417968 0-8-3.582031-8-8 0-1.691406-.796874-2.578125-4.796874-5.601562-6.632813-3.816406-10.855469-10.757813-11.203126-18.398438.347657-7.644531 4.570313-14.582031 11.203126-18.402344 4-3.03125 4.796874-3.917968 4.796874-5.597656 0-1.679687-.796874-2.578125-4.796874-5.601562-6.632813-3.816406-10.855469-10.757813-11.203126-18.398438.347657-7.644531 4.570313-14.582031 11.203126-18.402344 4-3.023437 4.796874-3.910156 4.796874-5.597656 0-4.417968 3.582032-8 8-8 4.417969 0 8 3.582032 8 8-.34375 7.640625-4.566406 14.582032-11.199218 18.398438-4 3.023437-4.800782 3.910156-4.800782 5.601562 0 1.6875.800782 2.566406 4.800782 5.597656 6.632812 3.820313 10.855468 10.757813 11.199218 18.402344-.34375 7.640625-4.566406 14.582032-11.199218 18.398438-4 3.03125-4.800782 3.929687-4.800782 5.601562s.800782 2.566406 4.800782 5.597656c6.632812 3.820313 10.855468 10.757813 11.199218 18.402344 0 4.417969-3.582031 8-8 8zm0 0"/></g><path d="m391.761719 317.226562c78.246093-15.3125 88.328125-86.175781 88.863281-116.664062.121094-6.371094-2.335938-12.515625-6.816406-17.046875-4.519532-4.625-10.71875-7.222656-17.183594-7.199219h-64.617188v-40c0-4.417968-3.582031-8-8-8h-288c-4.417968 0-8 3.582032-8 8v176c.03125 28.695313 14.070313 55.574219 37.601563 72h-117.601563c-3.375-.003906-6.390624 2.109375-7.535156 5.285156-1.144531 3.179688-.171875 6.730469 2.433594 8.882813l27.34375 22.628906c9.1875 7.382813 20.65625 11.339844 32.4375 11.203125h354.640625c11.785156.136719 23.253906-3.820312 32.441406-11.203125l27.34375-22.621093c2.609375-2.148438 3.585938-5.707032 2.441407-8.886719-1.144532-3.179688-4.164063-5.296875-7.546876-5.289063h-117.558593c22.058593-15.464844 35.808593-40.191406 37.3125-67.089844zm64.863281-124.910156c2.167969-.015625 4.25.851563 5.769531 2.398438 1.460938 1.472656 2.269531 3.476562 2.230469 5.550781-.566406 32.3125-11.113281 86.746094-72.617188 100.640625v-26.566406c20.457032-8.742188 35.351563-26.925782 39.890626-48.703125.386718-2.320313-.265626-4.695313-1.785157-6.488281-1.519531-1.796876-3.75-2.832032-6.105469-2.832032h-32v-24zm-64.617188 64.140625v-24.140625h21.097657c-4.296875 10.078125-11.683594 18.53125-21.097657 24.140625zm57.792969 143.859375-10.238281 8.460938c-6.332031 4.984375-14.179688 7.644531-22.234375 7.539062h-354.640625c-8.054688.105469-15.898438-2.554687-22.230469-7.539062l-10.238281-8.460938zm-145.792969-16h-128c-39.746093-.046875-71.953124-32.253906-72-72v-168h272v168c-.042968 39.746094-32.253906 71.953125-72 72zm0 0"/><path d="m128.007812 160.316406c-4.417968 0-8 3.582032-8 8v56c0 4.417969 3.582032 8 8 8 4.417969 0 8-3.582031 8-8v-56c0-4.417968-3.582031-8-8-8zm0 0"/><path d="m128.007812 248.316406c-4.417968 0-8 3.582032-8 8v64c0 4.417969 3.582032 8 8 8 4.417969 0 8-3.582031 8-8v-64c0-4.417968-3.582031-8-8-8zm0 0"/><path d="m235.210938 61.914062c-6.632813 3.820313-10.855469 10.757813-11.203126 18.402344.347657 7.640625 4.570313 14.582032 11.203126 18.398438 4 3.03125 4.796874 3.921875 4.796874 5.601562 0 4.417969 3.582032 8 8 8 4.417969 0 8-3.582031 8-8-.34375-7.644531-4.566406-14.582031-11.199218-18.402344-4-3.03125-4.800782-3.917968-4.800782-5.597656 0-1.679687.800782-2.585937 4.800782-5.601562 6.632812-3.816406 10.855468-10.757813 11.199218-18.398438-.34375-7.644531-4.566406-14.582031-11.199218-18.402344-4-3.023437-4.800782-3.910156-4.800782-5.597656 0-1.691406.800782-2.5625 4.800782-5.601562 6.632812-3.816406 10.855468-10.757813 11.199218-18.398438 0-4.417968-3.582031-8-8-8-4.417968 0-8 3.582032-8 8 0 1.671875-.796874 2.558594-4.796874 5.597656-6.632813 3.820313-10.855469 10.757813-11.203126 18.402344.347657 7.640625 4.570313 14.582032 11.203126 18.398438 4 3.03125 4.796874 3.921875 4.796874 5.601562 0 1.679688-.796874 2.550782-4.796874 5.597656zm0 0"/><path d="m283.210938 61.914062c-6.632813 3.820313-10.855469 10.757813-11.203126 18.402344.347657 7.640625 4.570313 14.582032 11.203126 18.398438 4.039062 3.03125 4.796874 3.921875 4.796874 5.601562 0 4.417969 3.582032 8 8 8 4.417969 0 8-3.582031 8-8-.34375-7.644531-4.566406-14.582031-11.199218-18.402344-4-3.03125-4.800782-3.917968-4.800782-5.597656 0-1.679687.800782-2.585937 4.800782-5.601562 6.632812-3.816406 10.855468-10.757813 11.199218-18.398438-.34375-7.644531-4.566406-14.582031-11.199218-18.402344-4-3.023437-4.800782-3.910156-4.800782-5.597656 0-1.691406.800782-2.5625 4.800782-5.601562 6.632812-3.816406 10.855468-10.757813 11.199218-18.398438 0-4.417968-3.582031-8-8-8-4.417968 0-8 3.582032-8 8 0 1.671875-.796874 2.558594-4.796874 5.597656-6.632813 3.820313-10.855469 10.757813-11.203126 18.402344.347657 7.640625 4.570313 14.582032 11.203126 18.398438 4 3.03125 4.796874 3.921875 4.796874 5.601562 0 1.679688-.796874 2.550782-4.796874 5.597656zm0 0"/><path d="m187.210938 61.914062c-6.632813 3.820313-10.855469 10.757813-11.203126 18.402344.347657 7.640625 4.570313 14.582032 11.203126 18.398438 4 3.03125 4.796874 3.921875 4.796874 5.601562 0 4.417969 3.582032 8 8 8 4.417969 0 8-3.582031 8-8-.34375-7.644531-4.566406-14.582031-11.199218-18.402344-4-3.03125-4.800782-3.917968-4.800782-5.597656 0-1.679687.800782-2.585937 4.800782-5.601562 6.632812-3.816406 10.855468-10.757813 11.199218-18.398438-.34375-7.644531-4.566406-14.582031-11.199218-18.402344-4-3.023437-4.800782-3.910156-4.800782-5.597656 0-1.691406.800782-2.5625 4.800782-5.601562 6.632812-3.816406 10.855468-10.757813 11.199218-18.398438 0-4.417968-3.582031-8-8-8-4.417968 0-8 3.582032-8 8 0 1.671875-.796874 2.558594-4.796874 5.597656-6.632813 3.820313-10.855469 10.757813-11.203126 18.402344.347657 7.640625 4.570313 14.582032 11.203126 18.398438 4 3.03125 4.796874 3.921875 4.796874 5.601562 0 1.679688-.796874 2.550782-4.796874 5.597656zm0 0"/></svg>