<svg height="480pt" viewBox="-83 0 480 480" width="480pt" xmlns="http://www.w3.org/2000/svg"><path d="m130.800781 400h48v56c0 8.835938-7.164062 16-16 16h-16c-8.835937 0-16-7.164062-16-16zm0 0" fill="#55b56a"/><path d="m258.800781 216c0 100.480469-35.597656 184.320312-82.960937 203.679688-.039063.046874-.097656.074218-.15625.082031-6.613282 2.78125-13.710938 4.222656-20.882813 4.238281-5.828125 0-11.613281-.972656-17.117187-2.878906-17.363282-8.640625-36.320313-28.082032-54.640625-54.722656-19.921875-37.839844-32.242188-91.199219-32.242188-150.398438-.121093-31.070312 3.507813-62.039062 10.800781-92.238281 16.960938-68.640625 52.320313-115.761719 93.199219-115.761719 57.441407 0 104 93.121094 104 208zm0 0" fill="#fcf05a"/><path d="m306.394531 96c-20.058593 8.597656-39.371093 18.847656-57.738281 30.640625 6.84375 29.289063 10.246094 59.28125 10.144531 89.359375 0 114.871094-46.558593 208-104 208-2.734375 0-3.917969.542969-4 1.457031 35.609375 8.855469 86.402344-51.921875 123.449219-137.511719 38.632812-89.21875 32.144531-191.945312 32.144531-191.945312zm0 0" fill="#c8d952"/><g fill="#e97424"><path d="m106.800781 80h-24c-4.417969 0-8-3.582031-8-8s3.582031-8 8-8h24c4.417969 0 8 3.582031 8 8s-3.582031 8-8 8zm0 0"/><path d="m226.800781 80h-24c-4.417969 0-8-3.582031-8-8s3.582031-8 8-8h24c4.417969 0 8 3.582031 8 8s-3.582031 8-8 8zm0 0"/><path d="m162.800781 48h-16c-4.417969 0-8-3.582031-8-8s3.582031-8 8-8h16c4.417969 0 8 3.582031 8 8s-3.582031 8-8 8zm0 0"/><path d="m130.800781 112h-24c-4.417969 0-8-3.582031-8-8s3.582031-8 8-8h24c4.417969 0 8 3.582031 8 8s-3.582031 8-8 8zm0 0"/><path d="m202.800781 112h-24c-4.417969 0-8-3.582031-8-8s3.582031-8 8-8h24c4.417969 0 8 3.582031 8 8s-3.582031 8-8 8zm0 0"/><path d="m146.800781 176h-24c-4.417969 0-8-3.582031-8-8s3.582031-8 8-8h24c4.417969 0 8 3.582031 8 8s-3.582031 8-8 8zm0 0"/><path d="m218.800781 176h-24c-4.417969 0-8-3.582031-8-8s3.582031-8 8-8h24c4.417969 0 8 3.582031 8 8s-3.582031 8-8 8zm0 0"/><path d="m178.800781 208h-24c-4.417969 0-8-3.582031-8-8s3.582031-8 8-8h24c4.417969 0 8 3.582031 8 8s-3.582031 8-8 8zm0 0"/><path d="m250.800781 208h-24c-4.417969 0-8-3.582031-8-8s3.582031-8 8-8h24c4.417969 0 8 3.582031 8 8s-3.582031 8-8 8zm0 0"/><path d="m218.800781 240h-24c-4.417969 0-8-3.582031-8-8s3.582031-8 8-8h24c4.417969 0 8 3.582031 8 8s-3.582031 8-8 8zm0 0"/><path d="m250.800781 272h-24c-4.417969 0-8-3.582031-8-8s3.582031-8 8-8h24c4.417969 0 8 3.582031 8 8s-3.582031 8-8 8zm0 0"/><path d="m226.800781 304h-24c-4.417969 0-8-3.582031-8-8s3.582031-8 8-8h24c4.417969 0 8 3.582031 8 8s-3.582031 8-8 8zm0 0"/><path d="m170.800781 80h-32c-4.417969 0-8-3.582031-8-8s3.582031-8 8-8h32c4.417969 0 8 3.582031 8 8s-3.582031 8-8 8zm0 0"/><path d="m106.800781 144h-24c-4.417969 0-8-3.582031-8-8s3.582031-8 8-8h24c4.417969 0 8 3.582031 8 8s-3.582031 8-8 8zm0 0"/><path d="m226.800781 144h-24c-4.417969 0-8-3.582031-8-8s3.582031-8 8-8h24c4.417969 0 8 3.582031 8 8s-3.582031 8-8 8zm0 0"/><path d="m170.800781 144h-32c-4.417969 0-8-3.582031-8-8s3.582031-8 8-8h32c4.417969 0 8 3.582031 8 8s-3.582031 8-8 8zm0 0"/></g><path d="m175.839844 419.679688c-.039063.046874-.097656.074218-.15625.082031-2.214844 1.707031-4.632813 3.132812-7.203125 4.238281-10.164063 3.824219-21.519531 2.765625-30.796875-2.878906-17.363282-8.640625-36.320313-28.082032-54.640625-54.722656-16.613281-24.757813-30.835938-51.035157-42.480469-78.476563-38.5625-89.203125-32.082031-191.921875-32.082031-191.921875 18.394531 7.875 36.152343 17.15625 53.121093 27.761719 38.398438 23.597656 87.921876 62.398437 114.878907 116.238281 40.320312 80.71875 29.601562 156.878906-.640625 179.679688zm0 0" fill="#c8d952"/><path d="m154.800781 424c-.65625 0-1.3125-.082031-1.949219-.238281-4.242187-1.070313-6.839843-5.34375-5.832031-9.601563.230469-1.03125 13.160157-64.152344-71.058593-201.953125-2.300782-3.773437-1.109376-8.695312 2.664062-11 3.773438-2.300781 8.699219-1.109375 11 2.664063 88.722656 145.183594 73.601562 211.359375 72.929688 214.105468-.902344 3.542969-4.097657 6.023438-7.753907 6.023438zm0 0" fill="#fcf05a"/><path d="m310.65625 89.230469c-2.164062-1.375-4.859375-1.621094-7.238281-.65625-17.085938 7.273437-33.621094 15.773437-49.480469 25.433593-18.589844-68.367187-55.582031-114.007812-99.136719-114.007812-41.480469 0-78.613281 42.464844-98.144531 111.335938-14.542969-8.601563-29.65625-16.207032-45.230469-22.769532-2.382812-.953125-5.078125-.707031-7.25.664063-2.171875 1.375-3.550781 3.703125-3.710937 6.265625-.261719 4.273437-6.160156 105.679687 32.800781 195.632812 23.9375 55.414063 56.886719 107.269532 89.535156 130.472656v34.398438c0 13.253906 10.746094 24 24 24h16c13.253907 0 24-10.746094 24-24v-31.3125c34.59375-21.472656 70.050781-76.320312 94.824219-133.597656 38.914062-89.945313 33.015625-191.355469 32.753906-195.625-.171875-2.554688-1.554687-4.871094-3.722656-6.234375zm-225.75-9.230469h21.894531c4.417969 0 8-3.582031 8-8s-3.582031-8-8-8h-13.726562c17.191406-30.214844 39.113281-48 61.726562-48 23.199219 0 44.800781 18.230469 61.601563 48h-13.601563c-4.417969 0-8 3.582031-8 8s3.582031 8 8 8h21.648438c7.660156 17.347656 13.542969 35.425781 17.550781 53.960938.800781 3.734374 1.601562 7.488281 2.320312 11.285156.535157 2.765625 1.023438 5.546875 1.464844 8.355468.800782 4.917969 1.527344 9.878907 2.136719 14.886719.21875 1.777344.421875 3.558594.609375 5.351563.621094 5.808594 1.125 11.664062 1.476562 17.601562v.582032h-23.207031c-4.417969 0-8 3.582031-8 8 0 4.417968 3.582031 8 8 8h23.777344c.054687 2.671874.222656 5.3125.222656 8 .003907 13.359374-.671875 26.710937-2.023437 40h-21.976563c-4.417969 0-8 3.582031-8 8 0 4.417968 3.582031 8 8 8h20c-6.765625 46.585937-21.6875 86.601562-41.128906 112.542968 6.375-26.433594 6.761719-53.960937 1.128906-80.566406h20c4.417969 0 8-3.582031 8-8s-3.582031-8-8-8h-23.640625c-4.722656-17.820312-11.277344-35.105469-19.558594-51.574219-4.972656-9.878906-10.660156-19.378906-17.015624-28.425781h12.214843c4.417969 0 8-3.582031 8-8s-3.582031-8-8-8h-24c-.109375 0-.199219.054688-.3125.0625-4.582031-5.597656-9.351562-10.933594-14.246093-16.0625h6.558593c4.417969 0 8-3.582031 8-8s-3.582031-8-8-8h-22.96875c-6.269531-5.679688-12.621093-11-18.964843-16h1.933593c4.417969 0 8-3.582031 8-8s-3.582031-8-8-8h-23.742187c-4.144532-2.832031-8.210938-5.5-12.199219-8 3.589844-13.691406 8.289063-27.070312 14.046875-40zm-36.992188 204.800781c-29.886718-69.066406-32.136718-147.480469-31.808593-176.59375 29.960937 14.152344 115.375 59.769531 153.191406 135.402344 30.351563 60.695313 29.503906 114.34375 18.585937 144.300781-3.054687 9.558594-8.617187 18.125-16.105468 24.800782-2.8125 1.105468-5.726563 1.945312-8.695313 2.511718 2.152344-14.015625 6.398438-80.65625-73.449219-211.335937-2.300781-3.773438-7.226562-4.964844-11-2.664063-3.773437 2.304688-4.964843 7.226563-2.664062 11 84.21875 137.800782 71.289062 200.921875 71.058594 201.953125-.167969.828125-.203125 1.679688-.097656 2.519531-29.113282-9.894531-68.191407-60.695312-99.015626-131.894531zm122.886719 171.199219c0 4.417969-3.582031 8-8 8h-16c-4.417969 0-8-3.582031-8-8v-25.414062c5.640625 2.425781 11.695313 3.742187 17.832031 3.871093 2.554688-.007812 5.101563-.273437 7.601563-.800781 2.222656-.355469 4.417969-.867188 6.566406-1.527344zm96.136719-171.199219c-3.289062 7.582031-6.675781 14.941407-10.152344 22.078125.082032-.359375.136719-.75.222656-1.117187 1.425782-6.160157 2.703126-12.480469 3.832032-18.953125.128906-.738282.257812-1.472656.378906-2.207032 1.101562-6.53125 2.042969-13.195312 2.824219-20l.238281-2.058593c.769531-7.011719 1.363281-14.160157 1.785156-21.445313 0-.488281.0625-.960937.085938-1.449218.433594-7.765626.648437-15.648438.648437-23.648438.113281-28.804688-2.859375-57.539062-8.863281-85.710938 13.183594-8.121093 26.804688-15.507812 40.800781-22.128906.335938 29.097656-1.914062 107.527344-31.800781 176.640625zm0 0"/><path d="m146.800781 48h16c4.417969 0 8-3.582031 8-8s-3.582031-8-8-8h-16c-4.417969 0-8 3.582031-8 8s3.582031 8 8 8zm0 0"/><path d="m106.800781 112h24c4.417969 0 8-3.582031 8-8s-3.582031-8-8-8h-24c-4.417969 0-8 3.582031-8 8s3.582031 8 8 8zm0 0"/><path d="m170.800781 104c0 4.417969 3.582031 8 8 8h24c4.417969 0 8-3.582031 8-8s-3.582031-8-8-8h-24c-4.417969 0-8 3.582031-8 8zm0 0"/><path d="m218.800781 160h-24c-4.417969 0-8 3.582031-8 8s3.582031 8 8 8h24c4.417969 0 8-3.582031 8-8s-3.582031-8-8-8zm0 0"/><path d="m194.800781 224c-4.417969 0-8 3.582031-8 8s3.582031 8 8 8h24c4.417969 0 8-3.582031 8-8s-3.582031-8-8-8zm0 0"/><path d="m138.800781 80h32c4.417969 0 8-3.582031 8-8s-3.582031-8-8-8h-32c-4.417969 0-8 3.582031-8 8s3.582031 8 8 8zm0 0"/><path d="m194.800781 136c0 4.417969 3.582031 8 8 8h24c4.417969 0 8-3.582031 8-8s-3.582031-8-8-8h-24c-4.417969 0-8 3.582031-8 8zm0 0"/><path d="m170.800781 128h-32c-4.417969 0-8 3.582031-8 8s3.582031 8 8 8h32c4.417969 0 8-3.582031 8-8s-3.582031-8-8-8zm0 0"/></svg>