<svg height="480pt" viewBox="0 0 480 480.00362" width="480pt" xmlns="http://www.w3.org/2000/svg"><path d="m348.449219 184.003906h59.550781c35.347656 0 64-28.652344 64-64h-120zm0 0" fill="#cfdfe8"/><path d="m128 120.003906h-120c0 35.347656 28.65625 64 64 64h59.457031zm0 0" fill="#cfdfe8"/><path d="m104 160.003906h-32c-4.417969 0-8-3.582031-8-8 0-4.417968 3.582031-8 8-8h32c4.421875 0 8 3.582032 8 8 0 4.417969-3.578125 8-8 8zm0 0" fill="#5a6470"/><path d="m408 160.003906h-32c-4.417969 0-8-3.582031-8-8 0-4.417968 3.582031-8 8-8h32c4.421875 0 8 3.582032 8 8 0 4.417969-3.578125 8-8 8zm0 0" fill="#5a6470"/><path d="m72 8.003906s9.601562 64 33.601562 88l-1.601562-32h56c-18.757812-31.597656-51.429688-52.390625-88-56zm0 0" fill="#cfdfe8"/><path d="m408 8.003906s-9.222656 64-33.222656 88l1.222656-32h-56c18.761719-31.597656 51.433594-52.390625 88-56zm0 0" fill="#cfdfe8"/><path d="m360 368.003906h-240l-16-304h272.425781zm0 0" fill="#aabece"/><path d="m374.777344 93.605469c-46.535156-1.082031-95.183594 41.597656-110.777344 98.398437-17.535156 63.910156 12.875 129.976563 64 144 10.863281 2.902344 22.242188 3.292969 33.273438 1.136719zm0 0" fill="#7d8d9c"/><path d="m217.929688 192.003906c-15.769532-57.464844-65.320313-100.390625-112.328126-98.296875l13.144532 243.097657c11.628906 2.558593 23.699218 2.28125 35.199218-.800782 51.113282-14.023437 81.519532-80.089844 63.984376-144zm0 0" fill="#7d8d9c"/><path d="m120 368.003906h240c26.511719 0 48 21.488282 48 48v8c0 26.507813-21.488281 48-48 48h-240c-26.507812 0-48-21.492187-48-48v-8c0-26.511718 21.492188-48 48-48zm0 0" fill="#5a6470"/><path d="m168 216.003906h-24c-4.417969 0-8-3.582031-8-8 0-4.417968 3.582031-8 8-8h24c4.421875 0 8 3.582032 8 8 0 4.417969-3.578125 8-8 8zm0 0" fill="#f4f4e6"/><path d="m336 216.003906h-24c-4.417969 0-8-3.582031-8-8 0-4.417968 3.582031-8 8-8h24c4.421875 0 8 3.582032 8 8 0 4.417969-3.578125 8-8 8zm0 0" fill="#f4f4e6"/><path d="m216 420.003906c0 11.046875-8.953125 20-20 20-11.042969 0-20-8.953125-20-20s8.957031-20 20-20c11.046875 0 20 8.953125 20 20zm0 0" fill="#cfdfe8"/><path d="m304 420.003906c0 11.046875-8.953125 20-20 20-11.042969 0-20-8.953125-20-20s8.957031-20 20-20c11.046875 0 20 8.953125 20 20zm0 0" fill="#cfdfe8"/><path d="m144 216.003906h24c4.421875 0 8-3.582031 8-8 0-4.417968-3.578125-8-8-8h-24c-4.417969 0-8 3.582032-8 8 0 4.417969 3.582031 8 8 8zm0 0"/><path d="m304 208.003906c0 4.417969 3.582031 8 8 8h24c4.421875 0 8-3.582031 8-8 0-4.417968-3.578125-8-8-8h-24c-4.417969 0-8 3.582032-8 8zm0 0"/><path d="m196 392.003906c-15.460938 0-28 12.535156-28 28s12.539062 28 28 28c15.464844 0 28-12.535156 28-28s-12.535156-28-28-28zm0 40c-6.625 0-12-5.371094-12-12s5.375-12 12-12c6.628906 0 12 5.371094 12 12s-5.371094 12-12 12zm0 0"/><path d="m284 392.003906c-15.460938 0-28 12.535156-28 28s12.539062 28 28 28c15.464844 0 28-12.535156 28-28s-12.535156-28-28-28zm0 40c-6.625 0-12-5.371094-12-12s5.375-12 12-12c6.628906 0 12 5.371094 12 12s-5.371094 12-12 12zm0 0"/><path d="m472 112.003906h-90.15625l.6875-12.71875c24-26.90625 33.007812-87.496094 33.390625-90.136718.359375-2.472657-.457031-4.96875-2.207031-6.753907-1.742188-1.789062-4.226563-2.652343-6.703125-2.3281248-37.429688 3.8281248-71.113281 24.3945318-91.617188 55.9374998h-150.785156c-20.503906-31.542968-54.1875-52.109375-91.617187-55.9374998-2.480469-.3085942-4.964844.5585938-6.714844 2.3515628-1.746094 1.789062-2.558594 4.292969-2.1875 6.769531.398437 2.648438 9.785156 63.199219 33.761718 90.089844l.664063 12.726562h-90.515625c-4.417969 0-8 3.582032-8 8 .0507812 39.742188 32.257812 71.953125 72 72h30.730469l8.878906 168.695313c-27.339844 4.160156-47.558594 27.648437-47.609375 55.304687v8c.035156 30.914063 25.089844 55.964844 56 56h240c30.914062-.035156 55.964844-25.085937 56-56v-8c-.03125-27.65625-20.25-51.144531-47.589844-55.296875l9.113282-168.703125h30.476562c39.746094-.046875 71.953125-32.257812 72-72 0-4.417968-3.578125-8-8-8zm-357.941406-10.183594c41.136718 2.992188 82.3125 41.847657 96.152344 92.304688 8 28.253906 5.9375 58.410156-5.832032 85.3125-9.386718 23.289062-28.652344 41.195312-52.570312 48.855469-8.277344 2.230469-16.917969 2.796875-25.414063 1.664062zm21.03125 244.695313c7.078125.011719 14.125-.929687 20.953125-2.800781 28.53125-8.902344 51.605469-30.0625 62.933593-57.71875 13.289063-30.300782 15.640626-64.269532 6.664063-96.113282-15.78125-57.527343-64.199219-101.671874-112.480469-104.078124l-.726562-13.800782h255.257812l-.539062 13.902344c-47.597656 3.5625-95.351563 47.433594-110.863282 104-8.976562 31.84375-6.621093 65.816406 6.664063 96.113281 11.328125 27.65625 34.398437 48.816407 62.929687 57.71875 6.808594 1.863281 13.835938 2.800781 20.894532 2.785157 2.113281 0 4.25-.136719 6.402344-.304688l-.753907 13.785156h-224.800781l-.734375-13.929687c2.710937.273437 5.480469.441406 8.199219.441406zm218.558594-16.359375c-7.890626.832031-15.867188.203125-23.527344-1.863281-23.917969-7.660157-43.183594-25.566407-52.574219-48.855469-11.765625-26.90625-13.828125-57.058594-5.832031-85.3125 13.597656-49.519531 54.054687-88.289062 94.589844-92.210938zm44.496093-312.375c-3.074219 16.25-7.6875 32.171875-13.78125 47.550781l.046875-.894531c.117188-2.199219-.671875-4.34375-2.183594-5.941406-1.515624-1.59375-3.617187-2.496094-5.816406-2.492188h-41.359375c16-19.632812 38.285157-33.132812 63.09375-38.222656zm-302.070312 47.902344c-6.226563-15.480469-10.964844-31.523438-14.144531-47.902344 24.847656 5.011719 47.171874 18.527344 63.128906 38.222656h-41.058594c-2.195312 0-4.296875.902344-5.804688 2.496094-.65625.851562-1.222656 1.769531-1.699218 2.734375-.269532 1.046875-.433594 2.121094-.484375 3.203125v.253906zm-24.074219 110.320312c-27.824219-.035156-51.417969-20.464844-55.429688-48h82.792969l.839844 16h-28.203125c-4.417969 0-8 3.582032-8 8 0 4.417969 3.582031 8 8 8h29.042969l.847656 16zm328 240v8c-.023438 22.082032-17.917969 39.972656-40 40h-240c-22.078125-.027344-39.972656-17.917968-40-40v-8c.027344-22.082031 17.921875-39.972656 40-40h240c22.082031.027344 39.976562 17.917969 40 40zm8-240h-29.597656l.863281-16h28.734375c4.421875 0 8-3.582031 8-8 0-4.417968-3.578125-8-8-8h-27.886719l.863281-16h82.457032c-4.011719 27.535156-27.605469 47.964844-55.433594 48zm0 0"/></svg>