<svg height="480pt" viewBox="0 -72 480 480" width="480pt" xmlns="http://www.w3.org/2000/svg"><path d="m176 8c-35.34375 0-64 39.398438-64 88-.433594 22.960938 6.648438 45.4375 20.167969 64h87.664062c13.519531-18.5625 20.601563-41.039062 20.167969-64 0-48.601562-28.65625-88-64-88zm0 0" fill="#f9be58"/><path d="m347.832031 160c13.519531-18.5625 20.601563-41.039062 20.167969-64 0-48.601562-28.65625-88-64-88s-64 39.398438-64 88c-.433594 22.960938 6.648438 45.4375 20.167969 64zm0 0" fill="#f9be58"/><path d="m306.785156 192h-258.785156l14.96875 121.953125c.984375 8.019531 7.796875 14.046875 15.878906 14.046875h71.863282c8.082031 0 14.894531-6.027344 15.882812-14.046875l10.796875-87.953125 10.800781 87.953125c.988282 8.019531 7.800782 14.046875 15.878906 14.046875h71.859376c8.078124 0 14.890624-6.027344 15.878906-14.046875l10.800781-87.953125 10.796875 87.953125c.988281 8.019531 7.800781 14.046875 15.882812 14.046875h71.863282c8.082031 0 14.894531-6.027344 15.878906-14.046875l14.96875-121.953125zm0 0" fill="#d3843d"/><path d="m24 160h432c8.835938 0 16 7.164062 16 16s-7.164062 16-16 16h-432c-8.835938 0-16-7.164062-16-16s7.164062-16 16-16zm0 0" fill="#5a6470"/><g fill="#ffd782"><path d="m112 56c-35.34375 0-64 39.398438-64 88 .015625 5.351562.382812 10.695312 1.105469 16h125.789062c.722657-5.304688 1.089844-10.648438 1.105469-16 0-48.601562-28.65625-88-64-88zm0 0"/><path d="m240 56c-35.34375 0-64 39.398438-64 88 .015625 5.351562.382812 10.695312 1.105469 16h125.789062c.722657-5.304688 1.089844-10.648438 1.105469-16 0-48.601562-28.65625-88-64-88zm0 0"/><path d="m368 56c-35.34375 0-64 39.398438-64 88 .015625 5.351562.382812 10.695312 1.105469 16h125.789062c.722657-5.304688 1.089844-10.648438 1.105469-16 0-48.601562-28.65625-88-64-88zm0 0"/><path d="m112 256h-56c-4.417969 0-8-3.582031-8-8s3.582031-8 8-8h56c4.417969 0 8 3.582031 8 8s-3.582031 8-8 8zm0 0"/><path d="m136 288h-72c-4.417969 0-8-3.582031-8-8s3.582031-8 8-8h72c4.417969 0 8 3.582031 8 8s-3.582031 8-8 8zm0 0"/><path d="m416 272h-56c-4.417969 0-8-3.582031-8-8s3.582031-8 8-8h56c4.417969 0 8 3.582031 8 8s-3.582031 8-8 8zm0 0"/><path d="m416 304h-72c-4.417969 0-8-3.582031-8-8s3.582031-8 8-8h72c4.417969 0 8 3.582031 8 8s-3.582031 8-8 8zm0 0"/></g><path d="m80 136c-4.417969 0-8-3.582031-8-8 0-37.335938 28.265625-47.199219 29.472656-47.59375 4.195313-1.414062 8.746094.839844 10.164063 5.039062 1.414062 4.195313-.839844 8.746094-5.035157 10.164063-.90625.277344-18.601562 7-18.601562 32.390625 0 4.417969-3.582031 8-8 8zm0 0" fill="#d3843d"/><path d="m208 136c-4.417969 0-8-3.582031-8-8 0-37.335938 28.265625-47.199219 29.472656-47.59375 4.195313-1.414062 8.746094.839844 10.164063 5.039062 1.414062 4.195313-.839844 8.746094-5.035157 10.164063-.90625.277344-18.601562 7-18.601562 32.390625 0 4.417969-3.582031 8-8 8zm0 0" fill="#d3843d"/><path d="m336 136c-4.417969 0-8-3.582031-8-8 0-37.335938 28.265625-47.199219 29.472656-47.59375 4.195313-1.414062 8.746094.839844 10.164063 5.039062 1.414062 4.195313-.839844 8.746094-5.035157 10.164063-.90625.277344-18.601562 7-18.601562 32.390625 0 4.417969-3.582031 8-8 8zm0 0" fill="#d3843d"/><path d="m456 152h-16.28125c.175781-2.695312.28125-5.351562.28125-8 0-52.9375-32.304688-96-72-96-.527344 0-1.03125.089844-1.601562.105469-12.742188-29.792969-36.300782-48.105469-62.398438-48.105469s-49.664062 18.296875-62.457031 48.105469c-.519531 0-1.023438-.105469-1.542969-.105469s-1.023438.089844-1.535156.105469c-12.792969-29.816407-36.3125-48.105469-62.464844-48.105469s-49.664062 18.296875-62.457031 48.105469c-.519531 0-1.023438-.105469-1.542969-.105469-39.695312 0-72 43.0625-72 96 0 2.648438.105469 5.304688.28125 8h-16.28125c-13.253906 0-24 10.746094-24 24s10.746094 24 24 24h16.921875l14.109375 114.921875c1.476562 12.03125 11.691406 21.074219 23.816406 21.078125h71.863282c12.125 0 22.347656-9.039062 23.824218-21.070312l2.855469-23.273438 2.855469 23.265625c1.476562 12.035156 11.699218 21.078125 23.824218 21.078125h71.859376c12.121093 0 22.34375-9.039062 23.824218-21.070312l2.855469-23.273438 2.855469 23.265625c1.472656 12.035156 11.695312 21.078125 23.824218 21.078125h71.863282c12.121094-.003906 22.335937-9.042969 23.816406-21.070312l14.109375-114.929688h16.921875c13.253906 0 24-10.746094 24-24s-10.746094-24-24-24zm-32-8c0 2.632812-.105469 5.289062-.304688 8h-111.390624c-.199219-2.710938-.304688-5.367188-.304688-8 0-44.113281 25.121094-80 56-80s56 35.886719 56 80zm-240 0c0-44.113281 25.121094-80 56-80s56 35.886719 56 80c0 2.632812-.105469 5.289062-.304688 8h-111.390624c-.199219-2.710938-.304688-5.367188-.304688-8zm120-128c18.601562 0 35.742188 13.304688 46.167969 35.105469-21.839844 8.824219-38.710938 26.777343-46.167969 49.117187-7.457031-22.347656-24.332031-40.300781-46.175781-49.125 10.414062-21.808594 27.558593-35.097656 46.175781-35.097656zm-128 0c18.640625 0 35.769531 13.28125 46.183594 35.097656-21.847656 8.820313-38.726563 26.777344-46.183594 49.125-7.457031-22.347656-24.332031-40.300781-46.175781-49.125 10.421875-21.800781 27.558593-35.097656 46.175781-35.097656zm-120 128c0-44.113281 25.121094-80 56-80s56 35.886719 56 80c0 2.632812-.105469 5.289062-.304688 8h-111.390624c-.199219-2.710938-.304688-5.367188-.304688-8zm360.078125 112h-56.078125c-4.417969 0-8 3.582031-8 8s3.582031 8 8 8h54.121094l-1.96875 16h-68.152344c-4.417969 0-8 3.582031-8 8s3.582031 8 8 8h66.183594l-1.09375 8.976562c-.496094 4.007813-3.898438 7.019532-7.9375 7.023438h-71.863282c-4.042968 0-7.453124-3.011719-7.945312-7.023438l-10.792969-87.953124c-.476562-4.023438-3.890625-7.054688-7.941406-7.054688-4.054687 0-7.464844 3.03125-7.945313 7.054688l-10.792968 87.953124c-.492188 4.011719-3.902344 7.023438-7.941406 7.023438h-71.859376c-4.039062 0-7.449218-3.011719-7.941406-7.023438l-10.792968-87.953124c-.480469-4.023438-3.890626-7.054688-7.945313-7.054688-4.050781 0-7.464844 3.03125-7.941406 7.054688l-10.792969 87.953124c-.492188 4.011719-3.902344 7.023438-7.945312 7.023438h-71.863282c-4.039062-.003906-7.441406-3.015625-7.9375-7.023438l-3.0625-24.976562h68.152344c4.417969 0 8-3.582031 8-8s-3.582031-8-8-8h-70.121094l-1.957031-16h48.078125c4.417969 0 8-3.582031 8-8s-3.582031-8-8-8h-50.046875l-4.914063-40h365.921876zm39.921875-72h-432c-4.417969 0-8-3.582031-8-8s3.582031-8 8-8h432c4.417969 0 8 3.582031 8 8s-3.582031 8-8 8zm0 0"/><path d="m101.472656 80.40625c-1.207031.394531-29.472656 10.257812-29.472656 47.59375 0 4.417969 3.582031 8 8 8s8-3.582031 8-8c0-25.390625 17.695312-32.113281 18.601562-32.433594 4.195313-1.414062 6.449219-5.964844 5.035157-10.164062-1.417969-4.195313-5.96875-6.449219-10.164063-5.035156zm0 0"/><path d="m229.472656 80.40625c-1.207031.394531-29.472656 10.257812-29.472656 47.59375 0 4.417969 3.582031 8 8 8s8-3.582031 8-8c0-25.390625 17.695312-32.113281 18.601562-32.433594 4.195313-1.414062 6.449219-5.964844 5.035157-10.164062-1.417969-4.195313-5.96875-6.449219-10.164063-5.035156zm0 0"/><path d="m357.472656 80.40625c-1.207031.394531-29.472656 10.257812-29.472656 47.59375 0 4.417969 3.582031 8 8 8s8-3.582031 8-8c0-25.390625 17.695312-32.113281 18.601562-32.433594 4.195313-1.414062 6.449219-5.964844 5.035157-10.164062-1.417969-4.195313-5.96875-6.449219-10.164063-5.035156zm0 0"/></svg>