<svg height="480pt" viewBox="-24 0 480 480.0001" width="480pt" xmlns="http://www.w3.org/2000/svg"><g fill="#5a6470"><path d="m223.960938 480c-4.417969 0-8-3.582031-8-8v-80c0-4.417969 3.582031-8 8-8 4.417968 0 8 3.582031 8 8v80c0 4.417969-3.582032 8-8 8zm0 0"/><path d="m255.960938 480c-4.417969 0-8-3.582031-8-8v-80c0-4.417969 3.582031-8 8-8 4.417968 0 8 3.582031 8 8v80c0 4.417969-3.582032 8-8 8zm0 0"/><path d="m287.960938 480c-4.417969 0-8-3.582031-8-8v-80c0-4.417969 3.582031-8 8-8 4.417968 0 8 3.582031 8 8v80c0 4.417969-3.582032 8-8 8zm0 0"/><path d="m319.960938 480c-4.417969 0-8-3.582031-8-8v-80c0-4.417969 3.582031-8 8-8 4.417968 0 8 3.582031 8 8v80c0 4.417969-3.582032 8-8 8zm0 0"/><path d="m351.960938 480c-4.417969 0-8-3.582031-8-8v-80c0-4.417969 3.582031-8 8-8 4.417968 0 8 3.582031 8 8v80c0 4.417969-3.582032 8-8 8zm0 0"/><path d="m383.960938 480c-4.417969 0-8-3.582031-8-8v-80c0-4.417969 3.582031-8 8-8 4.417968 0 8 3.582031 8 8v80c0 4.417969-3.582032 8-8 8zm0 0"/><path d="m415.960938 480c-4.417969 0-8-3.582031-8-8v-80c0-4.417969 3.582031-8 8-8 4.417968 0 8 3.582031 8 8v80c0 4.417969-3.582032 8-8 8zm0 0"/></g><path d="m55.960938 112h48v256c0 8.835938-7.160157 16-16 16h-16c-8.835938 0-16-7.164062-16-16zm0 0" fill="#d3843d"/><path d="m295.960938 112h48v256c0 8.835938-7.160157 16-16 16h-16c-8.835938 0-16-7.164062-16-16zm0 0" fill="#d3843d"/><path d="m55.960938 64h48v48h-48zm0 0" fill="#9c2d20"/><path d="m103.960938 64h-48l-16-56h80zm0 0" fill="#d3843d"/><path d="m71.960938 304h16c8.839843 0 16 7.164062 16 16v48c0 8.835938-7.160157 16-16 16h-16c-8.835938 0-16-7.164062-16-16v-48c0-8.835938 7.164062-16 16-16zm0 0" fill="#5a6470"/><path d="m295.960938 64h48v48h-48zm0 0" fill="#9c2d20"/><path d="m343.960938 64h-48l-16-56h80zm0 0" fill="#d3843d"/><path d="m311.960938 304h16c8.839843 0 16 7.164062 16 16v48c0 8.835938-7.160157 16-16 16h-16c-8.835938 0-16-7.164062-16-16v-48c0-8.835938 7.164062-16 16-16zm0 0" fill="#5a6470"/><path d="m215.960938 352h208v40h-208zm0 0" fill="#9c2d20"/><path d="m143.960938 472h-128l-8-80c0-26.507812 21.492187-48 48-48h48c26.511718 0 48 21.492188 48 48zm0 0" fill="#cfdfe8"/><path d="m47.960938 480c-4.417969 0-8-3.582031-8-8v-48c0-4.417969 3.582031-8 8-8 4.417968 0 8 3.582031 8 8v48c0 4.417969-3.582032 8-8 8zm0 0" fill="#5a6470"/><path d="m79.960938 480c-4.417969 0-8-3.582031-8-8v-32c0-4.417969 3.582031-8 8-8 4.417968 0 8 3.582031 8 8v32c0 4.417969-3.582032 8-8 8zm0 0" fill="#5a6470"/><path d="m111.960938 480c-4.417969 0-8-3.582031-8-8v-48c0-4.417969 3.582031-8 8-8 4.417968 0 8 3.582031 8 8v48c0 4.417969-3.582032 8-8 8zm0 0" fill="#5a6470"/><path d="m287.960938 344h-72c-4.417969 0-8 3.582031-8 8v40c0 4.417969 3.582031 8 8 8v72c0 4.417969 3.582031 8 8 8 4.417968 0 8-3.582031 8-8v-72h16v72c0 4.417969 3.582031 8 8 8 4.417968 0 8-3.582031 8-8v-72h16v72c0 4.417969 3.582031 8 8 8 4.417968 0 8-3.582031 8-8v-72h16v72c0 4.417969 3.582031 8 8 8 4.417968 0 8-3.582031 8-8v-72h16v72c0 4.417969 3.582031 8 8 8 4.417968 0 8-3.582031 8-8v-72h16v72c0 4.417969 3.582031 8 8 8 4.417968 0 8-3.582031 8-8v-72h16v72c0 4.417969 3.582031 8 8 8 4.417968 0 8-3.582031 8-8v-72c4.417968 0 8-3.582031 8-8v-40c0-4.417969-3.582032-8-8-8h-72v-278.871094l15.699218-54.9375c.6875-2.414062.199219-5.007812-1.3125-7.011718-1.511718-2.003907-3.875-3.179688-6.386718-3.179688h-80c-2.507813 0-4.871094 1.175781-6.386719 3.179688-1.511719 2.003906-1.996094 4.597656-1.308594 7.011718l15.695313 54.9375zm48-46.527344c-2.558594-.949218-5.265626-1.445312-8-1.472656h-16c-2.730469.027344-5.4375.523438-8 1.472656v-177.472656h32zm0-193.472656h-32v-32h32zm80 280h-192v-24h192zm-112-40v-24c0-4.417969 3.582031-8 8-8h16c4.417968 0 8 3.582031 8 8v24zm8-328v16c0 4.417969 3.582031 8 8 8 4.417968 0 8-3.582031 8-8v-16h21.394531l-11.425781 40h-35.933594l-11.425782-40zm0 0"/><path d="m47.960938 336.640625c-27.757813 4.132813-48.21875 28.097656-47.95703175 56.160156l7.99999975 80c.410156 4.085938 3.851563 7.199219 7.957032 7.199219h128c4.125.019531 7.589843-3.097656 8-7.199219l8-80.800781c-.050782-27.804688-20.480469-51.367188-48-55.359375v-271.511719l15.699218-54.9375c.6875-2.414062.199219-5.007812-1.3125-7.011718-1.511718-2.003907-3.875-3.179688-6.386718-3.179688h-80c-2.507813 0-4.871094 1.175781-6.386719 3.179688-1.511719 2.003906-1.996094 4.597656-1.308594 7.011718l15.695313 54.9375zm48-.640625h-32v-16c0-4.417969 3.582031-8 8-8h16c4.417968 0 8 3.582031 8 8zm-8-40h-16c-2.730469.027344-5.4375.523438-8 1.472656v-177.472656h32v177.472656c-2.558594-.949218-5.265626-1.445312-8-1.472656zm8-192h-32v-32h32zm48 287.199219-7.199219 72.800781h-16.800781v-40c0-4.417969-3.582032-8-8-8-4.417969 0-8 3.582031-8 8v40h-16v-24c0-4.417969-3.582032-8-8-8-4.417969 0-8 3.582031-8 8v24h-16v-40c0-4.417969-3.582032-8-8-8-4.417969 0-8 3.582031-8 8v40h-16.796876l-7.203124-72c.027343-22.082031 17.921874-39.972656 40-40h48c21.8125-.054688 39.636718 17.394531 40.042968 39.199219zm-72-375.199219v16c0 4.417969 3.582031 8 8 8 4.417968 0 8-3.582031 8-8v-16h21.394531l-11.425781 40h-35.933594l-11.425782-40zm0 0"/></svg>