<svg height="480pt" viewBox="0 0 480 480" width="480pt" xmlns="http://www.w3.org/2000/svg"><path d="m8 136h256v32h-256zm0 0" fill="#d3843d"/><path d="m8 200h464v272h-464zm0 0" fill="#d3843d"/><path d="m192 200s-128 32-184 272h464v-272zm0 0" fill="#c8d952"/><path d="m272 200s-136 64-152 272h352v-272zm0 0" fill="#d3843d"/><path d="m360 200s-120 48-136 272h248v-272zm0 0" fill="#c8d952"/><path d="m472 200h-208v-144l64-48h80l64 48zm0 0" fill="#ffd782"/><path d="m432 200s-88 56-96 272h136v-272zm0 0" fill="#d3843d"/><path d="m368 88h64v112h-64zm0 0" fill="#f49453"/><path d="m64 104c8.835938 0 16 7.164062 16 16v80h-32v-80c0-8.835938 7.164062-16 16-16zm0 0" fill="#9c2d20"/><path d="m120 200v-80c0-8.835938 7.164062-16 16-16s16 7.164062 16 16v80" fill="#9c2d20"/><path d="m192 200v-80c0-8.835938 7.164062-16 16-16s16 7.164062 16 16v80" fill="#9c2d20"/><g fill="#fff"><path d="m440 448h-8c-4.417969 0-8-3.582031-8-8s3.582031-8 8-8h8c4.417969 0 8 3.582031 8 8s-3.582031 8-8 8zm0 0"/><path d="m392 408h-8c-4.417969 0-8-3.582031-8-8s3.582031-8 8-8h8c4.417969 0 8 3.582031 8 8s-3.582031 8-8 8zm0 0"/><path d="m440 376h-8c-4.417969 0-8-3.582031-8-8s3.582031-8 8-8h8c4.417969 0 8 3.582031 8 8s-3.582031 8-8 8zm0 0"/><path d="m408 328h-8c-4.417969 0-8-3.582031-8-8s3.582031-8 8-8h8c4.417969 0 8 3.582031 8 8s-3.582031 8-8 8zm0 0"/><path d="m440 288h-8c-4.417969 0-8-3.582031-8-8s3.582031-8 8-8h8c4.417969 0 8 3.582031 8 8s-3.582031 8-8 8zm0 0"/><path d="m272 432h-8c-4.417969 0-8-3.582031-8-8s3.582031-8 8-8h8c4.417969 0 8 3.582031 8 8s-3.582031 8-8 8zm0 0"/><path d="m312 376h-8c-4.417969 0-8-3.582031-8-8s3.582031-8 8-8h8c4.417969 0 8 3.582031 8 8s-3.582031 8-8 8zm0 0"/><path d="m304 328h-8c-4.417969 0-8-3.582031-8-8s3.582031-8 8-8h8c4.417969 0 8 3.582031 8 8s-3.582031 8-8 8zm0 0"/><path d="m352 256h-8c-4.417969 0-8-3.582031-8-8s3.582031-8 8-8h8c4.417969 0 8 3.582031 8 8s-3.582031 8-8 8zm0 0"/><path d="m168 448h-8c-4.417969 0-8-3.582031-8-8s3.582031-8 8-8h8c4.417969 0 8 3.582031 8 8s-3.582031 8-8 8zm0 0"/><path d="m208 368h-8c-4.417969 0-8-3.582031-8-8s3.582031-8 8-8h8c4.417969 0 8 3.582031 8 8s-3.582031 8-8 8zm0 0"/><path d="m248 280h-8c-4.417969 0-8-3.582031-8-8s3.582031-8 8-8h8c4.417969 0 8 3.582031 8 8s-3.582031 8-8 8zm0 0"/><path d="m96 424h-8c-4.417969 0-8-3.582031-8-8s3.582031-8 8-8h8c4.417969 0 8 3.582031 8 8s-3.582031 8-8 8zm0 0"/><path d="m96 352h-8c-4.417969 0-8-3.582031-8-8s3.582031-8 8-8h8c4.417969 0 8 3.582031 8 8s-3.582031 8-8 8zm0 0"/><path d="m144 296h-8c-4.417969 0-8-3.582031-8-8s3.582031-8 8-8h8c4.417969 0 8 3.582031 8 8s-3.582031 8-8 8zm0 0"/><path d="m48 296h-8c-4.417969 0-8-3.582031-8-8s3.582031-8 8-8h8c4.417969 0 8 3.582031 8 8s-3.582031 8-8 8zm0 0"/><path d="m72 248h-8c-4.417969 0-8-3.582031-8-8s3.582031-8 8-8h8c4.417969 0 8 3.582031 8 8s-3.582031 8-8 8zm0 0"/></g><path d="m304 88h64v112h-64zm0 0" fill="#e97424"/><path d="m400 152c-4.417969 0-8-3.582031-8-8v-8c0-4.417969 3.582031-8 8-8s8 3.582031 8 8v8c0 4.417969-3.582031 8-8 8zm0 0" fill="#5a6470"/><path d="m336 152c-4.417969 0-8-3.582031-8-8v-8c0-4.417969 3.582031-8 8-8s8 3.582031 8 8v8c0 4.417969-3.582031 8-8 8zm0 0" fill="#5a6470"/><path d="m412.800781 1.601562c-1.386719-1.039062-3.070312-1.601562-4.800781-1.601562h-80c-1.730469 0-3.414062.5625-4.800781 1.601562l-64 48c-2.011719 1.507813-3.199219 3.878907-3.199219 6.398438v72h-24v-8c0-13.253906-10.746094-24-24-24s-24 10.746094-24 24v8h-24v-8c0-13.253906-10.746094-24-24-24s-24 10.746094-24 24v8h-24v-8c0-13.253906-10.746094-24-24-24s-24 10.746094-24 24v8h-32c-4.417969 0-8 3.582031-8 8v32c0 4.417969 3.582031 8 8 8h32v16h-40v288h480v-424c0-2.519531-1.1875-4.890625-3.199219-6.398438zm-140.800781 58.398438 58.664062-44h74.671876l58.664062 44v132h-24v-104c0-4.417969-3.582031-8-8-8h-128c-4.417969 0-8 3.582031-8 8v104h-24zm86.464844 132h-46.464844v-96h48v96zm17.535156-96h48v96h-48zm-120 96h-24v-16h24zm0-48v16h-24v-16zm-48-32c4.417969 0 8 3.582031 8 8v72h-16v-72c0-4.417969 3.582031-8 8-8zm-24 80h-24v-16h24zm0-48v16h-24v-16zm-48-32c4.417969 0 8 3.582031 8 8v72h-16v-72c0-4.417969 3.582031-8 8-8zm-24 80h-24v-16h24zm0-48v16h-24v-16zm-96 16v-16h24v16zm40-40c0-4.417969 3.582031-8 8-8s8 3.582031 8 8v72h-16zm99.945312 88c-37.953124 23.257812-99.097656 78.664062-139.945312 205.207031v-205.207031zm-137.792968 256c52.734375-212.929688 164.246094-252.640625 174.984375-256h50.679687c-40.449218 29.089844-117.097656 103.601562-131.082031 256zm110.566406 0c17.34375-182.3125 130.816406-248.335938 145.210938-256h57.269531c-36.863281 27.390625-101.359375 97.359375-114.527344 256zm103.9375 0c16.734375-196.265625 116.566406-250.023438 129.0625-256h49.167969c-26.398438 27.785156-75.199219 99.71875-82.503907 256zm231.34375 0h-119.65625c8.800781-185.039062 78.34375-246.761719 90.257812-256h29.398438zm0 0"/><path d="m440 432h-8c-4.417969 0-8 3.582031-8 8s3.582031 8 8 8h8c4.417969 0 8-3.582031 8-8s-3.582031-8-8-8zm0 0"/><path d="m392 392h-8c-4.417969 0-8 3.582031-8 8s3.582031 8 8 8h8c4.417969 0 8-3.582031 8-8s-3.582031-8-8-8zm0 0"/><path d="m440 360h-8c-4.417969 0-8 3.582031-8 8s3.582031 8 8 8h8c4.417969 0 8-3.582031 8-8s-3.582031-8-8-8zm0 0"/><path d="m408 312h-8c-4.417969 0-8 3.582031-8 8s3.582031 8 8 8h8c4.417969 0 8-3.582031 8-8s-3.582031-8-8-8zm0 0"/><path d="m424 280c0 4.417969 3.582031 8 8 8h8c4.417969 0 8-3.582031 8-8s-3.582031-8-8-8h-8c-4.417969 0-8 3.582031-8 8zm0 0"/><path d="m272 416h-8c-4.417969 0-8 3.582031-8 8s3.582031 8 8 8h8c4.417969 0 8-3.582031 8-8s-3.582031-8-8-8zm0 0"/><path d="m312 360h-8c-4.417969 0-8 3.582031-8 8s3.582031 8 8 8h8c4.417969 0 8-3.582031 8-8s-3.582031-8-8-8zm0 0"/><path d="m304 328c4.417969 0 8-3.582031 8-8s-3.582031-8-8-8h-8c-4.417969 0-8 3.582031-8 8s3.582031 8 8 8zm0 0"/><path d="m344 256h8c4.417969 0 8-3.582031 8-8s-3.582031-8-8-8h-8c-4.417969 0-8 3.582031-8 8s3.582031 8 8 8zm0 0"/><path d="m168 432h-8c-4.417969 0-8 3.582031-8 8s3.582031 8 8 8h8c4.417969 0 8-3.582031 8-8s-3.582031-8-8-8zm0 0"/><path d="m208 352h-8c-4.417969 0-8 3.582031-8 8s3.582031 8 8 8h8c4.417969 0 8-3.582031 8-8s-3.582031-8-8-8zm0 0"/><path d="m240 280h8c4.417969 0 8-3.582031 8-8s-3.582031-8-8-8h-8c-4.417969 0-8 3.582031-8 8s3.582031 8 8 8zm0 0"/><path d="m96 408h-8c-4.417969 0-8 3.582031-8 8s3.582031 8 8 8h8c4.417969 0 8-3.582031 8-8s-3.582031-8-8-8zm0 0"/><path d="m88 352h8c4.417969 0 8-3.582031 8-8s-3.582031-8-8-8h-8c-4.417969 0-8 3.582031-8 8s3.582031 8 8 8zm0 0"/><path d="m136 296h8c4.417969 0 8-3.582031 8-8s-3.582031-8-8-8h-8c-4.417969 0-8 3.582031-8 8s3.582031 8 8 8zm0 0"/><path d="m40 296h8c4.417969 0 8-3.582031 8-8s-3.582031-8-8-8h-8c-4.417969 0-8 3.582031-8 8s3.582031 8 8 8zm0 0"/><path d="m64 248h8c4.417969 0 8-3.582031 8-8s-3.582031-8-8-8h-8c-4.417969 0-8 3.582031-8 8s3.582031 8 8 8zm0 0"/><path d="m400 128c-4.417969 0-8 3.582031-8 8v8c0 4.417969 3.582031 8 8 8s8-3.582031 8-8v-8c0-4.417969-3.582031-8-8-8zm0 0"/><path d="m336 128c-4.417969 0-8 3.582031-8 8v8c0 4.417969 3.582031 8 8 8s8-3.582031 8-8v-8c0-4.417969-3.582031-8-8-8zm0 0"/></svg>