<svg height="480pt" viewBox="0 0 480 480.00012" width="480pt" xmlns="http://www.w3.org/2000/svg"><path d="m216 296h208v176h-208zm0 0" fill="#c8d952"/><path d="m192 296h24v175.921875h-48v-151.921875c0-13.253906 10.746094-24 24-24zm0 0" fill="#55b56a"/><path d="m472 472h-48v-176h24c13.253906 0 24 10.746094 24 24zm0 0" fill="#55b56a"/><path d="m168 392h48v80h-48zm0 0" fill="#ffd782"/><path d="m424 392h48v80h-48zm0 0" fill="#ffd782"/><path d="m216 296h48v96h-48zm0 0" fill="#d3843d"/><path d="m376 296h48v96h-48zm0 0" fill="#d3843d"/><path d="m216 392h208v80h-208zm0 0" fill="#9c2d20"/><path d="m312 424h16c26.507812 0 48 21.492188 48 48h-112c0-26.507812 21.492188-48 48-48zm0 0" fill="#d3843d"/><path d="m72 248h32v224h-32zm0 0" fill="#aabece"/><path d="m8 216h160v16c0 8.835938-7.164062 16-16 16h-128c-8.835938 0-16-7.164062-16-16zm0 0" fill="#7d8d9c"/><path d="m24 104c8.835938 0 16 7.164062 16 16v96h-32v-96c0-8.835938 7.164062-16 16-16zm0 0" fill="#aabece"/><path d="m88 104c8.835938 0 16 7.164062 16 16v96h-32v-96c0-8.835938 7.164062-16 16-16zm0 0" fill="#aabece"/><path d="m152 104c8.835938 0 16 7.164062 16 16v96h-32v-96c0-8.835938 7.164062-16 16-16zm0 0" fill="#aabece"/><path d="m248 104h144v160h-144zm0 0" fill="#ffd782"/><g fill="#5a6470"><path d="m272 224h96v16h-96zm0 0"/><path d="m272 144h16v16h-16zm0 0"/><path d="m352 144h16v16h-16zm0 0"/><path d="m312 176h16v32h-16zm0 0"/></g><path d="m448 104h-256l16-32h224zm0 0" fill="#9c2d20"/><path d="m416 72h-192l32-64h128zm0 0" fill="#d3843d"/><path d="m280 48h-8c-4.417969 0-8-3.582031-8-8s3.582031-8 8-8h8c4.417969 0 8 3.582031 8 8s-3.582031 8-8 8zm0 0" fill="#9c2d20"/><path d="m328 48h-16c-4.417969 0-8-3.582031-8-8s3.582031-8 8-8h16c4.417969 0 8 3.582031 8 8s-3.582031 8-8 8zm0 0" fill="#9c2d20"/><path d="m368 48h-8c-4.417969 0-8-3.582031-8-8s3.582031-8 8-8h8c4.417969 0 8 3.582031 8 8s-3.582031 8-8 8zm0 0" fill="#9c2d20"/><path d="m448 288h-256c-17.671875 0-32 14.328125-32 32v159.921875l320 .078125v-160c0-17.671875-14.328125-32-32-32zm-16 16h16c8.835938 0 16 7.164062 16 16v64h-32zm-16 0v80h-32v-80zm-48 0v80h-96v-80zm-144 0h32v80h-32zm-16 159.921875h-32v-63.921875h32zm-16-159.921875h16v80h-32v-64c0-8.835938 7.164062-16 16-16zm80.800781 160c3.824219-18.613281 20.199219-31.980469 39.199219-32h16c19.003906.019531 35.375 13.386719 39.199219 32zm110.558594 0c-3.972656-27.527344-27.546875-47.96875-55.359375-48h-16c-27.8125.03125-51.386719 20.472656-55.359375 48h-32.640625v-64h192v64zm80.640625 0h-32v-64h32zm0 0"/><path d="m24 256h40v216c0 4.417969 3.582031 8 8 8h32c4.417969 0 8-3.582031 8-8v-216h40c13.253906 0 24-10.746094 24-24v-112c0-13.253906-10.746094-24-24-24s-24 10.746094-24 24v88h-16v-88c0-13.253906-10.746094-24-24-24s-24 10.746094-24 24v88h-16v-88c0-13.253906-10.746094-24-24-24s-24 10.746094-24 24v112c0 13.253906 10.746094 24 24 24zm72 208h-16v-208h16zm64-232c0 4.417969-3.582031 8-8 8h-128c-4.417969 0-8-3.582031-8-8v-8h144zm-16-112c0-4.417969 3.582031-8 8-8s8 3.582031 8 8v88h-16zm-64 0c0-4.417969 3.582031-8 8-8s8 3.582031 8 8v88h-16zm-64 0c0-4.417969 3.582031-8 8-8s8 3.582031 8 8v88h-16zm0 0"/><path d="m272 224h96v16h-96zm0 0"/><path d="m272 144h16v16h-16zm0 0"/><path d="m352 144h16v16h-16zm0 0"/><path d="m312 176h16v32h-16zm0 0"/><path d="m455.199219 100.425781-16-32c-1.359375-2.726562-4.152344-4.441406-7.199219-4.425781h-11.054688l-29.746093-59.574219c-1.359375-2.726562-4.152344-4.441406-7.199219-4.425781h-128c-3.046875-.015625-5.839844 1.699219-7.199219 4.425781l-29.746093 59.574219h-11.054688c-3.03125 0-5.804688 1.710938-7.160156 4.425781l-16 32c-1.238282 2.480469-1.105469 5.425781.351562 7.78125 1.460938 2.359375 4.035156 3.792969 6.808594 3.792969h48v160h160v-160h48c2.78125.015625 5.367188-1.414062 6.835938-3.773438 1.46875-2.363281 1.605468-5.316406.363281-7.800781zm-194.253907-84.425781h118.109376l24 48h-166.109376zm123.054688 240h-128v-144h128zm-179.054688-160 8-16h214.109376l8 16zm0 0"/><path d="m280 32h-8c-4.417969 0-8 3.582031-8 8s3.582031 8 8 8h8c4.417969 0 8-3.582031 8-8s-3.582031-8-8-8zm0 0"/><path d="m328 32h-16c-4.417969 0-8 3.582031-8 8s3.582031 8 8 8h16c4.417969 0 8-3.582031 8-8s-3.582031-8-8-8zm0 0"/><path d="m368 32h-8c-4.417969 0-8 3.582031-8 8s3.582031 8 8 8h8c4.417969 0 8-3.582031 8-8s-3.582031-8-8-8zm0 0"/></svg>