<svg height="480pt" viewBox="0 -68 480 480" width="480pt" xmlns="http://www.w3.org/2000/svg"><path d="m8 111.738281h56v32h-56zm0 0" fill="#ffd782"/><path d="m8 247.738281h56v32h-56zm0 0" fill="#ffd782"/><path d="m416 111.738281h56v32h-56zm0 0" fill="#ffd782"/><path d="m416 247.738281h56v32h-56zm0 0" fill="#ffd782"/><path d="m96 7.738281-32 56v272h64v-272zm0 0" fill="#ad6327"/><path d="m128 111.738281h32v32h-32zm0 0" fill="#ffd782"/><path d="m128 247.738281h32v32h-32zm0 0" fill="#ffd782"/><path d="m192 7.738281-32 56v272h64v-272zm0 0" fill="#ad6327"/><path d="m224 111.738281h32v32h-32zm0 0" fill="#ffd782"/><path d="m224 247.738281h32v32h-32zm0 0" fill="#ffd782"/><path d="m288 7.738281-32 56v272h64v-272zm0 0" fill="#ad6327"/><path d="m320 111.738281h32v32h-32zm0 0" fill="#ffd782"/><path d="m320 247.738281h32v32h-32zm0 0" fill="#ffd782"/><path d="m384 7.738281-32 56v272h64v-272zm0 0" fill="#ad6327"/><g fill="#fff"><path d="m96 135.738281c-2.128906.019531-4.175781-.816406-5.679688-2.320312-1.507812-1.503907-2.34375-3.550781-2.320312-5.679688-.019531-3.25 1.929688-6.191406 4.933594-7.4375 3-1.246093 6.457031-.550781 8.746094 1.757813 1.476562 1.523437 2.308593 3.558594 2.320312 5.679687.019531 2.125-.816406 4.171875-2.320312 5.679688-.777344.703125-1.671876 1.269531-2.640626 1.679687-.960937.410156-1.992187.625-3.039062.640625zm0 0"/><path d="m192 135.738281c-2.128906.019531-4.175781-.816406-5.679688-2.320312-1.507812-1.503907-2.34375-3.550781-2.320312-5.679688.027344-2.121093.855469-4.148437 2.320312-5.679687.765626-.726563 1.660157-1.296875 2.640626-1.679688 1.457031-.644531 3.082031-.8125 4.640624-.480468.5.085937.984376.25 1.4375.480468.511719.175782.996094.417969 1.441407.71875.417969.296875.816406.617188 1.199219.960938 1.460937 1.53125 2.289062 3.558594 2.320312 5.679687-.011719 1.042969-.230469 2.078125-.640625 3.039063-.40625.96875-.976563 1.859375-1.679687 2.640625-1.507813 1.5-3.550782 2.335937-5.679688 2.320312zm0 0"/><path d="m288 135.738281c-1.046875-.015625-2.078125-.230469-3.039062-.640625-.96875-.40625-1.863282-.972656-2.640626-1.679687-.703124-.78125-1.273437-1.671875-1.679687-2.640625-.855469-1.9375-.855469-4.144532 0-6.082032.386719-.976562.957031-1.875 1.679687-2.636718.777344-.707032 1.671876-1.277344 2.640626-1.679688 2.976562-1.253906 6.417968-.589844 8.71875 1.679688.722656.761718 1.292968 1.660156 1.679687 2.636718.851563 1.9375.851563 4.144532 0 6.082032-.40625.96875-.976563 1.859375-1.679687 2.640625-1.507813 1.5-3.550782 2.335937-5.679688 2.320312zm0 0"/><path d="m384 135.738281c-1.046875-.015625-2.078125-.230469-3.039062-.640625-.96875-.40625-1.863282-.972656-2.640626-1.679687-.703124-.78125-1.273437-1.671875-1.679687-2.640625-.855469-1.9375-.855469-4.144532 0-6.082032.386719-.976562.957031-1.875 1.679687-2.636718.378907-.34375.777344-.664063 1.191407-.960938.449219-.300781.9375-.542968 1.449219-.71875.453124-.234375.9375-.394531 1.4375-.480468 1.023437-.242188 2.089843-.242188 3.113281 0 .53125.074218 1.050781.234374 1.527343.480468.492188.160156.953126.402344 1.359376.71875.460937.277344.886718.597656 1.28125.960938.722656.761718 1.292968 1.660156 1.679687 2.636718.851563 1.9375.851563 4.144532 0 6.082032-.40625.96875-.976563 1.859375-1.679687 2.640625-1.507813 1.5-3.550782 2.335937-5.679688 2.320312zm0 0"/><path d="m96 271.738281c-1.046875-.015625-2.078125-.230469-3.039062-.640625-.96875-.40625-1.863282-.972656-2.640626-1.679687-.703124-.78125-1.273437-1.671875-1.679687-2.640625-.855469-1.9375-.855469-4.144532 0-6.082032.40625-.96875.972656-1.859374 1.679687-2.636718.785157-.722656 1.675782-1.320313 2.640626-1.769532 1.949218-.792968 4.128906-.792968 6.078124 0 .964844.453126 1.855469 1.046876 2.640626 1.769532.707031.777344 1.273437 1.667968 1.679687 2.636718 1.054687 2.460938.796875 5.289063-.6875 7.515626-1.484375 2.226562-3.996094 3.554687-6.671875 3.527343zm0 0"/><path d="m192 271.738281c-1.046875-.015625-2.078125-.230469-3.039062-.640625-.96875-.40625-1.863282-.972656-2.640626-1.679687-1.503906-1.503907-2.339843-3.554688-2.320312-5.679688-.027344-1.050781.191406-2.09375.640625-3.042969.40625-.96875.972656-1.859374 1.679687-2.636718.359376-.367188.757813-.6875 1.191407-.960938.46875-.292968.953125-.558594 1.449219-.800781.46875-.164063.949218-.292969 1.4375-.390625 1.023437-.242188 2.089843-.242188 3.113281 0 .519531.085938 1.03125.21875 1.527343.390625.476563.222656.933594.492187 1.359376.800781.476562.25.910156.574219 1.28125.960938.707031.777344 1.273437 1.667968 1.679687 2.636718 1.054687 2.460938.796875 5.289063-.6875 7.515626-1.484375 2.226562-3.996094 3.554687-6.671875 3.527343zm0 0"/><path d="m288 271.738281c-2.675781.027344-5.1875-1.300781-6.671875-3.527343-1.484375-2.226563-1.742187-5.054688-.6875-7.515626.40625-.96875.972656-1.859374 1.679687-2.636718.785157-.722656 1.675782-1.320313 2.640626-1.769532 1.949218-.792968 4.128906-.792968 6.078124 0 .964844.453126 1.855469 1.046876 2.640626 1.769532.707031.777344 1.273437 1.667968 1.679687 2.636718 1.277344 2.980469.609375 6.433594-1.679687 8.722657-.777344.703125-1.671876 1.269531-2.640626 1.679687-.960937.410156-1.992187.625-3.039062.640625zm0 0"/><path d="m384 271.738281c-2.128906.019531-4.175781-.816406-5.679688-2.320312-.703124-.78125-1.273437-1.671875-1.679687-2.640625-.410156-.960938-.628906-1.996094-.640625-3.039063.027344-2.121093.855469-4.148437 2.320312-5.679687.378907-.34375.777344-.664063 1.191407-.960938.449219-.300781.9375-.542968 1.449219-.71875.453124-.234375.9375-.394531 1.4375-.480468 1.023437-.242188 2.089843-.242188 3.113281 0 .53125.074218 1.050781.234374 1.527343.480468.492188.160156.953126.402344 1.359376.71875.460937.277344.886718.597656 1.28125.960938 1.460937 1.53125 2.289062 3.558594 2.320312 5.679687-.011719 1.042969-.230469 2.078125-.640625 3.039063-.40625.96875-.976563 1.859375-1.679687 2.640625-1.507813 1.5-3.550782 2.335937-5.679688 2.320312zm0 0"/><path d="m96 343.738281c-4.417969 0-8-3.582031-8-8v-40c0-4.417969 3.582031-8 8-8s8 3.582031 8 8v40c0 4.417969-3.582031 8-8 8zm0 0"/><path d="m192 343.738281c-4.417969 0-8-3.582031-8-8v-40c0-4.417969 3.582031-8 8-8s8 3.582031 8 8v40c0 4.417969-3.582031 8-8 8zm0 0"/><path d="m288 343.738281c-4.417969 0-8-3.582031-8-8v-40c0-4.417969 3.582031-8 8-8s8 3.582031 8 8v40c0 4.417969-3.582031 8-8 8zm0 0"/><path d="m384 343.738281c-4.417969 0-8-3.582031-8-8v-40c0-4.417969 3.582031-8 8-8s8 3.582031 8 8v40c0 4.417969-3.582031 8-8 8zm0 0"/></g><path d="m456 343.738281h-432c-4.417969 0-8-3.582031-8-8s3.582031-8 8-8h432c4.417969 0 8 3.582031 8 8s-3.582031 8-8 8zm0 0" fill="#d3843d"/><path d="m424 63.738281c.003906-1.402343-.359375-2.785156-1.054688-4l-32-56c-1.542968-2.335937-4.148437-3.738281-6.945312-3.738281s-5.402344 1.402344-6.945312 3.738281l-32 56c-.695313 1.214844-1.058594 2.597657-1.054688 4v40h-16v-40c.003906-1.402343-.359375-2.785156-1.054688-4l-32-56c-1.542968-2.335937-4.148437-3.738281-6.945312-3.738281s-5.402344 1.402344-6.945312 3.738281l-32 56c-.695313 1.214844-1.058594 2.597657-1.054688 4v40h-16v-40c.003906-1.402343-.359375-2.785156-1.054688-4l-32-56c-1.542968-2.335937-4.148437-3.738281-6.945312-3.738281s-5.402344 1.402344-6.945312 3.738281l-32 56c-.695313 1.214844-1.058594 2.597657-1.054688 4v40h-16v-40c.003906-1.402343-.359375-2.785156-1.054688-4l-32-56c-1.542968-2.335937-4.148437-3.738281-6.945312-3.738281s-5.402344 1.402344-6.945312 3.738281l-32 56c-.695313 1.214844-1.058594 2.597657-1.054688 4v40h-56v48h56v88h-56v48h56v40h-32c-4.417969 0-8 3.582031-8 8s3.582031 8 8 8h432c4.417969 0 8-3.582031 8-8s-3.582031-8-8-8h-32v-40h56v-48h-56v-88h56v-48h-56zm-80 56v16h-16v-16zm0 152h-16v-16h16zm0 16v40h-16v-40zm-16-48v-88h16v88zm-80-120v16h-16v-16zm0 152h-16v-16h16zm0 16v40h-16v-40zm-16-48v-88h16v88zm-80-120v16h-16v-16zm0 152h-16v-16h16zm0 16v40h-16v-40zm-16-48v-88h16v88zm-120-104v-16h40v16zm0 136v-16h40v16zm88 56v-32c0-4.417969-3.582031-8-8-8s-8 3.582031-8 8v32h-16v-261.875l24-42 24 42v261.875zm96 0v-32c0-4.417969-3.582031-8-8-8s-8 3.582031-8 8v32h-16v-261.875l24-42 24 42v261.875zm96 0v-32c0-4.417969-3.582031-8-8-8s-8 3.582031-8 8v32h-16v-261.875l24-42 24 42v261.875zm168-72v16h-40v-16zm-56 72h-16v-32c0-4.417969-3.582031-8-8-8s-8 3.582031-8 8v32h-16v-261.875l24-42 24 42zm56-208v16h-40v-16zm0 0"/><path d="m90.320312 122.058594c-1.464843 1.53125-2.292968 3.558594-2.320312 5.679687-.027344 2.675781 1.300781 5.183594 3.527344 6.667969 2.226562 1.484375 5.050781 1.746094 7.511718.691406.96875-.410156 1.863282-.976562 2.640626-1.679687 1.503906-1.507813 2.339843-3.554688 2.320312-5.679688-.011719-2.121093-.84375-4.15625-2.320312-5.679687-3.207032-2.960938-8.152344-2.960938-11.359376 0zm0 0"/><path d="m196.480469 121.097656c-.445313-.300781-.929688-.542968-1.441407-.71875-.453124-.230468-.9375-.394531-1.4375-.480468-1.558593-.332032-3.183593-.164063-4.640624.480468-.980469.382813-1.875.953125-2.640626 1.679688-1.464843 1.53125-2.292968 3.558594-2.320312 5.679687-.019531 3.25 1.929688 6.1875 4.933594 7.433594 3 1.246094 6.457031.554687 8.746094-1.753906.703124-.78125 1.273437-1.671875 1.679687-2.640625.410156-.960938.628906-1.996094.640625-3.039063-.03125-2.121093-.859375-4.148437-2.320312-5.679687-.382813-.34375-.78125-.664063-1.199219-.960938zm0 0"/><path d="m293.679688 122.058594c-2.300782-2.269532-5.742188-2.933594-8.71875-1.679688-.96875.402344-1.863282.972656-2.640626 1.679688-.722656.761718-1.292968 1.660156-1.679687 2.636718-.855469 1.9375-.855469 4.144532 0 6.082032.40625.96875.976563 1.859375 1.679687 2.640625.777344.707031 1.671876 1.273437 2.640626 1.679687 2.976562 1.273438 6.429687.609375 8.71875-1.679687.703124-.78125 1.273437-1.671875 1.679687-2.640625.851563-1.9375.851563-4.144532 0-6.082032-.386719-.976562-.957031-1.875-1.679687-2.636718zm0 0"/><path d="m389.679688 122.058594c-.394532-.363282-.820313-.683594-1.28125-.960938-.40625-.316406-.867188-.558594-1.359376-.71875-.476562-.246094-.996093-.40625-1.527343-.480468-1.023438-.242188-2.089844-.242188-3.113281 0-.5.085937-.984376.246093-1.4375.480468-.511719.175782-1 .417969-1.449219.71875-.414063.296875-.8125.617188-1.191407.960938-.722656.761718-1.292968 1.660156-1.679687 2.636718-.855469 1.9375-.855469 4.144532 0 6.082032.40625.96875.976563 1.859375 1.679687 2.640625.777344.707031 1.671876 1.273437 2.640626 1.679687 2.976562 1.273438 6.429687.609375 8.71875-1.679687.703124-.78125 1.273437-1.671875 1.679687-2.640625.851563-1.9375.851563-4.144532 0-6.082032-.386719-.976562-.957031-1.875-1.679687-2.636718zm0 0"/><path d="m101.679688 258.058594c-.785157-.722656-1.675782-1.316406-2.640626-1.769532-1.949218-.792968-4.128906-.792968-6.078124 0-.964844.449219-1.855469 1.046876-2.640626 1.769532-.707031.777344-1.273437 1.667968-1.679687 2.636718-.855469 1.9375-.855469 4.144532 0 6.082032.40625.96875.976563 1.859375 1.679687 2.640625.777344.707031 1.671876 1.273437 2.640626 1.679687 2.976562 1.277344 6.429687.609375 8.71875-1.679687 2.292968-2.289063 2.957031-5.742188 1.679687-8.722657-.40625-.96875-.972656-1.859374-1.679687-2.636718zm0 0"/><path d="m197.679688 258.058594c-.371094-.386719-.804688-.710938-1.28125-.960938-.425782-.308594-.882813-.578125-1.359376-.800781-.496093-.171875-1.007812-.304687-1.527343-.390625-1.023438-.242188-2.089844-.242188-3.113281 0-.488282.097656-.96875.226562-1.4375.390625-.496094.242187-.980469.507813-1.449219.800781-.433594.273438-.832031.59375-1.191407.960938-.707031.777344-1.273437 1.667968-1.679687 2.636718-.449219.949219-.667969 1.992188-.640625 3.042969-.019531 2.125.816406 4.175781 2.320312 5.679688.777344.707031 1.671876 1.273437 2.640626 1.679687 2.976562 1.277344 6.429687.609375 8.71875-1.679687 2.292968-2.289063 2.957031-5.742188 1.679687-8.722657-.40625-.96875-.972656-1.859374-1.679687-2.636718zm0 0"/><path d="m293.679688 258.058594c-.785157-.722656-1.675782-1.316406-2.640626-1.769532-1.949218-.792968-4.128906-.792968-6.078124 0-.964844.449219-1.855469 1.046876-2.640626 1.769532-.707031.777344-1.273437 1.667968-1.679687 2.636718-1.277344 2.980469-.613281 6.433594 1.679687 8.722657 2.289063 2.289062 5.742188 2.957031 8.71875 1.679687.96875-.410156 1.863282-.976562 2.640626-1.679687 2.289062-2.289063 2.957031-5.742188 1.679687-8.722657-.40625-.96875-.972656-1.859374-1.679687-2.636718zm0 0"/><path d="m388.398438 257.097656c-.40625-.316406-.867188-.558594-1.359376-.71875-.476562-.246094-.996093-.40625-1.527343-.480468-1.023438-.242188-2.089844-.242188-3.113281 0-.5.085937-.984376.246093-1.4375.480468-.511719.175782-1 .417969-1.449219.71875-.414063.296875-.8125.617188-1.191407.960938-1.464843 1.53125-2.292968 3.558594-2.320312 5.679687.011719 1.042969.230469 2.078125.640625 3.039063.40625.96875.976563 1.859375 1.679687 2.640625 3.15625 3.09375 8.203126 3.09375 11.359376 0 .703124-.78125 1.273437-1.671875 1.679687-2.640625.410156-.960938.628906-1.996094.640625-3.039063-.03125-2.121093-.859375-4.148437-2.320312-5.679687-.394532-.363282-.820313-.683594-1.28125-.960938zm0 0"/></svg>