<svg height="480pt" viewBox="-104 0 480 480.00208" width="480pt" xmlns="http://www.w3.org/2000/svg"><path d="m259.355469 431.957031-11.335938-11.335937c-1.097656-1.066406-2.34375-1.96875-3.703125-2.671875 7.085938-37.605469 11-75.734375 11.703125-113.992188-.359375-40.507812-5.730469-80.816406-16-120h-208c-10.265625 39.183594-15.640625 79.492188-16 120 .699219 38.257813 4.609375 76.386719 11.6875 113.992188-1.355469.703125-2.605469 1.605469-3.703125 2.671875l-11.320312 11.335937c-6.214844 6.257813-6.214844 16.363281 0 22.621094l5.65625 5.65625c6.261718 6.226563 16.371094 6.226563 22.632812 0l8.269532-8.277344c26.746093 13.964844 56.621093 20.847657 86.777343 20 30.160157.847657 60.03125-6.035156 86.777344-20l8.269531 8.269531c6.261719 6.226563 16.375 6.226563 22.632813 0l5.65625-5.65625c6.210937-6.257812 6.210937-16.355468 0-22.613281zm0 0" fill="#d3843d"/><path d="m32.019531 151.957031h208c8.835938 0 16 7.160157 16 16 0 8.835938-7.164062 16-16 16h-208c-8.835937 0-16-7.164062-16-16 0-8.839843 7.164063-16 16-16zm0 0" fill="#9c2d20"/><path d="m152.019531 335.957031c17.671875 0 32-14.328125 32-32h-16c-9.222656.019531-17.980469 4.050781-24 11.039063v-43.039063h8c17.671875 0 32-14.328125 32-32h-16c-11.835937.03125-22.683593 6.621094-28.167969 17.109375-2.339843-1.480468-5.324218-1.480468-7.664062 0-5.484375-10.488281-16.328125-17.078125-28.167969-17.109375h-16c0 17.671875 14.328125 32 32 32h8v43.039063c-6.019531-6.988282-14.777343-11.019532-24-11.039063h-16c0 17.671875 14.328125 32 32 32h8v43.039063c-6.019531-6.988282-14.777343-11.019532-24-11.039063h-16c0 17.671875 14.328125 32 32 32h8v24c0 4.417969 3.582031 8 8 8s8-3.582031 8-8v-24h8c17.671875 0 32-14.328125 32-32h-16c-9.222656.019531-17.980469 4.050781-24 11.039063v-43.039063zm0 0" fill="#c8d952"/><path d="m224.019531 103.957031c-.273437 0-.527343.070313-.800781.078125-3.769531-18.65625-20.164062-32.074218-39.199219-32.078125-.992187 0-1.917969.222657-2.894531.285157 7.3125-20.167969.351562-42.738282-17.046875-55.289063s-41.011719-12.03125-57.84375 1.273437c-16.832031 13.300782-22.789063 36.15625-14.597656 55.984376-3.695313-1.472657-7.636719-2.238282-11.617188-2.253907-17.671875 0-32 14.324219-32 32 0 .519531.128907 1 .152344 1.519531-2.605469-.980468-5.367187-1.496093-8.152344-1.519531-13.253906 0-24 10.742188-24 24 0 13.253907 10.746094 24 24 24h184c13.253907 0 24-10.746093 24-24 0-13.257812-10.746093-24-24-24zm0 0" fill="#ffd782"/><g fill="#e97424"><path d="m136.019531 55.957031h-8c-4.417969 0-8-3.582031-8-8s3.582031-8 8-8h8c4.417969 0 8 3.582031 8 8s-3.582031 8-8 8zm0 0"/><path d="m152.019531 87.957031h-8c-4.417969 0-8-3.582031-8-8s3.582031-8 8-8h8c4.417969 0 8 3.582031 8 8s-3.582031 8-8 8zm0 0"/><path d="m128.019531 111.957031h-8c-4.417969 0-8-3.582031-8-8s3.582031-8 8-8h8c4.417969 0 8 3.582031 8 8s-3.582031 8-8 8zm0 0"/><path d="m176.019531 127.957031h-8c-4.417969 0-8-3.582031-8-8s3.582031-8 8-8h8c4.417969 0 8 3.582031 8 8s-3.582031 8-8 8zm0 0"/><path d="m88.019531 127.957031h-8c-4.417969 0-8-3.582031-8-8s3.582031-8 8-8h8c4.417969 0 8 3.582031 8 8s-3.582031 8-8 8zm0 0"/></g><path d="m12.683594 465.875c9.375 9.375 24.570312 9.375 33.945312 0l4.109375-4.101562c26.628907 12.609374 55.828125 18.835937 85.28125 18.183593 29.453125.652344 58.65625-5.574219 85.28125-18.183593l4.109375 4.109374c9.375 9.375 24.574219 9.375 33.945313 0l5.65625-5.65625c9.371093-9.371093 9.371093-24.5625 0-33.933593l-11.320313-11.320313-.597656-.578125c6.679688-36.449219 10.332031-73.386719 10.925781-110.4375-.316406-38.46875-5.085937-76.773437-14.207031-114.144531 8.570312-3.804688 14.125-12.269531 14.203125-21.644531.074219-9.375-5.335937-17.929688-13.84375-21.875 6.328125-8.960938 7.613281-20.542969 3.402344-30.667969-4.210938-10.128906-13.332031-17.386719-24.144531-19.214844-5.820313-16.855468-20.464844-29.125-38.082032-31.894531.449219-2.832031.671875-5.695313.671875-8.558594-.015625-20.957031-11.730469-40.148437-30.359375-49.742187-18.632812-9.59375-41.058594-7.984375-58.128906 4.171875-17.066406 12.15625-25.921875 32.824219-22.941406 53.570312h-.570313c-19 .023438-35.371093 13.386719-39.199219 32-8.617187-.191406-16.949218 3.089844-23.121093 9.109375-6.167969 6.019532-9.65625 14.269532-9.679688 22.890625.015625 8.070313 3.105469 15.832031 8.640625 21.710938-6.363281 5.265625-9.539062 13.453125-8.398437 21.632812 1.140625 8.179688 6.4375 15.183594 14 18.511719-9.132813 37.371094-13.914063 75.671875-14.242188 114.144531.59375 37.035157 4.25 73.960938 10.929688 110.398438l-.601563.574219-11.320312 11.320312c-9.367188 9.375-9.367188 24.566406 0 33.9375zm11.335937-297.917969c0-4.417969 3.582031-8 8-8h208c4.417969 0 8 3.582031 8 8s-3.582031 8-8 8h-208c-4.417969 0-8-3.582031-8-8zm16-56c1.855469.023438 3.691407.371094 5.425781 1.03125 2.511719.910157 5.3125.507813 7.464844-1.074219 2.152344-1.582031 3.375-4.136718 3.253906-6.804687 0-.257813-.113281-.90625-.144531-1.152344.046875-7.902343 3.972657-15.28125 10.5-19.730469 6.53125-4.453124 14.832031-5.410156 22.203125-2.566406 2.984375 1.164063 6.378906.4375 8.621094-1.851562 2.242188-2.285156 2.90625-5.691406 1.683594-8.652344-6.804688-16.527344-1.824219-35.558594 12.207031-46.632812 14.027344-11.070313 33.699219-11.492188 48.191406-1.03125 14.492188 10.457031 20.285157 29.261718 14.195313 46.0625-.921875 2.550781-.492188 5.390624 1.144531 7.554687 1.648437 2.136719 4.253906 3.316406 6.949219 3.148437.578125-.039062 1.144531-.109374 2.328125-.269531 15.21875.03125 28.320312 10.75 31.359375 25.664063.761718 3.722656 4.039062 6.398437 7.839844 6.398437.382812-.003906.761718-.03125 1.136718-.078125 8.644532.351563 15.445313 7.515625 15.347656 16.164063-.097656 8.652343-7.054687 15.660156-15.707031 15.820312h-184c-8.835937 0-16-7.164062-16-16 0-8.839843 7.164063-16 16-16zm-21.671875 325.636719 11.273438-11.308594c.550781-.523437 1.175781-.957031 1.855468-1.296875l5.085938-2.761719-1.03125-5.695312c-6.941406-37.140625-10.792969-74.796875-11.511719-112.574219.398438-37.757812 5.152344-75.339843 14.175781-112h195.648438c9.023438 36.660157 13.777344 74.242188 14.175781 112-.730469 37.777344-4.59375 75.433594-11.550781 112.574219l-1.03125 5.695312 5.085938 2.761719c.679687.339844 1.304687.773438 1.855468 1.296875l11.3125 11.308594c3.125 3.125 3.125 8.191406 0 11.3125l-5.671875 5.65625c-3.125 3.125-8.1875 3.125-11.3125 0l-12.535156-12.542969-5.28125 2.9375c-25.550781 13.292969-54.078125 19.832031-82.871094 19-28.796875.835938-57.328125-5.707031-82.886719-19l-5.28125-2.9375-12.535156 12.542969c-3.125 3.125-8.1875 3.125-11.3125 0l-5.65625-5.65625c-3.121094-3.121094-3.121094-8.1875 0-11.3125zm0 0"/><path d="m120.019531 407.957031h8v16c0 4.417969 3.582031 8 8 8s8-3.582031 8-8v-16h8c22.082031-.027343 39.972657-17.921875 40-40v-8h-24c-8.683593.027344-17.117187 2.910157-24 8.207031v-24.207031h8c22.082031-.027343 39.972657-17.921875 40-40v-8h-24c-8.683593.027344-17.117187 2.910157-24 8.207031v-24.207031h8c22.082031-.027343 39.972657-17.921875 40-40v-8h-24c-12.640625.035157-24.511719 6.0625-32 16.246094-7.488281-10.183594-19.359375-16.210937-32-16.246094h-24v8c.027344 22.078125 17.921875 39.972657 40 40h8v24.207031c-6.882812-5.296874-15.316406-8.179687-24-8.207031h-24v8c.027344 22.078125 17.921875 39.972657 40 40h8v24.207031c-6.882812-5.296874-15.316406-8.179687-24-8.207031h-24v8c.027344 22.078125 17.921875 39.972657 40 40zm0-144c-10.167969-.015625-19.230469-6.417969-22.632812-16h6.632812c10.167969.011719 19.230469 6.417969 22.632813 16zm48-16h6.632813c-3.402344 9.582031-12.464844 15.984375-22.632813 16h-6.632812c3.402343-9.582031 12.464843-15.988281 22.632812-16zm-48 80c-10.167969-.015625-19.230469-6.417969-22.632812-16h6.632812c10.167969.011719 19.230469 6.417969 22.632813 16zm48-16h6.632813c-3.402344 9.582031-12.464844 15.984375-22.632813 16h-6.632812c3.402343-9.582031 12.464843-15.988281 22.632812-16zm0 64h6.632813c-3.402344 9.582031-12.464844 15.984375-22.632813 16h-6.632812c3.402343-9.582031 12.464843-15.988281 22.632812-16zm-64 0c10.167969.011719 19.230469 6.417969 22.632813 16h-6.632813c-10.167969-.015625-19.230469-6.417969-22.632812-16zm0 0"/><path d="m128.019531 55.957031h8c4.417969 0 8-3.582031 8-8s-3.582031-8-8-8h-8c-4.417969 0-8 3.582031-8 8s3.582031 8 8 8zm0 0"/><path d="m136.019531 79.957031c0 4.417969 3.582031 8 8 8h8c4.417969 0 8-3.582031 8-8s-3.582031-8-8-8h-8c-4.417969 0-8 3.582031-8 8zm0 0"/><path d="m120.019531 111.957031h8c4.417969 0 8-3.582031 8-8s-3.582031-8-8-8h-8c-4.417969 0-8 3.582031-8 8s3.582031 8 8 8zm0 0"/><path d="m168.019531 127.957031h8c4.417969 0 8-3.582031 8-8s-3.582031-8-8-8h-8c-4.417969 0-8 3.582031-8 8s3.582031 8 8 8zm0 0"/><path d="m80.019531 127.957031h8c4.417969 0 8-3.582031 8-8s-3.582031-8-8-8h-8c-4.417969 0-8 3.582031-8 8s3.582031 8 8 8zm0 0"/></svg>