<svg height="480pt" viewBox="0 0 480 480.02466" width="480pt" xmlns="http://www.w3.org/2000/svg"><path d="m184.011719 416v-352c0-30.929688-39.398438-56-88-56-48.597657 0-88 25.070312-88 56v352c0 30.929688 39.402343 56 88 56 48.601562 0 88-25.070312 88-56zm0 0" fill="#d3843d"/><path d="m472.011719 400v-288c0-30.929688-39.398438-56-88-56-48.597657 0-88 25.070312-88 56v288c0 30.929688 39.402343 56 88 56 48.601562 0 88-25.070312 88-56zm0 0" fill="#d3843d"/><path d="m328.011719 424v-240c0-30.929688-39.398438-56-88-56-48.597657 0-88 25.070312-88 56v240c0 30.929688 39.402343 48 88 48 48.601562 0 88-17.070312 88-48zm0 0" fill="#ad6327"/><path d="m472.011719 112c0-30.929688-39.398438-56-88-56-48.601563 0-88 25.070312-88 56s39.398437 56 88 56c48.601562 0 88-25.070312 88-56zm0 0" fill="#ffd782"/><path d="m416.011719 112c0-11.246094-14.328125-20.359375-32-20.359375s-32 9.113281-32 20.359375 14.328125 20.359375 32 20.359375 32-9.113281 32-20.359375zm0 0" fill="#d3843d"/><path d="m328.011719 184c0-30.929688-39.398438-56-88-56-48.601563 0-88 25.070312-88 56s39.398437 56 88 56c48.601562 0 88-25.070312 88-56zm0 0" fill="#ffd782"/><path d="m272.011719 184c0-11.246094-14.328125-20.359375-32-20.359375s-32 9.113281-32 20.359375 14.328125 20.359375 32 20.359375 32-9.113281 32-20.359375zm0 0" fill="#d3843d"/><path d="m184.011719 64c0-30.929688-39.398438-56-88-56-48.601563 0-88 25.070312-88 56s39.398437 56 88 56c48.601562 0 88-25.070312 88-56zm0 0" fill="#ffd782"/><path d="m128.011719 64c0-11.246094-14.328125-20.359375-32-20.359375s-32 9.113281-32 20.359375 14.328125 20.359375 32 20.359375 32-9.113281 32-20.359375zm0 0" fill="#d3843d"/><g fill="#ffd782"><path d="m440.011719 320c-4.417969 0-8-3.582031-8-8v-152c0-4.417969 3.582031-8 8-8s8 3.582031 8 8v152c0 4.417969-3.582031 8-8 8zm0 0"/><path d="m440.011719 448c-4.417969 0-8-3.582031-8-8v-96c0-4.417969 3.582031-8 8-8s8 3.582031 8 8v96c0 4.417969-3.582031 8-8 8zm0 0"/><path d="m408.011719 376c-4.417969 0-8-3.582031-8-8v-200c0-4.417969 3.582031-8 8-8s8 3.582031 8 8v200c0 4.417969-3.582031 8-8 8zm0 0"/><path d="m408.011719 456c-4.417969 0-8-3.582031-8-8v-48c0-4.417969 3.582031-8 8-8s8 3.582031 8 8v48c0 4.417969-3.582031 8-8 8zm0 0"/><path d="m376.011719 336c-4.417969 0-8-3.582031-8-8v-80c0-4.417969 3.582031-8 8-8s8 3.582031 8 8v80c0 4.417969-3.582031 8-8 8zm0 0"/><path d="m376.011719 432c-4.417969 0-8-3.582031-8-8v-64c0-4.417969 3.582031-8 8-8s8 3.582031 8 8v64c0 4.417969-3.582031 8-8 8zm0 0"/><path d="m216.011719 376c-4.417969 0-8-3.582031-8-8v-128c0-4.417969 3.582031-8 8-8s8 3.582031 8 8v128c0 4.417969-3.582031 8-8 8zm0 0"/><path d="m216.011719 472c-4.417969 0-8-3.582031-8-8v-64c0-4.417969 3.582031-8 8-8s8 3.582031 8 8v64c0 4.417969-3.582031 8-8 8zm0 0"/><path d="m296.011719 304c-4.417969 0-8-3.582031-8-8v-64c0-4.417969 3.582031-8 8-8s8 3.582031 8 8v64c0 4.417969-3.582031 8-8 8zm0 0"/><path d="m296.011719 416c-4.417969 0-8-3.582031-8-8v-80c0-4.417969 3.582031-8 8-8s8 3.582031 8 8v80c0 4.417969-3.582031 8-8 8zm0 0"/><path d="m264.011719 472c-4.417969 0-8-3.582031-8-8v-88c0-4.417969 3.582031-8 8-8s8 3.582031 8 8v88c0 4.417969-3.582031 8-8 8zm0 0"/><path d="m264.011719 352c-4.417969 0-8-3.582031-8-8v-104c0-4.417969 3.582031-8 8-8s8 3.582031 8 8v104c0 4.417969-3.582031 8-8 8zm0 0"/><path d="m80.011719 288c-4.417969 0-8-3.582031-8-8v-128c0-4.417969 3.582031-8 8-8s8 3.582031 8 8v128c0 4.417969-3.582031 8-8 8zm0 0"/><path d="m80.011719 368c-4.417969 0-8-3.582031-8-8v-48c0-4.417969 3.582031-8 8-8s8 3.582031 8 8v48c0 4.417969-3.582031 8-8 8zm0 0"/><path d="m48.011719 200c-4.417969 0-8-3.582031-8-8v-80c0-4.417969 3.582031-8 8-8s8 3.582031 8 8v80c0 4.417969-3.582031 8-8 8zm0 0"/><path d="m48.011719 312c-4.417969 0-8-3.582031-8-8v-80c0-4.417969 3.582031-8 8-8s8 3.582031 8 8v80c0 4.417969-3.582031 8-8 8zm0 0"/><path d="m48.011719 464c-4.417969 0-8-3.582031-8-8v-120c0-4.417969 3.582031-8 8-8s8 3.582031 8 8v120c0 4.417969-3.582031 8-8 8zm0 0"/><path d="m80.011719 432c-4.417969 0-8-3.582031-8-8v-24c0-4.417969 3.582031-8 8-8s8 3.582031 8 8v24c0 4.417969-3.582031 8-8 8zm0 0"/></g><path d="m384.011719 83.632812c-22.398438 0-40 12.464844-40 28.367188s17.601562 28.367188 40 28.367188c22.402343 0 40-12.464844 40-28.367188s-17.597657-28.367188-40-28.367188zm0 40.734376c-13.734375 0-24-6.535157-24-12.367188s10.265625-12.367188 24-12.367188c13.738281 0 24 6.535157 24 12.367188s-10.261719 12.367188-24 12.367188zm0 0"/><path d="m240.011719 212.367188c22.402343 0 40-12.464844 40-28.367188s-17.597657-28.367188-40-28.367188c-22.398438 0-40 12.464844-40 28.367188s17.601562 28.367188 40 28.367188zm0-40.734376c13.738281 0 24 6.535157 24 12.367188s-10.261719 12.367188-24 12.367188c-13.734375 0-24-6.535157-24-12.367188s10.265625-12.367188 24-12.367188zm0 0"/><path d="m96.011719 92.367188c22.402343 0 40-12.464844 40-28.367188s-17.597657-28.367188-40-28.367188c-22.398438 0-40 12.464844-40 28.367188s17.601562 28.367188 40 28.367188zm0-40.734376c13.738281 0 24 6.535157 24 12.367188s-10.261719 12.367188-24 12.367188c-13.734375 0-24-6.535157-24-12.367188s10.265625-12.367188 24-12.367188zm0 0"/><path d="m376.011719 240c-4.417969 0-8 3.582031-8 8v80c0 4.417969 3.582031 8 8 8s8-3.582031 8-8v-80c0-4.417969-3.582031-8-8-8zm0 0"/><path d="m376.011719 352c-4.417969 0-8 3.582031-8 8v64c0 4.417969 3.582031 8 8 8s8-3.582031 8-8v-64c0-4.417969-3.582031-8-8-8zm0 0"/><path d="m296.011719 320c-4.417969 0-8 3.582031-8 8v80c0 4.417969 3.582031 8 8 8s8-3.582031 8-8v-80c0-4.417969-3.582031-8-8-8zm0 0"/><path d="m80.011719 144c-4.417969 0-8 3.582031-8 8v128c0 4.417969 3.582031 8 8 8s8-3.582031 8-8v-128c0-4.417969-3.582031-8-8-8zm0 0"/><path d="m80.011719 304c-4.417969 0-8 3.582031-8 8v48c0 4.417969 3.582031 8 8 8s8-3.582031 8-8v-48c0-4.417969-3.582031-8-8-8zm0 0"/><path d="m48.011719 216c-4.417969 0-8 3.582031-8 8v80c0 4.417969 3.582031 8 8 8s8-3.582031 8-8v-80c0-4.417969-3.582031-8-8-8zm0 0"/><path d="m80.011719 392c-4.417969 0-8 3.582031-8 8v24c0 4.417969 3.582031 8 8 8s8-3.582031 8-8v-24c0-4.417969-3.582031-8-8-8zm0 0"/><path d="m384.011719 48c-53.832031 0-96 28.113281-96 64v16.367188c-31.027344-11.15625-64.972657-11.15625-96 0v-64.367188c0-35.886719-42.167969-64-96-64s-96.0000002 28.113281-96.0000002 64v352c0 35.886719 42.1679692 64 96.0000002 64 24.285156.484375 48.175781-6.191406 68.6875-19.199219 16.914062 12.121094 43.128906 19.199219 75.3125 19.199219 40.046875 0 70.878906-10.96875 85.898437-28.960938 18.113282 8.726563 37.996094 13.160157 58.101563 12.960938 53.832031 0 96-28.113281 96-64v-288c0-35.886719-42.167969-64-96-64zm-64 136c0 26.015625-36.632813 48-80 48-43.367188 0-80-21.984375-80-48s36.632812-48 80-48c43.367187 0 80 21.984375 80 48zm-224-168c43.367187 0 80 21.984375 80 48s-36.632813 48-80 48c-43.367188 0-80-21.984375-80-48s36.632812-48 80-48zm-40.238281 441.191406c.113281-.390625.191406-.789062.238281-1.191406v-120c0-4.417969-3.582031-8-8-8s-8 3.582031-8 8v113.894531c-14.726563-8.757812-24-20.816406-24-33.894531v-316.175781c7 6.808593 15.117187 12.359375 24 16.414062v75.761719c0 4.417969 3.582031 8 8 8s8-3.582031 8-8v-69.679688c12.988281 3.816407 26.460937 5.730469 40 5.679688 33.769531 0 62.945312-11.070312 80-28.175781v36.175781c-19.695313 11.640625-32 28.664062-32 48v240c.019531 9.246094 3.152343 18.214844 8.898437 25.464844-17.296875 9.917968-36.964844 14.941406-56.898437 14.535156-13.703125.054688-27.316407-2.25-40.238281-6.808594zm216.238281 3.785156v-84.976562c0-4.417969-3.582031-8-8-8s-8 3.582031-8 8v87.257812c-5.3125.476563-10.679688.742188-16 .742188-5.320313 0-10.6875-.265625-16-.742188v-63.257812c0-4.417969-3.582031-8-8-8s-8 3.582031-8 8v60.976562c-26.449219-5.183593-48-17.175781-48-36.976562v-204.175781c13.410156 12.488281 30.03125 21.003906 48 24.589843v123.585938c0 4.417969 3.582031 8 8 8s8-3.582031 8-8v-120.921875c10.632812 1.230469 21.371093 1.230469 32 0v96.921875c0 4.417969 3.582031 8 8 8s8-3.582031 8-8v-99.585938c5.4375-1.234374 10.78125-2.835937 16-4.796874v56.382812c0 4.417969 3.582031 8 8 8s8-3.582031 8-8v-64c5.824219-3.367188 11.199219-7.457031 16-12.167969v204.167969c0 19.800781-21.550781 31.792969-48 36.976562zm192-60.976562c-.726563 11.386719-6.621094 21.816406-16 28.3125v-84.3125c0-4.417969-3.582031-8-8-8s-8 3.582031-8 8v94.03125c-5.164063 2.363281-10.515625 4.296875-16 5.777344v-43.808594c0-4.417969-3.582031-8-8-8s-8 3.582031-8 8v46.984375c-5.304688.675781-10.648438 1.015625-16 1.015625-17.332031.160156-34.472657-3.625-50.128907-11.0625 1.40625-4.167969 2.125-8.539062 2.128907-12.9375v-240c-.03125-6.144531-1.296875-12.21875-3.726563-17.863281 16.421875 6.667969 34.003906 10.023437 51.726563 9.863281 5.347656-.019531 10.6875-.328125 16-.921875v192.921875c0 4.417969 3.582031 8 8 8s8-3.582031 8-8v-195.585938c5.4375-1.234374 10.78125-2.835937 16-4.796874v144.382812c0 4.417969 3.582031 8 8 8s8-3.582031 8-8v-152c5.824219-3.367188 11.199219-7.457031 16-12.167969zm-80-240c-43.367188 0-80-21.984375-80-48s36.632812-48 80-48c43.367187 0 80 21.984375 80 48s-36.632813 48-80 48zm0 0"/></svg>