<svg height="480pt" viewBox="0 -52 480.00127 480" width="480pt" xmlns="http://www.w3.org/2000/svg"><path d="m358.03125 112h-122.101562v.066406c-38.328126.878906-97.851563 43.199219-133.3125 71.308594-7.25-18.960938-25.476563-31.453125-45.777344-31.375h-48.839844c.234375 26.742188 22.097656 48.230469 48.839844 48-26.742188-.230469-48.605469 21.257812-48.839844 48h48.839844c15.726562.042969 30.515625-7.46875 39.761718-20.191406 34.398438 27.832031 98.742188 75.199218 139.328126 76.128906v.0625h122.101562c49.457031 0 113.96875-96 113.96875-96s-64.511719-96-113.96875-96zm0 0" fill="#cfdfe8"/><path d="m358.03125 112h-10.664062c-23.332032 26.480469-35.945313 60.710938-35.367188 96-.578125 35.289062 12.035156 69.523438 35.367188 96h10.664062c49.457031 0 113.96875-96 113.96875-96s-64.511719-96-113.96875-96zm0 0" fill="#8b97a3"/><path d="m286.855469 299.878906c-44.6875-74.496094-9.648438-133.085937-8.0625-135.652344 2.335937-3.757812 1.1875-8.695312-2.570313-11.035156-3.753906-2.335937-8.695312-1.1875-11.03125 2.570313-6.515625 11.417969-11.148437 23.8125-13.726562 36.703125-1.140625-.246094-2.300782-.402344-3.464844-.464844h-32c-13.253906 0-24 10.746094-24 24s10.746094 24 24 24h32c.414062 0 .800781-.101562 1.207031-.121094 2.949219 24.210938 11.117188 47.492188 23.9375 68.242188 2.3125 3.695312 7.164063 4.859375 10.902344 2.613281s4.988281-7.074219 2.808594-10.855469zm0 0" fill="#8b97a3"/><path d="m400 200c-4.417969 0-8-3.582031-8-8v-16c0-4.417969 3.582031-8 8-8s8 3.582031 8 8v16c0 4.417969-3.582031 8-8 8zm0 0" fill="#fff"/><g fill="#aabece"><path d="m280 368h-64c0-35.34375 28.652344-64 64-64h64c0 35.347656-28.652344 64-64 64zm0 0"/><path d="m220.710938 301.746094c-23.03125-5.546875-50.535157-20.984375-75.542969-37.816406-20.453125 11.242187-33.164063 32.730468-33.167969 56.070312h64c16.722656.015625 32.777344-6.542969 44.710938-18.253906zm0 0"/><path d="m216 48h64c35.347656 0 64 28.65625 64 64h-64c-35.347656 0-64-28.652344-64-64zm0 0"/></g><path d="m312 120c-3.652344-.003906-6.839844-2.480469-7.742188-6.023438-.304687-1.121093-7.089843-25.976562-32.257812-25.976562-4.417969 0-8-3.582031-8-8s3.582031-8 8-8c22.710938.378906 42.320312 16.003906 47.761719 38.054688 1.070312 4.289062-1.535157 8.636718-5.824219 9.707031-.632812.160156-1.285156.242187-1.9375.238281zm0 0" fill="#cfdfe8"/><path d="m264 344c-4.417969 0-8-3.582031-8-8s3.582031-8 8-8c31.632812 0 32-23.015625 32-24 0-4.417969 3.582031-8 8-8s8 3.582031 8 8c0 13.832031-10.03125 40-48 40zm0 0" fill="#cfdfe8"/><path d="m472 100c0 11.046875-8.953125 20-20 20s-20-8.953125-20-20 8.953125-20 20-20 20 8.953125 20 20zm0 0" fill="#87cee9"/><path d="m440 32c0 13.253906-10.746094 24-24 24s-24-10.746094-24-24 10.746094-24 24-24 24 10.746094 24 24zm0 0" fill="#87cee9"/><path d="m358.03125 104h-6.503906c-4.105469-36.414062-34.882813-63.949219-71.527344-64h-64c-4.417969 0-8 3.582031-8 8 .003906 21.816406 9.917969 42.445312 26.945312 56.082031h-.265624c-36.734376 1.480469-89.078126 35.816407-129.265626 66.917969-10.445312-16.78125-28.808593-26.988281-48.574218-27h-48.839844c-4.417969 0-8 3.582031-8 8 .0664062 19.75 10.554688 38 27.585938 48-17.03125 10-27.5195318 28.25-27.585938 48 0 4.417969 3.582031 8 8 8h48.839844c15.339844-.011719 30.03125-6.164062 40.800781-17.085938 10.464844 8.285157 21.734375 16.847657 33.375 25.085938-17.027344 13.609375-26.960937 34.203125-27.015625 56 0 4.417969 3.582031 8 8 8h64c17.285156.011719 33.988281-6.242188 47.015625-17.597656 3.84375.792968 7.738281 1.300781 11.65625 1.511718h.273437c-17.03125 13.636719-26.941406 34.269532-26.945312 56.085938 0 4.417969 3.582031 8 8 8h64c36.644531-.050781 67.421875-27.585938 71.527344-64h6.503906c53.113281 0 117.871094-95.472656 120.609375-99.535156 1.8125-2.699219 1.8125-6.230469 0-8.929688-2.738281-4.0625-67.496094-99.535156-120.609375-99.535156zm-133.464844-48h55.433594c27.824219.035156 51.417969 20.464844 55.433594 48h-17.707032c-7.117187-19.125-25.316406-31.863281-45.726562-32-4.417969 0-8 3.582031-8 8s3.582031 8 8 8c11.488281-.132812 22.132812 6 27.785156 16h-19.785156c-27.824219-.035156-51.417969-20.464844-55.433594-48zm-48.566406 256h-55.425781c2.28125-15.726562 11.128906-29.746094 24.347656-38.566406 18.3125 12.558594 37.945313 23.074218 58.550781 31.359375-8.378906 4.738281-17.847656 7.222656-27.472656 7.207031zm45.304688-18.398438c-1.550782-.402343-3.152344-.847656-4.800782-1.34375-1.113281-.34375-2.238281-.714843-3.390625-1.105468-1.152343-.390625-2.175781-.800782-3.28125-1.160156-1.671875-.617188-3.351562-1.253907-5.089843-1.96875l-1.597657-.65625c-13.5-5.875-26.53125-12.78125-38.96875-20.664063-.863281-.535156-1.710937-1.039063-2.589843-1.597656-1.554688-.976563-3.144532-2.03125-4.722657-3.050781-2.023437-1.308594-4.039062-2.613282-6.101562-4-15.410157-10.285157-31.90625-22.484376-49.203125-36.476563-1.699219-1.394531-3.902344-2.015625-6.078125-1.714844-2.171875.28125-4.128907 1.4375-5.425781 3.203125-7.734376 10.617188-20.074219 16.910156-33.214844 16.933594h-40c4.113281-18.769531 20.785156-32.109375 40-32 4.417968 0 8-3.582031 8-8s-3.582032-8-8-8c-19.214844.109375-35.886719-13.230469-40-32h40c16.953125-.039062 32.179687 10.375 38.289062 26.191406.902344 2.390625 2.886719 4.203125 5.347656 4.886719 2.460938.679687 5.097657.144531 7.097657-1.4375 55.777343-44.246094 101.425781-68.960937 128.546875-69.601563.265625 0 .535156-.019531.800781-.054687h93.941406c-35.808593 53.203125-35.808593 122.796875 0 176h-46.222656c-10.390625-17.804687-17.035156-37.542969-19.527344-58.007813 0-.222656.0625-.441406 0-.664062-1.457031-13.605469-.789062-27.359375 1.976563-40.761719.03125-.328125.042968-.660156.039062-.988281 2.203125-11 6.125-21.578125 11.625-31.355469 2.335938-3.753906 1.1875-8.691406-2.570312-11.03125-3.753906-2.335937-8.695313-1.1875-11.03125 2.570313-5.191406 9.03125-9.152344 18.714844-11.777344 28.796875-1.773438-.335938-3.570312-.519531-5.375-.542969h-32c-17.671875 0-32 14.328125-32 32s14.328125 32 32 32h32c.800781 0 1.535156-.167969 2.304688-.222656 2.898437 16.804687 8.355468 33.066406 16.175781 48.222656h-29.550781c-.265626-.035156-.535157-.050781-.800782-.054688-5.015625-.226562-9.988281-1.011718-14.824218-2.34375zm27.199218-61.601562h-32.503906c-8.835938 0-16-7.164062-16-16s7.164062-16 16-16h32c.691406.007812 1.378906.058594 2.0625.160156-1.671875 10.527344-2.191406 21.203125-1.550781 31.839844zm31.496094 128h-55.433594c4.015625-27.535156 27.609375-47.964844 55.433594-48h14.222656c-2.878906 6.984375-10.398437 16-30.222656 16-4.417969 0-8 3.582031-8 8s3.582031 8 8 8c31.480469 0 43.71875-17.96875 47-32h24.433594c-4.015625 27.535156-27.609375 47.964844-55.433594 48zm78.03125-64h-7.085938c-20.429687-24.734375-31.398437-55.925781-30.945312-88-.453125-32.074219 10.515625-63.265625 30.945312-88h7.085938c35.058594 0 84.417969 59.800781 104.257812 88-19.839843 28.199219-69.199218 88-104.257812 88zm0 0"/><path d="m400 168c-4.417969 0-8 3.582031-8 8v16c0 4.417969 3.582031 8 8 8s8-3.582031 8-8v-16c0-4.417969-3.582031-8-8-8zm0 0"/><path d="m452 72c-15.464844 0-28 12.535156-28 28s12.535156 28 28 28 28-12.535156 28-28-12.535156-28-28-28zm0 40c-6.628906 0-12-5.371094-12-12 0-6.625 5.371094-12 12-12s12 5.375 12 12c0 6.628906-5.371094 12-12 12zm0 0"/><path d="m384 32c0 17.671875 14.328125 32 32 32s32-14.328125 32-32-14.328125-32-32-32-32 14.328125-32 32zm48 0c0 8.835938-7.164062 16-16 16s-16-7.164062-16-16 7.164062-16 16-16 16 7.164062 16 16zm0 0"/></svg>