<svg height="480pt" viewBox="-68 0 480 480" width="480pt" xmlns="http://www.w3.org/2000/svg"><path d="m8 64h48c53.019531 0 96 42.980469 96 96h-48c-53.019531 0-96-42.980469-96-96zm0 0" fill="#c8d952"/><path d="m240 104h-48c0-53.019531 42.980469-96 96-96h48c0 53.019531-42.980469 96-96 96zm0 0" fill="#c8d952"/><path d="m72 328h208v96c0 26.507812-21.492188 48-48 48h-112c-26.507812 0-48-21.492188-48-48zm0 0" fill="#cfdfe8"/><path d="m56 280h240c8.835938 0 16 7.164062 16 16v16c0 8.835938-7.164062 16-16 16h-240c-8.835938 0-16-7.164062-16-16v-16c0-8.835938 7.164062-16 16-16zm0 0" fill="#5a6470"/><path d="m272 248h-24c8.835938 0 16-7.164062 16-16s-7.164062-16-16-16h-144c-8.835938 0-16 7.164062-16 16s7.164062 16 16 16h-24c-8.835938 0-16 7.164062-16 16s7.164062 16 16 16h192c8.835938 0 16-7.164062 16-16s-7.164062-16-16-16zm0 0" fill="#d3843d"/><path d="m192 256h-96c-4.417969 0-8-3.582031-8-8s3.582031-8 8-8h96c4.417969 0 8 3.582031 8 8s-3.582031 8-8 8zm0 0" fill="#ffd782"/><path d="m248 256h-24c-4.417969 0-8-3.582031-8-8s3.582031-8 8-8h24c4.417969 0 8 3.582031 8 8s-3.582031 8-8 8zm0 0" fill="#ffd782"/><g fill="#5a6470"><path d="m176 432h-104c-4.417969 0-8-3.582031-8-8s3.582031-8 8-8h104c4.417969 0 8 3.582031 8 8s-3.582031 8-8 8zm0 0"/><path d="m144 400h-72c-4.417969 0-8-3.582031-8-8s3.582031-8 8-8h72c4.417969 0 8 3.582031 8 8s-3.582031 8-8 8zm0 0"/><path d="m280 368h-48c-4.417969 0-8-3.582031-8-8s3.582031-8 8-8h48c4.417969 0 8 3.582031 8 8s-3.582031 8-8 8zm0 0"/><path d="m224 432h-16c-4.417969 0-8-3.582031-8-8s3.582031-8 8-8h16c4.417969 0 8 3.582031 8 8s-3.582031 8-8 8zm0 0"/></g><path d="m176 8c8.835938 0 16 7.164062 16 16v192h-32v-192c0-8.835938 7.164062-16 16-16zm0 0" fill="#55b56a"/><path d="m192 112c-3.371094.003906-6.382812-2.109375-7.527344-5.277344-1.148437-3.171875-.183594-6.71875 2.40625-8.875 2-1.664062 49.441406-40.992187 90.144532-57.28125 4.105468-1.640625 8.765624.351563 10.410156 4.457032 1.640625 4.105468-.351563 8.765624-4.457032 10.410156-38.402343 15.351562-85.382812 54.328125-85.855468 54.71875-1.4375 1.195312-3.25 1.847656-5.121094 1.847656zm0 0" fill="#55b56a"/><path d="m152 168c-1.730469 0-3.414062-.5625-4.800781-1.601562-17.597657-13.230469-66.183594-48.941407-78.773438-55.238282-3.957031-1.976562-5.5625-6.78125-3.585937-10.734375 1.976562-3.957031 6.78125-5.5625 10.734375-3.585937 16.425781 8.230468 78.59375 54.785156 81.226562 56.761718 2.753907 2.066407 3.878907 5.660157 2.789063 8.929688-1.089844 3.265625-4.144532 5.46875-7.589844 5.46875zm0 0" fill="#55b56a"/><path d="m208 432h16c4.417969 0 8-3.582031 8-8s-3.582031-8-8-8h-16c-4.417969 0-8 3.582031-8 8s3.582031 8 8 8zm0 0"/><path d="m336 0h-48c-35.777344.03125-69.023438 18.46875-88 48.800781v-24.800781c0-13.253906-10.746094-24-24-24s-24 10.746094-24 24v96.0625c-16.15625-38.753906-54.011719-64.015625-96-64.0625h-48c-4.417969 0-8 3.582031-8 8 .0664062 57.410156 46.589844 103.933594 104 104h48v40h-48c-7.792969 0-15.101562 3.78125-19.597656 10.140625-4.5 6.363281-5.632813 14.511719-3.035156 21.859375h-1.367188c-13.253906 0-24 10.746094-24 24 .027344 2.730469.523438 5.4375 1.472656 8h-1.472656c-13.253906 0-24 10.746094-24 24v16c0 13.253906 10.746094 24 24 24h8v88c.035156 30.914062 25.085938 55.964844 56 56h112c30.914062-.035156 55.964844-25.085938 56-56v-88h8c13.253906 0 24-10.746094 24-24v-16c0-13.253906-10.746094-24-24-24h-1.472656c.949218-2.5625 1.445312-5.269531 1.472656-8 0-13.253906-10.746094-24-24-24h-1.367188c2.597657-7.347656 1.464844-15.496094-3.035156-21.859375-4.496094-6.359375-11.804687-10.140625-19.597656-10.140625h-48v-96h40c57.410156-.066406 103.933594-46.589844 104-104 0-4.417969-3.582031-8-8-8zm-319.640625 72h39.640625c41.949219.0625 78.039062 29.683594 86.28125 70.816406-20.050781-14.777344-54.960938-40.105468-66.707031-45.976562-3.953125-1.976563-8.757813-.371094-10.734375 3.585937-1.976563 3.953125-.371094 8.757813 3.585937 10.734375 9.238281 4.617188 37.789063 25.046875 59.328125 40.839844h-23.753906c-45.480469-.054688-83.449219-34.710938-87.640625-80zm255.640625 280h-40c-4.417969 0-8 3.582031-8 8s3.582031 8 8 8h40v56c-.027344 22.082031-17.917969 39.972656-40 40h-112c-19-.023438-35.371094-13.386719-39.199219-32h95.199219c4.417969 0 8-3.582031 8-8s-3.582031-8-8-8h-96v-16h64c4.417969 0 8-3.582031 8-8s-3.582031-8-8-8h-64v-48h192zm32-56v16c0 4.417969-3.582031 8-8 8h-240c-4.417969 0-8-3.582031-8-8v-16c0-4.417969 3.582031-8 8-8h240c4.417969 0 8 3.582031 8 8zm-48-64c0 4.417969-3.582031 8-8 8h-24c-4.417969 0-8 3.582031-8 8s3.582031 8 8 8h48c4.417969 0 8 3.582031 8 8s-3.582031 8-8 8h-192c-4.417969 0-8-3.582031-8-8s3.582031-8 8-8h112c4.417969 0 8-3.582031 8-8s-3.582031-8-8-8h-88c-4.417969 0-8-3.582031-8-8s3.582031-8 8-8h144c4.417969 0 8 3.582031 8 8zm-88-24v-184c0-4.417969 3.582031-8 8-8s8 3.582031 8 8v184zm72-112h-24.664062c20.886718-16.117188 43.585937-29.734375 67.640624-40.566406 4.105469-1.644532 6.097657-6.304688 4.457032-10.410156-1.644532-4.105469-6.304688-6.097657-10.410156-4.457032-26.78125 12.066406-52.003907 27.332032-75.113282 45.464844 8.539063-40.753906 44.449219-69.96875 86.089844-70.03125h39.640625c-4.191406 45.289062-42.160156 79.945312-87.640625 80zm0 0"/></svg>