<svg height="480pt" viewBox="0 -24 480 480" width="480pt" xmlns="http://www.w3.org/2000/svg"><path d="m456 392.527344h-432v-304l216-80 216 80zm0 0" fill="#d3843d"/><path d="m8 392.527344h464v32h-464zm0 0" fill="#5a6470"/><path d="m296 296.527344h160v96h-160zm0 0" fill="#9c2d20"/><path d="m24 296.527344h160v96h-160zm0 0" fill="#9c2d20"/><g fill="#ffd782"><path d="m96 368.527344h-72c-4.417969 0-8-3.582032-8-8 0-4.417969 3.582031-8 8-8h72c4.417969 0 8 3.582031 8 8 0 4.417968-3.582031 8-8 8zm0 0"/><path d="m184 368.527344h-48c-4.417969 0-8-3.582032-8-8 0-4.417969 3.582031-8 8-8h48c4.417969 0 8 3.582031 8 8 0 4.417968-3.582031 8-8 8zm0 0"/><path d="m136 336.527344h-112c-4.417969 0-8-3.582032-8-8 0-4.417969 3.582031-8 8-8h112c4.417969 0 8 3.582031 8 8 0 4.417968-3.582031 8-8 8zm0 0"/><path d="m184 336.527344h-16c-4.417969 0-8-3.582032-8-8 0-4.417969 3.582031-8 8-8h16c4.417969 0 8 3.582031 8 8 0 4.417968-3.582031 8-8 8zm0 0"/><path d="m456 336.527344h-128c-4.417969 0-8-3.582032-8-8 0-4.417969 3.582031-8 8-8h128c4.417969 0 8 3.582031 8 8 0 4.417968-3.582031 8-8 8zm0 0"/><path d="m360 368.527344h-64c-4.417969 0-8-3.582032-8-8 0-4.417969 3.582031-8 8-8h64c4.417969 0 8 3.582031 8 8 0 4.417968-3.582031 8-8 8zm0 0"/><path d="m456 368.527344h-64c-4.417969 0-8-3.582032-8-8 0-4.417969 3.582031-8 8-8h64c4.417969 0 8 3.582031 8 8 0 4.417968-3.582031 8-8 8zm0 0"/></g><path d="m184 272.527344h56v120h-56zm0 0" fill="#aabece"/><path d="m184 144.527344h56v128h-56zm0 0" fill="#cfdfe8"/><path d="m240 144.527344h56v128h-56zm0 0" fill="#aabece"/><path d="m296 144.527344h160v-56l-160-59.253906zm0 0" fill="#ffd782"/><path d="m24 144.527344h160v-115.253906l-160 59.253906zm0 0" fill="#ffd782"/><path d="m216 72.527344c-3.714844.007812-6.945312-2.542969-7.800781-6.160156-.855469-3.613282.890625-7.34375 4.214843-9l32-16c3.957032-1.972657 8.761719-.371094 10.738282 3.585937 1.976562 3.953125.371094 8.761719-3.585938 10.734375l-32 16c-1.105468.554688-2.328125.839844-3.566406.839844zm0 0" fill="#ffd782"/><path d="m216 104.527344c-3.714844.007812-6.945312-2.542969-7.800781-6.160156-.855469-3.613282.890625-7.34375 4.214843-9l48-24c3.957032-1.972657 8.761719-.371094 10.738282 3.585937 1.976562 3.953125.371094 8.761719-3.585938 10.734375l-48 24c-1.105468.554688-2.328125.839844-3.566406.839844zm0 0" fill="#ffd782"/><path d="m248 120.527344c-3.714844.007812-6.945312-2.542969-7.800781-6.160156-.855469-3.613282.890625-7.34375 4.214843-9l16-8c3.957032-1.972657 8.761719-.371094 10.738282 3.585937 1.976562 3.953125.371094 8.761719-3.585938 10.734375l-16 8c-1.105468.554688-2.328125.839844-3.566406.839844zm0 0" fill="#ffd782"/><path d="m344 47.046875 80 29.625v-68.144531h-80zm0 0" fill="#9c2d20"/><path d="m240 272.527344h56v120h-56zm0 0" fill="#cfdfe8"/><path d="m480 384.527344h-16v-301.597656l-32-11.851563v-70.550781h-96v35.023437l-96-35.550781-224 82.929688v301.597656h-16v48h480zm-288-104h40v104h-40zm-16-144h-144v-42.398438l144-53.335937zm16 16h40v112h-40zm96 112h-40v-112h40zm-40 16h40v104h-40zm56 88h56c4.417969 0 8-3.582032 8-8 0-4.417969-3.582031-8-8-8h-56v-48h144v16h-120c-4.417969 0-8 3.582031-8 8 0 4.417968 3.582031 8 8 8h120v16h-56c-4.417969 0-8 3.582031-8 8 0 4.417968 3.582031 8 8 8h56v16h-144zm0-80v-136h144v136zm0-247.765625 144 53.367187v42.398438h-144zm48-24.234375h64v48.65625l-64-23.703125zm-64 18.3125v101.6875h-96v-101.6875l48-17.785156zm-256 117.6875h144v136h-144zm0 216h64c4.417969 0 8-3.582032 8-8 0-4.417969-3.582031-8-8-8h-64v-16h104c4.417969 0 8-3.582032 8-8 0-4.417969-3.582031-8-8-8h-104v-16h144v16h-8c-4.417969 0-8 3.582031-8 8 0 4.417968 3.582031 8 8 8h8v16h-40c-4.417969 0-8 3.582031-8 8 0 4.417968 3.582031 8 8 8h40v16h-144zm432 48h-448v-16h448zm0 0"/><path d="m216 72.527344c1.238281 0 2.460938-.285156 3.566406-.839844l32-16c3.957032-1.972656 5.5625-6.78125 3.585938-10.734375-1.976563-3.957031-6.78125-5.558594-10.738282-3.585937l-32 16c-3.324218 1.65625-5.070312 5.386718-4.214843 9 .855469 3.617187 4.085937 6.167968 7.800781 6.160156zm0 0"/><path d="m208.839844 100.105469c1.972656 3.953125 6.78125 5.558593 10.734375 3.582031l48-24c3.957031-1.972656 5.5625-6.78125 3.585937-10.734375-1.976562-3.957031-6.78125-5.558594-10.734375-3.585937l-48 24c-3.957031 1.972656-5.5625 6.78125-3.585937 10.738281zm0 0"/><path d="m260.425781 97.367188-16 8c-3.957031 1.976562-5.5625 6.78125-3.585937 10.738281 1.976562 3.953125 6.78125 5.558593 10.734375 3.582031l16-8c3.957031-1.972656 5.5625-6.78125 3.585937-10.734375-1.976562-3.957031-6.78125-5.558594-10.734375-3.585937zm0 0"/></svg>