<svg height="480pt" viewBox="-56 0 480 480" width="480pt" xmlns="http://www.w3.org/2000/svg"><path d="m56 120h256c8.835938 0 16 7.164062 16 16v304c0 17.671875-14.328125 32-32 32h-224c-17.671875 0-32-14.328125-32-32v-304c0-8.835938 7.164062-16 16-16zm0 0" fill="#e97424"/><path d="m72 224h224v200c0 8.835938-7.164062 16-16 16h-192c-8.835938 0-16-7.164062-16-16zm0 0" fill="#fcf05a"/><path d="m152 368c0 8.835938-7.164062 16-16 16s-16-7.164062-16-16 7.164062-16 16-16 16 7.164062 16 16zm0 0" fill="#e97424"/><path d="m248 320c0 8.835938-7.164062 16-16 16s-16-7.164062-16-16 7.164062-16 16-16 16 7.164062 16 16zm0 0" fill="#e97424"/><path d="m56 88h256v32h-256zm0 0" fill="#9c2d20"/><path d="m24 8h320c8.835938 0 16 7.164062 16 16v48c0 8.835938-7.164062 16-16 16h-320c-8.835938 0-16-7.164062-16-16v-48c0-8.835938 7.164062-16 16-16zm0 0" fill="#d3843d"/><g fill="#fcf05a"><path d="m208 88h-48v56c0 13.253906 10.746094 24 24 24s24-10.746094 24-24v24c0 13.253906 10.746094 24 24 24s24-10.746094 24-24v-80zm0 0"/><path d="m224 48h-216c-4.417969 0-8-3.582031-8-8s3.582031-8 8-8h216c4.417969 0 8 3.582031 8 8s-3.582031 8-8 8zm0 0"/><path d="m280 48h-24c-4.417969 0-8-3.582031-8-8s3.582031-8 8-8h24c4.417969 0 8 3.582031 8 8s-3.582031 8-8 8zm0 0"/></g><path d="m224 400h-8c-4.417969 0-8-3.582031-8-8s3.582031-8 8-8h8c4.417969 0 8 3.582031 8 8s-3.582031 8-8 8zm0 0" fill="#e97424"/><path d="m40 144h56v16h-56zm0 0" fill="#fcf05a"/><path d="m112 144h16v16h-16zm0 0" fill="#fcf05a"/><path d="m280 144h48v16h-48zm0 0" fill="#fcf05a"/><path d="m64 424c0 13.253906 10.746094 24 24 24h192c13.253906 0 24-10.746094 24-24v-208h-240zm16-192h208v192c0 4.417969-3.582031 8-8 8h-192c-4.417969 0-8-3.582031-8-8zm0 0"/><path d="m136 392c13.253906 0 24-10.746094 24-24s-10.746094-24-24-24-24 10.746094-24 24 10.746094 24 24 24zm0-32c4.417969 0 8 3.582031 8 8s-3.582031 8-8 8-8-3.582031-8-8 3.582031-8 8-8zm0 0"/><path d="m232 344c13.253906 0 24-10.746094 24-24s-10.746094-24-24-24-24 10.746094-24 24 10.746094 24 24 24zm0-32c4.417969 0 8 3.582031 8 8s-3.582031 8-8 8-8-3.582031-8-8 3.582031-8 8-8zm0 0"/><path d="m24 96h24v17.472656c-9.554688 3.378906-15.957031 12.394532-16 22.527344v304c.027344 22.082031 17.917969 39.972656 40 40h224c22.082031-.027344 39.972656-17.917969 40-40v-304c-.042969-10.132812-6.445312-19.148438-16-22.527344v-17.472656h24c13.253906 0 24-10.746094 24-24v-48c0-13.253906-10.746094-24-24-24h-320c-13.253906 0-24 10.746094-24 24v48c0 13.253906 10.746094 24 24 24zm192 24h-16v24c0 8.835938-7.164062 16-16 16s-16-7.164062-16-16v-48h80v72c0 8.835938-7.164062 16-16 16s-16-7.164062-16-16zm-64-8h-88v-16h88zm144 352h-224c-13.253906 0-24-10.746094-24-24v-280h48v-16h-48v-8c0-4.417969 3.582031-8 8-8h96v16c0 11.472656 6.144531 22.066406 16.101562 27.765625 9.957032 5.703125 22.203126 5.632813 32.097657-.171875 1.894531 16.875 16.644531 29.332031 33.597656 28.375 16.957031-.953125 30.214844-14.988281 30.203125-31.96875v-40h48c4.417969 0 8 3.582031 8 8v8h-40v16h40v280c0 13.253906-10.746094 24-24 24zm8-352h-40v-16h40zm-280-96h320c4.417969 0 8 3.582031 8 8v48c0 4.417969-3.582031 8-8 8h-320c-4.417969 0-8-3.582031-8-8v-24h208c4.417969 0 8-3.582031 8-8s-3.582031-8-8-8h-208v-8c0-4.417969 3.582031-8 8-8zm0 0"/><path d="m256 48h24c4.417969 0 8-3.582031 8-8s-3.582031-8-8-8h-24c-4.417969 0-8 3.582031-8 8s3.582031 8 8 8zm0 0"/><path d="m216 400h8c4.417969 0 8-3.582031 8-8s-3.582031-8-8-8h-8c-4.417969 0-8 3.582031-8 8s3.582031 8 8 8zm0 0"/><path d="m112 144h16v16h-16zm0 0"/></svg>