<svg height="480pt" viewBox="0 -76 480 480" width="480pt" xmlns="http://www.w3.org/2000/svg"><path d="m384 252.003906c-.058594-1.339844-.203125-2.675781-.433594-4-45.640625 18.226563-94.425781 27.289063-143.566406 26.671875-49.140625.617188-97.925781-8.445312-143.566406-26.671875-.230469 1.324219-.375 2.660156-.433594 4 0 37.601563 64.472656 68 144 68s144-30.398437 144-68zm0 0" fill="#5a6470"/><path d="m472 192.339844c0-48.414063-103.871094-87.664063-232-87.664063s-232 39.25-232 87.664063c0 48.417968 103.871094 87.664062 232 87.664062s232-39.246094 232-87.664062zm0 0" fill="#cfdfe8"/><path d="m448 184.003906v-32c-.042969-3.476562-.65625-6.925781-1.816406-10.207031-11.464844-52.433594-74.679688-46.542969-118.183594-53.792969-34.078125-5.679687-84.273438-35.542968-110.527344-52.398437-33.070312-28.871094-79.96875-35.734375-119.925781-17.554688-39.957031 18.183594-65.589844 58.054688-65.546875 101.953125v32c0 35.347656 28.652344 64 64 64h320" fill="#d3843d"/><path d="m416 152.003906h-320c-23.671875 0-56-8-64-32v32c0 35.347656 28.652344 64 64 64h320c17.671875 0 32-14.324218 32-32v-32c.386719-5.359375-.722656-10.71875-3.199219-15.488281-6.253906 9.820313-17.160156 15.6875-28.800781 15.488281zm0 0" fill="#ad6327"/><g fill="#ffd782"><path d="m168 80.003906c0 17.675782-14.328125 32-32 32s-32-14.324218-32-32c0-17.671875 14.328125-32 32-32s32 14.328125 32 32zm0 0"/><path d="m168 192.003906h-16c-4.417969 0-8-3.582031-8-8 0-4.417968 3.582031-8 8-8h16c4.417969 0 8 3.582032 8 8 0 4.417969-3.582031 8-8 8zm0 0"/><path d="m416 192.003906h-152c-4.417969 0-8-3.582031-8-8 0-4.417968 3.582031-8 8-8h152c9.777344 0 24-3.199218 24-8 0-4.417968 3.582031-8 8-8s8 3.582032 8 8c0 17.710938-21.542969 24-40 24zm0 0"/></g><path d="m136 120.003906c22.089844 0 40-17.90625 40-40 0-22.089844-17.910156-40-40-40s-40 17.910156-40 40c.027344 22.082032 17.917969 39.972656 40 40zm0-64c13.253906 0 24 10.746094 24 24s-10.746094 24-24 24-24-10.746094-24-24 10.746094-24 24-24zm0 0"/><path d="m168 176.003906h-16c-4.417969 0-8 3.582032-8 8 0 4.417969 3.582031 8 8 8h16c4.417969 0 8-3.582031 8-8 0-4.417968-3.582031-8-8-8zm0 0"/><path d="m455.945312 149.652344c.0625-5.703125-1.273437-11.332032-3.890624-16.398438-13.511719-41.601562-59.277344-46.265625-96.496094-49.976562-9.328125-.9375-18.144532-1.808594-26.238282-3.160156-32.351562-5.390626-80.746093-34.082032-107.039062-50.9375-35.507812-30.683594-85.65625-37.832032-128.320312-18.289063-42.667969 19.542969-70.007813 62.183594-69.960938 109.113281v29.808594c-.261719.121094-.515625.257812-.761719.40625-15.414062 12.9375-23.238281 27.105469-23.238281 42.121094 0 31.058594 35.382812 58.199218 91.257812 75.5625 14.398438 35.4375 75.140626 60.101562 148.742188 60.101562 73.191406 0 134.320312-25.03125 148.664062-60.070312 55.921876-17.367188 91.335938-44.519532 91.335938-75.59375 0-15.070313-8.359375-29.734375-24.054688-42.6875zm-39.945312 58.351562h-320c-30.914062-.035156-55.964844-25.085937-56-56v-8.214844c16.523438 11.105469 36.101562 16.777344 56 16.214844h320c8.308594-.015625 16.4375-2.40625 23.433594-6.886718.023437.933593.214844 1.859374.566406 2.726562v12.160156c0 4.800782-14.222656 8-24 8h-152c-4.417969 0-8 3.582032-8 8 0 4.417969 3.582031 8 8 8h152c8.03125.105469 16.019531-1.222656 23.585938-3.917968-1.984376 11.484374-11.929688 19.886718-23.585938 19.917968zm-272-192c25.082031.019532 49.3125 9.113282 68.214844 25.601563.296875.257812.609375.492187.9375.703125 27.199218 17.472656 78.167968 47.664062 113.527344 53.550781 8.625 1.441406 17.6875 2.34375 27.296874 3.304687 34.449219 3.449219 69.910157 7.066407 81.726563 36-4.996094 5.636719-12.171875 8.855469-19.703125 8.839844h-320c-23.160156 0-49.097656-7.878906-55.929688-25.375.796876-56.851562 47.070313-102.546875 103.929688-102.625zm96 296c-55.320312 0-104.863281-15.527344-125.671875-37.742187 41.214844 9.441406 83.390625 14.054687 125.671875 13.742187 42.195312.308594 84.28125-4.28125 125.414062-13.679687-19.582031 20.304687-65.308593 37.679687-125.414062 37.679687zm141.761719-58.464844c-.550781.113282-1.085938.277344-1.601563.496094-45.644531 12.546875-92.828125 18.597656-140.160156 17.96875-133.992188 0-224-41.191406-224-79.664062.421875-8.632813 4.074219-16.792969 10.230469-22.863282 8.03125 32.003907 36.773437 54.46875 69.769531 54.527344h320c22.082031-.027344 39.972656-17.917968 40-40v-11.773437c4.859375 5.605469 7.679688 12.695312 8 20.109375 0 22.359375-30.457031 45.625-82.238281 61.199218zm0 0"/></svg>