<svg height="480pt" viewBox="-8 0 480 480.00002" width="480pt" xmlns="http://www.w3.org/2000/svg"><path d="m248.015625 72-40 80v320h168v-320l40-80zm0 0" fill="#2d75bb"/><path d="m416.015625 72-40 80v320h80v-320zm0 0" fill="#155c96"/><path d="m248.015625 8h168v64h-168zm0 0" fill="#7fcac9"/><path d="m344.015625 244c0 28.71875-23.28125 52-52 52s-52-23.28125-52-52 23.28125-52 52-52 52 23.28125 52 52zm0 0" fill="#f4f4e6"/><path d="m208.015625 360s24-32 88-32 80-32 80-32v176h-168zm0 0" fill="#f4f4e6"/><path d="m336.015625 384h-88c-4.417969 0-8-3.582031-8-8s3.582031-8 8-8h88c4.421875 0 8 3.582031 8 8s-3.578125 8-8 8zm0 0" fill="#2d75bb"/><path d="m336.015625 416h-88c-4.417969 0-8-3.582031-8-8s3.582031-8 8-8h88c4.421875 0 8 3.582031 8 8s-3.578125 8-8 8zm0 0" fill="#2d75bb"/><path d="m336.015625 448h-88c-4.417969 0-8-3.582031-8-8s3.582031-8 8-8h88c4.421875 0 8 3.582031 8 8s-3.578125 8-8 8zm0 0" fill="#2d75bb"/><g fill="#f4f4e6"><path d="m424.015625 208h-16c-4.417969 0-8-3.582031-8-8s3.582031-8 8-8h16c4.421875 0 8 3.582031 8 8s-3.578125 8-8 8zm0 0"/><path d="m424.015625 240h-16c-4.417969 0-8-3.582031-8-8s3.582031-8 8-8h16c4.421875 0 8 3.582031 8 8s-3.578125 8-8 8zm0 0"/><path d="m424.015625 272h-16c-4.417969 0-8-3.582031-8-8s3.582031-8 8-8h16c4.421875 0 8 3.582031 8 8s-3.578125 8-8 8zm0 0"/><path d="m456.015625 416h-32c-4.417969 0-8-3.582031-8-8s3.582031-8 8-8h32c4.421875 0 8 3.582031 8 8s-3.578125 8-8 8zm0 0"/><path d="m456.015625 448h-48c-4.417969 0-8-3.582031-8-8s3.582031-8 8-8h48c4.421875 0 8 3.582031 8 8s-3.578125 8-8 8zm0 0"/></g><path d="m160.015625 472h-136l-16-240h168zm0 0" fill="#cfdfe8"/><path d="m12.816406 304 11.199219 168h136l11.203125-168zm0 0" fill="#f4f4e6"/><path d="m56.015625 432c-4.148437.015625-7.625-3.144531-8-7.28125l-8-88c-.394531-4.417969 2.863281-8.320312 7.28125-8.71875s8.324219 2.863281 8.71875 7.28125l8 88c.203125 2.121094-.453125 4.234375-1.820313 5.871094-1.363281 1.636718-3.324218 2.664062-5.449218 2.847656-.25 0-.496094 0-.730469 0zm0 0" fill="#cfdfe8"/><path d="m352.015625 40c-4.417969 0-8-3.582031-8-8v-24c0-4.417969 3.582031-8 8-8 4.421875 0 8 3.582031 8 8v24c0 4.417969-3.578125 8-8 8zm0 0" fill="#f4f4e6"/><path d="m384.015625 48c-4.417969 0-8-3.582031-8-8v-32c0-4.417969 3.582031-8 8-8 4.421875 0 8 3.582031 8 8v32c0 4.417969-3.578125 8-8 8zm0 0" fill="#f4f4e6"/><path d="m344.015625 160h-104c-4.417969 0-8-3.582031-8-8s3.582031-8 8-8h104c4.421875 0 8 3.582031 8 8s-3.578125 8-8 8zm0 0" fill="#f4f4e6"/><path d="m424.015625 70.113281v-62.113281c0-4.417969-3.578125-8-8-8h-168c-4.417969 0-8 3.582031-8 8v62.113281l-39.15625 78.3125c-.554687 1.109375-.84375 2.332031-.84375 3.574219v320c0 4.417969 3.582031 8 8 8h248c4.421875 0 8-3.582031 8-8v-320c.015625-1.238281-.257813-2.460938-.796875-3.574219zm-168-54.113281h88v16c0 4.417969 3.582031 8 8 8 4.421875 0 8-3.582031 8-8v-16h16v24c0 4.417969 3.582031 8 8 8 4.421875 0 8-3.582031 8-8v-24h16v48h-152zm-3.054687 64h150.113281l-34.214844 68.425781c-.554687 1.109375-.84375 2.332031-.84375 3.574219v141.761719c-3.878906 5.695312-21.390625 26.238281-72 26.238281-28.328125-1.152344-56.308594 6.605469-80 22.183594v-188.296875zm-36.945313 282.976562c6.089844-6.402343 29.449219-26.976562 80-26.976562 36.9375 0 59.203125-10.265625 72-19.894531v147.894531h-152zm168 101.023438v-310.113281l32-64 32 64v246.113281h-24c-4.417969 0-8 3.582031-8 8s3.582031 8 8 8h24v16h-40c-4.417969 0-8 3.582031-8 8s3.582031 8 8 8h40v16zm0 0"/><path d="m292.015625 304c33.140625 0 60-26.863281 60-60s-26.859375-60-60-60c-33.136719 0-60 26.863281-60 60 .035156 33.121094 26.878906 59.964844 60 60zm0-104c24.300781 0 44 19.699219 44 44s-19.699219 44-44 44c-24.296875 0-44-19.699219-44-44 .027344-24.289062 19.710937-43.972656 44-44zm0 0"/><path d="m336.015625 368h-88c-4.417969 0-8 3.582031-8 8s3.582031 8 8 8h88c4.421875 0 8-3.582031 8-8s-3.578125-8-8-8zm0 0"/><path d="m336.015625 400h-88c-4.417969 0-8 3.582031-8 8s3.582031 8 8 8h88c4.421875 0 8-3.582031 8-8s-3.578125-8-8-8zm0 0"/><path d="m336.015625 432h-88c-4.417969 0-8 3.582031-8 8s3.582031 8 8 8h88c4.421875 0 8-3.582031 8-8s-3.578125-8-8-8zm0 0"/><path d="m408.015625 208h16c4.421875 0 8-3.582031 8-8s-3.578125-8-8-8h-16c-4.417969 0-8 3.582031-8 8s3.582031 8 8 8zm0 0"/><path d="m408.015625 240h16c4.421875 0 8-3.582031 8-8s-3.578125-8-8-8h-16c-4.417969 0-8 3.582031-8 8s3.582031 8 8 8zm0 0"/><path d="m408.015625 272h16c4.421875 0 8-3.582031 8-8s-3.578125-8-8-8h-16c-4.417969 0-8 3.582031-8 8s3.582031 8 8 8zm0 0"/><path d="m16.015625 472.527344c.28125 4.210937 3.78125 7.480468 8 7.472656h136c4.222656.007812 7.722656-3.261719 8-7.472656l16-240c.148437-2.210938-.628906-4.382813-2.144531-6-1.519532-1.617188-3.636719-2.53125-5.855469-2.527344h-168c-2.214844-.003906-4.332031.910156-5.851563 2.527344-1.515624 1.617187-2.292968 3.789062-2.148437 6zm15.488281-8.527344-10.132812-152h141.292968l-10.132812 152zm136-224-3.734375 56h-143.464843l-3.734376-56zm0 0"/><path d="m47.289062 328c-2.125.183594-4.085937 1.210938-5.449218 2.847656-1.367188 1.636719-2.023438 3.75-1.824219 5.871094l8 88c.375 4.136719 3.851563 7.296875 8 7.28125h.738281c2.121094-.1875 4.082032-1.210938 5.445313-2.847656 1.363281-1.636719 2.019531-3.75 1.816406-5.871094l-8-88c-.179687-2.128906-1.207031-4.09375-2.84375-5.460938-1.640625-1.367187-3.757813-2.023437-5.882813-1.820312zm0 0"/><path d="m240.015625 160h104c4.421875 0 8-3.582031 8-8s-3.578125-8-8-8h-104c-4.417969 0-8 3.582031-8 8s3.582031 8 8 8zm0 0"/></svg>