<svg height="480pt" viewBox="0 0 480 480" width="480pt" xmlns="http://www.w3.org/2000/svg"><path d="m376 8h96v48c0 26.507812-21.492188 48-48 48h-96v-48c0-26.507812 21.492188-48 48-48zm0 0" fill="#d3843d"/><path d="m152 104h-96c-26.507812 0-48-21.492188-48-48v-48h96c26.507812 0 48 21.492188 48 48zm0 0" fill="#d3843d"/><path d="m440 248c0 110.457031-89.542969 224-200 224s-200-113.542969-200-224 89.542969-200 200-200 200 89.542969 200 200zm0 0" fill="#ffd782"/><path d="m320 376h-160v-40c0-44.183594 24-72 80-72s80 27.816406 80 72zm0 0" fill="#d3843d"/><g fill="#ffd782"><path d="m224 320c0 8.835938-7.164062 16-16 16s-16-7.164062-16-16 7.164062-16 16-16 16 7.164062 16 16zm0 0"/><path d="m288 320c0 8.835938-7.164062 16-16 16s-16-7.164062-16-16 7.164062-16 16-16 16 7.164062 16 16zm0 0"/><path d="m240 384c-4.417969 0-8-3.582031-8-8v-24c0-4.417969 3.582031-8 8-8s8 3.582031 8 8v24c0 4.417969-3.582031 8-8 8zm0 0"/></g><path d="m176 376h128c0 17.671875-14.328125 32-32 32h-64c-17.671875 0-32-14.328125-32-32zm0 0" fill="#f7a969"/><path d="m328 112c-3.59375.003906-6.75-2.394531-7.714844-5.859375-.960937-3.464844.503906-7.144531 3.585938-8.996094l80-48c2.453125-1.535156 5.542968-1.625 8.082031-.238281 2.535156 1.386719 4.128906 4.035156 4.164063 6.925781.03125 2.894531-1.5 5.578125-4.003907 7.023438l-80 48c-1.242187.75-2.664062 1.144531-4.113281 1.144531zm0 0" fill="#ffd782"/><path d="m152 112c-1.449219 0-2.871094-.394531-4.113281-1.144531l-80-48c-3.695313-2.3125-4.859375-7.164063-2.613281-10.902344 2.246093-3.738281 7.074218-4.988281 10.855468-2.808594l80 48c3.082032 1.851563 4.546875 5.53125 3.585938 8.996094-.964844 3.464844-4.121094 5.863281-7.714844 5.859375zm0 0" fill="#ffd782"/><path d="m152 256c-2.121094 0-4.15625-.84375-5.65625-2.34375l-10.34375-10.34375-10.34375 10.34375c-3.125 3.121094-8.1875 3.121094-11.3125 0l-10.34375-10.34375-10.34375 10.34375c-3.140625 3.03125-8.128906 2.988281-11.214844-.097656-3.085937-3.085938-3.128906-8.074219-.097656-11.214844l16-16c3.125-3.121094 8.1875-3.121094 11.3125 0l10.34375 10.34375 10.34375-10.34375c3.125-3.121094 8.1875-3.121094 11.3125 0l16 16c2.285156 2.289062 2.972656 5.730469 1.734375 8.71875s-4.15625 4.9375-7.390625 4.9375zm0 0" fill="#f98c96"/><path d="m392 256c-2.121094 0-4.15625-.84375-5.65625-2.34375l-10.34375-10.34375-10.34375 10.34375c-3.125 3.121094-8.1875 3.121094-11.3125 0l-10.34375-10.34375-10.34375 10.34375c-3.140625 3.03125-8.128906 2.988281-11.214844-.097656-3.085937-3.085938-3.128906-8.074219-.097656-11.214844l16-16c3.125-3.121094 8.1875-3.121094 11.3125 0l10.34375 10.34375 10.34375-10.34375c3.125-3.121094 8.1875-3.121094 11.3125 0l16 16c2.285156 2.289062 2.972656 5.730469 1.734375 8.71875s-4.15625 4.9375-7.390625 4.9375zm0 0" fill="#f98c96"/><path d="m216 184h-48c-4.417969 0-8 3.582031-8 8s3.582031 8 8 8h16v16c0 4.417969 3.582031 8 8 8s8-3.582031 8-8v-16h16c4.417969 0 8-3.582031 8-8s-3.582031-8-8-8zm0 0" fill="#61707c"/><path d="m312 184h-48c-4.417969 0-8 3.582031-8 8s3.582031 8 8 8h16v16c0 4.417969 3.582031 8 8 8s8-3.582031 8-8v-16h16c4.417969 0 8-3.582031 8-8s-3.582031-8-8-8zm0 0" fill="#61707c"/><path d="m240 256c-56.753906 0-88 28.40625-88 80v40c0 4.417969 3.582031 8 8 8h8.800781c3.828125 18.613281 20.199219 31.976562 39.199219 32h64c19-.023438 35.371094-13.386719 39.199219-32h8.800781c4.417969 0 8-3.582031 8-8v-40c0-51.59375-31.246094-80-88-80zm32 144h-64c-10.167969-.011719-19.230469-6.417969-22.632812-16h109.265624c-3.402343 9.582031-12.464843 15.988281-22.632812 16zm40-32h-64v-16c0-4.417969-3.582031-8-8-8s-8 3.582031-8 8v16h-64v-32c0-43.0625 23.550781-64 72-64s72 20.9375 72 64zm0 0"/><path d="m208 296c-13.253906 0-24 10.746094-24 24s10.746094 24 24 24 24-10.746094 24-24-10.746094-24-24-24zm0 32c-4.417969 0-8-3.582031-8-8s3.582031-8 8-8 8 3.582031 8 8-3.582031 8-8 8zm0 0"/><path d="m272 296c-13.253906 0-24 10.746094-24 24s10.746094 24 24 24 24-10.746094 24-24-10.746094-24-24-24zm0 32c-4.417969 0-8-3.582031-8-8s3.582031-8 8-8 8 3.582031 8 8-3.582031 8-8 8zm0 0"/><path d="m168 200h16v16c0 4.417969 3.582031 8 8 8s8-3.582031 8-8v-16h16c4.417969 0 8-3.582031 8-8s-3.582031-8-8-8h-48c-4.417969 0-8 3.582031-8 8s3.582031 8 8 8zm0 0"/><path d="m157.65625 253.65625c3.121094-3.125 3.121094-8.1875 0-11.3125l-16-16c-3.125-3.121094-8.1875-3.121094-11.3125 0l-10.34375 10.34375-10.34375-10.34375c-3.125-3.121094-8.1875-3.121094-11.3125 0l-16 16c-3.03125 3.140625-2.988281 8.128906.097656 11.214844 3.085938 3.085937 8.074219 3.128906 11.214844.097656l10.34375-10.34375 10.34375 10.34375c3.125 3.121094 8.1875 3.121094 11.3125 0l10.34375-10.34375 10.34375 10.34375c3.125 3.121094 8.1875 3.121094 11.3125 0zm0 0"/><path d="m360 236.6875-10.34375-10.34375c-3.125-3.121094-8.1875-3.121094-11.3125 0l-16 16c-3.03125 3.140625-2.988281 8.128906.097656 11.214844 3.085938 3.085937 8.074219 3.128906 11.214844.097656l10.34375-10.34375 10.34375 10.34375c3.125 3.121094 8.1875 3.121094 11.3125 0l10.34375-10.34375 10.34375 10.34375c3.140625 3.03125 8.128906 2.988281 11.214844-.097656 3.085937-3.085938 3.128906-8.074219.097656-11.214844l-16-16c-3.125-3.121094-8.1875-3.121094-11.3125 0zm0 0"/><path d="m264 200h16v16c0 4.417969 3.582031 8 8 8s8-3.582031 8-8v-16h16c4.417969 0 8-3.582031 8-8s-3.582031-8-8-8h-48c-4.417969 0-8 3.582031-8 8s3.582031 8 8 8zm0 0"/><path d="m472 0h-96c-30.914062.0351562-55.964844 25.085938-56 56-51.195312-21.367188-108.804688-21.367188-160 0-.035156-30.914062-25.085938-55.9648438-56-56h-96c-4.417969 0-8 3.582031-8 8v48c.0351562 30.914062 25.085938 55.964844 56 56h26.824219c-32.800781 37.710938-50.855469 86.019531-50.824219 136 0 109.511719 88.953125 232 208 232s208-122.488281 208-232c.03125-49.980469-18.023438-98.289062-50.824219-136h26.824219c30.914062-.035156 55.964844-25.085938 56-56v-48c0-4.417969-3.582031-8-8-8zm-456 56v-40h88c22.082031.027344 39.972656 17.917969 40 40v7.566406c-7.554688 3.941406-14.859375 8.347656-21.871094 13.1875l-46.007812-27.609375c-3.78125-2.179687-8.609375-.929687-10.855469 2.808594s-1.082031 8.589844 2.613281 10.902344l40.441406 24.265625c-3.464843 2.847656-6.824218 5.824218-10.097656 8.878906h-42.222656c-22.082031-.027344-39.972656-17.917969-40-40zm224 408c-90.632812 0-192-92.375-192-216 0-106.039062 85.960938-192 192-192s192 85.960938 192 192c0 123.625-101.367188 216-192 216zm224-408c-.027344 22.082031-17.917969 39.972656-40 40h-41c-.339844.046875-.675781.113281-1.007812.199219-3.34375-3.128907-6.769532-6.167969-10.3125-9.078125l40.441406-24.265625c2.503906-1.445313 4.035156-4.128907 4.003906-7.023438-.035156-2.890625-1.625-5.539062-4.164062-6.925781-2.539063-1.386719-5.628907-1.296875-8.082032.238281l-46.007812 27.609375c-7.011719-4.839844-14.316406-9.246094-21.871094-13.1875v-7.566406c.027344-22.082031 17.917969-39.972656 40-40h88zm0 0"/></svg>