<svg height="480pt" viewBox="0 0 480 480.00554" width="480pt" xmlns="http://www.w3.org/2000/svg"><g fill="#e97424"><path d="m206.570312 264.136719c-.695312.121093-51.792968 9.941406-78.566406 46.277343v-86.414062h-16v54.398438c-26.777344-36.335938-77.875-46.160157-78.570312-46.277344-4.253906-.609375-8.230469 2.253906-9 6.480468-.773438 4.230469 1.933594 8.3125 6.128906 9.246094 3.328125.640625 81.441406 15.769532 81.441406 80.152344v80h16v-48c0-64.382812 78.109375-79.511719 81.4375-80.136719 4.195313-.933593 6.902344-5.015625 6.132813-9.246093-.773438-4.226563-4.75-7.089844-9.003907-6.480469zm0 0"/><path d="m446.570312 264.136719c-.695312.121093-51.792968 9.941406-78.566406 46.277343v-46.414062h-16v78.398438c-26.777344-36.335938-77.875-46.160157-78.570312-46.277344-4.253906-.609375-8.230469 2.253906-9 6.480468-.773438 4.230469 1.933594 8.3125 6.128906 9.246094 3.328125.640625 81.441406 15.769532 81.441406 80.152344v8l16 8v-48c0-64.382812 78.109375-79.511719 81.4375-80.136719 4.195313-.933593 6.902344-5.015625 6.132813-9.246093-.773438-4.226563-4.75-7.089844-9.003907-6.480469zm0 0"/><path d="m303.835938 182.398438c-.90625-4.324219-5.148438-7.097657-9.472657-6.191407-17.996093 4.097657-34.226562 13.796875-46.359375 27.703125v-35.910156h-16v59.503906c-12.152344-13.832031-28.414062-23.414062-46.402344-27.34375-4.328124-.882812-8.554687 1.910156-9.4375 6.238282-.886718 4.332031 1.910157 8.558593 6.238282 9.441406 2.03125.417968 49.601562 10.695312 49.601562 56.160156v144h16v-167.472656c0-45.519532 47.632813-56.269532 49.664063-56.695313 4.296875-.917969 7.050781-5.128906 6.167969-9.433593zm0 0"/></g><path d="m392.003906 406.199219c-37.351562 0-42.648437-30.199219-80-30.199219-37.351562 0-42.730468 30.199219-80.050781 30.199219-37.316406 0-37.34375-30.199219-74.679687-30.199219-37.335938 0-37.320313 30.199219-74.648438 30.199219s-37.308594-21.207031-74.621094-21.207031v60c37.3125.039062 37.3125 27.007812 74.621094 27.007812 37.3125 0 37.328125-30.199219 74.648438-30.199219 37.320312 0 37.335937 30.199219 74.679687 30.199219s42.722656-30.199219 80.050781-30.199219 42.648438 30.199219 80 30.199219c37.351563 0 42.648438-26.96875 80-26.96875v-60c-37.351562-.039062-42.648437 21.167969-80 21.167969zm0 0" fill="#d3843d"/><path d="m240.003906 16c-22.082031.027344-39.976562 17.917969-40 40v80c0 22.089844 17.90625 40 40 40 22.089844 0 40-17.910156 40-40v-80c-.027344-22.082031-17.921875-39.972656-40-40zm0 0" fill="#ffd782"/><path d="m120.003906 72c-22.082031.027344-39.976562 17.917969-40 40v80c0 22.089844 17.90625 40 40 40 22.089844 0 40-17.910156 40-40v-80c-.027344-22.082031-17.921875-39.972656-40-40zm0 0" fill="#ffd782"/><path d="m360.003906 112c-22.082031.027344-39.976562 17.917969-40 40v80c0 22.089844 17.90625 40 40 40 22.089844 0 40-17.910156 40-40v-80c-.027344-22.082031-17.921875-39.972656-40-40zm0 0" fill="#ffd782"/><path d="m120.003906 88c-4.417968 0-8-3.582031-8-8v-24c0-4.417969 3.582032-8 8-8 4.417969 0 8 3.582031 8 8v24c0 4.417969-3.582031 8-8 8zm0 0" fill="#e97424"/><path d="m240.003906 32c-4.417968 0-8-3.582031-8-8v-16c0-4.417969 3.582032-8 8-8 4.417969 0 8 3.582031 8 8v16c0 4.417969-3.582031 8-8 8zm0 0" fill="#e97424"/><path d="m360.003906 128c-4.417968 0-8-3.582031-8-8v-24c0-4.417969 3.582032-8 8-8 4.417969 0 8 3.582031 8 8v24c0 4.417969-3.582031 8-8 8zm0 0" fill="#e97424"/><path d="m120.003906 200c-4.417968 0-8-3.582031-8-8v-16c0-4.417969 3.582032-8 8-8 4.417969 0 8 3.582031 8 8v16c0 4.417969-3.582031 8-8 8zm0 0" fill="#d3843d"/><path d="m240.003906 112c-4.417968 0-8-3.582031-8-8v-16c0-4.417969 3.582032-8 8-8 4.417969 0 8 3.582031 8 8v16c0 4.417969-3.582031 8-8 8zm0 0" fill="#d3843d"/><path d="m360.003906 176c-4.417968 0-8-3.582031-8-8v-16c0-4.417969 3.582032-8 8-8 4.417969 0 8 3.582031 8 8v16c0 4.417969-3.582031 8-8 8zm0 0" fill="#d3843d"/><path d="m472.003906 376.992188c-15.269531-.027344-30.28125 3.917968-43.5625 11.449218-11.054687 6.449219-23.636718 9.816406-36.4375 9.757813-8.410156.148437-16.703125-1.980469-24-6.160157v-32.039062c0-64.382812 78.109375-79.511719 81.4375-80.136719 4.195313-.933593 6.902344-5.015625 6.132813-9.246093-.773438-4.226563-4.75-7.089844-9.003907-6.480469-.695312.121093-51.792968 9.941406-78.566406 46.277343v-39.214843c18.609375-3.828125 31.976563-20.199219 32-39.199219v-80c-.023437-19-13.390625-35.371094-32-39.199219v-16.800781c0-4.417969-3.582031-8-8-8-4.417968 0-8 3.582031-8 8v16.800781c-18.613281 3.828125-31.976562 20.199219-32 39.199219v80c.023438 19 13.386719 35.371094 32 39.199219v71.199219c-26.777344-36.335938-77.875-46.160157-78.570312-46.277344-4.253906-.609375-8.230469 2.253906-9 6.480468-.773438 4.230469 1.933594 8.3125 6.128906 9.246094 3.128906.585938 72.191406 13.96875 80.59375 68.921875-11.34375-8.351562-25.070312-12.828125-39.152344-12.769531-16.347656.226562-32.113281 6.078125-44.648437 16.566406-5.882813 4.601563-12.402344 8.324219-19.351563 11.058594v-147.097656c0-45.519532 47.632813-56.269532 49.664063-56.695313 4.324219-.914062 7.089843-5.160156 6.179687-9.484375-.914062-4.324218-5.160156-7.09375-9.484375-6.179687-18 4.105469-34.234375 13.820312-46.359375 27.742187v-28.710937c18.609375-3.828125 31.976563-20.199219 32-39.199219v-80c-.023437-19-13.390625-35.371094-32-39.199219v-8.800781c0-4.417969-3.582031-8-8-8-4.417968 0-8 3.582031-8 8v8.800781c-18.613281 3.828125-31.976562 20.199219-32 39.199219v80c.023438 19 13.386719 35.371094 32 39.199219v52.3125c-12.152344-13.832031-28.414062-23.414063-46.402344-27.34375-4.328124-.882813-8.554687 1.910156-9.4375 6.238281-.886718 4.332031 1.910157 8.558594 6.238282 9.441406 2.03125.417969 49.601562 10.695313 49.601562 56.160156v126.191407h-.050781c-12.113281.058593-23.746094-4.738281-32.300781-13.320313-11.394532-10.9375-26.609375-16.992187-42.402344-16.878906-10.253906-.238281-20.371094 2.355469-29.246094 7.496094v-15.496094c0-64.382812 78.109375-79.511719 81.4375-80.136719 4.195313-.933593 6.902344-5.015625 6.132813-9.246093-.773438-4.226563-4.75-7.089844-9.003907-6.480469-.695312.121093-51.792968 9.941406-78.566406 46.277343v-79.214843c18.609375-3.828125 31.976563-20.199219 32-39.199219v-80c-.023437-19-13.390625-35.371094-32-39.199219v-16.800781c0-4.417969-3.582031-8-8-8-4.417968 0-8 3.582031-8 8v16.800781c-18.613281 3.828125-31.976562 20.199219-32 39.199219v80c.023438 19 13.386719 35.371094 32 39.199219v47.199219c-26.777344-36.335938-77.875-46.160157-78.570312-46.277344-4.253906-.609375-8.230469 2.253906-9 6.480468-.773438 4.230469 1.933594 8.3125 6.128906 9.246094 3.328125.640625 81.441406 15.769532 81.441406 80.152344v59.199219c-8.027344 7.277343-18.535156 11.203125-29.367187 10.976562-11.847657.296875-23.496094-3.054687-33.371094-9.601562-12.300781-7.867188-26.664063-11.898438-41.261719-11.582031-4.417968 0-7.99999975 3.582031-7.99999975 8v60c0 4.417968 3.58203175 8 7.99999975 8 11.984375-.167969 23.605469 4.105468 32.621094 12 11.75 9.882812 26.660156 15.210937 42.011719 15.007812 15.777343.105469 30.972656-5.949219 42.351562-16.878906 17.871094-17.761719 46.726563-17.761719 64.597657 0 11.390624 10.941406 26.605468 16.996094 42.402343 16.878906 16.339844-.222656 32.109375-6.074219 44.636719-16.566406 20.097656-18.175782 50.691406-18.175782 70.785156 0 12.511719 10.492187 28.265625 16.34375 44.59375 16.566406 15.945313-.105469 31.445313-5.261719 44.277344-14.726562 10.265625-7.847657 22.800781-12.144532 35.722656-12.242188 4.417969 0 8-3.582031 8-8v-60c.007813-2.128906-.828125-4.171875-2.332031-5.683594-1.5-1.507812-3.539063-2.355468-5.667969-2.355468zm-256-240.992188v-80c0-13.253906 10.742188-24 24-24 13.253906 0 24 10.746094 24 24v80c0 13.253906-10.746094 24-24 24-13.257812 0-24-10.746094-24-24zm120 96v-80c0-13.253906 10.742188-24 24-24 13.253906 0 24 10.746094 24 24v80c0 13.253906-10.746094 24-24 24-13.257812 0-24-10.746094-24-24zm-240-40v-80c0-13.253906 10.742188-24 24-24 13.253906 0 24 10.746094 24 24v80c0 13.253906-10.746094 24-24 24-13.257812 0-24-10.746094-24-24zm368 245.433594c-13.105468 1.648437-25.582031 6.578125-36.28125 14.328125-10.265625 7.84375-22.800781 12.140625-35.71875 12.238281-13.027344-.222656-25.558594-5.039062-35.378906-13.601562-25.65625-22.089844-63.613281-22.089844-89.269531 0-9.835938 8.558593-22.367188 13.371093-35.402344 13.601562-12.113281.054688-23.746094-4.742188-32.300781-13.320312-23.761719-22.507813-60.972656-22.507813-84.730469 0-8.546875 8.578124-20.175781 13.375-32.285156 13.320312-11.988281.167969-23.613281-4.105469-32.632813-12-9.6875-8.042969-21.496094-13.097656-34-14.558594v-44.058594c9.050782 1.039063 17.734375 4.179688 25.359375 9.167969 12.296875 7.894531 26.664063 11.949219 41.273438 11.648438 15.777343.109375 30.972656-5.949219 42.351562-16.878907 17.871094-17.757812 46.726563-17.757812 64.597657 0 11.390624 10.941407 26.605468 17 42.402343 16.878907 16.34375-.21875 32.109375-6.070313 44.636719-16.566407 20.097656-18.175781 50.691406-18.175781 70.785156 0 12.511719 10.496094 28.261719 16.347657 44.59375 16.566407 15.265625.03125 30.277344-3.910157 43.558594-11.4375 8.753906-5.007813 18.425781-8.199219 28.441406-9.386719zm0 0"/><path d="m128.003906 192v-16c0-4.417969-3.582031-8-8-8-4.417968 0-8 3.582031-8 8v16c0 4.417969 3.582032 8 8 8 4.417969 0 8-3.582031 8-8zm0 0"/><path d="m248.003906 104v-16c0-4.417969-3.582031-8-8-8-4.417968 0-8 3.582031-8 8v16c0 4.417969 3.582032 8 8 8 4.417969 0 8-3.582031 8-8zm0 0"/><path d="m368.003906 168v-16c0-4.417969-3.582031-8-8-8-4.417968 0-8 3.582031-8 8v16c0 4.417969 3.582032 8 8 8 4.417969 0 8-3.582031 8-8zm0 0"/></svg>