<svg height="479pt" viewBox="0 -55 479.99736 479" width="479pt" xmlns="http://www.w3.org/2000/svg"><path d="m335.996094 32.507812c-25.417969.023438-47.636719 17.167969-54.101563 41.753907-11.597656-10.171875-28.070312-12.617188-42.121093-6.25-2.304688-33.011719-29.414063-58.8125-62.5-59.480469-33.085938-.671875-61.21875 24.007812-64.859376 56.898438-14.980468-3.269532-30.511718 2.3125-39.984374 14.367187-9.472657 12.058594-11.21875 28.46875-4.496094 42.25s20.730468 22.503906 36.0625 22.460937h232c30.929687 0 56-25.070312 56-56 0-30.925781-25.070313-56-56-56zm0 0" fill="#55b56a"/><path d="m151.996094 192.507812h-32c-53.019532 0-96-42.980468-96-96h32c53.019531 0 96 42.980469 96 96zm0 0" fill="#c8d952"/><path d="m439.996094 72.507812h32c0 53.019532-42.980469 96-96 96h-32c0-53.019531 42.980468-96 96-96zm0 0" fill="#c8d952"/><path d="m239.996094 128.507812c0 30.929688-25.070313 56-56 56-30.925782 0-56-25.070312-56-56 0-30.925781 25.074218-56 56-56 30.929687 0 56 25.074219 56 56zm0 0" fill="#dd3e46"/><path d="m287.996094 176.507812c35.394531 13.410157 75.417968 1.03125 88-32l-128.414063-48c-12.585937 33.03125 7.359375 67.480469 40.414063 80zm0 0" fill="#fcf05a"/><path d="m362.492188 328.507812h-244.992188c-27.242188 0-51.496094-17.246093-60.445312-42.976562l-49.058594-141.023438h464l-49.054688 141.023438c-8.949218 25.730469-33.207031 42.976562-60.449218 42.976562zm0 0" fill="#d3843d"/><path d="m111.996094 328.507812h256v32h-256zm0 0" fill="#9c2d20"/><g fill="#ffd782"><path d="m431.996094 256.507812h-192c-4.417969 0-8-3.582031-8-8 0-4.417968 3.582031-8 8-8h192c4.417968 0 8 3.582032 8 8 0 4.417969-3.582032 8-8 8zm0 0"/><path d="m423.996094 288.507812h-64c-4.417969 0-8-3.582031-8-8 0-4.417968 3.582031-8 8-8h64c4.417968 0 8 3.582032 8 8 0 4.417969-3.582032 8-8 8zm0 0"/><path d="m327.996094 288.507812h-16c-4.417969 0-8-3.582031-8-8 0-4.417968 3.582031-8 8-8h16c4.417968 0 8 3.582032 8 8 0 4.417969-3.582032 8-8 8zm0 0"/></g><path d="m311.996094 288.507812h16c4.417968 0 8-3.582031 8-8 0-4.417968-3.582032-8-8-8h-16c-4.417969 0-8 3.582032-8 8 0 4.417969 3.582031 8 8 8zm0 0"/><path d="m471.996094 64.507812h-32c-14.417969.03125-28.667969 3.078126-41.839844 8.945313-6.390625-26.515625-28.898438-46.054687-56.046875-48.660156-27.152344-2.605469-52.964844 12.300781-64.28125 37.117187-9.671875-5.042968-20.785156-6.597656-31.472656-4.402344-7.019531-33.050781-36.089844-56.765624-69.875-57.007812-33.789063-.238281-63.195313 23.058594-70.683594 56.007812-20.984375-.746093-40.011719 12.246094-46.953125 32.066407-.949219.007812-1.894531-.066407-2.847656-.066407h-32c-4.417969 0-8 3.582032-8 8 .042968 13.738282 2.800781 27.332032 8.113281 40h-16.113281c-2.589844 0-5.019532 1.257813-6.519532 3.367188-1.4999995 2.113281-1.882812 4.820312-1.03125 7.265625l49.046876 141.023437c8.476562 24.277344 29.25 42.195313 54.503906 47.015626v25.328124c0 4.417969 3.582031 8 8 8h256c4.417968 0 8-3.582031 8-8v-25.328124c25.257812-4.816407 46.03125-22.738282 54.496094-47.015626l49.058593-141.023437c.851563-2.445313.464844-5.152344-1.035156-7.265625-1.5-2.109375-3.929687-3.367188-6.519531-3.367188h-14.175782c14.328126-18.261718 22.132813-40.789062 22.175782-64 0-4.417968-3.582032-8-8-8zm-368 8c2.269531.007813 4.53125.257813 6.746094.746094 2.207031.464844 4.507812-.023437 6.335937-1.347656 1.828125-1.320312 3.015625-3.355469 3.261719-5.597656 3.199218-28.765625 27.804687-50.347656 56.742187-49.761719s52.652344 23.144531 54.683594 52.019531c.183594 2.59375 1.621094 4.933594 3.847656 6.277344 2.230469 1.34375 4.972657 1.519531 7.351563.472656 11.238281-5.050781 24.390625-3.09375 33.664062 5.015625 2.09375 1.792969 4.960938 2.382813 7.589844 1.5625 2.632812-.820312 4.652344-2.9375 5.355469-5.601562 5.757812-22.035157 26.238281-36.964844 48.976562-35.703125 22.738281 1.261718 41.441407 18.367187 44.726563 40.902344-16.335938 10.582031-29.375 25.527343-37.648438 43.144531l-95.230468-35.625c-4.121094-1.539063-8.714844.535156-10.28125 4.648437-.34375.886719-.566407 1.792969-.871094 2.6875-12.992188-22.417968-38.238282-34.769531-63.914063-31.261718-25.671875 3.507812-46.683593 22.179687-53.183593 47.261718-13.492188-11.125-29.5625-18.6875-46.734376-21.992187 5.375-10.882813 16.445313-17.792969 28.582032-17.847657zm39.59375 64c-2.285156-3.554687-4.78125-6.96875-7.480469-10.222656.503906-18.050781 11.09375-34.289062 27.410156-42.027344 16.3125-7.738281 35.589844-5.667968 49.886719 5.359376 14.296875 11.027343 21.195312 29.148437 17.855469 46.890624zm112.472656 0c-4.09375-9.265624-5.226562-19.570312-3.242188-29.503906l78.929688 29.503906zm-223.695312-32h23.628906c26.195312.09375 50.992187 11.816407 67.6875 32h-82c-5.117188-9.972656-8.28125-20.835937-9.316406-32zm327.628906 248h-240v-16h240zm70.136718-112h-190.136718c-4.417969 0-8 3.582032-8 8 0 4.417969 3.582031 8 8 8h184.578125l-5.601563 16h-58.976562c-4.417969 0-8 3.582032-8 8 0 4.417969 3.582031 8 8 8h52.9375c-9.230469 19.488282-28.835938 31.9375-50.398438 32h-245.042968c-23.828126-.015624-45.042969-15.097656-52.886719-37.597656l-45.359375-130.402344h441.503906zm6.128907-104h-58.816407l-16.648437-6.230468c14.753906-30.332032 45.472656-49.632813 79.199219-49.769532h23.632812c-1.984375 21.382813-11.71875 41.296876-27.367187 56zm0 0"/></svg>