<svg height="480pt" viewBox="0 0 480 480" width="480pt" xmlns="http://www.w3.org/2000/svg"><path d="m224 318.214844h32v131.570312h-32zm0 0" fill="#d3843d"/><path d="m8 144h56v32h-56zm0 0" fill="#d3843d"/><path d="m416 144h56v32h-56zm0 0" fill="#d3843d"/><path d="m288 104c.007812-22.925781-16.199219-42.65625-38.6875-47.101562-22.488281-4.449219-44.984375 7.628906-53.703125 28.828124-8.722656 21.203126-1.230469 45.613282 17.878906 58.273438h-5.488281v184h64v-184h-5.488281c13.421875-8.882812 21.492187-23.90625 21.488281-40zm0 0" fill="#ffd782"/><path d="m168 40h144v32h-144zm0 0" fill="#ad6327"/><path d="m288 40h-96l32-32h32zm0 0" fill="#dd3e46"/><path d="m208 144v192l-64-24v-136l-88 24v-56zm0 0" fill="#dd3e46"/><path d="m272 144v192l64-24v-136l88 24v-56zm0 0" fill="#dd3e46"/><g fill="#ffd782"><path d="m176 296c-4.417969 0-8-3.582031-8-8v-16c0-4.417969 3.582031-8 8-8s8 3.582031 8 8v16c0 4.417969-3.582031 8-8 8zm0 0"/><path d="m176 248c-4.417969 0-8-3.582031-8-8v-16c0-4.417969 3.582031-8 8-8s8 3.582031 8 8v16c0 4.417969-3.582031 8-8 8zm0 0"/><path d="m176 200c-4.417969 0-8-3.582031-8-8v-16c0-4.417969 3.582031-8 8-8s8 3.582031 8 8v16c0 4.417969-3.582031 8-8 8zm0 0"/><path d="m304 296c-4.417969 0-8-3.582031-8-8v-16c0-4.417969 3.582031-8 8-8s8 3.582031 8 8v16c0 4.417969-3.582031 8-8 8zm0 0"/><path d="m304 248c-4.417969 0-8-3.582031-8-8v-16c0-4.417969 3.582031-8 8-8s8 3.582031 8 8v16c0 4.417969-3.582031 8-8 8zm0 0"/><path d="m304 200c-4.417969 0-8-3.582031-8-8v-16c0-4.417969 3.582031-8 8-8s8 3.582031 8 8v16c0 4.417969-3.582031 8-8 8zm0 0"/></g><path d="m136 440h208v32h-208zm0 0" fill="#ad6327"/><path d="m224 112c-2.128906.023438-4.175781-.8125-5.679688-2.320312-1.507812-1.503907-2.34375-3.550782-2.320312-5.679688.03125-2.117188.859375-4.148438 2.320312-5.679688.777344-.707031 1.671876-1.273437 2.640626-1.679687 2.976562-1.253906 6.417968-.589844 8.71875 1.679687 1.460937 1.53125 2.289062 3.5625 2.320312 5.679688.027344 1.050781-.191406 2.089844-.640625 3.039062-.40625.96875-.976563 1.863282-1.679687 2.640626-1.507813 1.503906-3.550782 2.339843-5.679688 2.320312zm0 0" fill="#ad6327"/><path d="m256 112c-2.128906.023438-4.175781-.8125-5.679688-2.320312-1.507812-1.503907-2.34375-3.550782-2.320312-5.679688.03125-2.117188.859375-4.148438 2.320312-5.679688.765626-.722656 1.660157-1.292968 2.640626-1.679687 2.976562-1.253906 6.417968-.589844 8.71875 1.679687 1.460937 1.53125 2.289062 3.5625 2.320312 5.679688.027344 1.050781-.191406 2.089844-.640625 3.039062-.40625.96875-.976563 1.863282-1.679687 2.640626-.777344.707031-1.671876 1.273437-2.640626 1.679687-.960937.410156-1.992187.628906-3.039062.640625zm0 0" fill="#ad6327"/><path d="m176 296c4.417969 0 8-3.582031 8-8v-16c0-4.417969-3.582031-8-8-8s-8 3.582031-8 8v16c0 4.417969 3.582031 8 8 8zm0 0"/><path d="m176 248c4.417969 0 8-3.582031 8-8v-16c0-4.417969-3.582031-8-8-8s-8 3.582031-8 8v16c0 4.417969 3.582031 8 8 8zm0 0"/><path d="m176 200c4.417969 0 8-3.582031 8-8v-16c0-4.417969-3.582031-8-8-8s-8 3.582031-8 8v16c0 4.417969 3.582031 8 8 8zm0 0"/><path d="m304 264c-4.417969 0-8 3.582031-8 8v16c0 4.417969 3.582031 8 8 8s8-3.582031 8-8v-16c0-4.417969-3.582031-8-8-8zm0 0"/><path d="m304 216c-4.417969 0-8 3.582031-8 8v16c0 4.417969 3.582031 8 8 8s8-3.582031 8-8v-16c0-4.417969-3.582031-8-8-8zm0 0"/><path d="m304 168c-4.417969 0-8 3.582031-8 8v16c0 4.417969 3.582031 8 8 8s8-3.582031 8-8v-16c0-4.417969-3.582031-8-8-8zm0 0"/><path d="m472 136h-186.113281c11.644531-16.433594 13.363281-37.921875 4.480469-56h21.632812c4.417969 0 8-3.582031 8-8v-32c0-4.417969-3.582031-8-8-8h-20.6875l-29.65625-29.65625c-1.5-1.5-3.535156-2.34375-5.65625-2.34375h-32c-2.121094 0-4.15625.84375-5.65625 2.34375l-29.65625 29.65625h-20.6875c-4.417969 0-8 3.582031-8 8v32c0 4.417969 3.582031 8 8 8h21.601562c-8.882812 18.078125-7.164062 39.566406 4.476563 56h-186.078125c-4.417969 0-8 3.582031-8 8v32c0 4.417969 3.582031 8 8 8h40v16c0 2.492188 1.160156 4.84375 3.144531 6.359375 1.980469 1.511719 4.554688 2.015625 6.960938 1.359375l77.894531-21.238281v125.519531c-.003906 3.335938 2.066406 6.324219 5.191406 7.496094l64 24c.898438.332031 1.851563.503906 2.808594.503906 4.417969 0 8-3.582031 8-8v96h-80c-4.417969 0-8 3.582031-8 8v32c0 4.417969 3.582031 8 8 8h208c4.417969 0 8-3.582031 8-8v-32c0-4.417969-3.582031-8-8-8h-80v-96c0 4.417969 3.582031 8 8 8 .957031 0 1.910156-.171875 2.808594-.503906l64-24c3.125-1.171875 5.195312-4.160156 5.191406-7.496094v-125.519531l77.894531 21.238281c2.40625.65625 4.980469.152344 6.960938-1.359375 1.984375-1.515625 3.144531-3.867187 3.144531-6.359375v-16h40c4.417969 0 8-3.582031 8-8v-32c0-4.417969-3.582031-8-8-8zm-256 184v-165.480469c15.164062 7.308594 32.835938 7.308594 48 0v165.480469zm11.3125-304h25.375l16 16h-57.375zm-51.3125 32h128v16h-128zm95.855469 32c12.511719 16.476562 10.394531 39.777344-4.882813 53.726562-15.273437 13.953126-38.671875 13.953126-53.945312 0-15.277344-13.949218-17.394532-37.25-4.882813-53.726562zm-255.855469 88v-16h32v16zm132.855469 1.601562c-1.980469-1.515624-4.554688-2.015624-6.960938-1.363281l-77.894531 21.28125v-37.519531h136v172.457031l-48-18v-130.457031c0-2.496094-1.160156-4.847656-3.144531-6.359375zm187.144531 294.398438h-192v-16h192zm-88-32h-16v-96h16zm168-242.480469-77.894531-21.238281c-2.40625-.65625-4.980469-.152344-6.960938 1.359375-1.984375 1.515625-3.144531 3.867187-3.144531 6.359375v130.457031l-48 18v-172.457031h136zm48-21.519531h-32v-16h32zm0 0"/><path d="m224 112c2.128906.019531 4.171875-.816406 5.679688-2.320312.703124-.777344 1.273437-1.671876 1.679687-2.640626.449219-.949218.667969-1.988281.640625-3.039062-.03125-2.117188-.859375-4.148438-2.320312-5.679688-2.300782-2.269531-5.742188-2.933593-8.71875-1.679687-.96875.40625-1.863282.972656-2.640626 1.679687-1.460937 1.53125-2.289062 3.5625-2.320312 5.679688-.023438 2.128906.8125 4.175781 2.320312 5.679688 1.503907 1.507812 3.550782 2.34375 5.679688 2.320312zm0 0"/><path d="m256 112c1.046875-.011719 2.078125-.230469 3.039062-.640625.96875-.40625 1.863282-.972656 2.640626-1.679687.703124-.777344 1.273437-1.671876 1.679687-2.640626.449219-.949218.667969-1.988281.640625-3.039062-.03125-2.117188-.859375-4.148438-2.320312-5.679688-2.300782-2.269531-5.742188-2.933593-8.71875-1.679687-.980469.386719-1.875.957031-2.640626 1.679687-1.460937 1.53125-2.289062 3.5625-2.320312 5.679688-.023438 2.128906.8125 4.175781 2.320312 5.679688 1.503907 1.507812 3.550782 2.34375 5.679688 2.320312zm0 0"/></svg>