<svg height="480pt" viewBox="0 -24 480 480" width="480pt" xmlns="http://www.w3.org/2000/svg"><path d="m288 192v-48l-40-136h-192v269.601562c19.730469-23.832031 49.0625-37.617187 80-37.601562 112 0 104 112 104 112h41.601562c6.277344-30.882812 30.117188-55.195312 60.875-62.074219 30.753907-6.882812 62.683594 4.953125 81.523438 30.21875v-72.144531c0-26.511719 8-56-48-56zm0 0" fill="#dd3e46"/><path d="m208 344c0 39.765625-32.234375 72-72 72s-72-32.234375-72-72 32.234375-72 72-72 72 32.234375 72 72zm0 0" fill="#5a6470"/><path d="m168 344c0 17.671875-14.328125 32-32 32s-32-14.328125-32-32 14.328125-32 32-32 32 14.328125 32 32zm0 0" fill="#cfdfe8"/><path d="m408 368c0 26.507812-21.492188 48-48 48s-48-21.492188-48-48 21.492188-48 48-48 48 21.492188 48 48zm0 0" fill="#5a6470"/><path d="m376 368c0 8.835938-7.164062 16-16 16s-16-7.164062-16-16 7.164062-16 16-16 16 7.164062 16 16zm0 0" fill="#cfdfe8"/><path d="m472 432h-424c-4.417969 0-8-3.582031-8-8s3.582031-8 8-8h424c4.417969 0 8 3.582031 8 8s-3.582031 8-8 8zm0 0" fill="#d3843d"/><path d="m16 432h-8c-4.417969 0-8-3.582031-8-8s3.582031-8 8-8h8c4.417969 0 8 3.582031 8 8s-3.582031 8-8 8zm0 0" fill="#d3843d"/><path d="m32 232h24v32h-24c-8.835938 0-16-7.164062-16-16s7.164062-16 16-16zm0 0" fill="#5a6470"/><path d="m248 128h-160v-88h132.414062zm0 0" fill="#f4f4e6"/><path d="m88 40h48v88h-48zm0 0" fill="#8b97a3"/><path d="m272 16h-240c-4.417969 0-8-3.582031-8-8s3.582031-8 8-8h240c4.417969 0 8 3.582031 8 8s-3.582031 8-8 8zm0 0" fill="#ffd782"/><path d="m112 192c-4.417969 0-8-3.582031-8-8v-24c0-4.417969 3.582031-8 8-8s8 3.582031 8 8v24c0 4.417969-3.582031 8-8 8zm0 0" fill="#fff"/><path d="m392 120h-48c-13.253906 0-24 10.746094-24 24v48h32v-40h40zm0 0" fill="#5a6470"/><g fill="#ffd782"><path d="m424 232h-104c-4.417969 0-8-3.582031-8-8s3.582031-8 8-8h104c4.417969 0 8 3.582031 8 8s-3.582031 8-8 8zm0 0"/><path d="m424 264h-168c-4.417969 0-8-3.582031-8-8s3.582031-8 8-8h168c4.417969 0 8 3.582031 8 8s-3.582031 8-8 8zm0 0"/><path d="m288 232h-16c-4.417969 0-8-3.582031-8-8s3.582031-8 8-8h16c4.417969 0 8 3.582031 8 8s-3.582031 8-8 8zm0 0"/></g><path d="m176 344c0-22.089844-17.910156-40-40-40s-40 17.910156-40 40 17.910156 40 40 40c22.082031-.027344 39.972656-17.917969 40-40zm-64 0c0-13.253906 10.746094-24 24-24s24 10.746094 24 24-10.746094 24-24 24-24-10.746094-24-24zm0 0"/><path d="m360 392c13.253906 0 24-10.746094 24-24s-10.746094-24-24-24-24 10.746094-24 24 10.746094 24 24 24zm0-32c4.417969 0 8 3.582031 8 8s-3.582031 8-8 8-8-3.582031-8-8 3.582031-8 8-8zm0 0"/><path d="m472 416h-83.304688c21.636719-12.910156 31.988282-38.683594 25.289063-62.972656-6.695313-24.289063-28.789063-41.117188-53.984375-41.117188s-47.289062 16.828125-53.984375 41.117188c-6.699219 24.289062 3.652344 50.0625 25.289063 62.972656h-160.664063c33.65625-16.167969 51.652344-53.46875 43.363281-89.875-8.292968-36.40625-40.664062-62.238281-78.003906-62.238281s-69.710938 25.832031-78.003906 62.238281c-8.289063 36.40625 9.707031 73.707031 43.363281 89.875h-53.359375c-4.417969 0-8 3.582031-8 8s3.582031 8 8 8h424c4.417969 0 8-3.582031 8-8s-3.582031-8-8-8zm-152-48c0-22.089844 17.910156-40 40-40s40 17.910156 40 40-17.910156 40-40 40c-22.082031-.027344-39.972656-17.917969-40-40zm-248-24c0-35.347656 28.652344-64 64-64s64 28.652344 64 64-28.652344 64-64 64c-35.328125-.039062-63.960938-28.671875-64-64zm0 0"/><path d="m0 424c0 4.417969 3.582031 8 8 8h8c4.417969 0 8-3.582031 8-8s-3.582031-8-8-8h-8c-4.417969 0-8 3.582031-8 8zm0 0"/><path d="m32 224c-13.253906 0-24 10.746094-24 24s10.746094 24 24 24h16v5.601562c-.003906 3.371094 2.109375 6.378907 5.277344 7.527344 3.171875 1.148438 6.71875.183594 8.875-2.410156 18.207031-22.003906 45.285156-34.734375 73.847656-34.71875 30.625 0 54.398438 8.847656 70.726562 26.320312 28.152344 30.152344 25.328126 76.65625 25.289063 77.128907-.152344 2.210937.621094 4.390625 2.132813 6.011719 1.515624 1.621093 3.632812 2.539062 5.851562 2.539062h41.601562c3.804688.003906 7.085938-2.671875 7.847657-6.398438 6.902343-33.492187 36.359375-57.539062 70.550781-57.601562 22.710938-.066406 44.097656 10.679688 57.601562 28.945312 2.066407 2.753907 5.660157 3.878907 8.929688 2.789063 3.265625-1.089844 5.46875-4.148437 5.46875-7.589844v-72.144531c0-2.863281.105469-5.769531.191406-8.65625.472656-14.136719 1-30.160156-10.070312-41.601562-8.945313-9.246094-24.023438-13.742188-46.121094-13.742188h-16v-24h32c4.417969 0 8-3.582031 8-8v-32c0-4.417969-3.582031-8-8-8h-48c-17.671875 0-32 14.328125-32 32v40h-16v-40c0-.765625-.113281-1.523438-.328125-2.257812l-36.984375-125.742188h13.3125c4.417969 0 8-3.582031 8-8s-3.582031-8-8-8h-240c-4.417969 0-8 3.582031-8 8s3.582031 8 8 8h16v208zm0 32c-4.417969 0-8-3.582031-8-8s3.582031-8 8-8h16v16zm296-112c0-8.835938 7.164062-16 16-16h40v16h-32c-4.417969 0-8 3.582031-8 8v32h-16zm-264-128h178.015625l37.984375 129.152344v46.847656c0 4.417969 3.582031 8 8 8h88c17.28125 0 28.929688 2.984375 34.617188 8.863281 1.890624 2.03125 3.285156 4.476563 4.070312 7.136719h-94.6875c-4.417969 0-8 3.582031-8 8s3.582031 8 8 8h96.367188c0 2.207031-.085938 4.464844-.167969 6.816406-.09375 3.0625-.199219 6.144532-.199219 9.183594h-160c-4.417969 0-8 3.582031-8 8s3.582031 8 8 8h160v36.160156c-15.714844-13.09375-35.542969-20.234375-56-20.160156-39.332031.085938-73.863281 26.183594-84.679688 64h-27.199218c-.378906-16.503906-4.273438-53.3125-29.601563-80.496094-19.464843-20.902344-47.230469-31.503906-82.519531-31.503906-26.339844-.027344-51.84375 9.257812-72 26.214844zm0 0"/><path d="m88 136h160c2.546875 0 4.941406-1.214844 6.449219-3.265625 1.507812-2.054687 1.945312-4.703125 1.183593-7.132813l-27.585937-88c-1.046875-3.335937-4.136719-5.601562-7.632813-5.601562h-132.414062c-4.417969 0-8 3.582031-8 8v88c0 4.417969 3.582031 8 8 8zm149.113281-16h-93.113281v-72h70.535156zm-141.113281-72h32v72h-32zm0 0"/><path d="m112 152c-4.417969 0-8 3.582031-8 8v24c0 4.417969 3.582031 8 8 8s8-3.582031 8-8v-24c0-4.417969-3.582031-8-8-8zm0 0"/><path d="m272 232h16c4.417969 0 8-3.582031 8-8s-3.582031-8-8-8h-16c-4.417969 0-8 3.582031-8 8s3.582031 8 8 8zm0 0"/></svg>