<svg height="480pt" viewBox="0 0 480.01316 480" width="480pt" xmlns="http://www.w3.org/2000/svg"><g fill="#c8d952"><path d="m298.238281 219.949219c13.476563-6.921875 21.902344-20.851563 21.769531-36 .324219-18.972657-12.902343-35.484375-31.488281-39.304688 10.3125-7.691406 16.359375-19.828125 16.285157-32.695312.242187-17.691407-11.28125-33.394531-28.230469-38.472657 3.527343-6.625 5.359375-14.019531 5.335937-21.527343.738282-15.449219-7.082031-30.050781-20.351562-38-13.269532-7.945313-29.835938-7.945313-43.105469 0-13.269531 7.949219-21.089844 22.550781-20.351563 38-.011718 7.507812 1.835938 14.90625 5.378907 21.527343-16.949219 5.078126-28.472657 20.78125-28.234375 38.472657-.082032 12.859375 5.949218 24.996093 16.25 32.695312-18.585938 3.820313-31.816406 20.332031-31.488282 39.304688-.132812 15.148437 8.289063 29.078125 21.765626 36-13.957032 7.300781-22.429688 22.023437-21.726563 37.761719.703125 15.738281 10.453125 29.648437 25.007813 35.679687-6.335938 7.398437-9.8125 16.816406-9.808594 26.558594-.507813 21.558593 16.539062 39.457031 38.097656 40 10.078125-.039063 19.707031-4.183594 26.664062-11.480469 6.953126 7.296875 16.582032 11.441406 26.664063 11.480469 21.574219-.519531 38.644531-18.425781 38.132813-40 .007812-9.742188-3.472657-19.160157-9.804688-26.558594 14.554688-6.03125 24.300781-19.941406 25.003906-35.679687.703125-15.738282-7.765625-30.460938-21.726562-37.761719zm0 0"/><path d="m440.007812 311.949219c16.78125.015625 30.710938-12.96875 31.878907-29.710938 1.164062-16.742187-10.832031-31.53125-27.457031-33.839843 7.644531-6.28125 11.917968-15.765626 11.5625-25.652344-.355469-9.882813-5.304688-19.035156-13.378907-24.75 14.703125-5.144532 23.546875-20.152344 20.921875-35.507813-2.625-15.351562-15.953125-26.570312-31.527344-26.539062-1.160156.050781-2.3125.167969-3.457031.351562 10.320313-8.640625 14.128907-22.8125 9.53125-35.464843-4.597656-12.648438-16.617187-21.070313-30.074219-21.070313-13.460937 0-25.480468 8.421875-30.078124 21.070313-4.59375 12.652343-.785157 26.824218 9.53125 35.464843-1.144532-.183593-2.296876-.300781-3.453126-.351562-15.585937-.042969-28.925781 11.179687-31.550781 26.542969-2.625 15.363281 6.226563 30.375 20.941407 35.511718-8.074219 5.714844-13.019532 14.867188-13.375 24.75-.359376 9.886719 3.917968 19.371094 11.558593 25.652344-16.597656 2.335938-28.5625 17.109375-27.398437 33.832031 1.164062 16.722657 15.0625 29.695313 31.824218 29.710938zm0 0"/><path d="m104.007812 311.949219c16.78125.015625 30.710938-12.96875 31.878907-29.710938 1.164062-16.742187-10.832031-31.53125-27.457031-33.839843 7.644531-6.28125 11.917968-15.765626 11.5625-25.652344-.355469-9.882813-5.304688-19.035156-13.378907-24.75 14.703125-5.144532 23.546875-20.152344 20.921875-35.507813-2.625-15.351562-15.953125-26.570312-31.527344-26.539062-1.160156.050781-2.3125.167969-3.457031.351562 10.320313-8.640625 14.128907-22.8125 9.53125-35.464843-4.597656-12.648438-16.617187-21.070313-30.074219-21.070313-13.460937 0-25.480468 8.421875-30.078124 21.070313-4.59375 12.652343-.785157 26.824218 9.53125 35.464843-1.144532-.183593-2.296876-.300781-3.453126-.351562-15.585937-.042969-28.925781 11.179687-31.550781 26.542969-2.625 15.363281 6.226563 30.375 20.941407 35.511718-8.074219 5.714844-13.019532 14.867188-13.375 24.75-.359376 9.886719 3.917968 19.371094 11.558593 25.652344-16.597656 2.335938-28.5625 17.109375-27.398437 33.832031 1.164062 16.722657 15.0625 29.695313 31.824218 29.710938zm0 0"/></g><path d="m472.007812 463.949219h-56v-219.054688l11.574219-5.785156c3.953125-1.976563 5.558594-6.78125 3.585938-10.734375-1.976563-3.957031-6.78125-5.5625-10.738281-3.585938l-4.421876 2.214844v-59.054687c0-4.417969-3.582031-8-8-8-4.417968 0-8 3.582031-8 8v4.6875l-10.34375-10.34375c-3.140624-3.03125-8.128906-2.988281-11.214843.097656-3.085938 3.085937-3.128907 8.074219-.097657 11.214844l21.65625 21.65625v77.742187l-11.5625-7.710937c-3.675781-2.453125-8.644531-1.460938-11.09375 2.214843-2.453124 3.675782-1.460937 8.644532 2.214844 11.097657l20.441406 13.625v171.71875h-152v-123.71875l20.4375-13.601563c3.675782-2.453125 4.667969-7.417968 2.21875-11.097656-2.453124-3.675781-7.421874-4.667969-11.097656-2.214844l-11.558594 7.6875v-101.054687l28.796876-21.601563c3.535156-2.648437 4.253906-7.664062 1.601562-11.199218-2.652344-3.535157-7.664062-4.25-11.199219-1.597657l-19.199219 14.398438v-112c0-4.417969-3.582031-8-8-8-4.417968 0-8 3.582031-8 8v36.6875l-10.34375-10.34375c-3.140624-3.03125-8.128906-2.988281-11.214843.097656-3.085938 3.085937-3.128907 8.074219-.097657 11.214844l21.65625 21.65625v124l-27-21.601563c-3.453124-2.761718-8.488281-2.203125-11.25 1.25-2.761718 3.449219-2.203124 8.484375 1.25 11.246094l37 29.640625v172.152344h-152v-171.71875l20.4375-13.601563c3.675782-2.453125 4.667969-7.417968 2.21875-11.097656-2.453124-3.675781-7.421874-4.667969-11.097656-2.214844l-11.558594 7.6875v-77.742187l21.65625-21.65625c3.03125-3.140625 2.988282-8.128907-.097656-11.214844-3.085937-3.085937-8.078125-3.128906-11.214844-.097656l-10.34375 10.34375v-4.6875c0-4.417969-3.582031-8-8-8-4.417968 0-8 3.582031-8 8v59.054687l-4.425781-2.214844c-3.953125-1.976562-8.761719-.371093-10.734375 3.585938-1.976562 3.953125-.371094 8.757812 3.582032 10.734375l11.578124 5.785156v219.054688h-56c-4.417968 0-7.9999995 3.582031-7.9999995 8s3.5820315 8 7.9999995 8h464c4.417969 0 8-3.582031 8-8s-3.582031-8-8-8zm0 0" fill="#d3843d"/><path d="m440.007812 319.949219c18.46875.046875 34.558594-12.589844 38.890626-30.542969 4.335937-17.957031-4.222657-36.539062-20.683594-44.921875 3.785156-6.179687 5.789062-13.289063 5.792968-20.535156-.015624-8.6875-2.871093-17.132813-8.128906-24.046875 12.089844-8.972656 18.101563-23.984375 15.542969-38.820313-2.5625-14.835937-13.257813-26.96875-27.65625-31.363281 2.78125-5.511719 4.234375-11.597656 4.242187-17.769531 0-22.089844-17.910156-40-40-40-22.09375 0-40 17.910156-40 40 .007813 6.171875 1.457032 12.257812 4.238282 17.769531-14.398438 4.394531-25.09375 16.527344-27.652344 31.363281-2.5625 14.835938 3.449219 29.847657 15.539062 38.820313-5.257812 6.914062-8.109374 15.359375-8.125 24.046875.003907 7.246093 2.007813 14.355469 5.789063 20.535156-16.457031 8.382813-25.015625 26.964844-20.683594 44.921875 4.332031 17.953125 20.421875 30.589844 38.894531 30.542969h24v144h-152v-100.238281c5.835938 2.757812 12.207032 4.207031 18.664063 4.238281 25.980469-.542969 46.621094-22.015625 46.132813-48-.003907-8.277344-2.113282-16.417969-6.125-23.65625 12.304687-8.402344 20.113281-21.957031 21.203124-36.820313 1.089844-14.863281-4.65625-29.414062-15.605468-39.523437 11.496094-10.625 17.214844-26.105469 15.386718-41.652344-1.832031-15.542969-10.988281-29.273437-24.632812-36.941406 6.339844-8.492188 9.765625-18.808594 9.773438-29.40625.097656-17.949219-9.792969-34.464844-25.660157-42.855469 1.851563-5.527344 2.796875-11.316406 2.796875-17.144531.734375-18.304688-8.613281-35.542969-24.355468-44.914063-15.742188-9.371094-35.351563-9.371094-51.09375 0-15.742188 9.371094-25.089844 26.609375-24.359376 44.914063.003907 5.828125.949219 11.617187 2.800782 17.144531-15.890625 8.371094-25.808594 24.890625-25.726563 42.855469-.003906 10.59375 3.410157 20.90625 9.734375 29.40625-13.640625 7.671875-22.789062 21.40625-24.613281 36.953125-1.824219 15.542968 3.902344 31.023437 15.398437 41.640625-10.945312 10.113281-16.683593 24.667969-15.585937 39.53125s8.914063 28.414062 21.226563 36.8125c-4.023438 7.234375-6.144532 15.375-6.160157 23.65625-.488281 25.972656 20.132813 47.441406 46.105469 48 6.464844-.027344 12.847656-1.476563 18.695312-4.238281v100.238281h-152v-144h24c18.46875.046875 34.558594-12.589844 38.890626-30.542969 4.335937-17.957031-4.222657-36.539062-20.683594-44.921875 3.785156-6.179687 5.789062-13.289063 5.792968-20.535156-.015624-8.6875-2.871093-17.132813-8.128906-24.046875 12.089844-8.972656 18.101563-23.984375 15.542969-38.820313-2.5625-14.835937-13.257813-26.96875-27.65625-31.363281 2.78125-5.511719 4.234375-11.597656 4.242187-17.769531 0-22.089844-17.910156-40-40-40-22.09375 0-40 17.910156-40 40 .007813 6.171875 1.457032 12.257812 4.238282 17.769531-14.398438 4.394531-25.09375 16.527344-27.652344 31.363281-2.5625 14.835938 3.449219 29.847657 15.539062 38.820313-5.257812 6.914062-8.109374 15.359375-8.125 24.046875.003907 7.246093 2.007813 14.355469 5.789063 20.535156-16.457031 8.382813-25.015625 26.964844-20.683594 44.921875 4.332031 17.953125 20.421875 30.589844 38.894531 30.542969h24v144h-56c-4.417968 0-7.9999995 3.582031-7.9999995 8s3.5820315 8 7.9999995 8h464c4.417969 0 8-3.582031 8-8s-3.582031-8-8-8h-56v-144zm-226.664062 32c-17.148438-.539063-30.625-14.851563-30.136719-32 .011719-7.839844 2.8125-15.414063 7.902344-21.375 1.683594-1.972657 2.308594-4.640625 1.671875-7.15625s-2.449219-4.566407-4.871094-5.5c-11.597656-4.890625-19.339844-16.023438-19.886718-28.597657-.550782-12.574218 6.191406-24.335937 17.320312-30.21875 2.707031-1.355468 4.414062-4.125 4.414062-7.152343 0-3.027344-1.707031-5.796875-4.414062-7.152344-10.800781-5.53125-17.519531-16.714844-17.335938-28.847656-.34375-15.121094 10.140626-28.335938 24.941407-31.441407 3.136719-.578124 5.628906-2.964843 6.34375-6.070312.714843-3.105469-.480469-6.339844-3.046875-8.234375-8.253906-6.195313-13.089844-15.933594-13.039063-26.253906-.210937-14.101563 8.917969-26.644531 22.398438-30.785157 2.332031-.65625 4.234375-2.335937 5.183593-4.5625.949219-2.226562.835938-4.765624-.300781-6.902343-2.894531-5.46875-4.398437-11.5625-4.386719-17.75-.773437-12.609375 5.511719-24.609375 16.324219-31.148438 10.808594-6.539062 24.355469-6.539062 35.164063 0 10.808594 6.539063 17.097656 18.539063 16.320312 31.148438.003906 6.191406-1.515625 12.285156-4.421875 17.75-1.140625 2.136719-1.253906 4.675781-.304687 6.902343.949218 2.226563 2.855468 3.90625 5.183594 4.5625 13.496093 4.125 22.644531 16.671876 22.4375 30.785157.058593 10.316406-4.765626 20.050781-13.007813 26.253906-2.5625 1.894531-3.761719 5.128906-3.042969 8.234375.714844 3.105469 3.207032 5.492188 6.339844 6.070312 14.789062 3.121094 25.257812 16.332032 24.914062 31.441407.179688 12.136719-6.546874 23.320312-17.351562 28.847656-2.707031 1.355469-4.417969 4.125-4.417969 7.152344 0 3.027343 1.710938 5.796875 4.417969 7.152343 11.125 5.882813 17.867188 17.644532 17.320312 30.21875-.550781 12.574219-8.292968 23.707032-19.890624 28.597657-2.417969.933593-4.234376 2.984375-4.871094 5.5-.636719 2.515625-.011719 5.183593 1.671875 7.15625 5.09375 5.957031 7.902343 13.535156 7.917969 21.375.492187 17.136719-12.96875 31.441406-30.101563 32-6.886719-.058594-13.523437-2.59375-18.695313-7.136719v-4.582031l20.4375-13.601563c3.675782-2.453125 4.667969-7.417968 2.21875-11.097656-2.453124-3.675781-7.421874-4.667969-11.097656-2.214844l-11.558594 7.6875v-101.054687l28.796876-21.601563c3.535156-2.648437 4.253906-7.664062 1.601562-11.199218-2.652344-3.535157-7.664062-4.25-11.199219-1.597657l-19.199219 14.398438v-112c0-4.417969-3.582031-8-8-8-4.417968 0-8 3.582031-8 8v36.6875l-10.34375-10.34375c-3.140624-3.03125-8.128906-2.988281-11.214843.097656-3.085938 3.085937-3.128907 8.074219-.097657 11.214844l21.65625 21.65625v124l-27-21.601563c-3.453124-2.761718-8.488281-2.203125-11.25 1.25-2.761718 3.449219-2.203124 8.484375 1.25 11.246094l37 29.640625v53.015625c-5.167968 4.535156-11.789062 7.070312-18.664062 7.136719zm-173.335938-48c-12.589843.023437-23.042968-9.710938-23.917968-22.269531-.871094-12.558594 8.132812-23.644532 20.605468-25.363282 3.128907-.445312 5.703126-2.691406 6.570313-5.730468.863281-3.042969-.144531-6.308594-2.570313-8.332032-5.742187-4.695312-8.960937-11.804687-8.695312-19.214844.265625-7.414062 3.984375-14.273437 10.046875-18.546874 2.417969-1.738282 3.671875-4.679688 3.25-7.628907s-2.449219-5.417969-5.257813-6.410156c-11.03125-3.851563-17.667968-15.105469-15.695312-26.625 1.972656-11.515625 11.976562-19.921875 23.664062-19.878906.4375.019531.871094.066406 1.304688.144531l1.292969.160156c3.496093.378906 6.832031-1.570312 8.214843-4.804687 1.386719-3.234375.496094-6.992188-2.191406-9.261719-7.753906-6.46875-10.628906-17.105469-7.1875-26.601562 3.441406-9.5 12.464844-15.824219 22.566406-15.824219 10.101563 0 19.121094 6.324219 22.5625 15.824219 3.441407 9.496093.570313 20.132812-7.1875 26.601562-2.6875 2.269531-3.574218 6.027344-2.191406 9.261719 1.386719 3.234375 4.71875 5.183593 8.214844 4.804687l1.296875-.160156c.429687-.078125.867187-.125 1.304687-.144531 11.679688-.03125 21.671876 8.378906 23.640626 19.890625 1.964843 11.515625-4.671876 22.765625-15.699219 26.613281-2.808594.992187-4.835938 3.460937-5.257813 6.410156s.832032 5.890625 3.25 7.628907c6.066406 4.273437 9.78125 11.132812 10.046875 18.546874.265625 7.410157-2.949219 14.519532-8.695312 19.214844-2.425781 2.023438-3.433594 5.289063-2.570313 8.332032.867188 3.039062 3.441406 5.285156 6.570313 5.730468 12.46875 1.71875 21.472656 12.796875 20.605469 25.351563-.867188 12.554687-11.308594 22.292969-23.890626 22.28125h-24v-11.71875l20.4375-13.601563c3.675782-2.453125 4.667969-7.417968 2.21875-11.097656-2.453124-3.675781-7.421874-4.667969-11.097656-2.214844l-11.558594 7.6875v-77.742187l21.65625-21.65625c3.03125-3.140625 2.988282-8.128907-.097656-11.214844-3.085937-3.085937-8.078125-3.128906-11.214844-.097656l-10.34375 10.34375v-4.6875c0-4.417969-3.582031-8-8-8-4.417968 0-8 3.582031-8 8v59.054687l-4.425781-2.214844c-3.953125-1.976562-8.761719-.371093-10.734375 3.585938-1.976562 3.953125-.371094 8.757812 3.582032 10.734375l11.578124 5.785156v59.054688zm336 0c-12.589843.023437-23.042968-9.710938-23.917968-22.269531-.871094-12.558594 8.132812-23.644532 20.605468-25.363282 3.128907-.445312 5.703126-2.691406 6.570313-5.730468.863281-3.042969-.144531-6.308594-2.570313-8.332032-5.742187-4.695312-8.960937-11.804687-8.695312-19.214844.265625-7.414062 3.984375-14.273437 10.046875-18.546874 2.417969-1.738282 3.671875-4.679688 3.25-7.628907s-2.449219-5.417969-5.257813-6.410156c-11.03125-3.851563-17.667968-15.105469-15.695312-26.625 1.972656-11.515625 11.976562-19.921875 23.664062-19.878906.4375.019531.871094.066406 1.304688.144531l1.292969.160156c3.496093.378906 6.832031-1.570312 8.214843-4.804687 1.386719-3.234375.496094-6.992188-2.191406-9.261719-7.753906-6.46875-10.628906-17.105469-7.1875-26.601562 3.441406-9.5 12.464844-15.824219 22.566406-15.824219 10.101563 0 19.121094 6.324219 22.5625 15.824219 3.441407 9.496093.570313 20.132812-7.1875 26.601562-2.6875 2.269531-3.574218 6.027344-2.191406 9.261719 1.386719 3.234375 4.71875 5.183593 8.214844 4.804687l1.296875-.160156c.429687-.078125.867187-.125 1.304687-.144531 11.679688-.03125 21.671876 8.378906 23.640626 19.890625 1.964843 11.515625-4.671876 22.765625-15.699219 26.613281-2.808594.992187-4.835938 3.460937-5.257813 6.410156s.832032 5.890625 3.25 7.628907c6.066406 4.273437 9.78125 11.132812 10.046875 18.546874.265625 7.410157-2.949219 14.519532-8.695312 19.214844-2.425781 2.023438-3.433594 5.289063-2.570313 8.332032.867188 3.039062 3.441406 5.285156 6.570313 5.730468 12.46875 1.71875 21.472656 12.796875 20.605469 25.351563-.867188 12.554687-11.308594 22.292969-23.890626 22.28125h-24v-59.054688l11.574219-5.785156c3.953125-1.976563 5.558594-6.78125 3.585938-10.734375-1.976563-3.957031-6.78125-5.5625-10.738281-3.585938l-4.421876 2.214844v-59.054687c0-4.417969-3.582031-8-8-8-4.417968 0-8 3.582031-8 8v4.6875l-10.34375-10.34375c-3.140624-3.03125-8.128906-2.988281-11.214843.097656-3.085938 3.085937-3.128907 8.074219-.097657 11.214844l21.65625 21.65625v77.742187l-11.5625-7.710937c-3.675781-2.453125-8.644531-1.460938-11.09375 2.214843-2.453124 3.675782-1.460937 8.644532 2.214844 11.097657l20.441406 13.625v11.71875zm0 0"/></svg>