<svg height="480pt" viewBox="0 0 480 480.00004" width="480pt" xmlns="http://www.w3.org/2000/svg"><path d="m88 112h-32l-8-104h48zm0 0" fill="#c8d952"/><path d="m64 112h-32l-16-80h40zm0 0" fill="#55b56a"/><path d="m80 112h32l16-80h-40zm0 0" fill="#55b56a"/><path d="m248 160c0 22.089844-17.910156 40-40 40s-40-17.910156-40-40 17.910156-40 40-40 40 17.910156 40 40zm0 0" fill="#ffd782"/><path d="m462.625 202.742188c-7.144531-7.113282-17.230469-10.425782-27.199219-8.933594l17.832031-17.808594c8.566407-8.507812 11.597657-21.125 7.820313-32.59375s-13.707031-19.820312-25.652344-21.574219l17.832031-17.832031c11.171876-11.121094 12.550782-28.738281 3.242188-41.460938-9.3125-12.726562-26.515625-16.742187-40.5-9.460937v-13.078125c0-17.671875-14.328125-32-32-32s-32 14.328125-32 32v13.078125c-13.984375-7.28125-31.1875-3.265625-40.5 9.460937-9.308594 12.722657-7.929688 30.339844 3.242188 41.460938l17.832031 17.832031c-11.945313 1.753907-21.875 10.105469-25.652344 21.574219s-.746094 24.085938 7.820313 32.59375l17.808593 17.808594c-13.628906-2.015625-27.015625 4.945312-33.195312 17.261718-6.175781 12.320313-3.75 27.210938 6.019531 36.929688l22.625 22.625c12.496094 12.496094 32.757812 12.496094 45.257812 0 12.496094-12.496094 8.988282-12.496094 21.484376 0 12.5 12.496094 32.761718 12.496094 45.257812 0l22.625-22.625c12.496094-12.496094 12.496094-32.757812 0-45.257812zm0 0" fill="#c8d952"/><path d="m8 392h464v80h-464zm0 0" fill="#ad6327"/><path d="m8 312h464v80h-464zm0 0" fill="#d3843d"/><g fill="#ffd782"><path d="m304 440h-296c-4.417969 0-8-3.582031-8-8s3.582031-8 8-8h296c4.417969 0 8 3.582031 8 8s-3.582031 8-8 8zm0 0"/><path d="m472 440h-72c-4.417969 0-8-3.582031-8-8s3.582031-8 8-8h72c4.417969 0 8 3.582031 8 8s-3.582031 8-8 8zm0 0"/><path d="m472 360h-216c-4.417969 0-8-3.582031-8-8s3.582031-8 8-8h216c4.417969 0 8 3.582031 8 8s-3.582031 8-8 8zm0 0"/><path d="m152 360h-144c-4.417969 0-8-3.582031-8-8s3.582031-8 8-8h144c4.417969 0 8 3.582031 8 8s-3.582031 8-8 8zm0 0"/></g><path d="m411.199219 153.601562-19.199219 14.398438v-44l28.800781-21.601562c3.535157-2.648438 4.25-7.664063 1.597657-11.199219-2.648438-3.535157-7.664063-4.25-11.199219-1.597657l-19.199219 14.398438v-24c0-4.417969-3.582031-8-8-8s-8 3.582031-8 8v24l-19.199219-14.398438c-3.535156-2.652343-8.550781-1.9375-11.199219 1.597657-2.652343 3.535156-1.9375 8.550781 1.597657 11.199219l28.800781 21.601562v44l-19.199219-14.398438c-3.535156-2.652343-8.550781-1.9375-11.199219 1.597657-2.652343 3.535156-1.9375 8.550781 1.597657 11.199219l28.800781 21.601562v82.625c0 4.417969 3.582031 8 8 8s8-3.582031 8-8v-82.625l28.800781-21.601562c3.535157-2.648438 4.25-7.664063 1.597657-11.199219-2.648438-3.535157-7.664063-4.25-11.199219-1.597657zm0 0" fill="#388e48"/><path d="m336 192c0 35.347656-28.652344 64-64 64s-64-28.652344-64-64 28.652344-64 64-64 64 28.652344 64 64zm0 0" fill="#dd3e46"/><path d="m120 312h-88l-16-168c0-30.929688 25.070312-56 56-56h8c30.929688 0 56 25.070312 56 56zm0 0" fill="#e97424"/><path d="m56 176h-32c-4.417969 0-8-3.582031-8-8s3.582031-8 8-8h32c4.417969 0 8 3.582031 8 8s-3.582031 8-8 8zm0 0" fill="#ffd782"/><path d="m72 208h-40c-4.417969 0-8-3.582031-8-8s3.582031-8 8-8h40c4.417969 0 8 3.582031 8 8s-3.582031 8-8 8zm0 0" fill="#ffd782"/><path d="m56 240h-24c-4.417969 0-8-3.582031-8-8s3.582031-8 8-8h24c4.417969 0 8 3.582031 8 8s-3.582031 8-8 8zm0 0" fill="#ffd782"/><path d="m64 272h-32c-4.417969 0-8-3.582031-8-8s3.582031-8 8-8h32c4.417969 0 8 3.582031 8 8s-3.582031 8-8 8zm0 0" fill="#ffd782"/><path d="m360 200c-25.421875.023438-47.636719 17.167969-54.105469 41.753906-11.59375-10.175781-28.070312-12.617187-42.117187-6.25-2.308594-33.011718-29.414063-58.8125-62.5-59.484375-33.085938-.671875-61.21875 24.007813-64.859375 56.902344-14.980469-3.269531-30.511719 2.308594-39.984375 14.367187-9.472656 12.058594-11.21875 28.46875-4.496094 42.25 6.722656 13.777344 20.730469 22.503907 36.0625 22.460938h232c30.929688 0 56-25.070312 56-56s-25.070312-56-56-56zm0 0" fill="#55b56a"/><path d="m472 304h-69.808594c5.273438-4.636719 9.753906-10.101562 13.265625-16.183594.640625 0 1.285157.183594 1.925781.183594 10.605469-.003906 20.777344-4.21875 28.273438-11.71875l22.632812-22.625c15.59375-15.632812 15.59375-40.9375 0-56.566406-4.292968-4.3125-9.523437-7.570313-15.28125-9.53125l5.914063-5.902344c15.59375-15.632812 15.59375-40.9375 0-56.566406-2.609375-2.613282-5.570313-4.84375-8.800781-6.625l8.800781-8.800782c12.34375-12.277343 15.304687-31.140624 7.316406-46.609374-7.988281-15.472657-25.082031-23.976563-42.238281-21.023438v-2.03125c0-22.089844-17.910156-40-40-40s-40 17.910156-40 40v2.03125c-17.152344-2.945312-34.238281 5.5625-42.21875 21.027344-7.984375 15.464844-5.027344 34.320312 7.308594 46.597656l8.796875 8.800781c-3.230469 1.777344-6.195313 4.007813-8.796875 6.621094-1.039063 1.132813-2.011719 2.320313-2.914063 3.5625-19.8125-10.699219-43.488281-11.523437-64-2.234375-16.019531-16.359375-41.371093-19.109375-60.527343-6.566406-19.15625 12.542968-26.773438 36.878906-18.183594 58.105468-10.265625 6.035157-18.875 14.527344-25.046875 24.710938l3.957031-41.601562 1.625-17.054688c-.007812-17.925781-7.554688-35.023438-20.800781-47.105469l12.640625-63.292969c.480468-2.355468-.121094-4.800781-1.640625-6.660156-1.519531-1.863281-3.796875-2.941406-6.199219-2.941406h-25.207031l1.207031-15.382812c.171875-2.226563-.59375-4.425782-2.113281-6.0625-1.519531-1.632813-3.652344-2.5625005-5.886719-2.554688h-48c-2.234375-.0078125-4.367188.921875-5.886719 2.554688-1.519531 1.636718-2.285156 3.835937-2.113281 6.0625l1.207031 15.382812h-25.207031c-2.402344 0-4.679688 1.078125-6.199219 2.941406-1.519531 1.859375-2.121093 4.304688-1.640625 6.660156l14.078125 70.398438c-9.265625 11.574219-14.292969 25.972656-14.238281 40.800781l15.199219 159.199219h-15.199219c-4.417969 0-8 3.582031-8 8v160c0 4.417969 3.582031 8 8 8h464c4.417969 0 8-3.582031 8-8v-160c0-4.417969-3.582031-8-8-8zm-133.769531-187.832031-17.832031-17.824219c-8.394532-8.332031-9.433594-21.550781-2.449219-31.09375s19.898437-12.546875 30.378906-7.066406c2.480469 1.28125 5.445313 1.175781 7.832031-.273438 2.382813-1.449218 3.839844-4.039062 3.839844-6.832031v-13.078125c0-13.253906 10.746094-24 24-24s24 10.746094 24 24v13.078125c0 2.792969 1.457031 5.382813 3.839844 6.832031 2.386718 1.449219 5.351562 1.554688 7.832031.273438 10.480469-5.480469 23.394531-2.476563 30.378906 7.066406s5.945313 22.761719-2.449219 31.09375l-17.832031 17.824219c-2.15625 2.128906-2.921875 5.292969-1.980469 8.175781.941407 2.878906 3.429688 4.976562 6.425782 5.425781 8.96875 1.292969 16.429687 7.554688 19.265625 16.15625 2.839843 8.605469.558593 18.078125-5.878907 24.449219l-17.808593 17.785156c-2.457031 2.433594-3.074219 6.167969-1.53125 9.257813 1.546875 3.09375 4.902343 4.84375 8.324219 4.34375 7.46875-1.160157 15.042968 1.316406 20.390624 6.664062 9.351563 9.378907 9.351563 24.558594 0 33.941407l-22.640624 22.625c-3.367188 3.304687-7.640626 5.53125-12.28125 6.398437 7.019531-27.652344-5.277344-56.589844-30.054688-70.734375v-12.65625l28.800781-21.601562c3.535157-2.648438 4.25-7.664063 1.597657-11.199219-2.648438-3.535157-7.664063-4.25-11.199219-1.597657l-19.199219 14.398438v-44l28.800781-21.601562c3.535157-2.648438 4.25-7.664063 1.597657-11.199219-2.648438-3.535157-7.664063-4.25-11.199219-1.597657l-19.199219 14.398438v-24c0-4.417969-3.582031-8-8-8s-8 3.582031-8 8v24l-19.199219-14.398438c-3.535156-2.652343-8.550781-1.9375-11.199219 1.597657-2.652343 3.535156-1.9375 8.550781 1.597657 11.199219l28.800781 21.601562v44l-19.199219-14.398438c-3.535156-2.652343-8.550781-1.9375-11.199219 1.597657-2.652343 3.535156-1.9375 8.550781 1.597657 11.199219l28.800781 21.601562v6.105469c-10.523438-2.835938-21.613281-2.804688-32.121094.085937 0-.726562.121094-1.457031.121094-2.191406-.007812-20.796875-9.035156-40.566406-24.742188-54.191406.390626-.457032.71875-.984375 1.148438-1.410156 3.628906-3.601563 8.316406-5.9375 13.378906-6.664063 2.996094-.445313 5.484375-2.546875 6.425782-5.425781.941406-2.878906.175781-6.042969-1.980469-8.171875zm-10.230469 75.832031c-.027344 3.09375-.3125 6.183594-.847656 9.230469-11.089844 6.625-19.917969 16.445312-25.320313 28.175781-9.675781-5.042969-20.792969-6.597656-31.480469-4.40625-5.597656-25.824219-24.828124-46.542969-50.167968-54.039062 10.050781-24.832032 36.289062-39.054688 62.582031-33.921876 26.289063 5.128907 45.257813 28.175782 45.234375 54.960938zm-152-32c-.027344-12.292969 7.007812-23.511719 18.085938-28.84375 11.078124-5.332031 24.234374-3.832031 33.824218 3.859375-11 8.507813-19.285156 20.027344-23.855468 33.160156-1.351563-.070312-2.6875-.175781-4.054688-.175781-7.421875.011719-14.796875 1.171875-21.863281 3.441406-1.40625-3.652344-2.128907-7.53125-2.136719-11.441406zm-31.632812 73.800781c3.199218-28.765625 27.804687-50.347656 56.742187-49.761719 28.9375.585938 52.652344 23.144532 54.683594 52.015626.183593 2.597656 1.617187 4.941406 3.84375 6.285156 2.230469 1.347656 4.972656 1.523437 7.355469.476562 11.226562-5.117187 24.414062-3.152344 33.664062 5.015625 2.09375 1.796875 4.964844 2.390625 7.597656 1.566407 2.632813-.824219 4.65625-2.945313 5.355469-5.613282 6.339844-24.101562 30.070313-39.335937 54.621094-35.078125 24.554687 4.257813 41.761719 26.597657 39.617187 51.421875-2.140625 24.828125-22.929687 43.886719-47.847656 43.871094h-232c-12.277344.050781-23.496094-6.925781-28.886719-17.957031-5.386719-11.03125-3.988281-24.167969 3.597657-33.820313 7.589843-9.648437 20.027343-14.109375 32.015624-11.480468 2.210938.46875 4.511719-.023438 6.339844-1.34375 1.828125-1.324219 3.011719-3.355469 3.261719-5.597657zm-26.128907-193.800781-9.390625 46.953125c-3.386718-1.734375-6.921875-3.160156-10.566406-4.257813l3.320312-42.695312zm-30.878906-24-4.960937 64.121094c-.796876 0-1.597657-.121094-2.398438-.121094h-8c-3.484375.019531-6.964844.328125-10.398438.921875l-4.960937-64.921875zm-44.917969 24 3.503906 45.601562c-3.480468 1.5625-6.8125 3.4375-9.953124 5.597657l-10.230469-51.199219zm-6.226562 232h27.785156c4.417969 0 8-3.582031 8-8s-3.582031-8-8-8h-29.3125l-1.519531-16h22.832031c4.417969 0 8-3.582031 8-8s-3.582031-8-8-8h-24c-.128906 0-.230469.0625-.359375.070312l-1.601563-16.460937c.632813.214844 1.292969.34375 1.960938.390625h40c4.417969 0 8-3.582031 8-8s-3.582031-8-8-8h-40c-1.160156.015625-2.300781.289062-3.34375.800781l-1.601562-16.800781h28.945312c4.417969 0 8-3.582031 8-8s-3.582031-8-8-8h-30.472656l-1.527344-16c.027344-26.5 21.5-47.972656 48-48h8c10.847656-.003906 21.378906 3.660156 29.878906 10.398438l.089844.074218c11.304688 8.863282 17.945312 22.402344 18.03125 36.765625l-1.550781 16.320313-6.203125 65.089844c-17.3125 2.800781-31.710938 14.835937-37.53125 31.378906-5.824219 16.542968-2.136719 34.945312 9.605468 47.972656h-53.046874zm427.785156 48v24h-208c-4.417969 0-8 3.582031-8 8s3.582031 8 8 8h208v24h-448v-24h136c4.417969 0 8-3.582031 8-8s-3.582031-8-8-8h-136v-24zm-448 144v-24h288c4.417969 0 8-3.582031 8-8s-3.582031-8-8-8h-288v-24h448v24h-64c-4.417969 0-8 3.582031-8 8s3.582031 8 8 8h64v24zm0 0"/></svg>