<svg height="480pt" viewBox="-40 0 480 480.00031" width="480pt" xmlns="http://www.w3.org/2000/svg"><path d="m32.003906 424h336c13.257813 0 24 10.746094 24 24s-10.742187 24-24 24h-336c-13.253906 0-24-10.746094-24-24s10.746094-24 24-24zm0 0" fill="#55b56a"/><path d="m32.003906 376h336c13.257813 0 24 10.746094 24 24s-10.742187 24-24 24h-336c-13.253906 0-24-10.746094-24-24s10.746094-24 24-24zm0 0" fill="#c8d952"/><path d="m32.003906 328h336c13.257813 0 24 10.746094 24 24s-10.742187 24-24 24h-336c-13.253906 0-24-10.746094-24-24s10.746094-24 24-24zm0 0" fill="#55b56a"/><path d="m32.003906 280h336c13.257813 0 24 10.746094 24 24s-10.742187 24-24 24h-336c-13.253906 0-24-10.746094-24-24s10.746094-24 24-24zm0 0" fill="#c8d952"/><path d="m200.003906 64h64v88h-64zm0 0" fill="#5a6470"/><path d="m200.003906 80-64 56v144h48v-128l16-16zm0 0" fill="#55b56a"/><path d="m344.003906 192-80-24v-120l80-24zm0 0" fill="#cfdfe8"/><path d="m224.003906 64h16v24h-16zm0 0" fill="#aabece"/><path d="m224.003906 120h16v32h-16zm0 0" fill="#aabece"/><g fill="#5a6470"><path d="m344.003906 216c-4.417968 0-8-3.582031-8-8v-200c0-4.417969 3.582032-8 8-8 4.417969 0 8 3.582031 8 8v200c0 4.417969-3.582031 8-8 8zm0 0"/><path d="m312.003906 88c-4.417968 0-8-3.582031-8-8v-40c0-4.417969 3.582032-8 8-8 4.417969 0 8 3.582031 8 8v40c0 4.417969-3.582031 8-8 8zm0 0"/><path d="m312.003906 120c-2.125.019531-4.171875-.816406-5.679687-2.320312-.703125-.777344-1.269531-1.671876-1.679688-2.640626-.449219-.949218-.667969-1.988281-.640625-3.039062.027344-2.117188.855469-4.148438 2.320313-5.679688 1.890625-1.875 4.589843-2.683593 7.203125-2.160156.53125.074219 1.046875.238282 1.527344.480469.488281.160156.949218.402344 1.359374.71875.457032.277344.886719.597656 1.28125.960937 1.457032 1.535157 2.28125 3.5625 2.308594 5.679688-.011718 1.046875-.230468 2.078125-.636718 3.039062-.410157.96875-.976563 1.863282-1.683594 2.640626-1.503906 1.503906-3.550782 2.339843-5.679688 2.320312zm0 0"/></g><path d="m400.003906 304c0-17.671875-14.324218-32-32-32h-176v-116.6875l.5625-.550781c1.132813 3.132812 4.105469 5.226562 7.4375 5.238281h56v8c0 3.535156 2.320313 6.648438 5.707032 7.664062l74.292968 22.289063v10.046875c0 4.417969 3.582032 8 8 8 4.417969 0 8-3.582031 8-8v-200c0-4.417969-3.582031-8-8-8-4.417968 0-8 3.582031-8 8v10.046875l-74.292968 22.289063c-3.386719 1.015624-5.707032 4.128906-5.707032 7.664062v8h-56c-4.417968 0-8 3.582031-8 8v12.367188l-61.261718 53.601562c-1.742188 1.519531-2.738282 3.71875-2.738282 6.03125v136h-96c-13.34375-.058594-25.308594 8.203125-29.984375 20.703125-4.675781 12.496094-1.066406 26.585937 9.042969 35.296875-7.019531 6-11.05859375 14.769531-11.05859375 24s4.03906275 18 11.05859375 24c-7.019531 6-11.05859375 14.769531-11.05859375 24s4.03906275 18 11.05859375 24c-10.109375 8.710938-13.71875 22.800781-9.042969 35.296875 4.675781 12.5 16.640625 20.761719 29.984375 20.703125h336c13.34375.058594 25.3125-8.203125 29.988282-20.703125 4.675781-12.496094 1.066406-26.585937-9.042969-35.296875 7.015625-6 11.058593-14.769531 11.058593-24s-4.042968-18-11.058593-24c7.015625-6 11.058593-14.769531 11.058593-24s-4.042968-18-11.058593-24c6.992187-6.015625 11.027343-14.773438 11.054687-24zm-128-250.046875 32-9.601563v35.648438c0 4.417969 3.582032 8 8 8 4.417969 0 8-3.582031 8-8v-40c0-.152344-.078125-.273438-.085937-.425781l16.085937-4.820313v146.492188l-64-19.199219zm-64 18.046875h16v16c0 4.417969 3.582032 8 8 8 4.417969 0 8-3.582031 8-8v-16h16v72h-16v-24c0-4.417969-3.582031-8-8-8-4.417968 0-8 3.582031-8 8v24h-16zm-64 67.632812 48-42v35.054688l-13.65625 13.65625c-1.5 1.5-2.339844 3.535156-2.34375 5.65625v120h-32zm240 308.367188c0 8.835938-7.160156 16-16 16h-336c-8.835937 0-16-7.164062-16-16s7.164063-16 16-16h336c8.839844 0 16 7.164062 16 16zm0-48c0 8.835938-7.160156 16-16 16h-336c-8.835937 0-16-7.164062-16-16s7.164063-16 16-16h336c8.839844 0 16 7.164062 16 16zm0-48c0 8.835938-7.160156 16-16 16h-336c-8.835937 0-16-7.164062-16-16s7.164063-16 16-16h336c8.839844 0 16 7.164062 16 16zm-352-32c-8.835937 0-16-7.164062-16-16s7.164063-16 16-16h336c8.839844 0 16 7.164062 16 16s-7.160156 16-16 16zm0 0"/><path d="m306.324219 117.679688c3.15625 3.09375 8.207031 3.09375 11.359375 0 .707031-.777344 1.273437-1.671876 1.683594-2.640626.40625-.960937.625-1.992187.636718-3.039062-.027344-2.117188-.855468-4.148438-2.320312-5.679688-.390625-.363281-.820313-.683593-1.277344-.960937-.410156-.316406-.871094-.558594-1.359375-.71875-.480469-.242187-.996094-.40625-1.53125-.480469-2.609375-.523437-5.308594.285156-7.199219 2.160156-1.460937 1.53125-2.289062 3.5625-2.3125 5.679688-.027344 1.050781.191406 2.089844.640625 3.039062.410157.96875.976563 1.863282 1.679688 2.640626zm0 0"/></svg>