<svg height="480pt" viewBox="-12 0 480 480" width="480pt" xmlns="http://www.w3.org/2000/svg"><path d="m96 168h-32c-4.417969 0-8 3.582031-8 8v40h-40v-8c0-4.417969-3.582031-8-8-8s-8 3.582031-8 8v32c0 4.417969 3.582031 8 8 8s8-3.582031 8-8v-8h48c4.417969 0 8-3.582031 8-8v-40h24c4.417969 0 8-3.582031 8-8s-3.582031-8-8-8zm0 0" fill="#2d75bb"/><path d="m96 104h32v160h-32zm0 0" fill="#d3843d"/><path d="m352 104h32v160h-32zm0 0" fill="#d3843d"/><path d="m32 424h416v48h-416zm0 0" fill="#5a6470"/><path d="m72 264h336v160h-336zm0 0" fill="#ffd782"/><path d="m416 104h-352l32-96h288zm0 0" fill="#ad6327"/><path d="m128 160h224v32h-224zm0 0" fill="#5a6470"/><path d="m232 160h32v32h-32zm0 0" fill="#5a6470"/><path d="m200 160h32v32h-32zm0 0" fill="#aabece"/><path d="m264 160h32v104h-32zm0 0" fill="#aabece"/><g fill="#d3843d"><path d="m72 288h232v16h-232zm0 0"/><path d="m336 288h72v16h-72zm0 0"/><path d="m216 320h192v16h-192zm0 0"/><path d="m72 320h112v16h-112zm0 0"/><path d="m72 352h168v16h-168zm0 0"/><path d="m272 352h24v16h-24zm0 0"/><path d="m328 352h80v16h-80zm0 0"/><path d="m72 384h48v16h-48zm0 0"/><path d="m152 384h56v16h-56zm0 0"/><path d="m240 384h168v16h-168zm0 0"/></g><path d="m448 416h-32v-152c0-4.417969-3.582031-8-8-8h-16v-144h24c2.570312 0 4.984375-1.238281 6.484375-3.324219 1.503906-2.085937 1.910156-4.765625 1.101563-7.203125l-32-96c-1.089844-3.265625-4.144532-5.46874975-7.585938-5.472656h-288c-3.441406.00390625-6.496094 2.207031-7.585938 5.472656l-32 96c-.808593 2.4375-.402343 5.117188 1.101563 7.203125 1.5 2.085938 3.914063 3.324219 6.484375 3.324219h24v56h-24c-4.417969 0-8 3.582031-8 8v40h-40v-8c0-4.417969-3.582031-8-8-8s-8 3.582031-8 8v32c0 4.417969 3.582031 8 8 8s8-3.582031 8-8v-8h48c4.417969 0 8-3.582031 8-8v-40h16v72h-16c-4.417969 0-8 3.582031-8 8v152h-32c-4.417969 0-8 3.582031-8 8v48c0 4.417969 3.582031 8 8 8h416c4.417969 0 8-3.582031 8-8v-48c0-4.417969-3.582031-8-8-8zm-72-160h-16v-144h16zm-72 0v-56h40v56zm-168 0v-56h120v56zm208-144v40h-208v-40zm-40 56h40v16h-40zm-48 16h-16v-16h16zm-48 0v-16h16v16zm-72 0v-16h56v16zm136 8v-24h16v88h-16zm-170.230469-176h276.460938l26.664062 80h-329.789062zm2.230469 96h16v144h-16zm-24 288h40c4.417969 0 8-3.582031 8-8s-3.582031-8-8-8h-40v-16h160c4.417969 0 8-3.582031 8-8s-3.582031-8-8-8h-160v-16h104c4.417969 0 8-3.582031 8-8s-3.582031-8-8-8h-104v-16h224c4.417969 0 8-3.582031 8-8s-3.582031-8-8-8h-224v-16h320v16h-64c-4.417969 0-8 3.582031-8 8s3.582031 8 8 8h64v16h-184c-4.417969 0-8 3.582031-8 8s3.582031 8 8 8h184v16h-72c-4.417969 0-8 3.582031-8 8s3.582031 8 8 8h72v16h-160c-4.417969 0-8 3.582031-8 8s3.582031 8 8 8h160v16h-320zm360 64h-400v-32h400zm0 0"/><path d="m272 368h24c4.417969 0 8-3.582031 8-8s-3.582031-8-8-8h-24c-4.417969 0-8 3.582031-8 8s3.582031 8 8 8zm0 0"/><path d="m208 384h-56c-4.417969 0-8 3.582031-8 8s3.582031 8 8 8h56c4.417969 0 8-3.582031 8-8s-3.582031-8-8-8zm0 0"/></svg>