<svg height="480pt" viewBox="0 0 480.0012 480" width="480pt" xmlns="http://www.w3.org/2000/svg"><path d="m128 264v-32h-88c-17.671875 0-32 14.328125-32 32v80c0 17.671875 14.328125 32 32 32h88v-32h-72c-8.835938 0-16-7.164062-16-16v-48c0-8.835938 7.164062-16 16-16zm0 0" fill="#5a6470"/><path d="m340.238281 358.367188 99.761719-126.367188-24-32-86.550781 50.488281zm0 0" fill="#5a6470"/><path d="m416 200 24 32h32l-48-72zm0 0" fill="#aabece"/><path d="m352 472h-256l7.839844-80 17.121094-176 7.039062-72h192l7.039062 72 17.121094 176zm0 0" fill="#aabece"/><path d="m344.160156 392h-240.320312l17.121094-176h206.078124zm0 0" fill="#cfdfe8"/><g fill="#fff"><path d="m208 432h-72c-4.417969 0-8-3.582031-8-8s3.582031-8 8-8h72c4.417969 0 8 3.582031 8 8s-3.582031 8-8 8zm0 0"/><path d="m320 184h-112c-4.417969 0-8-3.582031-8-8s3.582031-8 8-8h112c4.417969 0 8 3.582031 8 8s-3.582031 8-8 8zm0 0"/><path d="m176 184h-48c-4.417969 0-8-3.582031-8-8s3.582031-8 8-8h48c4.417969 0 8 3.582031 8 8s-3.582031 8-8 8zm0 0"/><path d="m248 432h-8c-4.417969 0-8-3.582031-8-8s3.582031-8 8-8h8c4.417969 0 8 3.582031 8 8s-3.582031 8-8 8zm0 0"/></g><path d="m264 316.921875c.832031 22.933594-17.066406 42.210937-40 43.078125-22.933594-.867188-40.832031-20.144531-40-43.078125 0-23.785156 40-68.921875 40-68.921875s40 45.136719 40 68.921875zm0 0" fill="#2d75bb"/><path d="m120 112h208c8.835938 0 16 7.164062 16 16s-7.164062 16-16 16h-208c-8.835938 0-16-7.164062-16-16s7.164062-16 16-16zm0 0" fill="#5a6470"/><path d="m228 8c15.464844 0 28 12.535156 28 28v108h-56v-108c0-15.464844 12.535156-28 28-28zm0 0" fill="#97a2ad"/><path d="m208 416h-72c-4.417969 0-8 3.582031-8 8s3.582031 8 8 8h72c4.417969 0 8-3.582031 8-8s-3.582031-8-8-8zm0 0"/><path d="m248 416h-8c-4.417969 0-8 3.582031-8 8s3.582031 8 8 8h8c4.417969 0 8-3.582031 8-8s-3.582031-8-8-8zm0 0"/><path d="m218.015625 242.695312c-4.304687 4.847657-42.015625 48.152344-42.015625 74.226563-.792969 27.335937 20.664062 50.175781 48 51.078125 27.335938-.902344 48.792969-23.742188 48-51.078125 0-26.074219-37.710938-69.378906-42.015625-74.226563-1.558594-1.636718-3.722656-2.566406-5.984375-2.566406s-4.425781.929688-5.984375 2.566406zm5.984375 109.304688c-18.496094-.90625-32.792969-16.578125-32-35.078125 0-13.160156 17.726562-39.144531 32-56.570313 14.273438 17.417969 32 43.386719 32 56.570313.792969 18.5-13.503906 34.171875-32 35.078125zm0 0"/><path d="m40 384h56.550781l-8.511719 87.199219c-.226562 2.25.511719 4.492187 2.027344 6.167969 1.515625 1.675781 3.671875 2.632812 5.933594 2.632812h256c2.269531.011719 4.433594-.941406 5.960938-2.617188 1.523437-1.679687 2.265624-3.925781 2.039062-6.183593l-10.886719-111.199219 94.765625-120h28.121094c2.949219 0 5.664062-1.625 7.054688-4.226562 1.390624-2.601563 1.238281-5.757813-.398438-8.210938l-48-72c-1.796875-2.691406-5.035156-4.035156-8.207031-3.40625s-5.652344 3.105469-6.289063 6.277344l-7.296875 36.464844-71.773437 41.902343-8.289063-84.878906c12.707031-.917969 22.484375-11.601563 22.269531-24.339844-.210937-12.738281-10.339843-23.089843-23.070312-23.582031h-64v-68c0-19.882812-16.117188-36-36-36s-36 16.117188-36 36v68h-72c-12.730469.492188-22.859375 10.84375-23.070312 23.582031-.214844 12.738281 9.5625 23.421875 22.269531 24.339844l-7.039063 72.078125h-72.160156c-22.082031.027344-39.9726562 17.921875-40 40v80c.0273438 22.082031 17.917969 39.972656 40 40zm388.054688-203.496094 29 43.496094h-13.054688l-19.457031-25.933594zm-14.183594 29.992188 16 21.375-82.855469 104.984375-7.535156-82.957031zm-101.128906-58.496094 1.5625 16h-106.304688c-4.417969 0-8 3.582031-8 8s3.582031 8 8 8h107.863281l2.34375 24h-188.414062l2.34375-24h43.863281c4.417969 0 8-3.582031 8-8s-3.582031-8-8-8h-42.304688l1.601563-16zm-184.503907 72h191.523438l15.4375 160h-222.398438zm-27.007812 112h-45.230469c-4.417969 0-8-3.582031-8-8v-48c0-4.417969 3.582031-8 8-8h51.472656zm3.570312 128 6.238281-64h225.898438l6.238281 64zm223.199219-344c4.417969 0 8 3.582031 8 8s-3.582031 8-8 8h-64v-16zm-120-84c0-11.046875 8.953125-20 20-20s20 8.953125 20 20v100h-40zm-96 92c0-4.417969 3.582031-8 8-8h72v16h-72c-4.417969 0-8-3.582031-8-8zm-96 136c0-13.253906 10.746094-24 24-24h70.601562l-1.5625 16h-53.039062c-13.253906 0-24 10.746094-24 24v48c0 13.253906 10.746094 24 24 24h43.671875l-1.601563 16h-58.070312c-13.253906 0-24-10.746094-24-24zm0 0"/></svg>