<svg height="480pt" viewBox="0 0 480.29318 480" width="480pt" xmlns="http://www.w3.org/2000/svg"><path d="m232.007812 388.53125h32v67.617188c0 8.835937-7.164062 16-16 16-8.835937 0-16-7.164063-16-16zm0 0" fill="#d3843d"/><path d="m101.261719 72.714844c0 26.511718-22.625 45.253906-22.625 45.253906s-22.628907-18.742188-22.628907-45.253906c0-26.511719 22.628907-56.566406 22.628907-56.566406s22.625 30.054687 22.625 56.566406zm0 0" fill="#ffd782"/><path d="m80.007812 472.148438c-8.835937 0-16-7.164063-16-16l.070313-69.335938h32l-.070313 69.335938c0 8.835937-7.164062 16-16 16zm0 0" fill="#d3843d"/><path d="m421.40625 72.714844c0 26.511718-22.632812 45.253906-22.632812 45.253906s-22.621094-18.742188-22.621094-45.253906c0-26.511719 22.621094-56.566406 22.621094-56.566406s22.632812 30.054687 22.632812 56.566406zm0 0" fill="#ffd782"/><path d="m384.152344 389.867188h32v66.28125c0 8.835937-7.164063 16-16 16-8.839844 0-16-7.164063-16-16zm0 0" fill="#d3843d"/><g fill="#ffd782"><path d="m80.078125 384.996094c-.1875-15.125-5.90625-29.652344-16.070313-40.847656-18.746093-18.746094-56-24-56-24s5.253907 37.253906 24 56c18.742188 18.742187 48 16 48 16h.144532s29.253906 2.742187 48-16c18.742187-18.746094 24-56 24-56s-37.257813 5.253906-56 24c-10.167969 11.195312-15.882813 25.722656-16.074219 40.847656zm0 0"/><path d="m80.078125 328.851562c-.1875-15.121093-5.90625-29.652343-16.070313-40.847656-18.746093-18.746094-56-24-56-24s5.253907 37.253906 24 56c18.742188 18.742188 48 16 48 16h.144532s29.253906 2.75 48-16c18.742187-18.753906 24-56 24-56s-37.257813 5.253906-56 24c-10.167969 11.195313-15.882813 25.726563-16.074219 40.847656zm0 0"/><path d="m80.078125 272.851562c-.1875-15.121093-5.90625-29.652343-16.070313-40.847656-18.746093-18.746094-56-24-56-24s5.253907 37.253906 24 56c18.742188 18.742188 48 16 48 16h.144532s29.253906 2.75 48-16c18.742187-18.753906 24-56 24-56s-37.257813 5.253906-56 24c-10.167969 11.195313-15.882813 25.726563-16.074219 40.847656zm0 0"/><path d="m80.078125 217.128906c-.191406-15.117187-5.90625-29.644531-16.070313-40.839844-18.746093-18.75-56-24-56-24s5.253907 37.25 24 56c18.742188 18.753907 48 16 48 16h.144532s29.253906 2.746094 48-16c18.742187-18.742187 24-56 24-56s-37.257813 5.25-56 24c-10.167969 11.195313-15.882813 25.722657-16.074219 40.839844zm0 0"/><path d="m80.078125 160.996094c-.1875-15.125-5.90625-29.652344-16.070313-40.847656-18.746093-18.746094-56-24-56-24s5.253907 37.253906 24 56c18.742188 18.742187 48 16 48 16h.144532s29.253906 2.742187 48-16c18.742187-18.746094 24-56 24-56s-37.257813 5.253906-56 24c-10.167969 11.195312-15.882813 25.722656-16.074219 40.847656zm0 0"/><path d="m400.222656 384.996094c-.1875-15.125-5.90625-29.652344-16.070312-40.847656-18.746094-18.746094-56-24-56-24s5.253906 37.253906 24 56c18.742187 18.742187 48 16 48 16h.140625s29.25 2.742187 48-16c18.753906-18.746094 24-56 24-56s-37.253907 5.253906-56 24c-10.164063 11.195312-15.882813 25.722656-16.070313 40.847656zm0 0"/><path d="m400.222656 328.851562c-.1875-15.121093-5.90625-29.652343-16.070312-40.847656-18.746094-18.746094-56-24-56-24s5.253906 37.253906 24 56c18.742187 18.742188 48 16 48 16h.140625s29.25 2.75 48-16c18.753906-18.753906 24-56 24-56s-37.253907 5.253906-56 24c-10.164063 11.195313-15.882813 25.726563-16.070313 40.847656zm0 0"/><path d="m400.222656 272.851562c-.1875-15.121093-5.90625-29.652343-16.070312-40.847656-18.746094-18.746094-56-24-56-24s5.253906 37.253906 24 56c18.742187 18.742188 48 16 48 16h.140625s29.25 2.75 48-16c18.753906-18.753906 24-56 24-56s-37.253907 5.253906-56 24c-10.164063 11.195313-15.882813 25.726563-16.070313 40.847656zm0 0"/><path d="m400.222656 217.128906c-.191406-15.117187-5.90625-29.644531-16.070312-40.839844-18.746094-18.75-56-24-56-24s5.253906 37.25 24 56c18.742187 18.753907 48 16 48 16h.140625s29.25 2.746094 48-16c18.753906-18.742187 24-56 24-56s-37.253907 5.25-56 24c-10.164063 11.195313-15.878907 25.722657-16.070313 40.839844zm0 0"/><path d="m400.152344 168.148438h.140625s29.25 2.742187 48-16c18.753906-18.746094 24-56 24-56s-37.253907 5.253906-56 24c-10.164063 11.195312-15.882813 25.722656-16.070313 40.847656-.1875-15.125-5.90625-29.652344-16.070312-40.847656-18.746094-18.746094-56-24-56-24s5.253906 37.253906 24 56c18.742187 18.742187 48 16 48 16zm0 0"/><path d="m246.636719 189.96875s22.625-18.742188 22.625-45.253906c0-26.511719-22.625-56.566406-22.625-56.566406s-22.628907 30.054687-22.628907 56.566406c0 26.511718 22.628907 45.253906 22.628907 45.253906zm0 0"/><path d="m248.078125 384.996094c-.1875-15.125-5.90625-29.652344-16.070313-40.847656-18.746093-18.746094-56-24-56-24s5.253907 37.253906 24 56c18.742188 18.742187 48 16 48 16h.144532s29.253906 2.742187 48-16c18.742187-18.746094 24-56 24-56s-37.257813 5.253906-56 24c-10.167969 11.195312-15.882813 25.722656-16.074219 40.847656zm0 0"/><path d="m248.078125 328.851562c-.1875-15.121093-5.90625-29.652343-16.070313-40.847656-18.746093-18.746094-56-24-56-24s5.253907 37.253906 24 56c18.742188 18.742188 48 16 48 16h.144532s29.253906 2.75 48-16c18.742187-18.753906 24-56 24-56s-37.257813 5.253906-56 24c-10.167969 11.195313-15.882813 25.726563-16.074219 40.847656zm0 0"/><path d="m248.078125 272.851562c-.1875-15.121093-5.90625-29.652343-16.070313-40.847656-18.746093-18.746094-56-24-56-24s5.253907 37.253906 24 56c18.742188 18.742188 48 16 48 16h.144532s29.253906 2.75 48-16c18.742187-18.753906 24-56 24-56s-37.257813 5.253906-56 24c-10.167969 11.195313-15.882813 25.726563-16.074219 40.847656zm0 0"/><path d="m248.078125 217.128906c-.191406-15.117187-5.90625-29.644531-16.070313-40.839844-18.746093-18.75-56-24-56-24s5.253907 37.25 24 56c18.742188 18.753907 48 16 48 16h.144532s29.253906 2.746094 48-16c18.742187-18.742187 24-56 24-56s-37.257813 5.25-56 24c-10.167969 11.195313-15.882813 25.722657-16.074219 40.839844zm0 0"/></g><path d="m272.152344 24.148438h16v16h-16zm0 0" fill="#e97424"/><path d="m272.152344 56.148438h16v16h-16zm0 0" fill="#e97424"/><path d="m256.152344 40.148438h16v16h-16zm0 0" fill="#e97424"/><path d="m288.152344 40.148438h16v16h-16zm0 0" fill="#e97424"/><path d="m184.152344.148438h16v16h-16zm0 0" fill="#e97424"/><path d="m184.152344 32.148438h16v16h-16zm0 0" fill="#e97424"/><path d="m168.152344 16.148438h16v16h-16zm0 0" fill="#e97424"/><path d="m200.152344 16.148438h16v16h-16zm0 0" fill="#e97424"/><path d="m2.351562 314.492188c-1.777343 1.777343-2.617187 4.285156-2.2656245 6.773437.2343745 1.601563 5.8710935 40.136719 26.2656245 60.535156 8.230469 7.953125 18.488282 13.488281 29.65625 16v58.347657c0 13.253906 10.742188 24 24 24 13.253907 0 24-10.746094 24-24v-58.304688c11.222657-2.496094 21.535157-8.046875 29.796876-16.042969 20.402343-20.398437 26.042968-58.910156 26.265624-60.535156.351563-2.488281-.488281-4.996094-2.265624-6.773437-1.777344-1.777344-4.285157-2.617188-6.773438-2.265626-.425781.054688-3.433594.503907-7.9375 1.480469 8.566406-15.027343 14.320312-31.492187 16.976562-48.585937.351563-2.488282-.488281-4.996094-2.265624-6.773438-1.777344-1.777344-4.285157-2.617187-6.773438-2.265625-.425781.066407-3.375.503907-7.832031 1.457031 8.507812-14.984374 14.226562-31.390624 16.871093-48.417968.351563-2.488282-.488281-4.996094-2.265624-6.773438-1.78125-1.769531-4.285157-2.605468-6.773438-2.265625-.417969.066407-3.28125.480469-7.617188 1.410157 8.390626-14.902344 14.03125-31.191407 16.65625-48.089844.351563-2.488282-.488281-4.996094-2.265624-6.773438-1.777344-1.777344-4.285157-2.617187-6.773438-2.265625-.425781.0625-3.433594.511719-7.9375 1.480469 8.566406-15.027344 14.320312-31.488281 16.976562-48.578125.351563-2.488281-.488281-4.996094-2.265624-6.773437-1.777344-1.777344-4.285157-2.617188-6.773438-2.265626-19.179688 2.898438-37.515625 9.890626-53.753906 20.503907 7.53125-10.519531 11.714844-23.066407 12-36 0-28.855469-23.253906-60.0625-24.246094-61.382813-1.574219-1.917968-3.921875-3.027344-6.402344-3.027344-2.476562 0-4.824218 1.109376-6.398437 3.027344-.992188 1.320313-24.238281 32.527344-24.238281 61.382813.207031 11.519531 3.582031 22.753906 9.757812 32.480469-15.039062-8.574219-31.515625-14.328126-48.625-16.984376-2.484375-.335937-4.988281.5-6.773438 2.265626-1.777343 1.777343-2.617187 4.285156-2.2656245 6.773437 2.6601565 17.089844 8.4140625 33.550781 16.9765625 48.578125-4.503906-.96875-7.503906-1.417969-7.9375-1.480469-2.488281-.335937-4.992188.503907-6.773438 2.269531-1.777343 1.777344-2.613281 4.285157-2.2656245 6.769532 2.6250005 16.898437 8.2695315 33.1875 16.6562505 48.089844-4.335938-.929688-7.199219-1.34375-7.617188-1.410157-2.484375-.328125-4.984375.503907-6.773438 2.265625-1.777343 1.777344-2.617187 4.285156-2.2656245 6.773438 2.6484375 17.027344 8.3632815 33.429687 16.8632815 48.417968-4.445313-.953124-7.40625-1.390624-7.832031-1.457031-2.488282-.351562-4.996094.488281-6.773438 2.265625s-2.617188 4.285156-2.265625 6.773438c2.660156 17.105468 8.414063 33.585937 16.984375 48.625-4.503906-.976563-7.503906-1.421875-7.9375-1.480469-2.480469-.351563-4.984375.46875-6.773438 2.226563zm15.933594 15.917968c14.761719 3.03125 28.53125 9.695313 40.066406 19.390625 8.480469 9.46875 13.324219 21.640625 13.664063 34.347657h-.089844c-12.675781-.351563-24.820312-5.191407-34.261719-13.65625-9.683593-11.546876-16.339843-25.320313-19.378906-40.082032zm60.128906-204.480468c.074219.019531.148438.03125.222657.039062 1.3125-.039062 2.59375-.40625 3.730469-1.0625-.800782 1.34375-1.601563 2.6875-2.289063 4.054688-.519531-1.015626-1.070313-2.023438-1.664063-3.03125zm-2.472656 50.402343c1.945313 0 3.34375-.074219 4.136719-.128906s2.199219.128906 4.144531.128906h1.441406c-2.125 2.777344-3.996093 5.738281-5.601562 8.847657-1.601562-3.109376-3.476562-6.070313-5.601562-8.847657.496093-.074219 1.066406-.042969 1.480468-.042969zm12.203125 40c.335938-12.710937 5.175781-24.886719 13.660157-34.351562 11.546874-9.691407 25.320312-16.351563 40.082031-19.386719-3.03125 14.761719-9.699219 28.535156-19.390625 40.074219-9.472656 8.46875-21.644532 13.300781-34.34375 13.628906zm-16.128906 0c-12.710937-.339843-24.886719-5.179687-34.351563-13.664062-9.6875-11.5625-16.347656-25.347657-19.378906-40.121094 14.761719 3.023437 28.535156 9.691406 40.066406 19.390625 8.484376 9.472656 13.328126 21.648438 13.664063 34.359375zm3.925781 16.132813c1.945313 0 3.34375-.078125 4.136719-.125.792969-.050782 2.199219.125 4.144531.125h1.121094c-1.988281 2.65625-3.75 5.46875-5.265625 8.417968-1.515625-2.945312-3.273437-5.761718-5.253906-8.417968.351562-.0625.789062-.03125 1.117187-.03125zm12.210938 39.546875c.335937-12.710938 5.179687-24.886719 13.664062-34.351563 11.542969-9.683594 25.316406-16.34375 40.078125-19.378906-3.03125 14.761719-9.695312 28.53125-19.390625 40.066406-9.464844 8.488282-21.644531 13.332032-34.351562 13.664063zm-16.128906 0c-12.710938-.332031-24.886719-5.175781-34.351563-13.664063-9.683594-11.546875-16.339844-25.316406-19.378906-40.074218 14.761719 3.027343 28.53125 9.6875 40.066406 19.386718 8.480469 9.46875 13.320313 21.644532 13.65625 34.351563zm3.917968 16.136719c1.945313 0 3.34375-.074219 4.136719-.128907.792969-.058593 2.199219.128907 4.144531.128907h1.328125c-2.070312 2.734374-3.902343 5.648437-5.472656 8.703124-1.570313-3.054687-3.398437-5.96875-5.472656-8.703124zm12.210938 39.863281c.335937-12.710938 5.179687-24.886719 13.664062-34.351563 11.542969-9.683594 25.316406-16.34375 40.078125-19.378906-3.03125 14.761719-9.695312 28.53125-19.390625 40.066406-9.464844 8.488282-21.644531 13.332032-34.351562 13.664063zm-16.128906 0c-12.710938-.332031-24.886719-5.175781-34.351563-13.664063-9.683594-11.546875-16.339844-25.316406-19.378906-40.074218 14.761719 3.027343 28.53125 9.6875 40.066406 19.386718 8.480469 9.46875 13.320313 21.644532 13.65625 34.351563zm3.917968 16.136719c1.945313 0 3.34375-.074219 4.136719-.128907.792969-.058593 2.199219.128907 4.144531.128907h1.441406c-2.125 2.777343-4 5.738281-5.601562 8.847656-1.597656-3.113282-3.472656-6.074219-5.601562-8.847656zm12.066406 112c0 4.417968-3.582031 8-8 8-4.417968 0-8-3.582032-8-8v-55.960938c1.445313.070312 14.613282.0625 16 0zm34.488282-85.65625c-9.441406 8.46875-21.585938 13.308593-34.265625 13.65625h-.078125c.335937-12.707032 5.179687-24.878907 13.664062-34.347657 11.542969-9.6875 25.316406-16.347656 40.078125-19.382812-3.035156 14.761719-9.703125 28.535156-19.398437 40.074219zm19.390625-264.074219c-3.03125 14.761719-9.695313 28.535156-19.390625 40.074219-9.46875 8.476562-21.640625 13.316406-34.34375 13.65625.335937-12.710938 5.179687-24.886719 13.664062-34.355469 11.539063-9.683594 25.3125-16.339844 40.070313-19.375zm-63.25-75.734375c8.289062 12.578125 13.316406 27.023437 14.632812 42.03125-.695312 12.695312-5.882812 24.726562-14.632812 33.953125-8.746094-9.226563-13.933594-21.257813-14.628907-33.953125 1.316407-15.007813 6.34375-29.453125 14.628907-42.03125zm-20.285157 95.117187c8.480469 9.46875 13.324219 21.640625 13.664063 34.347657-12.710937-.339844-24.886719-5.179688-34.351563-13.664063-9.683593-11.546875-16.339843-25.320313-19.378906-40.082031 14.761719 3.035156 28.53125 9.703125 40.066406 19.398437zm0 0"/><path d="m170.351562 314.492188c-1.777343 1.777343-2.617187 4.285156-2.265624 6.773437.234374 1.601563 5.871093 40.136719 26.265624 60.535156 8.230469 7.953125 18.488282 13.488281 29.65625 16v58.347657c0 13.253906 10.742188 24 24 24 13.253907 0 24-10.746094 24-24v-58.304688c11.222657-2.496094 21.535157-8.046875 29.796876-16.042969 10.808593-12.242187 18.476562-26.933593 22.347656-42.796875 3.867187 15.863282 11.535156 30.554688 22.34375 42.796875 8.230468 7.953125 18.488281 13.488281 29.65625 16v58.347657c0 13.253906 10.742187 24 24 24 13.253906 0 24-10.746094 24-24v-58.304688c11.21875-2.5 21.53125-8.050781 29.796875-16.042969 20.394531-20.398437 26.035156-58.910156 26.265625-60.535156.351562-2.488281-.488282-4.996094-2.265625-6.773437-1.777344-1.777344-4.285157-2.617188-6.773438-2.265626-.433593.054688-3.433593.503907-7.9375 1.480469 8.5625-15.03125 14.316407-31.492187 16.976563-48.585937.351562-2.488282-.488282-4.996094-2.265625-6.773438-1.777344-1.777344-4.285157-2.617187-6.773438-2.265625-.425781.066407-3.386719.503907-7.832031 1.457031 8.503906-14.984374 14.222656-31.390624 16.871094-48.417968.351562-2.488282-.488282-4.996094-2.265625-6.773438-1.777344-1.777344-4.285157-2.617187-6.773438-2.265625-.417969.066407-3.28125.480469-7.617187 1.410157 8.386718-14.902344 14.03125-31.191407 16.65625-48.089844.351562-2.488282-.488282-4.996094-2.265625-6.773438-1.777344-1.777344-4.285157-2.617187-6.773438-2.265625-.433593.0625-3.433593.511719-7.9375 1.480469 8.5625-15.027344 14.316407-31.488281 16.976563-48.578125.351562-2.488281-.488282-4.996094-2.265625-6.773437-1.777344-1.777344-4.285157-2.617188-6.773438-2.265626-19.183593 2.898438-37.515625 9.890626-53.753906 20.503907 7.527344-10.519531 11.710937-23.066407 12-36 0-28.855469-23.246094-60.0625-24.238281-61.382813-1.574219-1.914062-3.921875-3.023437-6.402344-3.023437-2.476562 0-4.824219 1.109375-6.398438 3.023437-.992187 1.304688-24.230468 32.511719-24.230468 61.367188.1875 11.519531 3.550781 22.761718 9.710937 32.496094-15.03125-8.570313-31.496093-14.324219-48.59375-16.984376-2.488281-.339843-4.992187.496094-6.773437 2.265626-1.777344 1.777343-2.617188 4.285156-2.265625 6.773437 2.65625 17.089844 8.410156 33.550781 16.976562 48.578125-4.503906-.96875-7.511719-1.417969-7.9375-1.480469-1.792969-.175781-3.59375.261719-5.109375 1.238281-1.523437-.980468-3.328125-1.417968-5.128906-1.238281-15.152344 2.398438-29.835938 7.140625-43.527344 14.054688 1.148438-4.476563 1.742188-9.078125 1.765625-13.703125 0-28.855469-23.253906-60.0625-24.246093-61.382813-1.574219-1.917969-3.921876-3.027343-6.402344-3.027343-2.476563 0-4.824219 1.109374-6.398438 3.027343-.992187 1.320313-24.238281 32.527344-24.238281 61.382813.019531 4.035156.476563 8.058594 1.359375 12-12.769531-5.984375-26.316406-10.15625-40.242188-12.382813-2.488281-.339843-4.992187.5-6.773437 2.269531-1.777344 1.777344-2.613281 4.28125-2.265625 6.769532 2.625 16.898437 8.269531 33.183594 16.65625 48.085937-4.335938-.925781-7.199219-1.34375-7.617188-1.40625-2.484374-.332031-4.988281.503907-6.773437 2.265625-1.777344 1.777344-2.617187 4.285156-2.265625 6.773438 2.652344 17.039062 8.375 33.453125 16.886719 48.449218-4.445313-.953124-7.40625-1.390624-7.832031-1.457031-2.488282-.351562-4.996094.488281-6.773438 2.265625s-2.617188 4.285156-2.265625 6.773438c2.660156 17.105468 8.414063 33.585937 16.984375 48.625-4.503906-.976563-7.503906-1.421875-7.9375-1.480469-2.480469-.359375-4.988281.460937-6.773438 2.226563zm15.933594 15.917968c14.761719 3.03125 28.53125 9.695313 40.066406 19.390625 8.480469 9.46875 13.324219 21.640625 13.664063 34.347657h-.089844c-12.675781-.351563-24.820312-5.191407-34.261719-13.65625-9.683593-11.546876-16.339843-25.320313-19.378906-40.082032zm137.867188-103.550781c2.898437 10.765625 7.257812 21.089844 12.949218 30.679687-4.453124-.953124-7.40625-1.390624-7.832031-1.457031-1.792969-.183593-3.597656.253907-5.109375 1.242188-1.515625-.992188-3.328125-1.429688-5.128906-1.242188-.425781.066407-3.375.503907-7.832031 1.457031 5.691406-9.589843 10.050781-19.914062 12.953125-30.679687zm74.398437-100.929687c.070313.019531.144531.03125.214844.039062 1.328125-.019531 2.628906-.371094 3.785156-1.023438-.800781 1.34375-1.601562 2.6875-2.289062 4.058594-.558594-1.058594-1.109375-2.066406-1.710938-3.074218zm-2.480469 50.402343c1.945313 0 3.351563-.074219 4.144532-.128906.792968-.054687 2.191406.128906 4.136718.128906h1.4375c-2.125 2.777344-3.996093 5.738281-5.597656 8.847657-1.605468-3.109376-3.480468-6.070313-5.601562-8.847657.511718-.074219 1.074218-.042969 1.488281-.042969zm-17.601562 117.367188c8.480469 9.457031 13.328125 21.617187 13.683594 34.3125-12.710938-.332031-24.890625-5.175781-34.355469-13.664063-9.683594-11.542968-16.34375-25.316406-19.382813-40.074218 14.765626 3.023437 28.542969 9.6875 40.082032 19.386718zm17.609375 50.449219c1.945313 0 3.351563-.074219 4.144531-.128907.792969-.058593 2.191406.128907 4.136719.128907h1.4375c-2.125 2.773437-4 5.734374-5.597656 8.847656-1.601563-3.109375-3.476563-6.070313-5.601563-8.847656zm12.207031-16.136719c.339844-12.710938 5.179688-24.886719 13.664063-34.351563 11.542969-9.683594 25.316406-16.34375 40.074219-19.378906-3.027344 14.761719-9.6875 28.53125-19.386719 40.066406-9.464844 8.484375-21.640625 13.328125-34.351563 13.664063zm-8.0625-31.199219c-1.570312-3.042969-3.402344-5.941406-5.472656-8.664062h1.328125c1.945313 0 3.351563-.074219 4.144531-.128907.792969-.058593 2.191406.128907 4.136719.128907h1.335937c-2.070312 2.726562-3.902343 5.628906-5.472656 8.671874zm8.0625-24.800781c.339844-12.710938 5.179688-24.886719 13.664063-34.351563 11.542969-9.683594 25.316406-16.34375 40.074219-19.378906-3.027344 14.761719-9.6875 28.53125-19.386719 40.066406-9.464844 8.484375-21.640625 13.328125-34.351563 13.664063zm-8.0625-31.199219c-1.515625-2.949219-3.277344-5.765625-5.265625-8.417969h1.121094c1.945313 0 3.351563-.078125 4.144531-.128906.792969-.046875 2.191406.128906 4.136719.128906h1.121094c-1.984375 2.65625-3.742188 5.476563-5.257813 8.425781zm8.0625-24.523438c.332032-12.707031 5.175782-24.886718 13.664063-34.351562 11.542969-9.691406 25.3125-16.355469 40.074219-19.390625-3.027344 14.761719-9.691407 28.535156-19.386719 40.070313-9.464844 8.488281-21.640625 13.335937-34.351563 13.679687zm-16.125 0c-12.710937-.335937-24.886718-5.179687-34.355468-13.664062-9.679688-11.546875-16.339844-25.320312-19.382813-40.078125 14.765625 3.023437 28.539063 9.691406 40.074219 19.390625 8.480468 9.472656 13.320312 21.652344 13.65625 34.359375zm-13.664062 21.363282c8.476562 9.472656 13.316406 21.648437 13.65625 34.359375-12.710938-.332031-24.890625-5.175781-34.355469-13.664063-9.683594-11.542968-16.34375-25.316406-19.382813-40.074218 14.765626 3.023437 28.542969 9.6875 40.082032 19.386718zm-88 76.6875c-9.460938 8.488281-21.636719 13.335937-34.34375 13.671875.335937-12.710938 5.179687-24.886719 13.664062-34.351563 11.542969-9.683594 25.316406-16.34375 40.078125-19.378906-3.035156 14.761719-9.703125 28.53125-19.398437 40.066406zm0-56c-9.460938 8.488281-21.636719 13.335937-34.34375 13.671875.335937-12.710938 5.179687-24.886719 13.664062-34.351563 11.542969-9.683594 25.316406-16.34375 40.078125-19.378906-3.035156 14.761719-9.703125 28.53125-19.398437 40.066406zm-46.554688-25.914063c1.945313 0 3.34375-.078125 4.136719-.128906.792969-.046875 2.199219.128906 4.144531.128906h1.121094c-1.988281 2.652344-3.75 5.46875-5.265625 8.417969-1.515625-2.945312-3.273437-5.761719-5.253906-8.417969.351562-.023437.789062.007813 1.117187.007813zm-3.925781 39.578125c-12.710937-.332031-24.886719-5.175781-34.351563-13.664062-9.683593-11.546875-16.339843-25.316406-19.378906-40.074219 14.761719 3.027344 28.53125 9.6875 40.066406 19.386719 8.484376 9.46875 13.328126 21.648437 13.664063 34.359375zm3.925781 16.144532c1.945313 0 3.34375-.074219 4.136719-.128907.792969-.058593 2.199219.128907 4.144531.128907h1.328125c-2.070312 2.734374-3.902343 5.648437-5.472656 8.703124-1.570313-3.054687-3.398437-5.96875-5.472656-8.703124zm-3.925781 39.863281c-12.710937-.332031-24.886719-5.175781-34.351563-13.664063-9.683593-11.546875-16.339843-25.316406-19.378906-40.074218 14.761719 3.027343 28.53125 9.6875 40.066406 19.386718 8.484376 9.464844 13.328126 21.640625 13.664063 34.351563zm3.925781 16.136719c1.945313 0 3.34375-.074219 4.136719-.128907.792969-.058593 2.199219.128907 4.144531.128907h1.441406c-2.125 2.777343-4 5.738281-5.601562 8.847656-1.597656-3.113282-3.472656-6.074219-5.601562-8.847656zm12.066406 112c0 4.417968-3.582031 8-8 8-4.417968 0-8-3.582032-8-8v-55.960938c1.445313.070312 14.613282.0625 16 0zm34.488282-85.65625c-9.441406 8.46875-21.585938 13.308593-34.265625 13.65625h-.078125c.335937-12.707032 5.179687-24.878907 13.664062-34.347657 11.542969-9.6875 25.316406-16.347656 40.078125-19.382812-3.035156 14.761719-9.703125 28.535156-19.398437 40.074219zm33.65625-57.027344c-1.515625-.988282-3.328125-1.425782-5.128906-1.238282-.425782.054688-3.433594.503907-7.9375 1.480469 5.75-9.636719 10.144531-20.015625 13.066406-30.847656 2.914062 10.84375 7.304687 21.238281 13.054687 30.886719-4.503906-.976563-7.511719-1.421875-7.9375-1.480469-1.792969-.195313-3.597656.226563-5.117187 1.199219zm14.261718 16.945312c14.761719 3.03125 28.535157 9.695313 40.074219 19.390625 8.480469 9.46875 13.324219 21.640625 13.664063 34.347657h-.082032c-12.679687-.351563-24.820312-5.191407-34.265624-13.65625-9.683594-11.546876-16.34375-25.320313-19.382813-40.082032zm69.738282 125.738282c0 4.417968-3.582032 8-8 8-4.421875 0-8-3.582032-8-8v-55.960938c1.445312.070312 14.613281.0625 16 0zm34.484375-85.65625c-9.441407 8.46875-21.582031 13.308593-34.261719 13.65625h-.089844c.339844-12.707032 5.183594-24.878907 13.664063-34.347657 11.542969-9.6875 25.3125-16.347656 40.074219-19.382812-3.027344 14.761719-9.6875 28.539062-19.386719 40.074219zm19.386719-264.074219c-3.027344 14.761719-9.6875 28.539062-19.386719 40.074219-9.46875 8.480468-21.640625 13.320312-34.351563 13.65625.339844-12.710938 5.179688-24.886719 13.664063-34.355469 11.542969-9.683594 25.316406-16.34375 40.074219-19.375zm-63.25-75.734375c8.292968 12.578125 13.320312 27.023437 14.632812 42.03125-.691406 12.695312-5.878906 24.730468-14.632812 33.953125-8.746094-9.226563-13.929688-21.261719-14.621094-33.953125 1.316406-15.007813 6.339844-29.449219 14.621094-42.03125zm-20.277344 95.117187c8.476562 9.46875 13.316406 21.640625 13.65625 34.347657-12.710938-.339844-24.886719-5.179688-34.355469-13.664063-9.683594-11.546875-16.34375-25.320313-19.382813-40.082031 14.765626 3.03125 28.542969 9.699218 40.082032 19.398437zm-54.34375 45.335938c2.871094 10.640625 7.152344 20.851562 12.734375 30.355469-4.335938-.929688-7.199219-1.34375-7.617188-1.410157-1.792969-.175781-3.59375.261719-5.109375 1.242188-1.523437-.984375-3.328125-1.421875-5.128906-1.242188-.417969.066407-3.28125.480469-7.617188 1.410157 5.582032-9.503907 9.867188-19.714844 12.738282-30.355469zm-33.65625 31.496093c-9.46875 8.484376-21.640625 13.328126-34.34375 13.664063.335937-12.707031 5.179687-24.882813 13.664062-34.351563 11.542969-9.6875 25.316406-16.347656 40.078125-19.382812-3.035156 14.761719-9.703125 28.535156-19.398437 40.070312zm-43.859375-99.949218c8.289062 12.578125 13.316406 27.023437 14.632812 42.03125-.695312 12.695312-5.882812 24.726562-14.632812 33.953125-8.746094-9.226563-13.933594-21.257813-14.628907-33.953125 1.316407-15.007813 6.34375-29.453125 14.628907-42.03125zm-20.285157 79.261718c8.484376 9.46875 13.328126 21.644532 13.664063 34.351563-12.710937-.335937-24.886719-5.179687-34.351563-13.664063-9.683593-11.546874-16.339843-25.320312-19.378906-40.078124 14.761719 3.023437 28.535156 9.691406 40.066406 19.390624zm0 0"/><path d="m272.152344 24.148438h16v16h-16zm0 0"/><path d="m272.152344 56.148438h16v16h-16zm0 0"/><path d="m256.152344 40.148438h16v16h-16zm0 0"/><path d="m288.152344 40.148438h16v16h-16zm0 0"/><path d="m184.152344.148438h16v16h-16zm0 0"/><path d="m184.152344 32.148438h16v16h-16zm0 0"/><path d="m168.152344 16.148438h16v16h-16zm0 0"/><path d="m200.152344 16.148438h16v16h-16zm0 0"/></svg>