<svg height="480pt" viewBox="0 -56 480.00054 480" width="480pt" xmlns="http://www.w3.org/2000/svg"><path d="m412.566406 280.003906h-220.566406l-48-144h312zm0 0" fill="#d3843d"/><path d="m160 280.003906-58.878906-184h2.878906c8.835938 0 16-7.164062 16-16 0-8.835937-7.164062-16-16-16h-80c-8.835938 0-16 7.164063-16 16 0 8.835938 7.164062 16 16 16h42.519531l61.480469 204.375c1.957031 6.878906 8.238281 11.625 15.390625 11.625h304.609375v-32zm0 0" fill="#7d8d9c"/><path d="m368 296.003906c0 35.347656-28.652344 64-64 64s-64-28.652344-64-64 28.652344-64 64-64 64 28.652344 64 64zm0 0" fill="#5a6470"/><path d="m336 296.003906c0 17.671875-14.328125 32-32 32s-32-14.328125-32-32 14.328125-32 32-32 32 14.328125 32 32zm0 0" fill="#cfdfe8"/><path d="m144 104.003906h312c8.835938 0 16 7.164063 16 16 0 8.835938-7.164062 16-16 16h-312c-8.835938 0-16-7.164062-16-16 0-8.835937 7.164062-16 16-16zm0 0" fill="#9c2d20"/><path d="m424 56.003906c-6.03125 0-11.835938 2.289063-16.246094 6.398438.070313-.800782.246094-1.597656.246094-2.398438.066406-9.722656-4.949219-18.773437-13.226562-23.871094-8.277344-5.097656-18.617188-5.5-27.269532-1.066406-2.53125-16.523437-17.375-28.300781-34.042968-27.007812-16.667969 1.296875-29.515626 15.226562-29.460938 31.945312v.246094c-7.683594-10.453125-19.976562-16.511719-32.949219-16.238281-12.972656.273437-25 6.847656-32.234375 17.617187-8.867187-9.078125-22.273437-12.03125-34.132812-7.523437-11.859375 4.511719-19.917969 15.625-20.515625 28.296875-7.898438-7.320313-19.703125-8.484375-28.878907-2.847656-9.175781 5.636718-13.472656 16.695312-10.511718 27.046874 2.960937 10.355469 12.453125 17.46875 23.222656 17.402344h256c13.253906 0 24-10.746094 24-24s-10.746094-24-24-24zm0 0" fill="#ffd782"/><g fill="#9c2d20"><path d="m272 176.003906h-112c-4.417969 0-8-3.582031-8-8 0-4.417968 3.582031-8 8-8h112c4.417969 0 8 3.582032 8 8 0 4.417969-3.582031 8-8 8zm0 0"/><path d="m208 208.003906h-40c-4.417969 0-8-3.582031-8-8 0-4.417968 3.582031-8 8-8h40c4.417969 0 8 3.582032 8 8 0 4.417969-3.582031 8-8 8zm0 0"/><path d="m432 208.003906h-104c-4.417969 0-8-3.582031-8-8 0-4.417968 3.582031-8 8-8h104c4.417969 0 8 3.582032 8 8 0 4.417969-3.582031 8-8 8zm0 0"/><path d="m440 176.003906h-72c-4.417969 0-8-3.582031-8-8 0-4.417968 3.582031-8 8-8h72c4.417969 0 8 3.582032 8 8 0 4.417969-3.582031 8-8 8zm0 0"/></g><path d="m224 80.003906h-8c-4.417969 0-8-3.582031-8-8 0-4.417968 3.582031-8 8-8h8c4.417969 0 8 3.582032 8 8 0 4.417969-3.582031 8-8 8zm0 0" fill="#e97424"/><path d="m280 72.003906h-8c-4.417969 0-8-3.582031-8-8 0-4.417968 3.582031-8 8-8h8c4.417969 0 8 3.582032 8 8 0 4.417969-3.582031 8-8 8zm0 0" fill="#e97424"/><path d="m336 64.003906h-8c-4.417969 0-8-3.582031-8-8 0-4.417968 3.582031-8 8-8h8c4.417969 0 8 3.582032 8 8 0 4.417969-3.582031 8-8 8zm0 0" fill="#e97424"/><path d="m376 80.003906h-8c-4.417969 0-8-3.582031-8-8 0-4.417968 3.582031-8 8-8h8c4.417969 0 8 3.582032 8 8 0 4.417969-3.582031 8-8 8zm0 0" fill="#e97424"/><path d="m304 256.003906c-22.089844 0-40 17.90625-40 40 0 22.089844 17.910156 40 40 40s40-17.910156 40-40c-.027344-22.082031-17.917969-39.972656-40-40zm0 64c-13.253906 0-24-10.746094-24-24s10.746094-24 24-24 24 10.746094 24 24-10.746094 24-24 24zm0 0"/><path d="m456 96.003906h-4.449219c2.878907-4.84375 4.417969-10.367187 4.449219-16 0-17.671875-14.328125-32-32-32-3.257812-.007812-6.496094.496094-9.601562 1.488282-4.636719-15.117188-18.585938-25.453126-34.398438-25.488282-2.386719 0-4.769531.25-7.105469.742188-6.136719-14.921875-20.652343-24.6875002-36.789062-24.746094-16.140625-.0585938-30.726563 9.601562-36.96875 24.484375-7.960938-5.550781-17.433594-8.511719-27.136719-8.480469-12.902344-.003906-25.265625 5.183594-34.296875 14.398438-10.132813-6.570313-22.695313-8.195313-34.167969-4.414063-11.46875 3.78125-20.605468 12.554688-24.847656 23.863281-3.429688-1.226562-7.046875-1.851562-10.6875-1.847656-17.671875 0-32 14.328125-32 32 .027344 5.765625 1.628906 11.414063 4.632812 16.335938-11.3125 1.546875-19.949218 10.890625-20.601562 22.289062-.65625 11.398438 6.851562 21.667969 17.914062 24.503906l42.949219 128.871094h-15.054687l-54.167969-169.257812c11.144531-3.753906 17.925781-15.027344 16.019531-26.628906-1.902344-11.605469-11.933594-20.117188-23.691406-20.113282h-80c-13.253906 0-24 10.746094-24 24s10.746094 24 24 24h36.574219l59.730469 198.566406c2.964843 10.296876 12.371093 17.398438 23.085937 17.433594h92.800781c10.128906 28.765625 37.304688 48.007813 67.800782 48.007813 30.496093 0 57.671874-19.242188 67.800781-48.007813h76.207031c4.417969 0 8-3.582031 8-8v-32c0-4.417968-3.582031-8-8-8h-24.65625l38.878906-128.921875c11.628906-3.097656 19.148438-14.34375 17.570313-26.273437-1.574219-11.929688-11.761719-20.832032-23.792969-20.804688zm-288-32c3.992188.019532 7.828125 1.539063 10.753906 4.253906 2.28125 2.097657 5.566406 2.6875 8.433594 1.515626 2.867188-1.171876 4.800781-3.894532 4.964844-6.984376.425781-9.515624 6.464844-17.863281 15.367187-21.25 8.898438-3.382812 18.957031-1.160156 25.601563 5.664063 1.679687 1.71875 4.042968 2.589844 6.433594 2.371094 2.394531-.214844 4.5625-1.492188 5.910156-3.484375 5.953125-8.8125 15.898437-14.09375 26.535156-14.085938 10.125-.003906 19.640625 4.839844 25.601562 13.023438 2.066407 2.753906 5.660157 3.878906 8.929688 2.789062 3.265625-1.089844 5.46875-4.144531 5.46875-7.589844 0-.167968 0-.367187 0-.558593.109375-12.480469 9.789062-22.78125 22.238281-23.667969s23.488281 7.945312 25.363281 20.285156c.394532 2.523438 1.972657 4.707032 4.242188 5.875 2.273438 1.171875 4.96875 1.183594 7.253906.035156 2.753906-1.417968 5.804688-2.167968 8.902344-2.191406 5.375.015625 10.519531 2.195313 14.269531 6.046875 3.75 3.851563 5.792969 9.050781 5.667969 14.425781l-.152344 1.230469c-.300781 3.296875 1.460938 6.441407 4.429688 7.90625 2.972656 1.460938 6.539062.945313 8.96875-1.304687 5.253906-4.90625 13.132812-5.703125 19.261718-1.957032 6.132813 3.75 9.011719 11.125 7.042969 18.035157-1.96875 6.910156-8.300781 11.664062-15.488281 11.617187h-256c-8.835938 0-16-7.164062-16-16 0-8.835937 7.164062-16 16-16zm-24.609375 240c-3.609375-.019531-6.765625-2.441406-7.726563-5.921875l-61.480468-204.382812c-1.015625-3.382813-4.132813-5.695313-7.664063-5.695313h-42.519531c-4.417969 0-8-3.582031-8-8 0-4.417968 3.582031-8 8-8h80c4.417969 0 8 3.582032 8 8 0 4.417969-3.582031 8-8 8h-2.878906c-2.546875 0-4.941406 1.214844-6.445313 3.269532-1.503906 2.054687-1.945312 4.699218-1.179687 7.128906l58.878906 184c1.046875 3.332031 4.132812 5.597656 7.625 5.601562h72.472656c-.628906 5.3125-.628906 10.683594 0 16zm160.609375 48c-30.929688 0-56-25.074218-56-56 0-30.929687 25.070312-56 56-56s56 25.070313 56 56c-.035156 30.914063-25.085938 55.964844-56 56zm136-48h-64.472656c.628906-5.316406.628906-10.6875 0-16h64.472656zm-68.199219-32c-10.128906-28.765625-37.304687-48.007812-67.800781-48.007812s-57.671875 19.242187-67.800781 48.007812h-38.398438l-21.335937-64h31.535156c4.417969 0 8-3.582031 8-8 0-4.417968-3.582031-8-8-8h-36.902344l-5.328125-16h106.230469c4.417969 0 8-3.582031 8-8 0-4.417968-3.582031-8-8-8h-111.566406l-5.335938-16h290.132813l-4.847657 16.078125c-.136718 0-.246093-.078125-.382812-.078125h-72c-4.417969 0-8 3.582032-8 8 0 4.417969 3.582031 8 8 8h67.585938l-4.800782 16h-102.785156c-4.417969 0-8 3.582032-8 8 0 4.417969 3.582031 8 8 8h97.929688l-19.296876 64zm84.199219-144h-312c-4.417969 0-8-3.582031-8-8 0-4.417968 3.582031-8 8-8h312c4.417969 0 8 3.582032 8 8 0 4.417969-3.582031 8-8 8zm0 0"/><path d="m216 80.003906h8c4.417969 0 8-3.582031 8-8 0-4.417968-3.582031-8-8-8h-8c-4.417969 0-8 3.582032-8 8 0 4.417969 3.582031 8 8 8zm0 0"/><path d="m272 72.003906h8c4.417969 0 8-3.582031 8-8 0-4.417968-3.582031-8-8-8h-8c-4.417969 0-8 3.582032-8 8 0 4.417969 3.582031 8 8 8zm0 0"/><path d="m328 64.003906h8c4.417969 0 8-3.582031 8-8 0-4.417968-3.582031-8-8-8h-8c-4.417969 0-8 3.582032-8 8 0 4.417969 3.582031 8 8 8zm0 0"/><path d="m368 80.003906h8c4.417969 0 8-3.582031 8-8 0-4.417968-3.582031-8-8-8h-8c-4.417969 0-8 3.582032-8 8 0 4.417969 3.582031 8 8 8zm0 0"/></svg>