<svg height="480pt" viewBox="-40 0 480 480.02291" width="480pt" xmlns="http://www.w3.org/2000/svg"><path d="m103.992188 400.023438h192v72h-192zm0 0" fill="#9c2d20"/><path d="m327.992188 400.023438h-256l64-312h128zm0 0" fill="#d3843d"/><path d="m199.992188 8.023438c35.347656 0 64 28.652343 64 64v16h-128v-16c0-35.347657 28.65625-64 64-64zm0 0" fill="#9c2d20"/><path d="m159.992188 440.023438h80v32h-80zm0 0" fill="#ffd782"/><path d="m31.992188 32.019531 24-24 136.003906 136-24.003906 24.003907zm0 0" fill="#5a6470"/><path d="m167.992188 168.023438-24.230469 24-135.769531-135.769532 24-24.230468zm0 0" fill="#cfdfe8"/><path d="m207.996094 144.023438 136-136 24.003906 24-136.003906 136.003906zm0 0" fill="#cfdfe8"/><path d="m231.992188 168.023438 24.234374 24 135.765626-135.769532-24-24.230468zm0 0" fill="#5a6470"/><g fill="#9c2d20"><path d="m162.335938 173.683594 11.316406-11.3125 24 24.003906-11.3125 11.3125zm0 0"/><path d="m202.339844 186.363281 24.003906-24 11.3125 11.3125-24 24zm0 0"/><path d="m202.339844 213.6875 11.3125-11.316406 32 32-11.3125 11.316406zm0 0"/><path d="m154.339844 234.363281 32.003906-32 11.3125 11.3125-32 32.003907zm0 0"/></g><path d="m183.992188 360.023438h-8c-4.417969 0-8-3.582032-8-8 0-4.417969 3.582031-8 8-8h8c4.417968 0 8 3.582031 8 8 0 4.417968-3.582032 8-8 8zm0 0" fill="#ffd782"/><path d="m223.992188 336.023438h-8c-4.417969 0-8-3.582032-8-8 0-4.417969 3.582031-8 8-8h8c4.417968 0 8 3.582031 8 8 0 4.417968-3.582032 8-8 8zm0 0" fill="#ffd782"/><path d="m175.992188 64.023438h-32c-4.417969 0-8-3.582032-8-8 0-4.417969 3.582031-8 8-8h32c4.417968 0 8 3.582031 8 8 0 4.417968-3.582032 8-8 8zm0 0" fill="#d3843d"/><path d="m223.992188 64.023438h-16c-4.417969 0-8-3.582032-8-8 0-4.417969 3.582031-8 8-8h16c4.417968 0 8 3.582031 8 8 0 4.417968-3.582032 8-8 8zm0 0" fill="#d3843d"/><path d="m223.992188 200.023438c0 13.253906-10.742188 24-24 24-13.253907 0-24-10.746094-24-24 0-13.253907 10.746093-24 24-24 13.257812 0 24 10.746093 24 24zm0 0" fill="#ffd782"/><path d="m31.992188 368.027344 136-136.003906 24.003906 24.003906-136.003906 136zm0 0" fill="#cfdfe8"/><path d="m167.992188 232.023438-24.230469-24-135.769531 135.765624 24 24.234376zm0 0" fill="#5a6470"/><path d="m207.996094 256.019531 24-24.003906 136.003906 136.003906-24.003906 24zm0 0" fill="#cfdfe8"/><path d="m231.992188 232.023438 24.234374-24 135.765626 135.765624-24 24.234376zm0 0" fill="#5a6470"/><path d="m304.320312 244.824219-15.246093-74.3125 108.574219-108.601563c3.101562-3.121094 3.101562-8.160156 0-11.277344l-48-48.265624c-3.121094-3.125-8.1875-3.125-11.3125 0l-66.503907 66.503906c-1.625-38.496094-33.304687-68.871094-71.839843-68.871094-38.53125 0-70.214844 30.375-71.839844 68.871094l-66.503906-66.503906c-3.121094-3.125-8.1875-3.125-11.3125 0l-48 48.265624c-3.101563 3.117188-3.101563 8.15625 0 11.277344l108.578124 108.578125-15.25 74.335938-93.328124 93.3125c-3.101563 3.117187-3.101563 8.15625 0 11.277343l48 48.265626c3.125 3.121093 8.191406 3.121093 11.3125 0l3.34375-3.34375-.796876 4.078124c-.484374 2.347657.113282 4.789063 1.625 6.652344 1.511719 1.859375 3.777344 2.945313 6.171876 2.957032h24v64c0 4.417968 3.582031 8 8 8h192c4.417968 0 8-3.582032 8-8v-64h24c2.402343-.003907 4.675781-1.082032 6.195312-2.941407 1.515625-1.863281 2.117188-4.304687 1.636719-6.660156l-.796875-4.078125 3.34375 3.34375c3.121094 3.121094 8.1875 3.121094 11.3125 0l48-48.265625c3.101562-3.121094 3.101562-8.160156 0-11.277344zm-20.550781-20.546875-21.886719-21.886719c-3.121093-3.101563-8.160156-3.101563-11.28125 0l-18.609374 18.34375-10.398438-10.398437c3.210938-6.476563 3.210938-14.082032 0-20.5625l10.398438-10.398438 18.585937 18.398438c3.121094 3.101562 8.160156 3.101562 11.28125 0l13.664063-13.75zm-86.121093-85.910156-42.34375-42.34375h89.378906l-42.347656 42.34375c-3.121094 3.125-3.121094 8.1875 0 11.3125l18.347656 18.34375-10.402344 10.398437c-6.476562-3.210937-14.082031-3.210937-20.558594 0l-10.402344-10.398437 18.34375-18.34375c3.125-3.125 3.125-8.1875 0-11.3125zm-5.65625 61.65625c0-4.417969 3.582031-8 8-8 4.417968 0 8 3.582031 8 8 0 4.417968-3.582032 8-8 8-4.417969 0-8-3.582032-8-8zm64.210937-19.289063-12.875-12.710937 124.664063-124.664063 12.738281 12.871094zm87.789063-161.398437 12.691406 12.6875-124.691406 124.6875-12.6875-12.6875zm-144-3.3125c30.914062.035156 55.964843 25.085937 56 56v8h-112v-8c.023437-2.679688.238281-5.351563.640624-8h31.359376c4.417968 0 8-3.582032 8-8 0-4.417969-3.582032-8-8-8h-26.519532c9.257813-19.519532 28.917969-31.972657 50.519532-32zm-144 3.3125 124.691406 124.6875-12.691406 12.6875-124.6875-124.6875zm-24 24 124.664062 124.6875-12.871094 12.734374-124.503906-124.527343zm92.472656 140.6875 13.601562 13.640624c3.121094 3.101563 8.160156 3.101563 11.28125 0l18.644532-18.351562 10.402343 10.398438c-3.210937 6.476562-3.210937 14.082031 0 20.558593l-10.402343 10.402344-18.582032-18.402344c-3.121094-3.101562-8.160156-3.101562-11.28125 0l-21.894531 21.890625zm19.320312 35.269531 12.871094 12.730469-124.664062 124.664062-12.710938-12.871094zm-87.792968 161.417969-12.6875-12.6875 124.6875-124.6875 12.691406 12.6875zm112 83.3125v-16h64v16zm120 0h-40v-24c0-4.417969-3.582032-8-8-8h-80c-4.417969 0-8 3.582031-8 8v24h-40v-56h176zm30.195312-72h-236.386719l3.746094-18.242188 112.101563-112.101562c3.125-3.125 3.125-8.1875 0-11.3125l-18.34375-18.34375 10.402343-10.402344c6.476563 3.214844 14.082031 3.214844 20.558594 0l10.398437 10.402344-18.34375 18.34375c-3.121093 3.125-3.121093 8.1875 0 11.3125l112.121094 112.101562zm25.804688-11.3125-124.6875-124.6875 12.6875-12.6875 2.34375 2.34375 122.347656 122.34375zm24-24-122.320313-122.320313-2.316406-2.320313 12.871093-12.734374 124.480469 124.480468zm0 0"/><path d="m183.992188 344.023438h-8c-4.417969 0-8 3.582031-8 8 0 4.417968 3.582031 8 8 8h8c4.417968 0 8-3.582032 8-8 0-4.417969-3.582032-8-8-8zm0 0"/><path d="m215.992188 336.023438h8c4.417968 0 8-3.582032 8-8 0-4.417969-3.582032-8-8-8h-8c-4.417969 0-8 3.582031-8 8 0 4.417968 3.582031 8 8 8zm0 0"/><path d="m207.992188 64.023438h16c4.417968 0 8-3.582032 8-8 0-4.417969-3.582032-8-8-8h-16c-4.417969 0-8 3.582031-8 8 0 4.417968 3.582031 8 8 8zm0 0"/></svg>