<svg xmlns="http://www.w3.org/2000/svg" viewBox="0 0 64 64"><path fill="#222" d="M41,5H23A18.021,18.021,0,0,0,5,23V41A18.021,18.021,0,0,0,23,59H41A18.021,18.021,0,0,0,59,41V23A18.021,18.021,0,0,0,41,5ZM55,41A14.015,14.015,0,0,1,41,55H29A16,16,0,0,1,13,39c0-4.436.343-8.428-4-11.738V23A14.015,14.015,0,0,1,23,9H41A14.015,14.015,0,0,1,55,23Zm-9.26-9a2,2,0,0,1-2,2H24.549L31.2,41.929A2,2,0,1,1,28.138,44.5L18.727,33.286c-.006-.007-.009-.016-.015-.023-.023-.028-.042-.058-.063-.087-.035-.047-.066-.1-.1-.146-.02-.034-.044-.065-.063-.1s-.025-.058-.039-.088c-.024-.051-.044-.1-.064-.159-.014-.039-.033-.076-.044-.116s-.013-.06-.02-.091a1.5,1.5,0,0,1-.032-.165c-.007-.04-.017-.08-.021-.121s0-.072,0-.108-.009-.054-.009-.082.007-.054.009-.082,0-.072,0-.108.014-.081.021-.121a1.5,1.5,0,0,1,.032-.165c.007-.031.011-.061.02-.091s.03-.077.044-.116.04-.108.064-.159c.014-.03.024-.059.039-.088s.043-.066.063-.1c.03-.05.061-.1.1-.146.021-.029.04-.059.063-.087.006-.007.009-.016.015-.023L28.138,19.5A2,2,0,0,1,31.2,22.071L24.549,30H43.74A2,2,0,0,1,45.74,32Z" data-name="Arrow"/></svg>