<svg xmlns="http://www.w3.org/2000/svg" viewBox="0 0 32 32"><path fill="#2c4355" d="M27.854 7.273a1.671 1.671 0 0 0-1.371-.702H9.832c-.012 0-.021.006-.033.007L9.206 4.27A1.69 1.69 0 0 0 7.568 3H4.325a.5.5 0 0 0 0 1h3.243a.69.69 0 0 1 .669.519l4.418 17.208a1.69 1.69 0 0 0 1.637 1.271h10.764a.5.5 0 0 0 0-1H14.292a.69.69 0 0 1-.668-.519l-.82-3.193h10.901a1.69 1.69 0 0 0 1.604-1.156l2.778-8.333a1.673 1.673 0 0 0-.233-1.524zm-4.148 10.013H12.547l-2.494-9.715h16.43a.68.68 0 0 1 .56.287.685.685 0 0 1 .095.622l-.554 1.663H17.42a.5.5 0 0 0 0 1h8.831l-.857 2.571h-6.783a.5.5 0 0 0 0 1h6.449l-.7 2.099a.687.687 0 0 1-.654.473z"/><path fill="#f15743" d="M14.444 24.429a2.288 2.288 0 0 0-2.286 2.285c0 1.261 1.025 2.286 2.286 2.286s2.286-1.025 2.286-2.286a2.288 2.288 0 0 0-2.286-2.285zm0 3.571a1.287 1.287 0 1 1 1.286-1.286c0 .709-.577 1.286-1.286 1.286zM23.968 24.429a2.288 2.288 0 0 0-2.286 2.285c0 1.261 1.025 2.286 2.286 2.286s2.286-1.025 2.286-2.286a2.288 2.288 0 0 0-2.286-2.285zm0 3.571a1.287 1.287 0 1 1 1.286-1.286c0 .709-.577 1.286-1.286 1.286z"/></svg>