<svg xmlns="http://www.w3.org/2000/svg" id="Layer_1" enable-background="new 0 0 64 64" viewBox="0 0 64 64"><path fill="#3a556d" d="M54.28,48.67L54.28,48.67c0,0.6-0.49,1.09-1.09,1.09H31.62c-3.84,0-7.13-2.74-7.83-6.51l-0.05-0.29
			L18.2,13.06l-0.02-0.08c-0.71-3.82-3.91-6.62-7.78-6.83L0.6,5.64l0.12-2.18l9.8,0.52c4.88,0.25,8.92,3.79,9.81,8.6l0.09,0.48
			l0.01,0.06l0.41,2.22l4.62,24.96l0.4,2.15l0.07,0.4c0.01,0.03,0.01,0.07,0.02,0.1c0.55,2.69,2.91,4.63,5.67,4.63H53.2
			C53.8,47.58,54.28,48.07,54.28,48.67z"/><path fill="#da4866" d="M9.99,7.09L0.58,6.42C0.25,6.4-0.01,6.11,0,5.77l0.1-2.65c0.01-0.35,0.32-0.63,0.67-0.6l9.41,0.67
				c0.34,0.02,0.6,0.31,0.58,0.65l-0.1,2.65C10.65,6.85,10.35,7.12,9.99,7.09z"/><path fill="#3a556d" d="M64,20.32c0,0.35-0.04,0.7-0.13,1.05l-3.73,14.72c-0.46,1.79-2,3.12-3.84,3.31l-30.44,3.07l-1.18,0.12
			l-0.22-2.17l1-0.1l30.62-3.08c0.93-0.09,1.71-0.77,1.94-1.68l3.73-14.72c0.15-0.59,0.03-1.21-0.32-1.71
			c-0.36-0.49-0.91-0.8-1.51-0.85l-39.08-2.93l-1.41-0.11l0.16-2.17l0.84,0.06l39.65,2.98c1.25,0.1,2.39,0.73,3.12,1.75
			C63.73,18.58,64,19.44,64,20.32z"/><rect width="3.12" height="2.18" x="32.5" y="49.13" fill="#3a556d" transform="rotate(-81.715 34.054 50.213)"/><path fill="#7ca2c1" d="M37.12,56.81c0,2.58-2.09,4.67-4.67,4.67c-2.58,0-4.67-2.09-4.67-4.67c0-2.58,2.09-4.67,4.67-4.67
				C35.02,52.13,37.12,54.22,37.12,56.81z"/><path fill="#f2f3f0" d="M35.22,56.81c0,1.53-1.24,2.77-2.77,2.77c-1.53,0-2.77-1.24-2.77-2.77c0-1.53,1.24-2.77,2.77-2.77
				C33.97,54.03,35.22,55.27,35.22,56.81z"/><path fill="#e0e0dd" d="M33.65,56.81c0,0.67-0.54,1.21-1.21,1.21s-1.21-0.54-1.21-1.21c0-0.67,0.54-1.21,1.21-1.21
				S33.65,56.14,33.65,56.81z"/><path fill="#c8c8c8" d="M27.25,56.59c-0.49,0-0.89-0.44-0.81-0.92c0.45-2.92,2.96-5.15,6-5.15s5.56,2.23,6,5.15
					c0.07,0.49-0.32,0.92-0.81,0.92H27.25z"/><rect width="3.12" height="2.18" x="49.09" y="49.13" fill="#3a556d" transform="rotate(-81.715 50.645 50.213)"/><g><path fill="#7ca2c1" d="M53.71,56.81c0,2.58-2.09,4.67-4.67,4.67c-2.58,0-4.67-2.09-4.67-4.67c0-2.58,2.09-4.67,4.67-4.67
				C51.61,52.13,53.71,54.22,53.71,56.81z"/><path fill="#f2f3f0" d="M51.81,56.81c0,1.53-1.24,2.77-2.77,2.77c-1.53,0-2.77-1.24-2.77-2.77c0-1.53,1.24-2.77,2.77-2.77
				C50.57,54.03,51.81,55.27,51.81,56.81z"/><path fill="#e0e0dd" d="M50.24,56.81c0,0.67-0.54,1.21-1.21,1.21s-1.21-0.54-1.21-1.21c0-0.67,0.54-1.21,1.21-1.21
				S50.24,56.14,50.24,56.81z"/><g><path fill="#c8c8c8" d="M43.84,56.59c-0.51,0-0.89-0.46-0.81-0.97c0.46-2.9,2.97-5.11,6-5.11c3.04,0,5.56,2.23,6,5.15
					c0.07,0.49-0.32,0.92-0.81,0.92H43.84z"/></g></g><path fill="#f2f3f0" d="M61.76,20.83l-3.73,14.72c-0.23,0.91-1.01,1.58-1.94,1.68L25.46,40.3l-4.62-24.96l39.08,2.93
		c0.61,0.05,1.16,0.36,1.51,0.85C61.79,19.62,61.91,20.24,61.76,20.83z"/><g><path fill="#3a556d" d="M28.61 36.28l-3.09-16.65c-.11-.59.28-1.16.87-1.27l0 0c.59-.11 1.16.28 1.27.87l3.09 16.65c.11.59-.28 1.16-.87 1.27l0 0C29.29 37.26 28.72 36.87 28.61 36.28zM34.88 35.4l-2.76-14.89c-.11-.59.28-1.16.87-1.27l0 0c.59-.11 1.16.28 1.27.87L37.02 35c.11.59-.28 1.16-.87 1.27l0 0C35.55 36.38 34.99 35.99 34.88 35.4zM41.25 35.11L38.6 20.8c-.11-.59.28-1.16.87-1.27l0 0c.59-.11 1.16.28 1.27.87l2.65 14.31c.11.59-.28 1.16-.87 1.27l0 0C41.93 36.09 41.36 35.7 41.25 35.11zM47.49 34.11L45.21 21.8c-.11-.59.28-1.16.87-1.27l0 0c.59-.11 1.16.28 1.27.87l2.28 12.31c.11.59-.28 1.16-.87 1.27l0 0C48.17 35.09 47.6 34.7 47.49 34.11zM53.84 33.67l-2.12-11.42c-.11-.59.28-1.16.87-1.27l0 0c.59-.11 1.16.28 1.27.87l2.12 11.42c.11.59-.28 1.16-.87 1.27l0 0C54.52 34.65 53.95 34.26 53.84 33.67z"/></g></svg>