<svg xmlns="http://www.w3.org/2000/svg" id="Layer_1" enable-background="new 0 0 70 70" viewBox="0 0 70 70"><path d="M54.3041992,59.234375H15.8725586c-0.4472656,0-0.840332-0.296875-0.9624023-0.7275391c-4.1992188-14.8291016-4.2016602-30.6396484-0.0063477-46.9902344c0.1137695-0.4423828,0.512207-0.7519531,0.96875-0.7519531h38.4316406c0.4575195,0,0.8564453,0.3105469,0.9692383,0.7539062c3.9570312,15.5810547,3.9570312,31.3808594,0,46.9619141C55.1606445,58.9238281,54.7617188,59.234375,54.3041992,59.234375z M16.6323242,57.234375h36.8911133c3.6225586-14.7578125,3.6225586-29.7119141,0-44.4697266H16.6513672C12.8027344,28.2333984,12.7958984,43.1875,16.6323242,57.234375z"/><path d="M55.8896484 20.1699219H14.2563477c-.5522461 0-1-.4472656-1-1s.4477539-1 1-1h41.6333008c.5522461 0 1 .4472656 1 1S56.4418945 20.1699219 55.8896484 20.1699219zM55.8896484 51.8271484H14.1376953c-.5522461 0-1-.4472656-1-1s.4477539-1 1-1h41.7519531c.5522461 0 1 .4472656 1 1S56.4418945 51.8271484 55.8896484 51.8271484z"/><g><path d="M54.2314453,12.7646484H15.7685547c-0.3886719,0-0.7416992-0.2246094-0.90625-0.5771484l-4.0917969-8.7646484c-0.1445312-0.3095703-0.1206055-0.671875,0.0625-0.9599609C11.0166016,2.1748047,11.3349609,2,11.6767578,2h46.6464844c0.3417969,0,0.6601562,0.1748047,0.84375,0.4628906c0.1831055,0.2880859,0.2070312,0.6503906,0.0625,0.9599609L55.1376953,12.1875C54.9731445,12.5400391,54.6201172,12.7646484,54.2314453,12.7646484z M16.4052734,10.7646484h37.1894531L56.7529297,4H13.2470703L16.4052734,10.7646484z"/></g><g><path d="M58.3232422,68H11.6767578c-0.3417969,0-0.6601562-0.1748047-0.8432617-0.4628906c-0.1835938-0.2880859-0.2075195-0.6503906-0.0629883-0.9599609l4.0917969-8.765625c0.1645508-0.3525391,0.5175781-0.5771484,0.90625-0.5771484h38.4628906c0.3886719,0,0.7416992,0.2246094,0.90625,0.5771484l4.0917969,8.765625c0.1445312,0.3095703,0.1206055,0.671875-0.0629883,0.9599609C58.9833984,67.8251953,58.6650391,68,58.3232422,68z M13.2470703,66h43.5058594l-3.1582031-6.765625H16.4052734L13.2470703,66z"/></g><g><path d="M30.784668,44.9921875c-0.7670898,0-1.4160156-0.1708984-1.9428711-0.5136719c-0.5996094-0.3896484-1.3227539-1.2001953-1.3647461-2.84375c-0.0141602-0.5517578,0.421875-1.0107422,0.9741211-1.0253906c0.5390625-0.0244141,1.0107422,0.421875,1.0249023,0.9746094c0.0161133,0.6210938,0.1694336,1.03125,0.4560547,1.2177734c0.5844727,0.3789062,1.9394531,0.1923828,3.6240234-0.5058594c0.8901367-0.3681641,1.7114258-0.8964844,2.3271484-1.3164062c1.3051758-0.8867188,3.0087891-1.5849609,4.5063477-2.0869141c-4.6293945-0.7294922-8.7470703,0.8818359-8.7978516,0.9023438C31.0776367,40,30.4970703,39.7509766,30.2915039,39.2402344c-0.2055664-0.5117188,0.0410156-1.09375,0.5527344-1.2998047c0.2851562-0.1162109,7.0561523-2.7841797,13.6079102,0.0527344c0.3999023,0.1738281,0.6411133,0.5859375,0.597168,1.0185547c-0.0439453,0.4335938-0.3632812,0.7890625-0.7895508,0.8779297c-0.0463867,0.0097656-4.6831055,0.9970703-7.2514648,2.7441406c-0.6948242,0.4726562-1.6289062,1.0722656-2.6879883,1.5097656C32.9526367,44.7089844,31.7709961,44.9921875,30.784668,44.9921875z"/><path d="M27.9418945,42.6074219c-0.1425781,0-0.2880859-0.0097656-0.4375-0.0283203c-0.1435547-0.0224609-1.203125-0.2148438-1.8964844-1.2871094c-0.6484375-1.0039062-0.7358398-2.3867188-0.2592773-4.109375c0.2739258-0.9902344,0.7353516-1.9824219,1.3706055-2.9501953c2.1430664-3.2587891,3.3911133-6.3574219,3.3388672-8.2900391c-0.0131836-0.484375,0.3217773-0.9082031,0.7958984-1.0068359c0.4746094-0.0927734,0.949707,0.1572266,1.1313477,0.6054688c0.1176758,0.2929688,2.8510742,7.2119141,0.3310547,12.7880859C31.796875,40.0009766,30.3354492,42.6074219,27.9418945,42.6074219z M31.140625,30.1699219c-0.7905273,2.0107422-1.9301758,3.9140625-2.75,5.1611328c-0.5209961,0.7929688-0.8959961,1.5957031-1.1142578,2.3847656c-0.309082,1.1162109-0.3046875,2.0009766,0.0117188,2.4902344c0.2021484,0.3134766,0.4946289,0.3925781,0.4975586,0.3925781c1.6166992,0.2050781,2.6269531-2.8808594,2.6357422-2.9121094c0.0136719-0.0449219,0.0302734-0.0888672,0.0493164-0.1308594C31.5698242,35.1660156,31.4951172,32.3759766,31.140625,30.1699219z"/><path d="M37.7651367,38.6972656c-0.2363281,0-0.4731445-0.0830078-0.6635742-0.2529297c-0.4130859-0.3662109-0.4501953-0.9980469-0.0834961-1.4111328l3.9189453-4.4042969c0.4951172-0.5761719,0.7099609-1.296875,0.6137695-2.0097656c-0.0722656-0.5517578-0.3183594-1.0498047-0.7133789-1.4443359c-0.3598633-0.359375-0.8134766-0.5986328-1.3110352-0.6904297c-0.1313477-0.0244141-0.2597656-0.0400391-0.3886719-0.0429688c-0.637207-0.0195312-1.2441406,0.1962891-1.7148438,0.6083984l-4.3979492,3.9082031c-0.4125977,0.3681641-1.0444336,0.3310547-1.4116211-0.0830078c-0.3666992-0.4130859-0.3295898-1.0449219,0.0834961-1.4111328l4.359375-3.8798828c0.0239258-0.0214844,0.0878906-0.0722656,0.1137695-0.0917969c0.7885742-0.6933594,1.8818359-1.0722656,3.0200195-1.0507812c0.2299805,0.0048828,0.4697266,0.0322266,0.7041016,0.0771484c0.8925781,0.1650391,1.7094727,0.5947266,2.3574219,1.2421875c0.7104492,0.7099609,1.1533203,1.6074219,1.2817383,2.5957031c0.1723633,1.2753906-0.2128906,2.5703125-1.0585938,3.5488281c-0.0117188,0.0136719-0.0581055,0.0693359-0.0708008,0.0830078l-3.890625,4.3730469C38.3154297,38.5839844,38.0410156,38.6972656,37.7651367,38.6972656z"/></g></svg>