<svg xmlns="http://www.w3.org/2000/svg" width="48" height="48" viewBox="0 0 48 48"><path d="M 24 0 C 10.751088 0 0 10.7511 0 24 C 0 37.2489 10.751088 48 24 48 C 37.248912 48 48 37.2489 48 24 C 48 10.7511 37.248912 0 24 0 z M 24 1 C 36.708472 1 47 11.2916 47 24 C 47 36.7085 36.708472 47 24 47 C 11.291528 47 1 36.7085 1 24 C 1 11.2916 11.291528 1 24 1 z M 30.208984 10.580078 C 29.999547 10.590078 29.785956 10.610437 29.570312 10.648438 C 28.707739 10.801438 27.802675 11.203663 26.916016 11.789062 C 25.248362 12.890162 23.585992 14.676075 22.216797 16.921875 C 22.212697 16.921875 22.209198 16.912109 22.205078 16.912109 L 21.337891 16.412109 L 20.332031 15.830078 A 0.50005 0.50005 0 0 0 20.09375 15.763672 A 0.50005 0.50005 0 0 0 19.615234 16.443359 C 19.622734 16.463359 19.630712 16.482859 19.638672 16.505859 C 19.678432 16.615259 19.712062 16.727644 19.742188 16.839844 C 20.006974 17.827544 19.896023 18.913553 19.339844 19.876953 L 15.865234 25.894531 A 0.50005 0.50005 0 0 0 15.837891 25.939453 L 15.339844 26.804688 A 0.50005 0.50005 0 0 0 15.314453 26.847656 L 14.837891 27.671875 C 13.457212 30.063275 14.27656 33.121253 16.667969 34.501953 C 16.118266 35.453953 16.448316 36.684675 17.400391 37.234375 L 18.267578 37.734375 C 19.219654 38.284075 20.448361 37.953953 20.998047 37.001953 A 0.50005 0.50005 0 0 0 21.023438 36.957031 C 22.609883 37.589331 24.467668 36.991003 25.345703 35.470703 A 0.50005 0.50005 0 0 0 25.378906 35.400391 A 0.50005 0.50005 0 0 0 25.398438 35.369141 L 29.074219 29.001953 C 30.066847 27.282753 31.583429 26.071419 33.300781 25.449219 A 0.50005 0.50005 0 0 0 33.384766 24.548828 L 32.521484 24.039062 A 0.50005 0.50005 0 0 0 32.490234 24.023438 C 32.033969 23.794238 31.56537 23.616303 31.091797 23.470703 C 31.221493 23.263203 31.356028 23.063156 31.480469 22.847656 C 32.894948 20.397656 33.687133 17.892584 33.814453 15.771484 C 33.941785 13.650284 33.398499 11.829406 31.96875 11.003906 C 31.432595 10.694406 30.837295 10.561778 30.208984 10.580078 z M 29.876953 11.621094 L 29.667969 11.984375 L 29.263672 11.751953 C 29.475125 11.688953 29.679217 11.648194 29.876953 11.621094 z M 31.001953 11.679688 C 31.16647 11.726688 31.324552 11.787894 31.46875 11.871094 C 31.613379 11.954094 31.743924 12.060288 31.867188 12.179688 L 31.400391 12.986328 L 30.535156 12.488281 L 31.001953 11.679688 z M 28.302734 12.353516 L 29.167969 12.853516 L 28.667969 13.71875 L 27.802734 13.21875 L 28.302734 12.353516 z M 32.478516 13.123047 C 32.554116 13.308047 32.620332 13.505903 32.671875 13.720703 L 32.267578 13.488281 L 32.478516 13.123047 z M 30.035156 13.353516 L 30.900391 13.853516 L 30.400391 14.71875 L 29.535156 14.220703 L 30.035156 13.353516 z M 26.310547 13.509766 L 26.310547 13.511719 L 26.4375 13.585938 L 25.9375 14.451172 L 25.568359 14.236328 C 25.815229 13.987128 26.061478 13.726566 26.310547 13.509766 z M 27.302734 14.085938 L 28.167969 14.585938 L 27.667969 15.451172 L 26.802734 14.951172 L 27.302734 14.085938 z M 31.767578 14.353516 L 32.632812 14.853516 L 32.132812 15.720703 L 31.267578 15.220703 L 31.767578 14.353516 z M 24.863281 14.986328 L 25.4375 15.318359 L 24.9375 16.183594 L 24.228516 15.775391 C 24.437694 15.503991 24.64749 15.234928 24.863281 14.986328 z M 29.035156 15.085938 L 29.900391 15.585938 L 29.400391 16.451172 L 28.535156 15.951172 L 29.035156 15.085938 z M 26.302734 15.818359 L 27.167969 16.318359 L 26.667969 17.183594 L 25.802734 16.683594 L 26.302734 15.818359 z M 30.767578 16.085938 L 31.632812 16.585938 L 31.132812 17.451172 L 30.267578 16.953125 L 30.767578 16.085938 z M 23.625 16.582031 L 24.4375 17.050781 L 23.9375 17.916016 L 23.082031 17.421875 C 23.258576 17.133475 23.438979 16.853131 23.625 16.582031 z M 28.035156 16.818359 L 28.900391 17.318359 L 28.400391 18.183594 L 27.535156 17.683594 L 28.035156 16.818359 z M 32.498047 17.085938 L 32.625 17.160156 C 32.56184 17.483756 32.457463 17.826163 32.365234 18.164062 L 31.998047 17.951172 L 32.498047 17.085938 z M 20.753906 17.232422 L 20.837891 17.28125 L 21.705078 17.78125 C 23.631694 18.89355 24.280293 21.319494 23.167969 23.246094 L 20.671875 27.570312 C 20.665375 27.581312 20.656801 27.590563 20.650391 27.601562 L 19.228516 30.064453 A 0.50005 0.50005 0 0 0 19.1875 30.142578 L 19.167969 30.173828 A 0.5005035 0.5005035 0 0 0 19.125 30.271484 C 18.357572 31.669284 18.324536 33.276331 18.910156 34.644531 L 17.167969 33.638672 C 15.241376 32.526372 14.592756 30.100428 15.705078 28.173828 L 16.205078 27.306641 L 16.705078 26.441406 A 0.50005 0.50005 0 0 0 16.708984 26.429688 L 20.205078 20.375 C 20.777644 19.383208 20.892473 18.286045 20.753906 17.232422 z M 25.302734 17.550781 L 26.167969 18.050781 L 25.667969 18.916016 L 24.802734 18.416016 L 25.302734 17.550781 z M 29.767578 17.818359 L 30.632812 18.318359 L 30.132812 19.183594 L 29.267578 18.683594 L 29.767578 17.818359 z M 27.035156 18.550781 L 27.900391 19.048828 L 27.400391 19.916016 L 26.535156 19.416016 L 27.035156 18.550781 z M 31.498047 18.816406 L 32.072266 19.148438 C 31.964925 19.459438 31.837403 19.775097 31.707031 20.091797 L 30.998047 19.683594 L 31.498047 18.816406 z M 24.302734 19.28125 L 25.167969 19.78125 L 24.667969 20.648438 L 24.650391 20.638672 C 24.593301 20.177472 24.472044 19.728781 24.291016 19.300781 L 24.302734 19.28125 z M 28.767578 19.550781 L 29.632812 20.048828 L 29.132812 20.916016 L 28.267578 20.416016 L 28.767578 19.550781 z M 26.035156 20.28125 L 26.900391 20.78125 L 26.400391 21.648438 L 25.535156 21.148438 L 26.035156 20.28125 z M 30.498047 20.548828 L 31.310547 21.017578 C 31.168427 21.314978 31.01544 21.612256 30.853516 21.910156 L 29.998047 21.416016 L 30.498047 20.548828 z M 27.767578 21.28125 L 28.632812 21.78125 L 28.132812 22.648438 L 27.267578 22.148438 L 27.767578 21.28125 z M 25.035156 22.013672 L 25.900391 22.513672 L 25.400391 23.378906 L 24.535156 22.878906 L 25.035156 22.013672 z M 29.498047 22.28125 L 30.351562 22.773438 C 30.260033 22.922738 30.168349 23.071997 30.074219 23.216797 C 29.781669 23.163797 29.487339 23.123809 29.193359 23.099609 L 29.025391 23.099609 L 29.498047 22.28125 z M 26.767578 23.013672 L 27.087891 23.199219 C 26.931686 23.223219 26.773745 23.237531 26.619141 23.269531 L 26.767578 23.013672 z M 24.035156 23.746094 L 24.490234 24.009766 C 24.175714 24.164566 23.874356 24.345409 23.578125 24.537109 L 24.035156 23.746094 z M 28.355469 24.070312 C 29.59552 24.054312 30.855131 24.328069 32.033203 24.917969 L 32.142578 24.980469 C 30.57039 25.743669 29.151365 26.871706 28.208984 28.503906 L 24.533203 34.871094 A 0.50005 0.50005 0 0 0 24.488281 34.960938 A 0.50005 0.50005 0 0 0 24.480469 34.972656 C 23.819863 36.116856 22.410775 36.527044 21.240234 35.964844 C 19.523378 34.791044 18.975594 32.509128 20.035156 30.673828 L 21.5625 28.027344 C 23.047123 25.517844 25.65471 24.105613 28.355469 24.070312 z M 17.535156 35.003906 L 20.132812 36.503906 C 19.851499 36.991106 19.254839 37.152494 18.767578 36.871094 L 17.900391 36.371094 C 17.413132 36.089794 17.253859 35.491006 17.535156 35.003906 z " color="#000" font-family="sans-serif" font-weight="400" overflow="visible" white-space="normal" style="line-height:normal;text-indent:0;text-align:start;text-decoration-line:none;text-decoration-style:solid;text-decoration-color:#000;text-transform:none;block-progression:tb;isolation:auto;mix-blend-mode:normal"/></svg>