<svg xmlns="http://www.w3.org/2000/svg" width="48" height="48" viewBox="0 0 48 48"><g transform="translate(0 -1004.362)"><circle cx="24" cy="1028.362" r="24" fill="#50b748" fill-rule="evenodd"/><path fill="#fff" style="line-height:normal;text-indent:0;text-align:start;text-decoration-line:none;text-decoration-style:solid;text-decoration-color:#000;text-transform:none;block-progression:tb;isolation:auto;mix-blend-mode:normal" d="m 31.298717,1014.7002 -2.828125,2.8281 a 0.50005,0.50005 0 0 0 -0.361328,-0.1465 0.50005,0.50005 0 0 0 -0.345703,0.1465 l -1.414063,1.4141 c -0.973221,0.9733 -0.973257,2.564 0,3.5371 0.973224,0.9733 2.561933,0.9733 3.535157,0 0.06035,-0.06 0.105337,-0.1305 0.158203,-0.1953 l 0.03516,0.035 c -0.06492,0.053 -0.132896,0.1 -0.193359,0.1602 -0.973222,0.9733 -0.973222,2.5618 0,3.5351 0.973236,0.9731 2.56192,0.9731 3.535156,0 0.391665,-0.3918 1.414062,-1.414 1.414062,-1.414 a 0.50005,0.50005 0 0 0 0,-0.707 c 0,0 -0.06728,-0.065 -0.07227,-0.07 l 2.830079,-2.83 -0.707031,-0.7071 -2.830078,2.8301 c -0.280835,-0.2808 -0.458666,-0.4606 -0.634766,-0.6367 l 2.828125,-2.8281 -0.707031,-0.709 -2.978516,2.9785 c -0.292029,-0.1137 -0.600735,-0.1719 -0.910156,-0.1719 -0.122906,0 -0.24538,0.017 -0.367188,0.035 l 3.548828,-3.5489 -0.707031,-0.707 -3.546875,3.5469 c 0.06255,-0.4281 0.01972,-0.8677 -0.138672,-1.2754 l 2.978516,-2.9785 -0.707031,-0.707 -2.828125,2.8281 -0.707032,-0.7071 2.828125,-2.8281 -0.707031,-0.707 z m -1.414062,11.3144 c -0.486612,-0.4867 -1.126999,-0.7304 -1.767578,-0.7304 -0.640582,0 -1.280967,0.2437 -1.767579,0.7304 -0.973257,0.9731 -0.973221,2.562 0,3.5352 0.973224,0.9733 2.561933,0.9733 3.535157,0 0.391773,-0.3917 1.414062,-1.4141 1.414062,-1.4141 a 0.50005,0.50005 0 0 0 0,-0.707 c 0,0 -1.022289,-1.0224 -1.414062,-1.4141 z m -3.535157,3.5352 c -0.486612,-0.4866 -1.128951,-0.7305 -1.769531,-0.7305 -0.64058,0 -1.280966,0.2439 -1.767578,0.7305 -0.973221,0.9733 -0.973257,2.562 0,3.5352 0.973224,0.9732 2.563885,0.9732 3.537109,0 0.391773,-0.3918 1.414063,-1.4141 1.414063,-1.4141 a 0.50005,0.50005 0 0 0 0,-0.707 c 0,0 -1.02229,-1.0223 -1.414063,-1.4141 z m -3.537109,3.5352 c -0.486618,-0.4866 -1.127012,-0.7286 -1.767578,-0.7286 -0.640566,0 -1.28096,0.242 -1.767578,0.7286 -0.393773,0.3937 -0.620187,0.8886 -0.695313,1.4023 l -5.667969,5.668 -0.707031,-0.7051 5.671875,-5.6719 c 0.512326,-0.076 1.005684,-0.3006 1.398438,-0.6933 0.973258,-0.9732 0.973222,-2.5619 0,-3.5352 -0.391701,-0.3916 -1.414063,-1.4141 -1.414063,-1.4141 a 0.50005,0.50005 0 0 0 -0.361328,-0.1464 0.50005,0.50005 0 0 0 -0.345703,0.1464 c 0,0 -1.022362,1.0225 -1.414063,1.4141 -0.973221,0.9733 -0.973258,2.562 0,3.5352 0.252029,0.252 0.546172,0.4351 0.859375,0.5566 l -5.455078,5.4551 a 0.50005,0.50005 0 0 0 0,0.707 l 1.414062,1.4121 a 0.50005,0.50005 0 0 0 0.707032,0 l 5.453125,-5.4531 c 0.121514,0.3125 0.305116,0.6059 0.556641,0.8574 0.973236,0.9732 2.56192,0.9732 3.535156,0 0.391664,-0.3917 1.414062,-1.414 1.414062,-1.414 a 0.50005,0.50005 0 0 0 0,-0.7071 c 0,0 -1.022368,-1.0223 -1.414062,-1.414 z m -3.535156,-3.5352 c 0.973224,0.9733 2.561932,0.9733 3.535156,0 0.973222,-0.9732 0.973258,-2.5621 0,-3.5352 -0.391809,-0.3919 -1.414063,-1.414 -1.414062,-1.414 a 0.50005,0.50005 0 0 0 -0.359376,-0.1465 0.50005,0.50005 0 0 0 -0.347656,0.1465 c 0,0 -1.022253,1.0221 -1.414062,1.414 -0.973258,0.9731 -0.973221,2.562 0,3.5352 z m 3.535156,-3.5352 c 0.973236,0.9731 2.563873,0.9731 3.537109,0 0.973221,-0.9733 0.973221,-2.5618 0,-3.5351 -0.3917,-0.3916 -1.414062,-1.4141 -1.414062,-1.4141 a 0.50005,0.50005 0 0 0 -0.361328,-0.1465 0.50005,0.50005 0 0 0 -0.347657,0.1465 c 0,0 -1.022361,1.0225 -1.414062,1.4141 -0.973221,0.9733 -0.973221,2.5618 0,3.5351 z m 5.304688,-7.4257 c 0.305844,0.3058 0.766649,0.7686 1.060546,1.0625 0.593727,0.5937 0.593691,1.5274 0,2.1211 -0.593724,0.5937 -1.527369,0.5937 -2.121093,0 -0.593691,-0.5937 -0.593727,-1.5274 0,-2.1211 0.293897,-0.2939 0.754702,-0.7567 1.060547,-1.0625 z m -3.535157,3.5371 c 0.306193,0.3062 0.76692,0.7669 1.060547,1.0605 0.593727,0.5938 0.593727,1.5274 0,2.1211 -0.593712,0.5937 -1.529335,0.5937 -2.123047,0 -0.593727,-0.5937 -0.593727,-1.5273 0,-2.1211 0.293898,-0.2938 0.756656,-0.7547 1.0625,-1.0605 z m 7.070313,0.6152 c 0.38191,0 0.763691,0.1485 1.060547,0.4453 0.293834,0.2939 0.754616,0.7547 1.060547,1.0606 -0.305929,0.3059 -0.76669,0.7666 -1.060547,1.0605 -0.593712,0.5937 -1.527382,0.5937 -2.121094,0 -0.593728,-0.5937 -0.593728,-1.5273 0,-2.1211 0.296856,-0.2968 0.678636,-0.4453 1.060547,-0.4453 z m -10.607422,2.9199 c 0.305939,0.3059 0.766798,0.7668 1.060547,1.0606 0.593691,0.5936 0.593728,1.5273 0,2.1211 -0.593724,0.5937 -1.52737,0.5937 -2.121094,0 -0.593727,-0.5937 -0.593691,-1.5275 0,-2.1211 0.293748,-0.2938 0.754607,-0.7547 1.060547,-1.0606 z m 7.072266,0.6153 c 0.381896,0 0.763684,0.1484 1.060546,0.4453 0.293776,0.2938 0.75461,0.7546 1.060547,1.0605 -0.305937,0.306 -0.766771,0.7668 -1.060547,1.0606 -0.593724,0.5937 -1.527369,0.5937 -2.121093,0 -0.593727,-0.5937 -0.593691,-1.5275 0,-2.1211 0.296862,-0.2969 0.67865,-0.4453 1.060547,-0.4453 z m -10.607423,2.9199 c 0.305932,0.3059 0.766718,0.7667 1.060547,1.0605 0.593729,0.5937 0.593693,1.5274 0,2.1211 -0.256207,0.2562 -0.576123,0.3946 -0.904297,0.4297 a 0.50005,0.50005 0 0 0 -0.03906,0 0.50005,0.50005 0 0 0 -0.117187,0.016 c -0.381843,0 -0.763685,-0.1484 -1.060547,-0.4453 -0.593691,-0.5937 -0.593728,-1.5274 0,-2.1211 0.29383,-0.2938 0.754615,-0.7546 1.060547,-1.0605 z m 7.070313,0.6152 c 0.381896,0 0.765638,0.1484 1.0625,0.4453 0.293776,0.2937 0.75461,0.7547 1.060547,1.0606 -0.305937,0.3059 -0.766771,0.7667 -1.060547,1.0605 -0.593724,0.5937 -1.529323,0.5937 -2.123047,0 -0.59369,-0.5937 -0.593727,-1.5274 0,-2.1211 0.296862,-0.2969 0.678651,-0.4453 1.060547,-0.4453 z m -3.535156,3.5352 c 0.38191,0 0.763691,0.1485 1.060547,0.4453 0.293834,0.2939 0.754615,0.7545 1.060547,1.0605 -0.305929,0.3059 -0.76669,0.7667 -1.060547,1.0606 -0.593712,0.5937 -1.527382,0.5937 -2.121094,0 -0.296864,-0.2969 -0.445313,-0.6787 -0.445313,-1.0606 a 0.50005,0.50005 0 0 0 0.01758,-0.1797 c 0.03975,-0.3192 0.178149,-0.6292 0.427734,-0.8789 0.296856,-0.2968 0.678636,-0.4453 1.060547,-0.4453 z" color="#000" font-family="sans-serif" font-weight="400" overflow="visible" white-space="normal"/></g></svg>