<svg xmlns="http://www.w3.org/2000/svg" width="48" height="48" viewBox="0 0 48 48"><path d="M 24 0 C 10.751088 0 0 10.7511 0 24 C 0 37.2489 10.751088 48 24 48 C 37.248912 48 48 37.2489 48 24 C 48 10.7511 37.248912 0 24 0 z M 24 1 C 36.708472 1 47 11.2916 47 24 C 47 36.7085 36.708472 47 24 47 C 11.291528 47 1 36.7085 1 24 C 1 11.2916 11.291528 1 24 1 z M 31.298828 10.337891 L 28.470703 13.166016 A 0.50005 0.50005 0 0 0 28.109375 13.019531 A 0.50005 0.50005 0 0 0 27.763672 13.166016 L 26.349609 14.580078 C 25.376388 15.553378 25.376352 17.144087 26.349609 18.117188 C 27.322833 19.090487 28.911542 19.090487 29.884766 18.117188 C 29.945116 18.057188 29.990103 17.986675 30.042969 17.921875 L 30.078125 17.957031 C 30.013205 18.010031 29.945229 18.056987 29.884766 18.117188 C 28.911544 19.090487 28.911544 20.679044 29.884766 21.652344 C 30.858002 22.625444 32.446686 22.625444 33.419922 21.652344 C 33.811587 21.260544 34.833984 20.238281 34.833984 20.238281 A 0.50005 0.50005 0 0 0 34.833984 19.53125 C 34.833984 19.53125 34.766709 19.465937 34.761719 19.460938 L 37.591797 16.630859 L 36.884766 15.923828 L 34.054688 18.753906 C 33.773852 18.473106 33.596022 18.293288 33.419922 18.117188 L 36.248047 15.289062 L 35.541016 14.580078 L 32.5625 17.558594 C 32.270471 17.444894 31.961765 17.386719 31.652344 17.386719 C 31.529438 17.386719 31.406964 17.403875 31.285156 17.421875 L 34.833984 13.873047 L 34.126953 13.166016 L 30.580078 16.712891 C 30.642628 16.284791 30.599798 15.8452 30.441406 15.4375 L 33.419922 12.458984 L 32.712891 11.751953 L 29.884766 14.580078 L 29.177734 13.873047 L 32.005859 11.044922 L 31.298828 10.337891 z M 29.884766 21.652344 C 29.398154 21.165644 28.757767 20.921875 28.117188 20.921875 C 27.476606 20.921875 26.836221 21.165644 26.349609 21.652344 C 25.376352 22.625444 25.376388 24.2143 26.349609 25.1875 C 27.322833 26.1608 28.911542 26.1608 29.884766 25.1875 C 30.276539 24.7958 31.298828 23.773438 31.298828 23.773438 A 0.50005 0.50005 0 0 0 31.298828 23.066406 C 31.298828 23.066406 30.276539 22.044044 29.884766 21.652344 z M 26.349609 25.1875 C 25.862997 24.7009 25.220658 24.457031 24.580078 24.457031 C 23.939498 24.457031 23.299112 24.7009 22.8125 25.1875 C 21.839279 26.1608 21.839243 27.749456 22.8125 28.722656 C 23.785724 29.695856 25.376385 29.695856 26.349609 28.722656 C 26.741382 28.330856 27.763672 27.308594 27.763672 27.308594 A 0.50005 0.50005 0 0 0 27.763672 26.601562 C 27.763672 26.601562 26.741382 25.5793 26.349609 25.1875 z M 22.8125 28.722656 C 22.325882 28.236056 21.685488 27.994141 21.044922 27.994141 C 20.404356 27.994141 19.763962 28.236056 19.277344 28.722656 C 18.883571 29.116356 18.657157 29.6113 18.582031 30.125 L 12.914062 35.792969 L 12.207031 35.087891 L 17.878906 29.416016 C 18.391232 29.340016 18.88459 29.115356 19.277344 28.722656 C 20.250602 27.749456 20.250566 26.1608 19.277344 25.1875 C 18.885643 24.7959 17.863281 23.773438 17.863281 23.773438 A 0.50005 0.50005 0 0 0 17.501953 23.626953 A 0.50005 0.50005 0 0 0 17.15625 23.773438 C 17.15625 23.773438 16.133888 24.7959 15.742188 25.1875 C 14.768966 26.1608 14.76893 27.749456 15.742188 28.722656 C 15.994217 28.974656 16.288359 29.157797 16.601562 29.279297 L 11.146484 34.734375 A 0.50005 0.50005 0 0 0 11.146484 35.441406 L 12.560547 36.853516 A 0.50005 0.50005 0 0 0 13.267578 36.853516 L 18.720703 31.400391 C 18.842217 31.712891 19.025819 32.006312 19.277344 32.257812 C 20.25058 33.231012 21.839264 33.231012 22.8125 32.257812 C 23.204164 31.866113 24.226562 30.84375 24.226562 30.84375 A 0.50005 0.50005 0 0 0 24.226562 30.136719 C 24.226562 30.136719 23.204194 29.114356 22.8125 28.722656 z M 19.277344 25.1875 C 20.250568 26.1608 21.839276 26.1608 22.8125 25.1875 C 23.785722 24.2143 23.785758 22.625444 22.8125 21.652344 C 22.420691 21.260444 21.398436 20.238281 21.398438 20.238281 A 0.50005 0.50005 0 0 0 21.039062 20.091797 A 0.50005 0.50005 0 0 0 20.691406 20.238281 C 20.691406 20.238281 19.669153 21.260444 19.277344 21.652344 C 18.304086 22.625444 18.304123 24.2143 19.277344 25.1875 z M 22.8125 21.652344 C 23.785736 22.625444 25.376373 22.625444 26.349609 21.652344 C 27.32283 20.679044 27.32283 19.090488 26.349609 18.117188 C 25.957909 17.725587 24.935547 16.703125 24.935547 16.703125 A 0.50005 0.50005 0 0 0 24.574219 16.556641 A 0.50005 0.50005 0 0 0 24.226562 16.703125 C 24.226562 16.703125 23.204201 17.725588 22.8125 18.117188 C 21.839279 19.090487 21.839279 20.679044 22.8125 21.652344 z M 28.117188 14.226562 C 28.423032 14.532362 28.883837 14.995162 29.177734 15.289062 C 29.771461 15.882763 29.771425 16.816456 29.177734 17.410156 C 28.58401 18.003856 27.650365 18.003856 27.056641 17.410156 C 26.46295 16.816456 26.462914 15.882762 27.056641 15.289062 C 27.350538 14.995162 27.811342 14.532362 28.117188 14.226562 z M 24.582031 17.763672 C 24.888224 18.069872 25.348951 18.530619 25.642578 18.824219 C 26.236305 19.418019 26.236305 20.351612 25.642578 20.945312 C 25.048866 21.539012 24.113243 21.539012 23.519531 20.945312 C 22.925804 20.351613 22.925804 19.418019 23.519531 18.824219 C 23.813429 18.530419 24.276187 18.069472 24.582031 17.763672 z M 31.652344 18.378906 C 32.034254 18.378906 32.416035 18.527419 32.712891 18.824219 C 33.006725 19.118119 33.467506 19.578866 33.773438 19.884766 C 33.467509 20.190666 33.006748 20.651412 32.712891 20.945312 C 32.119179 21.539012 31.185509 21.539012 30.591797 20.945312 C 29.998069 20.351613 29.998069 19.418019 30.591797 18.824219 C 30.888653 18.527419 31.270433 18.378906 31.652344 18.378906 z M 21.044922 21.298828 C 21.350861 21.604728 21.81172 22.065575 22.105469 22.359375 C 22.69916 22.952975 22.699197 23.886669 22.105469 24.480469 C 21.511745 25.074169 20.578099 25.074169 19.984375 24.480469 C 19.390648 23.886769 19.390684 22.952975 19.984375 22.359375 C 20.278123 22.065575 20.738982 21.604728 21.044922 21.298828 z M 28.117188 21.914062 C 28.499084 21.914062 28.880872 22.062475 29.177734 22.359375 C 29.47151 22.653175 29.932344 23.114022 30.238281 23.419922 C 29.932344 23.725922 29.47151 24.186669 29.177734 24.480469 C 28.58401 25.074169 27.650365 25.074169 27.056641 24.480469 C 26.462914 23.886769 26.46295 22.952975 27.056641 22.359375 C 27.353503 22.062475 27.73529 21.914062 28.117188 21.914062 z M 17.509766 24.833984 C 17.815698 25.139884 18.276483 25.600731 18.570312 25.894531 C 19.164041 26.488231 19.164006 27.421925 18.570312 28.015625 C 18.314106 28.271825 17.99419 28.410213 17.666016 28.445312 A 0.50005 0.50005 0 0 0 17.626953 28.445312 A 0.50005 0.50005 0 0 0 17.509766 28.460938 C 17.127923 28.460938 16.746081 28.312525 16.449219 28.015625 C 15.855528 27.421925 15.855491 26.488231 16.449219 25.894531 C 16.743049 25.600731 17.203834 25.139884 17.509766 24.833984 z M 24.580078 25.449219 C 24.961974 25.449219 25.345716 25.597631 25.642578 25.894531 C 25.936354 26.188231 26.397188 26.649178 26.703125 26.955078 C 26.397188 27.260978 25.936354 27.721825 25.642578 28.015625 C 25.048854 28.609325 24.113255 28.609325 23.519531 28.015625 C 22.925841 27.421925 22.925804 26.488231 23.519531 25.894531 C 23.816393 25.597631 24.198182 25.449219 24.580078 25.449219 z M 21.044922 28.984375 C 21.426832 28.984375 21.808613 29.132887 22.105469 29.429688 C 22.399303 29.723587 22.860084 30.184234 23.166016 30.490234 C 22.860087 30.796134 22.399326 31.256881 22.105469 31.550781 C 21.511757 32.144481 20.578087 32.144481 19.984375 31.550781 C 19.687511 31.253881 19.539062 30.872134 19.539062 30.490234 A 0.50005 0.50005 0 0 0 19.556641 30.310547 C 19.596391 29.991347 19.73479 29.681341 19.984375 29.431641 C 20.281231 29.134841 20.663011 28.986328 21.044922 28.986328 L 21.044922 28.984375 z " color="#000" font-family="sans-serif" font-weight="400" overflow="visible" white-space="normal" style="line-height:normal;text-indent:0;text-align:start;text-decoration-line:none;text-decoration-style:solid;text-decoration-color:#000;text-transform:none;block-progression:tb;isolation:auto;mix-blend-mode:normal"/></svg>