<svg xmlns="http://www.w3.org/2000/svg" width="48" height="48" viewBox="0 0 48 48"><g transform="translate(-590.22 -135.376)"><circle cx="614.22" cy="159.376" r="24" fill="#1d67b1"/><path fill="#154082" style="line-height:normal;text-indent:0;text-align:start;text-decoration-line:none;text-decoration-style:solid;text-decoration-color:#000;text-transform:none;block-progression:tb;isolation:auto;mix-blend-mode:normal" d="M 31.498047 11.072266 L 31.498047 18.072266 L 30.498047 17.072266 L 26.697266 17.072266 L 26.388672 17.072266 L 26.111328 18.177734 C 26.118328 18.281734 26.093563 18.385609 26.039062 18.474609 L 25.638672 20.072266 L 26.642578 21.076172 L 26.431641 21.076172 C 26.250656 22.187762 25.689019 23.172675 24.878906 23.888672 L 16.181641 15.191406 C 16.158318 15.168084 16.13341 15.156515 16.109375 15.140625 C 16.093996 15.130489 16.07896 15.114706 16.0625 15.107422 C 16.015886 15.086867 15.963174 15.076172 15.898438 15.076172 L 14.501953 15.076172 L 14.498047 15.072266 L 14.498047 15.076172 L 14.498047 15.609375 L 14.498047 20.052734 C 14.474647 20.052734 14.451034 20.0525 14.427734 20.0625 C 12.483694 20.3001 10.615507 21.169659 9.1542969 22.630859 C 9.0364194 22.749022 8.9924633 22.882433 9 23.007812 C 9.0074262 23.133083 9.067825 23.249466 9.15625 23.337891 L 9.15625 23.339844 C 9.1579235 23.341513 9.160415 23.342102 9.1621094 23.34375 L 11.382812 25.564453 C 11.350096 25.603162 11.339034 25.627817 11.300781 25.669922 C 10.009621 27.091122 10.384503 25.083384 9.5957031 26.833984 C 9.4713528 27.109977 9.4113916 27.284125 9.375 27.419922 C 9.3582341 27.48351 9.3434722 27.548615 9.3417969 27.589844 C 9.3412404 27.603148 9.3370808 27.621438 9.3378906 27.632812 C 9.3412882 27.679686 9.3526058 27.715887 9.375 27.738281 L 9.8457031 28.208984 C 9.8485535 28.223157 9.8530478 28.232725 9.8554688 28.248047 C 9.8611004 28.283676 9.8680145 28.313171 9.8710938 28.355469 C 9.881068 28.493272 9.8798936 28.658023 9.8554688 28.880859 C 9.6462587 30.789659 8.7673531 28.945872 9.1582031 30.826172 C 9.2100711 31.075645 9.2573844 31.249768 9.3007812 31.378906 C 9.312657 31.414282 9.3224756 31.427013 9.3339844 31.455078 C 9.3641258 31.528323 9.3947626 31.596693 9.4238281 31.628906 C 9.4264459 31.631799 9.4290224 31.641913 9.4316406 31.644531 L 10.849609 33.0625 C 10.851506 33.087723 10.864371 33.124537 10.863281 33.146484 C 10.861626 33.179949 10.849162 33.201652 10.841797 33.228516 C 10.831152 33.266958 10.823326 33.307986 10.804688 33.335938 C 10.789174 33.359209 10.772173 33.37819 10.753906 33.396484 C 10.726235 33.424052 10.702374 33.454308 10.675781 33.476562 C 10.652134 33.496368 10.631419 33.518029 10.615234 33.539062 C 10.604615 33.553028 10.600756 33.571499 10.595703 33.587891 C 10.589272 33.609041 10.589461 33.634104 10.595703 33.662109 C 10.600794 33.685071 10.614889 33.714633 10.630859 33.744141 C 10.649529 33.778286 10.680629 33.819878 10.716797 33.865234 C 10.748022 33.904453 10.785429 33.950519 10.832031 34 C 10.85672 34.0262 10.865087 34.040869 10.894531 34.070312 L 24.794922 47.970703 A 23.999998 23.999998 0 0 0 47.873047 26.447266 L 32.498047 11.072266 L 31.498047 11.072266 z " color="#000" font-family="sans-serif" font-weight="400" transform="translate(590.22 135.376)" white-space="normal"/><path fill="#fff" d="m 621.71905,146.44817 0,11.4629 c 0,0.3157 0.22427,0.5371 0.5,0.5371 0.27572,0 0.5,-0.2214 0.5,-0.5371 l 0,-11.4629 z m -17,4 0,0.5371 0,4.4434 c -0.0234,0 -0.047,0 -0.0703,0.01 -1.94404,0.2376 -3.81222,1.1071 -5.27343,2.5683 -0.47151,0.47265 0.23758,1.17986 0.70898,0.7071 2.60118,-2.6012 6.63205,-3.0934 9.7832,-1.1954 3.15116,1.8981 4.60065,5.6935 3.51758,9.209 -0.19533,0.63802 0.7617,0.93102 0.95703,0.293 0.15984,-0.5188 0.26653,-1.0438 0.33008,-1.5684 l 7.32227,0 c 0.12619,-0.3536 0.28029,-0.6931 0.48632,-1 l -7.74804,0 c 0.003,-0.3351 -0.0107,-0.6692 -0.0449,-1 l 8.73828,0 c 0.38622,-0.309 0.81865,-0.5552 1.29297,-0.7246 l 0,-6.2754 -1,0 0,1.4629 c 0,2.46053 -3,2.46053 -3,0 l 0,-1.4629 -3.80469,0 -0.26172,0 c -0.27397,1.6827 -1.41148,3.0839 -2.98047,3.6836 -0.74601,-1.399 -1.85842,-2.6129 -3.28906,-3.4746 -0.97979,-0.5901 -2.03757,-0.9691 -3.11524,-1.1543 l -0.64257,-4.4453 c -0.0289,-0.2001 -0.10932,-0.3695 -0.19922,-0.4687 -0.0899,-0.099 -0.17056,-0.1407 -0.30664,-0.1407 l -1.40039,0 z m 11.89062,2 -0.27734,1.1055 c 0.007,0.104 -0.0178,0.2078 -0.0723,0.2968 l -0.40039,1.5977 1.05469,0 3.80469,0 0,-3 -3.80079,0 -0.30859,0 z m 7.10938,0 0,3 4,0 0,-1.5 c 0,-0.8396 -0.66036,-1.5 -1.5,-1.5 z m -6.53516,1 c 0.0118,-4e-4 0.0235,-4e-4 0.0352,0 0.27614,0 0.5,0.2239 0.5,0.5 0,0.2761 -0.22386,0.5 -0.5,0.5 -0.27614,0 -0.5,-0.2239 -0.5,-0.5 -6.5e-4,-0.263 0.20252,-0.4815 0.46484,-0.5 z m 2,0 c 0.0118,-4e-4 0.0235,-4e-4 0.0352,0 0.27614,0 0.5,0.2239 0.5,0.5 0,0.2761 -0.22386,0.5 -0.5,0.5 -0.27614,0 -0.5,-0.2239 -0.5,-0.5 -6.5e-4,-0.263 0.20252,-0.4815 0.46484,-0.5 z m 6,0 c 0.0118,-4e-4 0.0235,-4e-4 0.0352,0 0.27614,0 0.5,0.2239 0.5,0.5 0,0.2761 -0.22386,0.5 -0.5,0.5 -0.27614,0 -0.5,-0.2239 -0.5,-0.5 -6.5e-4,-0.263 0.20252,-0.4815 0.46484,-0.5 z m 0.53516,3 0,6.0488 c 0.16643,-0.019 0.32866,-0.049 0.5,-0.049 0.5282,0 1.02853,0.1071 1.5,0.2754 l 0,-1.2754 -1,0 0,-1 1,0 0,-1 -1,0 0,-1 1,0 0,-2 -2,0 z m -8,1 2,0 0,1 -2,0 z m -11.82227,0.9336 c -0.93676,0 0.32854,0.576 -1.31641,0.918 -1.87994,0.3908 -0.3973,-1.0152 -2.06445,-0.062 -1.66715,0.9526 0.29704,0.3874 -0.99414,1.8086 -1.29116,1.4212 -0.91628,-0.5866 -1.70508,1.164 -0.78879,1.7507 0.46898,0.1382 0.25977,2.0469 -0.20921,1.9088 -1.08812,0.065 -0.69727,1.9453 0.39085,1.8799 0.46141,-0.1632 1.41406,1.5039 0.95266,1.6672 -0.84307,0.6913 0.57813,1.9824 1.42121,1.2912 0.2767,-0.402 2.02734,0.3868 1.75064,0.7888 -0.27393,1.0525 1.63477,1.2617 1.9087,0.2092 -0.0127,-0.4881 1.86719,-0.8789 1.87993,-0.3909 0.3973,1.0151 2.06445,0.062 1.66714,-0.9527 -0.29702,-0.3894 0.99414,-1.8106 1.29117,-1.4212 0.91629,0.5885 1.70508,-1.1621 0.7888,-1.7506 -0.46898,-0.1401 -0.25977,-2.0488 0.20922,-1.9087 1.08812,-0.063 0.69727,-1.9434 -0.39086,-1.8799 -0.46141,0.1633 -1.41406,-1.5039 -0.95265,-1.6671 0.84308,-0.6912 -0.57813,-1.9824 -1.4212,-1.2912 -0.2767,0.4021 -2.02734,-0.3867 -1.75064,-0.7888 0.27393,-1.0545 -1.63477,-1.2637 -0.23859,-0.026 -0.41696,-0.037 -0.55078,-0.037 z m 11.82227,1.0664 2,0 0,1 -2,0 z m -2,2 4,0 0,1 -4,0 z m -9.97852,0.4297 c 1.66278,0 3,1.3372 3,3 0,1.6628 -1.33722,3 -3,3 -1.66278,0 -3,-1.3372 -3,-3 0,-1.6628 1.33722,-3 3,-3 z m -0.0352,1 c -0.26232,0.019 -0.46549,0.237 -0.46484,0.5 0,0.2761 0.22386,0.5 0.5,0.5 0.27614,0 0.5,-0.2239 0.5,-0.5 0,-0.2762 -0.22386,-0.5 -0.5,-0.5 -0.0117,-4e-4 -0.0234,-4e-4 -0.0352,0 z m 20.51368,0.5703 c -1.93892,0 -3.5,1.5611 -3.5,3.5 0,1.9389 1.56108,3.5 3.5,3.5 1.93891,0 3.5,-1.5611 3.5,-3.5 0,-1.9389 -1.56109,-3.5 -3.5,-3.5 z m -21.7461,0.1348 c -0.1518,0.01 -0.29054,0.09 -0.37695,0.2148 -0.15681,0.2271 -0.10001,0.5383 0.12695,0.6953 0.22708,0.1568 0.53829,0.1 0.69531,-0.1269 0.15683,-0.2271 0.10001,-0.5383 -0.12695,-0.6953 -0.0931,-0.064 -0.20536,-0.096 -0.31836,-0.088 z m 2.54688,0 c -0.0959,-10e-4 -0.19018,0.025 -0.27149,0.076 -0.23366,0.1459 -0.30527,0.4533 -0.16015,0.6875 0.14599,0.2348 0.45489,0.3066 0.68945,0.1601 0.23485,-0.146 0.30661,-0.4549 0.16016,-0.6894 -0.0904,-0.1442 -0.24784,-0.2325 -0.41797,-0.2344 z m -1.31446,0.7949 c -0.26232,0.019 -0.46549,0.237 -0.46484,0.5 0,0.2761 0.22386,0.5 0.5,0.5 0.27614,0 0.5,-0.2239 0.5,-0.5 0,-0.2762 -0.22386,-0.5 -0.5,-0.5 -0.0117,-4e-4 -0.0234,-4e-4 -0.0352,0 z m -1.23046,0.8516 c -0.0959,-0.001 -0.19017,0.025 -0.27149,0.076 -0.23485,0.1459 -0.3066,0.4548 -0.16016,0.6894 0.14664,0.2342 0.4554,0.305 0.68946,0.1582 0.23366,-0.1459 0.30527,-0.4533 0.16015,-0.6875 -0.0899,-0.1449 -0.24747,-0.234 -0.41796,-0.2363 z m 2.51757,0 c -0.17086,-0.01 -0.33294,0.076 -0.42968,0.2167 -0.15683,0.2271 -0.10001,0.5383 0.12695,0.6954 0.22709,0.1568 0.53829,0.1 0.69531,-0.127 0.15681,-0.2271 0.10001,-0.5383 -0.12695,-0.6953 -0.0782,-0.055 -0.17032,-0.086 -0.26563,-0.09 z m 19.22657,0.2187 c 0.8225,0 1.5,0.6775 1.5,1.5 0,0.8225 -0.6775,1.5 -1.5,1.5 -0.82251,0 -1.5,-0.6775 -1.5,-1.5 0,-0.8225 0.67749,-1.5 1.5,-1.5 z m -20.51368,0.4297 c -0.26232,0.019 -0.46549,0.237 -0.46484,0.5 0,0.2761 0.22386,0.5 0.5,0.5 0.27614,0 0.5,-0.2239 0.5,-0.5 0,-0.2762 -0.22386,-0.5 -0.5,-0.5 -0.0117,-4e-4 -0.0234,-4e-4 -0.0352,0 z m 20.51368,0.5703 c -0.28207,0 -0.5,0.2179 -0.5,0.5 0,0.2821 0.21793,0.5 0.5,0.5 0.28206,0 0.5,-0.2179 0.5,-0.5 0,-0.2821 -0.21794,-0.5 -0.5,-0.5 z" color="#000" font-family="sans-serif" font-weight="400" overflow="visible" white-space="normal" style="line-height:normal;text-indent:0;text-align:start;text-decoration-line:none;text-decoration-style:solid;text-decoration-color:#000;text-transform:none;block-progression:tb;isolation:auto;mix-blend-mode:normal"/></g></svg>