<svg xmlns="http://www.w3.org/2000/svg" width="48" height="48" viewBox="0 0 48 48"><path d="M 24 0 C 10.751088 0 0 10.7511 0 24 C 0 37.2489 10.751088 48 24 48 C 37.248912 48 48 37.2489 48 24 C 48 10.7511 37.248912 0 24 0 z M 24 1 C 36.708472 1 47 11.2916 47 24 C 47 36.7085 36.708472 47 24 47 C 11.291528 47 1 36.7085 1 24 C 1 11.2916 11.291528 1 24 1 z M 30.484375 10.996094 A 0.50005 0.50005 0 0 0 29.984375 11.496094 L 29.984375 16.996094 L 26.181641 16.996094 L 25.484375 16.996094 A 0.50005 0.50005 0 0 0 25 17.375 L 24.753906 18.361328 L 22.414062 17.009766 L 22.914062 16.142578 A 0.50005 0.50005 0 0 0 22.488281 15.386719 A 0.50005 0.50005 0 0 0 22.046875 15.642578 L 20.546875 18.240234 A 0.50050307 0.50050307 0 1 0 21.414062 18.740234 L 21.914062 17.875 L 24.501953 19.369141 L 24 21.375 A 0.50005 0.50005 0 0 0 24.484375 21.996094 L 24.908203 21.996094 C 24.632179 23.341994 23.654012 24.424372 22.351562 24.826172 C 21.647219 23.821172 20.729103 22.951009 19.626953 22.287109 C 18.97641 21.895309 18.291728 21.593159 17.589844 21.380859 L 16.878906 16.462891 C 16.825706 16.094391 16.682721 15.743997 16.431641 15.466797 C 16.180561 15.189697 15.802681 14.996094 15.384766 14.996094 L 13.484375 14.996094 A 0.50005 0.50005 0 0 0 12.984375 15.496094 L 12.984375 16.533203 L 12.984375 21.226562 C 11.373276 21.593462 9.852671 22.401212 8.6210938 23.632812 A 0.50005 0.50005 0 1 0 9.328125 24.339844 C 11.929303 21.738644 15.960175 21.246531 19.111328 23.144531 C 22.262479 25.042531 23.711967 28.835962 22.628906 32.351562 A 0.50073327 0.50073327 0 1 0 23.585938 32.646484 C 23.652387 32.430784 23.706267 32.213294 23.755859 31.996094 L 31.035156 31.996094 C 31.016446 32.162194 30.984375 32.325094 30.984375 32.496094 C 30.984375 34.975494 33.005016 36.996094 35.484375 36.996094 C 37.963734 36.996094 39.984375 34.975494 39.984375 32.496094 C 39.984375 30.940894 39.188967 29.566613 37.984375 28.757812 L 37.984375 19.496094 C 37.984375 18.119794 36.860726 16.996094 35.484375 16.996094 L 32.984375 16.996094 L 32.984375 11.496094 A 0.50005 0.50005 0 0 0 32.484375 10.996094 L 30.484375 10.996094 z M 30.984375 11.996094 L 31.984375 11.996094 L 31.984375 23.458984 C 31.984375 23.774684 31.760096 23.996094 31.484375 23.996094 C 31.208654 23.996094 30.984375 23.774684 30.984375 23.458984 L 30.984375 11.996094 z M 13.984375 15.996094 L 15.384766 15.996094 C 15.520852 15.996094 15.60151 16.039072 15.691406 16.138672 C 15.781306 16.237672 15.85978 16.405369 15.888672 16.605469 L 16.542969 21.138672 C 15.694025 20.989672 14.833364 20.961541 13.984375 21.056641 L 13.984375 16.533203 L 13.984375 15.996094 z M 25.875 17.996094 L 26.181641 17.996094 L 29.984375 17.996094 L 29.984375 20.996094 L 26.177734 20.996094 L 25.125 20.996094 L 25.527344 19.390625 A 0.50004997 0.50004997 0 0 0 25.595703 19.111328 L 25.875 17.996094 z M 32.984375 17.996094 L 35.484375 17.996094 C 36.324024 17.996094 36.984375 18.656494 36.984375 19.496094 L 36.984375 20.996094 L 32.984375 20.996094 L 32.984375 17.996094 z M 26.484375 18.996094 A 0.5 0.5 0 0 0 25.984375 19.496094 A 0.5 0.5 0 0 0 26.484375 19.996094 A 0.5 0.5 0 0 0 26.984375 19.496094 A 0.5 0.5 0 0 0 26.484375 18.996094 z M 28.484375 18.996094 A 0.5 0.5 0 0 0 27.984375 19.496094 A 0.5 0.5 0 0 0 28.484375 19.996094 A 0.5 0.5 0 0 0 28.984375 19.496094 A 0.5 0.5 0 0 0 28.484375 18.996094 z M 34.484375 18.996094 A 0.5 0.5 0 0 0 33.984375 19.496094 A 0.5 0.5 0 0 0 34.484375 19.996094 A 0.5 0.5 0 0 0 34.984375 19.496094 A 0.5 0.5 0 0 0 34.484375 18.996094 z M 25.916016 21.996094 L 26.177734 21.996094 L 29.984375 21.996094 L 29.984375 23.458984 C 29.984375 24.292284 30.652096 24.996094 31.484375 24.996094 A 0.50005 0.50005 0 0 0 31.832031 24.847656 C 32.471941 24.667956 32.984375 24.155984 32.984375 23.458984 L 32.984375 21.996094 L 33.984375 21.996094 L 33.984375 28.271484 C 33.510055 28.440784 33.07763 28.686994 32.691406 28.996094 L 23.925781 28.996094 C 23.795488 27.838894 23.43759 26.721725 22.884766 25.703125 C 24.481335 25.115125 25.639143 23.697994 25.916016 21.996094 z M 34.984375 21.996094 L 36.984375 21.996094 L 36.984375 23.996094 L 35.984375 23.996094 L 35.984375 24.996094 L 36.984375 24.996094 L 36.984375 25.996094 L 35.984375 25.996094 L 35.984375 26.996094 L 36.984375 26.996094 L 36.984375 28.271484 C 36.512912 28.103084 36.01258 27.996094 35.484375 27.996094 C 35.313044 27.996094 35.15081 28.025922 34.984375 28.044922 L 34.984375 21.996094 z M 15.148438 22.986328 L 15.148438 22.990234 C 14.985093 22.990234 14.845628 23.005547 14.691406 23.060547 C 14.537185 23.115547 14.350338 23.281419 14.289062 23.449219 C 14.231882 23.605819 14.2467 23.695047 14.25 23.748047 C 14.23912 23.758047 14.121773 23.845034 13.722656 23.927734 C 13.322155 24.010734 13.177338 23.975609 13.166016 23.974609 C 13.147916 23.924609 13.128706 23.835944 13.013672 23.714844 C 12.890582 23.585344 12.65366 23.508631 12.490234 23.519531 C 12.16338 23.541531 11.948712 23.673275 11.513672 23.921875 C 11.078631 24.170375 10.856564 24.287994 10.671875 24.558594 C 10.579535 24.693894 10.525148 24.937575 10.574219 25.109375 C 10.619959 25.269475 10.684886 25.330094 10.71875 25.371094 C 10.71385 25.382094 10.671409 25.525525 10.396484 25.828125 C 10.12202 26.130225 9.9831183 26.185306 9.9726562 26.191406 C 9.9285022 26.161406 9.8601544 26.102466 9.6972656 26.072266 C 9.5215674 26.039266 9.2840276 26.117256 9.1582031 26.222656 C 8.9065546 26.432456 8.8113039 26.664294 8.6054688 27.121094 C 8.3996343 27.577894 8.2892197 27.805412 8.2988281 28.132812 C 8.3036281 28.296513 8.4022804 28.524566 8.5429688 28.634766 C 8.6741289 28.737366 8.7629898 28.750372 8.8144531 28.763672 C 8.8169531 28.775672 8.8666856 28.915113 8.8222656 29.320312 C 8.7777626 29.726312 8.6981542 29.852381 8.6933594 29.863281 C 8.6402404 29.863281 8.5506591 29.853687 8.4003906 29.929688 C 8.2392076 30.006687 8.092882 30.210341 8.0527344 30.369141 C 7.9724394 30.686741 8.0327736 30.931275 8.1347656 31.421875 C 8.236758 31.912375 8.2802469 32.158669 8.4804688 32.417969 C 8.5805797 32.547569 8.7941043 32.675241 8.9726562 32.681641 C 9.1391056 32.691641 9.2181557 32.645 9.2675781 32.625 C 9.2760381 32.635 9.4006641 32.716966 9.6035156 33.072266 C 9.8061631 33.426866 9.8138924 33.576291 9.8164062 33.587891 C 9.7742663 33.620891 9.6980661 33.6669 9.6191406 33.8125 C 9.5340056 33.9696 9.5348541 34.218994 9.5957031 34.371094 C 9.7173995 34.675194 9.9084366 34.838781 10.279297 35.175781 C 10.650157 35.512681 10.832115 35.687197 11.146484 35.779297 C 11.303669 35.825297 11.550992 35.803125 11.699219 35.703125 C 11.837275 35.610125 11.875791 35.529275 11.904297 35.484375 C 11.915267 35.484375 12.066133 35.484438 12.439453 35.648438 C 12.812876 35.816738 12.907774 35.932253 12.916016 35.939453 C 12.901176 35.990453 12.864959 36.073981 12.886719 36.238281 C 12.910179 36.415381 13.058659 36.617778 13.197266 36.705078 C 13.474481 36.879578 13.724583 36.898525 14.222656 36.953125 C 14.72073 37.008125 14.968911 37.040687 15.277344 36.929688 C 15.431561 36.874687 15.620369 36.708816 15.681641 36.541016 C 15.738421 36.385416 15.72215 36.299394 15.71875 36.246094 C 15.72845 36.236094 15.845272 36.148053 16.246094 36.064453 C 16.645172 35.981453 16.790263 36.018531 16.802734 36.019531 C 16.820844 36.069531 16.842615 36.156944 16.957031 36.277344 C 17.08012 36.406844 17.317047 36.483556 17.480469 36.472656 C 17.769374 36.453656 18.000516 36.312987 18.34375 36.117188 A 0.50005 0.50005 0 0 0 18.457031 36.070312 C 18.892071 35.821612 19.11415 35.704194 19.298828 35.433594 C 19.391168 35.298394 19.445554 35.054513 19.396484 34.882812 C 19.350464 34.721712 19.2856 34.658087 19.251953 34.617188 C 19.257153 34.606188 19.298163 34.463909 19.572266 34.162109 C 19.84732 33.859409 19.986268 33.804528 19.996094 33.798828 C 20.040034 33.828828 20.109168 33.887869 20.273438 33.917969 C 20.449151 33.949969 20.686692 33.872978 20.8125 33.767578 C 21.064116 33.557878 21.159401 33.325941 21.365234 32.869141 C 21.571069 32.412341 21.681483 32.186775 21.671875 31.859375 C 21.667075 31.695675 21.568423 31.465569 21.427734 31.355469 C 21.297315 31.253369 21.207948 31.241716 21.15625 31.228516 C 21.15405 31.217516 21.101974 31.076522 21.146484 30.669922 C 21.190834 30.265322 21.270063 30.140806 21.275391 30.128906 C 21.328511 30.128906 21.418063 30.128147 21.568359 30.060547 C 21.729554 29.983547 21.87587 29.781847 21.916016 29.623047 C 21.996306 29.305447 21.937928 29.060812 21.835938 28.570312 C 21.733943 28.079712 21.690476 27.831566 21.490234 27.572266 C 21.390113 27.442666 21.174644 27.316947 20.996094 27.310547 C 20.82966 27.300547 20.75059 27.347188 20.701172 27.367188 C 20.692072 27.357188 20.569581 27.276175 20.367188 26.921875 C 20.164525 26.567175 20.154855 26.41785 20.152344 26.40625 C 20.194134 26.37325 20.269989 26.326288 20.349609 26.179688 C 20.434729 26.022588 20.43585 25.773094 20.375 25.621094 C 20.253309 25.316994 20.062269 25.153306 19.691406 24.816406 C 19.320542 24.479506 19.138617 24.304891 18.824219 24.212891 C 18.66702 24.166891 18.417735 24.191016 18.269531 24.291016 C 18.131495 24.384016 18.092956 24.464866 18.064453 24.509766 C 18.052393 24.509766 17.903325 24.509803 17.53125 24.345703 C 17.158877 24.177903 17.063553 24.062587 17.054688 24.054688 C 17.069398 24.003688 17.103921 23.921159 17.082031 23.755859 C 17.058571 23.578759 16.912045 23.376362 16.773438 23.289062 C 16.496223 23.114562 16.246121 23.095616 15.748047 23.041016 C 15.499011 23.014016 15.311783 22.988328 15.148438 22.986328 z M 26.984375 23 L 26.984375 24 L 28.984375 24 L 28.984375 23 L 26.984375 23 z M 15.150391 24.013672 C 15.185071 24.013672 15.273033 23.999062 15.638672 24.039062 C 16.003167 24.079062 16.083492 24.115141 16.119141 24.119141 C 16.112241 24.270141 16.067901 24.392006 16.175781 24.566406 C 16.352885 24.852606 16.640931 25.043466 17.121094 25.259766 C 17.601257 25.476166 17.933907 25.566766 18.265625 25.509766 C 18.467949 25.474766 18.530146 25.359206 18.638672 25.253906 C 18.665222 25.277906 18.74599 25.313947 19.017578 25.560547 C 19.290445 25.808447 19.335939 25.887356 19.361328 25.910156 C 19.266958 26.028256 19.157775 26.100187 19.142578 26.304688 C 19.117638 26.640288 19.236748 26.964575 19.498047 27.421875 C 19.759338 27.879075 19.977472 28.146022 20.279297 28.294922 C 20.462782 28.385922 20.580912 28.331547 20.730469 28.310547 C 20.738169 28.345547 20.782829 28.42245 20.857422 28.78125 C 20.932412 29.14195 20.922588 29.231925 20.929688 29.265625 C 20.78399 29.305625 20.653872 29.296625 20.521484 29.453125 C 20.30402 29.710025 20.209726 30.044859 20.152344 30.568359 C 20.094964 31.091859 20.114824 31.436475 20.271484 31.734375 C 20.366714 31.915475 20.495452 31.938966 20.628906 32.009766 C 20.614626 32.041766 20.604286 32.129344 20.453125 32.464844 C 20.302116 32.800044 20.243018 32.866537 20.228516 32.898438 C 20.086988 32.845437 19.984657 32.7639 19.785156 32.8125 C 19.458238 32.8925 19.188123 33.106294 18.833984 33.496094 C 18.479846 33.885894 18.290539 34.176766 18.242188 34.509766 C 18.212817 34.712166 18.304768 34.805706 18.371094 34.941406 C 18.341814 34.958406 18.274143 35.027372 17.974609 35.201172 A 0.50005 0.50005 0 0 0 17.960938 35.212891 C 17.642111 35.395091 17.554287 35.414141 17.523438 35.431641 C 17.440237 35.305541 17.40418 35.178962 17.214844 35.101562 C 16.903338 34.974162 16.558592 34.987044 16.042969 35.089844 C 15.527341 35.197044 15.205591 35.323353 14.970703 35.564453 C 14.82774 35.711153 14.8463 35.841334 14.820312 35.990234 C 14.785612 35.990234 14.697653 36.004844 14.332031 35.964844 C 13.967198 35.924844 13.884971 35.886813 13.849609 35.882812 C 13.856409 35.732013 13.902502 35.609347 13.794922 35.435547 C 13.617819 35.149347 13.329771 34.958588 12.849609 34.742188 C 12.369441 34.525887 12.034839 34.437141 11.703125 34.494141 C 11.501523 34.529141 11.440554 34.645 11.332031 34.75 C 11.306541 34.727 11.223745 34.689006 10.951172 34.441406 C 10.67984 34.194906 10.635785 34.11815 10.609375 34.09375 C 10.703655 33.97565 10.812947 33.903519 10.828125 33.699219 C 10.853065 33.363619 10.731995 33.039231 10.470703 32.582031 C 10.209409 32.124731 9.9932267 31.855931 9.6914062 31.707031 C 9.5079331 31.616031 9.389779 31.674313 9.2402344 31.695312 C 9.2331144 31.661312 9.1881594 31.582756 9.1132812 31.222656 C 9.0385853 30.863356 9.0480366 30.775134 9.0410156 30.740234 C 9.1865929 30.700234 9.3170599 30.705228 9.4492188 30.548828 C 9.6666698 30.291928 9.7590241 29.959047 9.8164062 29.435547 C 9.8737883 28.912047 9.8558752 28.567331 9.6992188 28.269531 C 9.6040868 28.088631 9.4751716 28.066894 9.3417969 27.996094 C 9.3560779 27.964094 9.3664169 27.874563 9.5175781 27.539062 C 9.6681581 27.204862 9.7270999 27.138169 9.7421875 27.105469 C 9.8836355 27.158469 9.9865588 27.240006 10.185547 27.191406 C 10.512471 27.111406 10.78258 26.895659 11.136719 26.505859 C 11.490859 26.116059 11.678211 25.827141 11.726562 25.494141 C 11.756042 25.291041 11.666212 25.196247 11.599609 25.060547 C 11.629959 25.043547 11.69051 24.977522 12.009766 24.794922 C 12.32848 24.612822 12.416305 24.595525 12.447266 24.578125 C 12.530496 24.703925 12.565022 24.82895 12.753906 24.90625 C 13.065415 25.03365 13.412107 25.018916 13.927734 24.916016 C 14.443363 24.808816 14.765102 24.684359 15 24.443359 C 15.143324 24.296259 15.124519 24.166578 15.150391 24.017578 L 15.150391 24.013672 z M 26.984375 25 L 26.984375 26 L 28.984375 26 L 28.984375 25 L 26.984375 25 z M 14.984375 26 C 12.781157 26 10.984381 27.7968 10.984375 30 C 10.984381 32.2032 12.781157 34 14.984375 34 C 17.187593 34 18.984369 32.2032 18.984375 30 C 18.984369 27.7968 17.187593 26 14.984375 26 z M 14.984375 27 C 16.647154 27 17.98437 28.3372 17.984375 30 C 17.98437 31.6628 16.647154 33 14.984375 33 C 13.321596 33 11.98438 31.6628 11.984375 30 C 11.98438 28.3372 13.321596 27 14.984375 27 z M 24.984375 27 L 24.984375 28 L 28.984375 28 L 28.984375 27 L 24.984375 27 z M 14.984375 28 A 0.5 0.5 0 0 0 14.484375 28.5 A 0.5 0.5 0 0 0 14.984375 29 A 0.5 0.5 0 0 0 15.484375 28.5 A 0.5 0.5 0 0 0 14.984375 28 z M 13.767578 28.705078 A 0.5 0.5 0 0 0 13.339844 28.921875 A 0.5 0.5 0 0 0 13.466797 29.617188 A 0.5 0.5 0 0 0 14.162109 29.490234 A 0.5 0.5 0 0 0 14.035156 28.794922 A 0.5 0.5 0 0 0 13.767578 28.705078 z M 16.263672 28.705078 A 0.5 0.5 0 0 0 15.992188 28.78125 A 0.5 0.5 0 0 0 15.832031 29.470703 A 0.5 0.5 0 0 0 16.521484 29.628906 A 0.5 0.5 0 0 0 16.681641 28.941406 A 0.5 0.5 0 0 0 16.263672 28.705078 z M 35.484375 29 C 37.423294 29 38.984375 30.5611 38.984375 32.5 C 38.984375 34.4389 37.423294 36 35.484375 36 C 33.545456 36 31.984375 34.4389 31.984375 32.5 C 31.984375 30.5611 33.545456 29 35.484375 29 z M 14.984375 29.5 A 0.5 0.5 0 0 0 14.484375 30 A 0.5 0.5 0 0 0 14.984375 30.5 A 0.5 0.5 0 0 0 15.484375 30 A 0.5 0.5 0 0 0 14.984375 29.5 z M 23.978516 30 L 31.746094 30 C 31.54006 30.3069 31.385962 30.6463 31.259766 31 L 23.923828 31 C 23.961168 30.666 23.978696 30.3323 23.978516 30 z M 13.71875 30.353516 A 0.5 0.5 0 0 0 13.447266 30.429688 A 0.5 0.5 0 0 0 13.287109 31.117188 A 0.5 0.5 0 0 0 13.976562 31.277344 A 0.5 0.5 0 0 0 14.136719 30.587891 A 0.5 0.5 0 0 0 13.71875 30.353516 z M 16.185547 30.353516 A 0.5 0.5 0 0 0 15.806641 30.568359 A 0.5 0.5 0 0 0 15.933594 31.263672 A 0.5 0.5 0 0 0 16.628906 31.136719 A 0.5 0.5 0 0 0 16.501953 30.441406 A 0.5 0.5 0 0 0 16.185547 30.353516 z M 14.984375 31 A 0.5 0.5 0 0 0 14.484375 31.5 A 0.5 0.5 0 0 0 14.984375 32 A 0.5 0.5 0 0 0 15.484375 31.5 A 0.5 0.5 0 0 0 14.984375 31 z M 35.484375 31 C 34.66187 31 33.984375 31.6775 33.984375 32.5 C 33.984375 33.3225 34.66187 34 35.484375 34 C 36.30688 34 36.984375 33.3225 36.984375 32.5 C 36.984375 31.6775 36.30688 31 35.484375 31 z M 35.484375 32 C 35.76644 32 35.984375 32.218 35.984375 32.5 C 35.984375 32.7821 35.76644 33 35.484375 33 C 35.20231 33 34.984375 32.7821 34.984375 32.5 C 34.984375 32.218 35.20231 32 35.484375 32 z M 13.876953 36.107422 L 13.878906 36.107422 C 13.891876 36.205422 13.872566 36.214269 13.884766 36.167969 C 13.886766 36.157969 13.876153 36.122422 13.876953 36.107422 z " color="#000" font-family="sans-serif" font-weight="400" overflow="visible" white-space="normal" style="line-height:normal;text-indent:0;text-align:start;text-decoration-line:none;text-decoration-style:solid;text-decoration-color:#000;text-transform:none;block-progression:tb;isolation:auto;mix-blend-mode:normal"/></svg>