<svg xmlns="http://www.w3.org/2000/svg" enable-background="new 0 0 64 64" viewBox="0 0 64 64"><path d="M8.6825714 36.2753029c-1.1681986 0-2.1188707.9499397-2.1188707 2.117775 0 1.1678314.9506721 2.1177711 2.1188707 2.1177711s2.1188717-.9499397 2.1188717-2.1177711C10.8014431 37.2252426 9.850771 36.2753029 8.6825714 36.2753029zM8.6825714 39.0108681c-.3413038 0-.6188889-.2772179-.6188889-.6177902s.277585-.6177902.6188889-.6177902c.3413048 0 .6188898.2772179.6188898.6177902S9.0238762 39.0108681 8.6825714 39.0108681zM46.0949631 45.393116c-1.1681976 0-2.1181374.9499397-2.1181374 2.1174049 0 1.1678314.9499397 2.1177711 2.1181374 2.1177711s2.1188698-.9499397 2.1188698-2.1177711C48.2138329 46.3430557 47.2631607 45.393116 46.0949631 45.393116zM46.0949631 48.1283112c-.3405724 0-.6181564-.2772179-.6181564-.6177902s.2775841-.617424.6181564-.617424c.3413048 0 .6188889.2768517.6188889.617424S46.4362679 48.1283112 46.0949631 48.1283112zM46.0949631 58.7461014c1.1681976 0 2.1188698-.9499397 2.1188698-2.1177711s-.9506721-2.1177711-2.1188698-2.1177711-2.1181374.9499397-2.1181374 2.1177711S44.9267654 58.7461014 46.0949631 58.7461014zM46.0949631 56.01054c.3413048 0 .6188889.2772179.6188889.6177902s-.2775841.6177902-.6188889.6177902c-.3405724 0-.6181564-.2772179-.6181564-.6177902S45.7543907 56.01054 46.0949631 56.01054zM8.6825714 45.393116c-1.1681986 0-2.1188707.9499397-2.1188707 2.1174049 0 1.1678314.9506721 2.1177711 2.1188707 2.1177711s2.1188717-.9499397 2.1188717-2.1177711C10.8014431 46.3430557 9.850771 45.393116 8.6825714 45.393116zM8.6825714 48.1283112c-.3413038 0-.6188889-.2772179-.6188889-.6177902s.277585-.617424.6188889-.617424c.3413048 0 .6188898.2768517.6188898.617424S9.0238762 48.1283112 8.6825714 48.1283112zM8.6825714 58.7461014c1.1681995 0 2.1188717-.9499397 2.1188717-2.1177711s-.9506721-2.1177711-2.1188717-2.1177711-2.1188707.9499397-2.1188707 2.1177711S7.5143728 58.7461014 8.6825714 58.7461014zM8.6825714 56.01054c.3413048 0 .6188898.2772179.6188898.6177902s-.277585.6177902-.6188898.6177902c-.3413038 0-.6188889-.2772179-.6188889-.6177902S8.3412676 56.01054 8.6825714 56.01054zM46.0949631 40.510849c1.1681976 0 2.1188698-.9499397 2.1188698-2.1177711 0-1.1678352-.9506721-2.117775-2.1188698-2.117775s-2.1181374.9499397-2.1181374 2.117775C43.9768257 39.5609093 44.9267654 40.510849 46.0949631 40.510849zM46.0949631 37.7752876c.3413048 0 .6188889.2772179.6188889.6177902s-.2775841.6177902-.6188889.6177902c-.3405724 0-.6181564-.2772179-.6181564-.6177902S45.7543907 37.7752876 46.0949631 37.7752876z"/><path d="M61.4412117,6.00211c-0.3691368-0.3903761-0.8627815-0.5994797-1.3945122-0.587029
		c-0.5441856,0.0117188-1.0693245,0.2644014-1.4091644,0.6584396l-7.7057152,7.816678L46.9181938,3.4917645
		c-0.1486778-0.5386899-0.5104904-0.9872928-0.993885-1.2308202c-0.4702072-0.2373018-1.0261078-0.2625701-1.5270805-0.0699456
		c-1.0048714,0.3958693-1.5541801,1.5486875-1.2509613,2.6246021l0.2174339,0.7606568l-5.1267967,7.4317493l-5.3927574-8.3062963
		c-0.2475586-0.471674-0.6760178-0.8170066-1.1762562-0.94701c-0.4870548-0.1263411-1.0143929-0.0406489-1.4509106,0.2460909
		c-0.8561916,0.580071-1.1249866,1.7713408-0.6122971,2.7121253l6.2707367,11.4962292
		c-1.2707367,0.5967331-2.5639954,1.8900375-2.9575768,4.6261044c-0.0242577,0.0737896-0.0465965,0.1490459-0.0465965,0.2309837
		c0,0.0179443,0.0089722,0.0330048,0.0102539,0.0506287c-0.0007324,0.0057678-0.0010986,0.0119019-0.0018311,0.0176697
		c-1.7314262-1.2289429-3.7918873-1.9029922-5.9468288-1.9029922c-1.936409,0-3.8211823,0.5537052-5.4462242,1.5653954v-0.4872837
		c0-1.6299839-0.6320724-3.1588974-1.7797642-4.3054905c-1.1542816-1.1528168-2.6842937-1.7874527-4.308053-1.7874527
		c-3.1662216,0-5.7749853,2.4252014-6.0680418,5.5141087c-0.7470608-0.4814701-1.6549788-0.7048569-2.578826-0.5637302
		L5.4599543,21.367403c-0.9916873,0.1483135-1.8654559,0.6727219-2.4594429,1.4761791
		c-0.593987,0.803091-0.838613,1.7896519-0.6892006,2.7784081l1.1286485,7.4621925H2.7514911
		c-0.414546,0-0.7499912,0.3358078-0.7499912,0.7499886v9.1178093v9.1174469v9.1178093
		c0,0.4141769,0.3354452,0.7499886,0.7499912,0.7499886h49.2752838c0.414547,0,0.7499924-0.3358116,0.7499924-0.7499886v-9.1178093
		v-9.1174469v-9.1178093c0-0.4141808-0.3354454-0.7499886-0.7499924-0.7499886h-0.0164795
		c0.198391-0.5667534,0.3901939-1.1249428,0.563591-1.6573601c0-0.0000458,0-0.0000458,0-0.0000916
		c0.0001831-0.0005493,0.0003662-0.0010071,0.0005493-0.0015564c0.0002747-0.0009155,0.0005493-0.0019226,0.0009155-0.0028381
		c0-0.0000458,0-0.0000458,0-0.0000916c0.6057053-1.8252659,1.0482674-3.3336239,1.2780609-4.3625278
		c0.1422729-0.6323929,0.2384033-1.2394714,0.2883873-1.8054886c0.0000916-0.0010071,0.000824-0.0018311,0.0009155-0.0028381
		c0.2871056-3.0787907-0.806385-4.7594032-2.0205421-5.6727219l9.3292923-10.6611881
		c0-0.0007324,0.0007324-0.0010986,0.0007324-0.0014648C62.1838799,8.0759373,62.1809502,6.798243,61.4412117,6.00211z
		 M3.501482,43.701973H51.276783v7.6174622H3.501482V43.701973z M51.276783,34.5841637v7.6178284H3.501482v-7.6178284h0.8100486
		h6.7440591h6.0863533h0.4833927h16.8081474h7.39151h9.1251335H51.276783z M12.9730473,26.3152199
		c0.5961847-0.0897217,1.1872416,0.0574951,1.6713667,0.4130802c0.4841251,0.3559532,0.7997952,0.8792629,0.8884172,1.4739819
		l0.73699,4.8819008H11.701395l-0.6340866-4.2091789c-0.0723257-0.4930058,0.018219-0.9885292,0.2605562-1.4328747
		c0.334713-0.5987473,0.9120369-1.0051003,1.5873222-1.1203175C12.9349623,26.3203468,12.9540043,26.3181496,12.9730473,26.3152199z
		 M41.2959175,31.2276974c-0.0047607,0.0493011-0.0090637,0.1024456-0.0138245,0.1520672
		c-0.0455933,0.4772129-0.0891724,0.9747505-0.1312866,1.4851036c-0.0062256,0.0753937-0.0132751,0.1432343-0.0194054,0.2193146
		h-6.0482674c-0.0109863-0.0760345-0.0221558-0.1513824-0.032959-0.2277832
		c-0.0650024-0.4583511-0.1281738-0.921833-0.1879578-1.3893414c-0.0066833-0.0516796-0.0138245-0.1026287-0.0204163-0.154356
		c-0.0667381-0.528389-0.1288109-1.0591145-0.1873131-1.5870476c-0.0054932-0.0491161-0.010437-0.0977764-0.0158386-0.1468029
		h6.8318558c-0.0071411,0.0617523-0.0135498,0.1324291-0.0206871,0.1949596
		C41.3969002,30.2401295,41.3450813,30.7203636,41.2959175,31.2276974z M42.4094582,23.8704243
		c-0.0527306,0.1922588-0.100338,0.3911095-0.1486778,0.5998478c-0.0459595,0.2040672-0.0923767,0.4324894-0.1389771,0.6743221
		c-0.0054016,0.0277405-0.0107117,0.0537872-0.0161133,0.0820313c-0.044857,0.2367058-0.0900841,0.4915409-0.1353111,0.760519
		c-0.0068665,0.0404663-0.0136414,0.0811596-0.0205078,0.1223583c-0.0450439,0.2726402-0.090271,0.5585575-0.1353149,0.8605404
		c-0.0056763,0.038269-0.0113525,0.0780468-0.0170288,0.1167736c-0.0466881,0.3173637-0.09338,0.6458511-0.1395226,0.992054
		h-7.1706886c-0.0091553-0.0996552-0.0192261-0.202467-0.027832-0.300106
		c-0.0127258-0.1462994-0.0249023-0.2906322-0.0362549-0.4321251c-0.0174866-0.2169762-0.0326843-0.4257603-0.0467834-0.6304245
		c-0.0091553-0.13307-0.0187683-0.2676506-0.0264587-0.3950901c-0.0129089-0.2137737-0.022522-0.4139519-0.031311-0.610466
		c-0.0043945-0.097641-0.0101624-0.2015514-0.0134583-0.2946129c-0.0099792-0.2812939-0.0160217-0.5456486-0.0160217-0.7813473
		c0-0.2786846,0.0095215-0.5526066,0.027832-0.8184719h8.088768C42.4072609,23.8341713,42.4079933,23.8521137,42.4094582,23.8704243
		z M52.3900528,26.7319622c-0.1926231,0.8605862-0.5456467,2.0888424-1.0283089,3.5778389l-2.6559105-0.5932102
		l-5.5857506-1.2478027c0.0010986-0.0082855,0.0021973-0.0167999,0.0032959-0.0250854
		c0.0457764-0.3480778,0.0922852-0.6823788,0.1389771-1.0037708c0.0058594-0.0404205,0.0117188-0.0807953,0.0175781-0.1207561
		c0.0454102-0.3083,0.0909996-0.6026859,0.1365013-0.8805904c0.0063171-0.0383606,0.0125427-0.0752544,0.0187683-0.1129742
		c0.0459595-0.2766685,0.0917358-0.5387363,0.1369629-0.7788296c0.0040283-0.0219269,0.0080566-0.0417938,0.0122681-0.0634003
		c0.0470581-0.2476463,0.0936546-0.4777164,0.1389732-0.6794968c0.0512695-0.2233849,0.1025391-0.4376163,0.1691895-0.6661282
		c0.0263672-0.1029053,0.0541992-0.2036114,0.0834961-0.301754l8.5948639,1.9295406
		C52.5248146,26.0764523,52.4640274,26.3994465,52.3900528,26.7319622z M47.0394096,18.4341812
		c-1.2189178,0.2538719-2.5722351,1.0045948-3.6014595,2.8286247c-0.5790634-1.6825371-1.5884209-2.5766296-2.5812073-3.044138
		l4.0147247-7.3680754L47.0394096,18.4341812z M31.0482693,5.2491894c0.0959454-0.0629873,0.1845684-0.0578604,0.2424278-0.0428462
		c0.0930176,0.0241699,0.1728497,0.0922842,0.2600079,0.2519503l6.0380135,9.3060398
		c0.1362267,0.209836,0.3684044,0.3380089,0.6181564,0.341671c0.2424278-0.0073242,0.4863205-0.1175528,0.6284103-0.3240929
		l5.0617065-7.3373141l0.0799255,0.276669l0.3069725,1.0736713l-4.8956337,8.984374
		c-0.0258179-0.0039825-0.0547485-0.0023346-0.0808411-0.0059967c-0.3029442-0.042984-0.6144028-0.0687561-0.9322701-0.0692139
		c-0.0062256,0-0.0119019-0.0013275-0.0181274-0.0013275c-0.0420227,0-0.0818443,0.0082397-0.1237755,0.0089722
		c-0.2600098,0.0048065-0.5192833,0.0224762-0.7774582,0.0564423c-0.0353394,0.0046692-0.072876,0.0026093-0.1080322,0.0078278
		L30.9215622,5.9944201C30.7794724,5.7333145,30.8417282,5.3890805,31.0482693,5.2491894z M37.1302261,19.3455772
		c0.6014938-0.1480389,1.2680817-0.1813641,1.8755264-0.1059246c0.2033386,0.0253582,0.400631,0.0628948,0.5875778,0.1125164
		c1.3483734,0.3478966,2.2016335,1.3205414,2.5934753,2.9640751h-7.6507874
		C34.9285927,20.666851,35.78405,19.6912766,37.1302261,19.3455772z M32.7914124,24.9646492
		c0.0001831,0.0140991,0.0012817,0.0319519,0.0014648,0.0462341c0.0038452,0.2148724,0.0114441,0.4484196,0.0221558,0.6961594
		c0.0021973,0.0506725,0.0043945,0.1011181,0.0067749,0.1530743c0.0119019,0.2502098,0.0269165,0.5136967,0.0452271,0.7910976
		c0.0038452,0.0591869,0.0081482,0.1196117,0.0123596,0.179945c0.0198669,0.2869682,0.0423851,0.5838699,0.0685692,0.894001
		c0.0040283,0.0474243,0.008606,0.0963573,0.0127258,0.1442394c0.0284729,0.3285332,0.0596008,0.6657639,0.0946655,1.0145302
		c0.0007324,0.0071411,0.0011902,0.0135956,0.0019226,0.0207367c0.0631714,0.6228714,0.1351318,1.2552185,0.2107506,1.8876114
		c0.0140076,0.1165447,0.0272827,0.2310753,0.0416565,0.3475285c0.075531,0.614542,0.1557312,1.2246876,0.2404137,1.8267765
		c0.0054016,0.0387268,0.0099792,0.0789642,0.0154724,0.1175995H18.2487106
		c-0.0180359-0.1027679-0.0418396-0.2032013-0.0562134-0.3073845c-0.0121765-0.0881195-0.0249939-0.1760101-0.0345154-0.2650452
		c-0.0336914-0.3147087-0.0565777-0.6330776-0.0565777-0.9568501c0-0.3245049,0.0177612-0.6467209,0.0527325-0.9654579
		c0.2447186-2.2309761,1.332077-4.2901554,3.0688114-5.7577286c1.5900688-1.3542309,3.6181202-2.100193,5.7098923-2.100193
		C29.1066418,22.7315235,31.1749763,23.5221634,32.7914124,24.9646492z M10.8014431,22.3096523
		c0-2.5326843,2.0624752-4.5929623,4.5973558-4.5929623c1.2238626,0,2.3766813,0.4789982,3.2475195,1.3487396
		c0.8642483,0.8631477,1.3403168,2.015234,1.3403168,3.2442226v1.6109428
		c-0.0726929,0.0658264-0.1324749,0.1422253-0.2030621,0.209837c-0.2019634,0.1934948-0.3962345,0.3922977-0.5804367,0.5998917
		c-0.1032715,0.1162243-0.2037945,0.2332726-0.3012047,0.3536186c-0.1763287,0.2176628-0.3403893,0.4428349-0.4975834,0.6730862
		c-0.0793762,0.116272-0.1625042,0.2294292-0.2370281,0.3486748c-0.1885967,0.3020287-0.3594322,0.6135788-0.5154362,0.9329567
		c-0.0259991,0.0531464-0.0582256,0.1030426-0.0832195,0.1566448c-0.1751385,0.3750877-0.3239098,0.7618484-0.4527225,1.1561604
		c-0.0087891,0.0269623-0.022522,0.0520477-0.0310364,0.0791016l-0.0682068-0.4516716
		c-0.1486797-0.9913197-0.6760159-1.8647232-1.4838676-2.4590759c-0.1819134-0.1338024-0.3748131-0.2452679-0.5733881-0.3430901
		c-0.0656424-0.0324097-0.1340313-0.056076-0.20123-0.0844097c-0.137969-0.058136-0.2770357-0.1105042-0.4203138-0.1515179
		c-0.078002-0.0222931-0.1561871-0.0400543-0.2354708-0.0571747c-0.1431866-0.0309906-0.2874727-0.0525513-0.4339552-0.0664673
		c-0.0759878-0.0071411-0.1510601-0.015564-0.2278719-0.0180817c-0.0416555-0.0013714-0.082305-0.00984-0.124052-0.00984
		c-0.1713848,0-0.3442345,0.0120831-0.5178165,0.0358868c-0.0227041,0.0010986-0.0454092,0.0036621-0.0681143,0.006958
		c-0.1430035,0.0217438-0.2834435,0.0515442-0.4207706,0.0885773c-0.0456848,0.0122681-0.0889883,0.0300751-0.1338491,0.044035
		c-0.09027,0.0280151-0.181181,0.0548859-0.2685204,0.0893555c-0.051178,0.0202332-0.0993338,0.046051-0.1495047,0.0684338
		c-0.0781851,0.0349731-0.1572857,0.0681152-0.2326326,0.1082153c-0.047698,0.0253601-0.0921917,0.0558453-0.1387005,0.0832653
		c-0.0684805,0.0403748-0.1386089,0.0780945-0.2043428,0.1227245l-0.1728497-1.1389008
		c-0.0408325-0.2378521-0.1067495-0.4654942-0.1850262-0.6879196c-0.009613-0.02742-0.0127258-0.0584106-0.0229788-0.0855083
		V22.3096523z M3.7944472,25.3982391c-0.0893545-0.5917912,0.0571282-1.1821156,0.4123485-1.6625786
		c0.3559527-0.4815617,0.8796282-0.7957668,1.4794745-0.8854866l1.2941737-0.2006817
		c0.9990115-0.1523418,1.9782476,0.3896446,2.3803425,1.3113861c0.0769033,0.1816387,0.1340313,0.3804874,0.1684551,0.5760422
		l0.3654737,2.4173298c-0.0285645,0.0617504-0.0465078,0.1263866-0.0717764,0.189146
		c-0.0300293,0.0751629-0.060607,0.1496868-0.0856924,0.2261772c-0.0373526,0.1133423-0.0654593,0.2282848-0.0917349,0.3440514
		c-0.016571,0.0729675-0.0362539,0.1449261-0.0483389,0.2186718c-0.0214233,0.1299114-0.0308533,0.2611504-0.0384521,0.3929386
		c-0.0036621,0.061615-0.0127258,0.1224041-0.0132751,0.1842937c-0.0016479,0.1945477,0.0093384,0.3900566,0.0379944,0.5859299
		l0.6004868,3.9887238H4.9567866L3.7944472,25.3982391z M51.276783,60.4372444H3.501482V52.819416H51.276783V60.4372444z
		 M42.6376076,33.0841827c0.0038452-0.0469666,0.0075073-0.0951233,0.0114441-0.1418152
		c0.0398254-0.4817429,0.0811119-0.9507179,0.1241417-1.4020214c0.0030212-0.031311,0.0057678-0.0648193,0.0087891-0.095993
		c0.0461426-0.479454,0.0942078-0.9374428,0.1436462-1.3795452c0.0038452-0.0341492,0.0078735-0.0658245,0.0117188-0.099699
		l7.9512596,1.7761936c-0.1486816,0.4379807-0.3046837,0.8873177-0.4665489,1.3428802H42.6376076z M44.5188103,22.420248
		c0.8049202-1.6999321,1.9577408-2.5520935,3.5104561-2.5978699c0.429924-0.0150146,0.858387,0.0296631,1.3425102,0.1391582
		c0.4489708,0.0944805,0.870842,0.2453594,1.2670746,0.4555607c1.3535004,0.6829758,2.0405045,1.972023,2.0500259,3.8374786
		L44.5188103,22.420248z M60.3213539,7.9305539l-9.5382156,10.8997707
		c-0.0541992-0.0221558-0.1109619-0.0384979-0.1658897-0.0591869c-0.0583191-0.0219269-0.1165466-0.0424347-0.1755981-0.0626221
		c-0.2448082-0.0839062-0.4935532-0.1585217-0.7490768-0.2121716c-0.267971-0.061018-0.5264206-0.1002026-0.7816658-0.1296368
		c-0.0561218-0.0064087-0.1131592-0.0128632-0.1689148-0.017807c-0.0568504-0.0050812-0.115078-0.0145569-0.1714745-0.0180817
		L45.812252,8.6713896l-1.2216644-4.2626438c-0.0959473-0.3383751,0.0644493-0.7067788,0.3508224-0.8199365
		c0.1340332-0.0516353,0.2416992-0.0223386,0.3076134,0.0117185c0.107666,0.0538323,0.1867676,0.1567364,0.2468262,0.3607135
		l4.4552689,11.5527172c0.0915489,0.237668,0.2973595,0.4123487,0.5463791,0.4643507
		c0.2526817,0.0523672,0.5090256-0.0263672,0.6870041-0.2076397l8.5538521-8.6790943
		c0.0966759-0.1113267,0.2175255-0.1743145,0.3405724-0.176878c0.0688438-0.0062256,0.1765099,0.0172119,0.2680626,0.113524
		C60.5630493,7.2607622,60.5513306,7.6654201,60.3213539,7.9305539z"/><path d="M29.7738705 26.1720333c.2197227.1168194.4321232.2471886.6328049.3878117.1303692.0915527.2805138.135498.4291935.135498.2365704 0 .4694767-.1113281.6152267-.3196983.2373028-.3394737.1552715-.8071194-.1845684-1.0447884-.249752-.1746807-.5141525-.3372765-.7866116-.4822941-.3684025-.1955547-.8195686-.0563946-1.0151234.3090782C29.2699699 25.5231152 29.4083958 25.977211 29.7738705 26.1720333zM20.0540161 31.8471355c.0168457.0014648.0336914.0018311.0505371.0018311.3911095 0 .721426-.3035851.7477932-.6998215.1105957-1.6548862.8693752-3.1563339 2.1386471-4.2289524 1.2048187-1.0261097 2.7963524-1.5424614 4.3490677-1.4399242.423336.0270996.7712307-.2867393.7975979-.6998196.0270996-.4130821-.2863731-.770134-.6994534-.7972317-1.9584732-.12854-3.9198761.5174484-5.4176598 1.7933121-1.5578423 1.3161469-2.5290222 3.237999-2.6652508 5.2722759C19.3281956 31.4622517 19.6402035 31.8196697 20.0540161 31.8471355zM8.4276009 25.5162487l-.1200247-.7932949c-.0739737-.5046329-.4958434-.8569241-1.0253782-.8569241-.0600576 0-.0600576 0-1.4164867.2039776l.2226534 1.4831371c0 0 .4409127-.0662842.8093166-.1212158l.0461421.3083477v.0000458c0 .0000916 0 .0002289 0 .0003204l.1376934.9114876c.056396.3716984.3764606.6379318.7412024.6379318.037353 0 .0747061-.0025635.1127915-.0084229.4094191-.0618896.6913977-.4442081.6298752-.8536282l-.1376934-.9114876C8.4276924 25.5164318 8.4276009 25.5163403 8.4276009 25.5162487zM12.8705091 28.9072304l.3478966 2.3038044c.0563955.3717003.3764601.6379318.7412024.6379318.0373526 0 .0747061-.0025635.1127911-.0084229.4094191-.0618896.6913977-.4442081.6298752-.8536282l-.3933058-2.5993328c-.0739737-.5060978-.4973078-.8594875-1.0297728-.8594875-.414546 0-.7499905.3358116-.7499905.7499905C12.5292053 28.5417557 12.6654339 28.7731972 12.8705091 28.9072304zM15.3987989 20.4518871c.4921818 0 .9587297.1948223 1.3124838.5478458.3471642.346796.5383244.8118782.5383244 1.3099194 0 .4141808.3354454.7499905.7499905.7499905.414547 0 .7499924-.3358097.7499924-.7499905 0-.8990364-.3471642-1.7409458-.9785042-2.3715534-.6371994-.6361008-1.479475-.9861946-2.3722868-.9861946-.4145451 0-.7499905.3358116-.7499905.7499924C14.6488085 20.1160755 14.9842539 20.4518871 15.3987989 20.4518871z"/></svg>