<svg xmlns="http://www.w3.org/2000/svg" width="48" height="48" viewBox="0 0 48 48"><g transform="translate(0 -1004.362)"><circle cx="24" cy="1028.362" r="24" fill="#1d67b1"/><path fill="#fff" style="line-height:normal;text-indent:0;text-align:start;text-decoration-line:none;text-decoration-style:solid;text-decoration-color:#000;text-transform:none;block-progression:tb;isolation:auto;mix-blend-mode:normal" d="m 30.484375,1014.3542 a 0.50005,0.50005 0 0 0 -0.5,0.5 l 0,5.5 -3.802734,0 -0.697266,0 A 0.50005,0.50005 0 0 0 25,1020.7331 l -0.246094,0.9844 -2.339844,-1.3496 0.5,-0.8672 a 0.50005,0.50005 0 0 0 -0.425781,-0.7578 0.50005,0.50005 0 0 0 -0.441406,0.2578 l -1.5,2.5976 a 0.50050307,0.50050307 0 1 0 0.867187,0.5 l 0.5,-0.8652 2.587891,1.4941 L 24,1024.7331 a 0.50005,0.50005 0 0 0 0.484375,0.6211 l 0.423828,0 c -0.276675,1.3458 -1.255859,2.427 -2.558594,2.8281 -0.704137,-1.004 -1.621325,-1.8737 -2.722656,-2.5371 -0.650543,-0.3918 -1.335225,-0.694 -2.037109,-0.9062 l -0.710938,-4.92 c -0.0532,-0.3685 -0.196185,-0.719 -0.447265,-0.9961 -0.25108,-0.2772 -0.628961,-0.4687 -1.046875,-0.4687 l -1.900391,0 a 0.50005,0.50005 0 0 0 -0.5,0.5 l 0,1.0371 0,4.6934 c -1.611099,0.3668 -3.1317042,1.1747 -4.3632812,2.4062 a 0.50005,0.50005 0 1 0 0.7070312,0.707 c 2.601178,-2.6012 6.63205,-3.0952 9.783203,-1.1972 3.151151,1.898 4.600639,5.6934 3.517578,9.209 a 0.50072179,0.50072179 0 0 0 0.957032,0.2949 c 0.06645,-0.2157 0.120329,-0.4332 0.169921,-0.6504 l 7.279297,0 c -0.01871,0.1661 -0.05078,0.329 -0.05078,0.5 0,2.4794 2.020641,4.5 4.5,4.5 2.479359,0 4.5,-2.0206 4.5,-4.5 0,-1.5552 -0.795408,-2.9295 -2,-3.7383 l 0,-9.2617 c 0,-1.3763 -1.123649,-2.5 -2.5,-2.5 l -2.5,0 0,-5.5 a 0.50005,0.50005 0 0 0 -0.5,-0.5 l -2,0 z m 0.5,1 1,0 0,11.4629 c 0,0.3157 -0.224279,0.5371 -0.5,0.5371 -0.275721,0 -0.5,-0.2214 -0.5,-0.5371 l 0,-11.4629 z m -17,4 1.400391,0 c 0.136085,0 0.216744,0.041 0.30664,0.1406 0.0899,0.099 0.168375,0.2687 0.197266,0.4688 l 0.654297,4.5332 c -0.848944,-0.149 -1.709605,-0.1771 -2.558594,-0.082 l 0,-4.5234 0,-0.5371 z m 11.890625,2 0.306641,0 3.802734,0 0,3 -3.806641,0 -1.052734,0 0.425781,-1.7031 a 0.5005087,0.5005087 0 0 0 0.02148,-0.088 l 0.302739,-1.209 z m 7.109375,0 2.5,0 c 0.839649,0 1.5,0.6604 1.5,1.5 l 0,1.5 -4,0 0,-3 z m -6.535156,1 a 0.5,0.5 0 0 0 -0.464844,0.5 0.5,0.5 0 0 0 0.5,0.5 0.5,0.5 0 0 0 0.5,-0.5 0.5,0.5 0 0 0 -0.5,-0.5 0.5,0.5 0 0 0 -0.03516,0 z m 2,0 a 0.5,0.5 0 0 0 -0.464844,0.5 0.5,0.5 0 0 0 0.5,0.5 0.5,0.5 0 0 0 0.5,-0.5 0.5,0.5 0 0 0 -0.5,-0.5 0.5,0.5 0 0 0 -0.03516,0 z m 6,0 a 0.5,0.5 0 0 0 -0.464844,0.5 0.5,0.5 0 0 0 0.5,0.5 0.5,0.5 0 0 0 0.5,-0.5 0.5,0.5 0 0 0 -0.5,-0.5 0.5,0.5 0 0 0 -0.03516,0 z m -8.535157,3 0.263672,0 3.806641,0 0,1.4629 c 0,0.6962 0.511658,1.2063 1.150391,1.3867 a 0.50005,0.50005 0 0 0 0.349609,0.1504 c 0.832279,0 1.5,-0.7038 1.5,-1.5371 l 0,-1.4629 1,0 0,6.2754 c -0.47432,0.1693 -0.906745,0.4156 -1.292969,0.7246 l -8.765625,0 c -0.130358,-1.1578 -0.487718,-2.2759 -1.041015,-3.2949 1.595826,-0.588 2.751787,-2.004 3.029296,-3.7051 z m 9.070313,0 2,0 0,2 -1,0 0,1 1,0 0,1 -1,0 0,1 1,0 0,1.2754 c -0.471463,-0.1683 -0.971795,-0.2754 -1.5,-0.2754 -0.171331,0 -0.333565,0.03 -0.5,0.049 l 0,-6.0488 z m -19.835937,0.9922 c -0.163347,0 -0.302815,0.019 -0.457032,0.074 -0.154217,0.055 -0.341071,0.2209 -0.402344,0.3887 -0.05753,0.1576 -0.04226,0.2461 -0.03906,0.2988 -0.0109,0.01 -0.128252,0.095 -0.527344,0.1777 -0.400505,0.083 -0.545314,0.048 -0.55664,0.047 -0.0181,-0.05 -0.03731,-0.1388 -0.152344,-0.2598 -0.123089,-0.1295 -0.360016,-0.2062 -0.523438,-0.1953 -0.326843,0.022 -0.541521,0.1538 -0.976562,0.4024 -0.43504,0.2486 -0.657119,0.3662 -0.841797,0.6367 -0.09234,0.1353 -0.14673,0.379 -0.09766,0.5508 0.04576,0.1602 0.110678,0.2226 0.144531,0.2636 -0.0049,0.01 -0.04734,0.1545 -0.322266,0.4571 -0.274428,0.3021 -0.4133236,0.3552 -0.4238278,0.3613 -0.044165,-0.03 -0.1125168,-0.087 -0.2753906,-0.1172 -0.1757136,-0.032 -0.4132544,0.046 -0.5390625,0.1504 -0.2516161,0.2098 -0.346901,0.4415 -0.5527343,0.8984 -0.2058345,0.4568 -0.316249,0.6824 -0.3066407,1.0098 0.0048,0.1638 0.1034523,0.3938 0.2441407,0.5039 0.1311364,0.1027 0.2200135,0.1138 0.2714843,0.127 0.00217,0.011 0.05239,0.1519 0.00781,0.5586 -0.044503,0.406 -0.1241218,0.532 -0.1289062,0.5429 -0.053122,0 -0.1426894,-0.01 -0.2929688,0.066 -0.1611947,0.077 -0.3075102,0.2787 -0.3476562,0.4375 -0.080292,0.3175 -0.019961,0.5622 0.082031,1.0528 0.1019926,0.4906 0.1454613,0.7388 0.3457032,0.998 0.1001209,0.1297 0.3136374,0.2573 0.4921874,0.2637 0.1664478,0.01 0.2455065,-0.037 0.2949219,-0.057 0.00846,0.01 0.1330841,0.09 0.3359375,0.4453 0.2028805,0.3551 0.212373,0.5024 0.2148438,0.5136 -0.041783,0.033 -0.1195761,0.082 -0.1992188,0.2286 -0.085124,0.1571 -0.084283,0.4064 -0.023437,0.5585 0.1216905,0.3041 0.3127314,0.4677 0.6835941,0.8047 0.370864,0.3369 0.55279,0.5116 0.867187,0.6036 0.157199,0.046 0.404531,0.022 0.552735,-0.078 0.138036,-0.093 0.176575,-0.1738 0.205078,-0.2187 0.01095,0 0.161815,0 0.535156,0.166 0.373387,0.1683 0.468299,0.2817 0.476563,0.289 -0.01471,0.051 -0.05119,0.1337 -0.0293,0.2989 0.02346,0.1771 0.171939,0.3796 0.310547,0.4668 0.277214,0.1745 0.527317,0.1934 1.02539,0.248 0.498073,0.055 0.746245,0.09 1.054688,-0.022 0.154221,-0.055 0.343021,-0.2207 0.404297,-0.3886 0.05681,-0.1556 0.0405,-0.2437 0.03711,-0.2969 0.0097,-0.01 0.126524,-0.098 0.527344,-0.1816 0.39918,-0.083 0.544259,-0.046 0.55664,-0.045 0.01811,0.05 0.03988,0.1374 0.154297,0.2578 0.123091,0.1295 0.360011,0.2063 0.523438,0.1954 0.326853,-0.022 0.541523,-0.1517 0.976562,-0.4004 a 0.50005,0.50005 0 0 0 0.09766,-0.074 c 0.342966,-0.1962 0.580891,-0.3253 0.74414,-0.5644 0.09234,-0.1353 0.146727,-0.379 0.09766,-0.5508 -0.046,-0.161 -0.110873,-0.2228 -0.144531,-0.2637 0.0052,-0.011 0.04621,-0.1532 0.320313,-0.455 0.275054,-0.3027 0.414006,-0.3576 0.423828,-0.3633 0.04395,0.03 0.111199,0.089 0.27539,0.1191 0.175699,0.032 0.415192,-0.046 0.541016,-0.1504 0.251649,-0.2097 0.346899,-0.4416 0.552734,-0.8984 0.205835,-0.4568 0.316249,-0.6843 0.306641,-1.0117 -0.0048,-0.1638 -0.103452,-0.3919 -0.244141,-0.502 -0.130419,-0.1021 -0.219786,-0.1137 -0.271484,-0.1269 -0.0022,-0.011 -0.05431,-0.152 -0.0098,-0.5586 0.0445,-0.406 0.124112,-0.5321 0.128907,-0.543 0.05312,0 0.1427,0.012 0.292968,-0.064 0.161183,-0.077 0.307509,-0.2787 0.347657,-0.4375 0.08029,-0.3176 0.02191,-0.5622 -0.08008,-1.0528 -0.101994,-0.4905 -0.145482,-0.7388 -0.345704,-0.998 -0.10011,-0.1296 -0.315588,-0.2573 -0.49414,-0.2637 -0.16645,-0.01 -0.2455,0.037 -0.294922,0.057 -0.009,-0.01 -0.131558,-0.093 -0.333984,-0.4472 -0.202007,-0.3535 -0.212211,-0.501 -0.214844,-0.5137 0.04179,-0.033 0.117645,-0.08 0.197265,-0.2266 0.08512,-0.1571 0.08624,-0.4066 0.02539,-0.5586 -0.121691,-0.3042 -0.312731,-0.4677 -0.683594,-0.8046 -0.37086,-0.3369 -0.552818,-0.5116 -0.867187,-0.6036 -0.157185,-0.046 -0.406462,-0.024 -0.554688,0.076 -0.138103,0.093 -0.176576,0.1759 -0.205078,0.2207 -0.01205,0 -0.161105,0 -0.533203,-0.166 -0.372373,-0.1678 -0.467696,-0.2831 -0.476562,-0.291 0.01484,-0.051 0.0491,-0.1346 0.02734,-0.2988 -0.02346,-0.1771 -0.169986,-0.3776 -0.308593,-0.4649 -0.277215,-0.1745 -0.527318,-0.1954 -1.025391,-0.25 -0.249037,-0.027 -0.436263,-0.051 -0.599609,-0.053 z m 11.835937,0.01 0,1 2,0 0,-1 -2,0 z m -11.833984,1.0137 c 0.03469,0 0.12266,-0.017 0.488281,0.023 0.364545,0.04 0.444862,0.078 0.480469,0.082 -0.0068,0.1509 -0.05096,0.2734 0.05664,0.4473 0.177104,0.2862 0.46515,0.477 0.945313,0.6933 0.480163,0.2164 0.812817,0.305 1.144531,0.2481 0.20213,-0.035 0.264522,-0.1487 0.373047,-0.2539 0.02716,0.024 0.10786,0.06 0.378906,0.3066 0.27133,0.2465 0.315386,0.3232 0.341797,0.3477 -0.09433,0.1181 -0.201609,0.1921 -0.216797,0.3965 -0.02494,0.3356 0.09417,0.6579 0.355469,1.1152 0.261293,0.4572 0.47943,0.7261 0.78125,0.875 0.183473,0.091 0.301627,0.033 0.451172,0.012 0.0071,0.034 0.05208,0.1144 0.126953,0.4746 0.0747,0.3592 0.06525,0.4475 0.07227,0.4825 -0.145743,0.04 -0.275729,0.035 -0.408204,0.1914 -0.217451,0.2569 -0.311758,0.5897 -0.36914,1.1132 -0.05738,0.5235 -0.03752,0.8682 0.11914,1.1661 0.09513,0.1809 0.224048,0.2007 0.357422,0.2714 -0.01428,0.032 -0.02462,0.1235 -0.175781,0.459 -0.15058,0.3342 -0.209522,0.4009 -0.224609,0.4336 -0.141532,-0.053 -0.243856,-0.1367 -0.44336,-0.088 -0.326923,0.08 -0.597033,0.2977 -0.951172,0.6875 -0.35414,0.3898 -0.543446,0.6787 -0.591796,1.0118 -0.02949,0.2032 0.06227,0.2977 0.128906,0.4335 -0.03035,0.017 -0.0909,0.081 -0.410156,0.2637 -0.318827,0.1822 -0.406655,0.2032 -0.4375,0.2207 -0.08316,-0.1263 -0.118892,-0.2525 -0.308594,-0.3301 -0.31151,-0.1275 -0.656248,-0.1148 -1.171875,-0.012 -0.515629,0.1072 -0.837368,0.2316 -1.072266,0.4727 -0.142969,0.1467 -0.124401,0.2769 -0.150391,0.4258 -0.03468,0 -0.122643,0.015 -0.488281,-0.025 -0.364784,-0.04 -0.447018,-0.076 -0.482422,-0.08 0.0068,-0.1508 0.05289,-0.2735 -0.05469,-0.4473 -0.177104,-0.2862 -0.46515,-0.4769 -0.945313,-0.6933 -0.480163,-0.2163 -0.814766,-0.3069 -1.146484,-0.25 -0.202324,0.035 -0.264521,0.1504 -0.373047,0.2558 -0.02715,-0.024 -0.107863,-0.06 -0.378906,-0.3066 -0.27133,-0.2465 -0.315386,-0.3233 -0.341797,-0.3477 0.09457,-0.1181 0.203515,-0.1915 0.21875,-0.3965 0.02494,-0.3357 -0.09613,-0.658 -0.357422,-1.1152 -0.261291,-0.4573 -0.4774714,-0.7261 -0.7792968,-0.875 -0.1834851,-0.091 -0.3016153,-0.035 -0.4511718,-0.014 -0.0077,-0.035 -0.052364,-0.112 -0.1269532,-0.4707 -0.074697,-0.3593 -0.065246,-0.4475 -0.072266,-0.4824 0.1455814,-0.04 0.2760366,-0.037 0.4082032,-0.1933 0.2174641,-0.2568 0.3098051,-0.5879 0.3671874,-1.1114 0.057382,-0.5235 0.039469,-0.8682 -0.1171874,-1.166 -0.095231,-0.1811 -0.2239679,-0.2047 -0.3574219,-0.2754 0.014281,-0.032 0.02462,-0.1235 0.1757812,-0.459 0.1510092,-0.3351 0.2101073,-0.4016 0.2246094,-0.4336 0.1414445,0.053 0.2443741,0.1366 0.4433599,0.088 0.326918,-0.08 0.597033,-0.2938 0.951172,-0.6836 0.354138,-0.3898 0.541491,-0.6805 0.589843,-1.0136 0.02936,-0.2022 -0.06066,-0.2961 -0.126953,-0.4317 0.03036,-0.017 0.0909,-0.085 0.410157,-0.2676 0.317687,-0.1815 0.403548,-0.1991 0.435546,-0.2168 0.08314,0.1263 0.118552,0.2523 0.308594,0.3301 0.311506,0.1274 0.658205,0.1128 1.173828,0.01 0.515628,-0.1072 0.837378,-0.2316 1.072266,-0.4726 0.142963,-0.1467 0.124403,-0.2769 0.150391,-0.4258 z m 11.833984,0.9863 0,1 2,0 0,-1 -2,0 z m -12,1 c -2.203218,0 -3.999994,1.7968 -4,4 -5.6e-5,2.2033 1.796738,4 4,4 2.203262,0 4.000056,-1.7967 4,-4 -6e-6,-2.2032 -1.796782,-4 -4,-4 z m 0,1 c 1.662779,0 2.999995,1.3372 3,3 4.3e-5,1.6628 -1.337187,3 -3,3 -1.662813,0 -3.000043,-1.3372 -3,-3 5e-6,-1.6628 1.337221,-3 3,-3 z m 10,0 0,1 4,0 0,-1 -4,0 z m -10.035156,1 a 0.5,0.5 0 0 0 -0.464844,0.5 0.5,0.5 0 0 0 0.5,0.5 0.5,0.5 0 0 0 0.5,-0.5 0.5,0.5 0 0 0 -0.5,-0.5 0.5,0.5 0 0 0 -0.03516,0 z m -1.232422,0.7051 a 0.5,0.5 0 0 0 -0.376953,0.2148 0.5,0.5 0 0 0 0.126953,0.6953 0.5,0.5 0 0 0 0.695312,-0.1269 0.5,0.5 0 0 0 -0.126953,-0.6954 0.5,0.5 0 0 0 -0.318359,-0.088 z m 2.546875,0 a 0.5,0.5 0 0 0 -0.271484,0.076 0.5,0.5 0 0 0 -0.160157,0.6875 0.5,0.5 0 0 0 0.689453,0.1602 0.5,0.5 0 0 0 0.158204,-0.6895 0.5,0.5 0 0 0 -0.416016,-0.2343 z m 19.220703,0.2949 c 1.938919,0 3.5,1.5611 3.5,3.5 0,1.9389 -1.561081,3.5 -3.5,3.5 -1.938919,0 -3.5,-1.5611 -3.5,-3.5 0,-1.9389 1.561081,-3.5 3.5,-3.5 z m -20.535156,0.5 a 0.5,0.5 0 0 0 -0.464844,0.5 0.5,0.5 0 0 0 0.5,0.5 0.5,0.5 0 0 0 0.5,-0.5 0.5,0.5 0 0 0 -0.5,-0.5 0.5,0.5 0 0 0 -0.03516,0 z m 9.029297,0.5 7.767578,0 c -0.206034,0.3069 -0.360132,0.6463 -0.486328,1 l -7.335938,0 c 0.03734,-0.334 0.05487,-0.6677 0.05469,-1 z m -10.259766,0.3516 a 0.5,0.5 0 0 0 -0.271484,0.076 0.5,0.5 0 0 0 -0.160157,0.6895 0.5,0.5 0 0 0 0.689453,0.1582 0.5,0.5 0 0 0 0.160157,-0.6875 0.5,0.5 0 0 0 -0.417969,-0.2363 z m 2.515625,0 a 0.5,0.5 0 0 0 -0.427734,0.2168 0.5,0.5 0 0 0 0.126953,0.6953 0.5,0.5 0 0 0 0.695312,-0.127 0.5,0.5 0 0 0 -0.126953,-0.6953 0.5,0.5 0 0 0 -0.267578,-0.09 z m -1.285156,0.6484 a 0.5,0.5 0 0 0 -0.464844,0.5 0.5,0.5 0 0 0 0.5,0.5 0.5,0.5 0 0 0 0.5,-0.5 0.5,0.5 0 0 0 -0.5,-0.5 0.5,0.5 0 0 0 -0.03516,0 z m 20.535156,0 c -0.822505,0 -1.5,0.6775 -1.5,1.5 0,0.8225 0.677495,1.5 1.5,1.5 0.822505,0 1.5,-0.6775 1.5,-1.5 0,-0.8225 -0.677495,-1.5 -1.5,-1.5 z m 0,1 c 0.282065,0 0.5,0.218 0.5,0.5 0,0.2821 -0.217935,0.5 -0.5,0.5 -0.282065,0 -0.5,-0.2179 -0.5,-0.5 0,-0.282 0.217935,-0.5 0.5,-0.5 z m -14.675781,0.1465 c 0.01148,0 0.04266,0.037 0.05078,0.039 0.04695,0.014 0.02892,0.026 -0.04883,-0.035 0,0 -0.002,0 -0.002,0 l 0,0 z m -6.931641,3.9609 0.002,0 c 0.01297,0.098 -0.0063,0.1064 0.0059,0.059 0.0019,-0.01 -0.0079,-0.043 -0.0078,-0.059 z" color="#000" font-family="sans-serif" font-weight="400" overflow="visible" white-space="normal"/></g></svg>