<svg xmlns="http://www.w3.org/2000/svg" id="Layer_1" width="32" height="32" version="1" viewBox="0 0 32 32"><g id="g4140"><path id="path7" fill="#5dc560" d="M 32,16 C 32,24.835821 24.835821,32 16,32 7.164179,32 0,24.835821 0,16 0,7.1641791 7.164179,0 16,0 24.835821,0 32,7.1641791 32,16 l 0,0 z"/><path id="path9" fill="#fff" d="m 22.225095,10.931034 c -0.29442,0.07361 -0.515236,0.294421 -0.736051,0.58884 -0.220815,-0.07361 -0.368026,-0.147209 -0.588841,-0.147209 -0.294421,0 -0.662447,0.0736 -0.956868,0.368025 0,0 -0.07361,0 -0.07361,0.07361 l -0.956866,1.177682 0,0 -2.576181,2.502576 c -0.07361,-0.07361 -0.220815,-0.14721 -0.368025,-0.220816 -0.220816,-0.07361 -0.441631,-0.14721 -0.662446,-0.14721 -0.220817,0 -0.515237,0.07361 -0.736052,0.220816 -2.060945,0.956867 -3.974679,2.060944 -5.2259673,2.944207 -0.6624465,0.515235 -1.1776823,0.883261 -1.5457082,1.324892 -0.1472107,0.220815 -0.2944206,0.368025 -0.368026,0.515235 -0.073604,0.220816 -0.1472107,0.368026 -0.073604,0.588842 l 0,0.0736 c 0.1472107,0.220816 0.3680259,0.294421 0.5152366,0.294421 l 0.6624465,0 c 0.5888412,-0.0736 1.2512882,-0.220815 2.0609454,-0.515236 1.619314,-0.515237 3.680258,-1.324893 5.446783,-2.208154 0.515236,-0.220815 0.809656,-0.588842 0.883262,-1.030473 l 0,-0.07361 3.385837,0.147211 0.0736,0 2.502575,-0.736053 0.07361,0 0,0 c 0.368026,-0.0736 0.662446,-0.14721 0.883261,-0.368026 0.220816,-0.220816 0.294421,-0.588841 0.294421,-0.956866 0.220816,-0.220816 0.515237,-0.441631 0.515237,-0.736052 0.0736,-0.294421 -0.07361,-0.515236 -0.220816,-0.809657 0.220816,-0.294421 0.29442,-0.736052 0.07361,-1.104078 -0.147211,-0.220815 -0.441631,-0.368026 -0.809658,-0.441631 0.0736,-0.14721 0.0736,-0.368025 0.0736,-0.515235 -0.0736,-0.220815 -0.147211,-0.368026 -0.368026,-0.515237 -0.14721,-0.0736 -0.368026,-0.0736 -0.588841,-0.0736 0.07361,-0.14721 -0.29442,-0.29442 -0.58884,-0.220816 l 0,0 0,0 z m 0.07361,0.58884 c 0.07361,0 0.220817,0 0.294422,0.0736 l -0.662448,1.69292 -1.619315,0.368026 c -0.0736,0 -0.0736,0 -0.147209,0.0736 l -2.944206,1.987339 2.208154,-2.208155 0.0736,0 0.883261,-1.177682 c 0.220815,-0.14721 0.368026,-0.220816 0.515237,-0.220816 0.14721,0 0.368025,0.07361 0.662447,0.14721 0.147209,0.07361 0.368025,-0.07361 0.368025,-0.220815 0.07361,-0.441631 0.220816,-0.515235 0.368026,-0.515235 l 0,0 0,0 z m 0.809658,0.294421 0.220815,0 c 0.0736,0.07361 0.0736,0.07361 0.0736,0.14721 0,0.147211 -0.0736,0.368026 -0.14721,0.441631 -0.220816,0.14721 0,0.588842 0.294421,0.515236 0.515236,-0.0736 0.662446,0 0.736051,0.147211 0.07361,0.14721 0.07361,0.368026 -0.0736,0.515236 -0.0736,0.07361 -0.0736,0.294421 0,0.368026 0.14721,0.220815 0.220815,0.368026 0.14721,0.515237 0,0.14721 -0.07361,0.29442 -0.294421,0.44163 l -1.619313,-0.588841 -0.14721,0 c -0.0736,0 -0.0736,0 -0.0736,0.0736 l -1.472103,1.104076 -0.147209,0 -3.459443,1.030473 0,-0.07361 3.312232,-2.208154 1.766524,-0.368026 c 0.0736,0 0.14721,-0.07361 0.220815,-0.220815 l 0.662447,-1.840129 0,0 0,0 z m -0.809658,3.165022 1.472105,0.588841 c 0,0.220815 -0.07361,0.294421 -0.14721,0.368026 -0.0736,0.0736 -0.294419,0.220815 -0.588841,0.220815 l -0.07361,0 -2.42897,0.736052 0,0 -2.355366,-0.14721 2.649786,-0.809657 0.07361,-0.07361 1.398498,-0.883262 0,0 0,0 z m -7.875751,1.398498 c 0.07361,0 0.14721,0.0736 0.14721,0.14721 0,0.07361 -0.07361,0.147211 -0.14721,0.147211 -0.07361,0 -0.14721,-0.0736 -0.14721,-0.147211 0.07361,-0.0736 0.14721,-0.14721 0.14721,-0.14721 l 0,0 0,0 z m 0.883261,0.0736 c 0.0736,0 0.147211,0.07361 0.147211,0.147211 0,0.0736 -0.07361,0.147211 -0.147211,0.147211 -0.07361,0 -0.14721,-0.07361 -0.14721,-0.147211 0,-0.07361 0.14721,-0.147211 0.14721,-0.147211 l 0,0 0,0 z m -2.57618,0.883263 c 0.07361,0 0.14721,0.07361 0.14721,0.14721 0,0.0736 -0.07361,0.147211 -0.14721,0.147211 -0.07361,0 -0.147211,-0.0736 -0.147211,-0.147211 0,-0.07361 0.0736,-0.14721 0.147211,-0.14721 l 0,0 0,0 z m 1.030473,0 c 0.07361,0 0.14721,0.07361 0.14721,0.14721 0,0.0736 -0.07361,0.147211 -0.14721,0.147211 -0.07361,0 -0.147211,-0.0736 -0.147211,-0.147211 0,-0.07361 0,-0.14721 0.147211,-0.14721 l 0,0 0,0 z m 1.398497,0.294421 c 0.0736,0 0.14721,0.0736 0.14721,0.147211 0,0.07361 -0.07361,0.147209 -0.14721,0.147209 -0.07361,0 -0.147209,-0.07361 -0.147209,-0.147209 0,-0.0736 0.147209,-0.147211 0.147209,-0.147211 l 0,0 0,0 z m -1.104077,0.515236 c 0.07361,0 0.147211,0.07361 0.147211,0.147211 0,0.07361 -0.07361,0.147209 -0.147211,0.147209 -0.07361,0 -0.14721,-0.0736 -0.14721,-0.147209 0,-0.0736 0,-0.147211 0.14721,-0.147211 l 0,0 0,0 z m -3.312234,0.220815 c 0.07361,0 0.14721,0.0736 0.14721,0.147211 0,0.0736 -0.07361,0.14721 -0.14721,0.14721 -0.07361,0 -0.147211,-0.07361 -0.147211,-0.14721 0,-0.0736 0.07361,-0.147211 0.147211,-0.147211 l 0,0 0,0 z m 1.177683,0.147211 c 0.0736,0 0.14721,0.0736 0.14721,0.14721 0,0.0736 -0.07361,0.147209 -0.14721,0.147209 -0.07361,0 -0.147209,-0.0736 -0.147209,-0.147209 0,-0.07361 0.0736,-0.14721 0.147209,-0.14721 l 0,0 0,0 z m 1.104077,0.0736 c 0.0736,0 0.14721,0.07361 0.14721,0.14721 0,0.0736 -0.07361,0.147211 -0.14721,0.147211 -0.07361,0 -0.147211,-0.07361 -0.147211,-0.147211 -0.07361,-0.0736 0,-0.14721 0.147211,-0.14721 l 0,0 0,0 z m -2.649791,0.73606 c 0.07361,0 0.147211,0.07361 0.147211,0.147211 0,0.0736 -0.07361,0.147211 -0.147211,0.147211 -0.0736,0 -0.14721,0 -0.14721,-0.147211 0,-0.0736 0.0736,-0.147211 0.14721,-0.147211 l 0,0 0,0 z m -0.9568666,0.588841 c 0.073604,0 0.1472098,0.0736 0.1472098,0.14721 0,0.0736 -0.073604,0.147211 -0.1472098,0.147211 -0.073605,0 -0.1472107,-0.07361 -0.1472107,-0.147211 0,-0.14721 0.073604,-0.14721 0.1472107,-0.14721 l 0,0 0,0 z m -0.5888411,0.14721 c 0.073604,0 0.1472098,0.0736 0.1472098,0.147211 0,0.0736 -0.073604,0.14721 -0.1472098,0.14721 -0.073605,0 -0.1472108,-0.0736 -0.1472108,-0.14721 0,0 0,-0.147211 0.1472108,-0.147211 l 0,0 0,0 z"/></g></svg>