<svg xmlns="http://www.w3.org/2000/svg" id="Layer_1" enable-background="new 0 0 128 128" viewBox="0 0 128 128"><path fill="#6de1ee" d="M97,4H42v16c0,0.8-0.4,1.5-1.1,1.8c-0.7,0.3-1.5,0.2-2.1-0.3l-5-4.1l-4.4,4C29,21.8,28.5,22,28,22
	c-0.3,0-0.5-0.1-0.8-0.2c-0.7-0.3-1.2-1-1.2-1.8V4h-3c-1.1,0-2,0.9-2,2v110h76c1.1,0,2-0.9,2-2V6C99,4.9,98.1,4,97,4z M58,19
	c0-1.1,0.9-2,2-2s2,0.9,2,2v16.3c0,1.1-0.9,2-2,2s-2-0.9-2-2V19z M66,52.7V97c0,3.3-2.7,6-6,6s-6-2.7-6-6V52.7
	c0-2.7-0.9-5.3-2.6-7.4c-2.2-2.8-3.4-6.3-3.4-9.9V19c0-1.1,0.9-2,2-2s2,0.9,2,2v16.3c0,2.7,0.9,5.3,2.6,7.4c2.2,2.8,3.4,6.3,3.4,9.9
	V97c0,1.1,0.9,2,2,2s2-0.9,2-2V52.7c0-3.6,1.2-7.1,3.4-9.9c1.7-2.1,2.6-4.7,2.6-7.4V19c0-1.1,0.9-2,2-2s2,0.9,2,2v16.3
	c0,3.6-1.2,7.1-3.4,9.9C66.9,47.3,66,50,66,52.7z M70,97.1c0,0,0-0.1,0-0.1v-4.1c11.1-4.1,19-14.7,19-27.2
	c0-10.4-5.5-19.6-13.8-24.7c0.4-1.4,0.7-2.8,0.8-4.2C86.1,42.4,93,53.2,93,65.7C93,80.4,83.3,92.9,70,97.1z"/><path fill="#263357" d="M107,8h-4V6c0-3.3-2.7-6-6-6H23c-3.3,0-6,2.7-6,6v116c0,3.3,2.7,6,6,6h84c3.3,0,6-2.7,6-6V14
	C113,10.7,110.3,8,107,8z M30,4h8v11.8l-3.1-2.5c-0.8-0.6-1.9-0.6-2.6,0.1L30,15.5V4z M21,6c0-1.1,0.9-2,2-2h3v16
	c0,0.8,0.5,1.5,1.2,1.8c0.3,0.1,0.5,0.2,0.8,0.2c0.5,0,1-0.2,1.3-0.5l4.4-4l5,4.1c0.6,0.5,1.4,0.6,2.1,0.3c0.7-0.3,1.1-1,1.1-1.8V4
	h55c1.1,0,2,0.9,2,2v108c0,1.1-0.9,2-2,2H21V6z M109,122c0,1.1-0.9,2-2,2H23c-1.1,0-2-0.9-2-2v-2h76c3.3,0,6-2.7,6-6V12h4
	c1.1,0,2,0.9,2,2V122z"/><path fill="#ef4136" d="M38,4v11.8l-3.1-2.5c-0.8-0.6-1.9-0.6-2.6,0.1L30,15.5V4H38z"/><path fill="#d0e7ef" d="M109,14v108c0,1.1-0.9,2-2,2H23c-1.1,0-2-0.9-2-2v-2h76c3.3,0,6-2.7,6-6V12h4C108.1,12,109,12.9,109,14z"/><path fill="#263357" d="M72,19v16.3c0,3.6-1.2,7.1-3.4,9.9C66.9,47.3,66,50,66,52.7V97c0,3.3-2.7,6-6,6s-6-2.7-6-6V52.7
	c0-2.7-0.9-5.3-2.6-7.4c-2.2-2.8-3.4-6.3-3.4-9.9V19c0-1.1,0.9-2,2-2s2,0.9,2,2v16.3c0,2.7,0.9,5.3,2.6,7.4c2.2,2.8,3.4,6.3,3.4,9.9
	V97c0,1.1,0.9,2,2,2s2-0.9,2-2V52.7c0-3.6,1.2-7.1,3.4-9.9c1.7-2.1,2.6-4.7,2.6-7.4V19c0-1.1,0.9-2,2-2S72,17.9,72,19z"/><path fill="#263357" d="M62 19v16.3c0 1.1-.9 2-2 2s-2-.9-2-2V19c0-1.1.9-2 2-2S62 17.9 62 19zM93 65.7c0 14.7-9.7 27.2-23 31.5 0 0 0-.1 0-.1v-4.1c11.1-4.1 19-14.7 19-27.2 0-10.4-5.5-19.6-13.8-24.7.4-1.4.7-2.8.8-4.2C86.1 42.4 93 53.2 93 65.7zM50 92.9c-11.1-4.1-19-14.7-19-27.2 0-10.4 5.5-19.6 13.8-24.7-.4-1.4-.7-2.8-.8-4.2C33.9 42.4 27 53.2 27 65.7c0 14.7 9.7 27.2 23 31.4 0 0 0-.1 0-.1V92.9z"/><path fill="#93a0a5" d="M109,120v2c0,1.1-0.9,2-2,2H23c-1.1,0-2-0.9-2-2v-2c0,1.1,0.9,2,2,2h84C108.1,122,109,121.1,109,120z" opacity=".4"/><path fill="#4da5aa" d="M99,112v2c0,1.1-0.9,2-2,2H21v-2h76C98.1,114,99,113.1,99,112z" opacity=".6"/><path fill="#e4f0f4" d="M109,14v2c0-1.1-0.9-2-2-2h-4v-2h4C108.1,12,109,12.9,109,14z" opacity=".4"/><path fill="#a1f3f7" d="M99 6v2c0-1.1-.9-2-2-2H42V4h55C98.1 4 99 4.9 99 6zM26 4v2h-3c-1.1 0-2 .9-2 2V6c0-1.1.9-2 2-2H26z" opacity=".6"/><rect width="8" height="2" x="30" y="4" fill="#f4827f" opacity=".6"/></svg>