<svg xmlns="http://www.w3.org/2000/svg" viewBox="0 0 64 64"><g data-name="Layer 29"><path fill="#b46e5b" d="M11,40V27A21,21,0,0,1,32,6h0A21,21,0,0,1,53,27V40h4V27A25,25,0,0,0,32,2h0A25,25,0,0,0,7,27V40Z"/><path fill="#efac5d" d="M4 40a12 12 0 0 1 24 0zM36 40a12 12 0 0 1 24 0z"/><path fill="#76473a" d="M4,46H4A16,16,0,0,0,20,62H44A16,16,0,0,0,60,46H4Z"/><rect width="60" height="6" x="2" y="40" fill="#c38779"/><path fill="#f68429" d="M20,40a12,12,0,0,1,24,0Z"/><path d="M62,39H60.949A12.932,12.932,0,0,0,58,31.705V27A26,26,0,0,0,6,27v4.7A12.932,12.932,0,0,0,3.051,39H2a1,1,0,0,0-1,1v6a1,1,0,0,0,1,1H3.051A17.005,17.005,0,0,0,17,62.718H17A17.032,17.032,0,0,0,20,63H44a17.032,17.032,0,0,0,3-.281h0A17.005,17.005,0,0,0,60.949,47H62a1,1,0,0,0,1-1V40A1,1,0,0,0,62,39ZM19.706,20.292a1,1,0,0,0-1.414,0l-.17.171a10.57,10.57,0,0,0-3.076,6.583A12.908,12.908,0,0,0,12,27.636V27a19.986,19.986,0,0,1,38.73-6.948.967.967,0,0,0-.438.242l-.17.171a10.564,10.564,0,0,0-3.075,6.579,12.949,12.949,0,0,0-7.052,2.727,12.914,12.914,0,0,0-6.94-2.718,8.583,8.583,0,0,1,2.482-5.175l.171-.172a1,1,0,0,0-1.416-1.412l-.17.171a10.57,10.57,0,0,0-3.076,6.583,12.92,12.92,0,0,0-7.041,2.723,12.96,12.96,0,0,0-6.95-2.723,8.589,8.589,0,0,1,2.482-5.17l.171-.172A1,1,0,0,0,19.706,20.292Zm29.349,6.761a8.576,8.576,0,0,1,2.3-4.981A19.888,19.888,0,0,1,52,27v.636A12.93,12.93,0,0,0,49.055,27.053ZM32,29A11.01,11.01,0,0,1,42.949,39h-21.9A11.01,11.01,0,0,1,32,29ZM44.949,39a12.932,12.932,0,0,0-3.464-7.861A10.993,10.993,0,0,1,58.949,39ZM32,3A24.028,24.028,0,0,1,56,27v2.774a13.029,13.029,0,0,0-2-1.3V27a22,22,0,0,0-44,0v1.479a13.029,13.029,0,0,0-2,1.3V27A24.028,24.028,0,0,1,32,3ZM16,29a10.976,10.976,0,0,1,6.515,2.139A12.932,12.932,0,0,0,19.051,39h-14A11.01,11.01,0,0,1,16,29Zm0,18v3H12V47Zm6,0v3H18V47Zm6,0v3H24V47Zm6,0v3H30V47Zm6,0v3H36V47Zm6,0v3H42V47Zm6,0v3H48V47Zm0,11.666a14.911,14.911,0,0,1-4,1.776V58h4ZM48,56V52h4v4ZM12,58h4v2.442a14.911,14.911,0,0,1-4-1.776Zm0-2V52h4v4Zm6-4h4v4H18Zm6,0h4v4H24Zm6,0h4v4H30Zm-2,6v3H24V58Zm2,0h4v3H30Zm6,0h4v3H36Zm0-2V52h4v4Zm6-4h4v4H42ZM10,50H5.558a14.847,14.847,0,0,1-.507-3H10ZM6.261,52H10v4H9a1.04,1.04,0,0,0-.126.025A15.03,15.03,0,0,1,6.261,52ZM18,60.851V58h4v3H20A14.99,14.99,0,0,1,18,60.851ZM42,61V58h4v2.851A14.99,14.99,0,0,1,44,61Zm13.126-4.975A1.04,1.04,0,0,0,55,56H54V52h3.739A15.03,15.03,0,0,1,55.126,56.025ZM58.442,50H54V47h4.949A14.847,14.847,0,0,1,58.442,50ZM61,45H3V41H61Z"/><path d="M32 35a4 4 0 0 0 4-4 1 1 0 0 0-2 0 2 2 0 0 1-4 0 1 1 0 0 0-2 0A4 4 0 0 0 32 35zM20 31a1 1 0 0 0-2 0 2 2 0 0 1-4 0 1 1 0 0 0-2 0 4 4 0 0 0 8 0zM51 30a1 1 0 0 0-1 1 2 2 0 0 1-4 0 1 1 0 0 0-2 0 4 4 0 0 0 8 0A1 1 0 0 0 51 30z"/></g></svg>