<svg xmlns="http://www.w3.org/2000/svg" enable-background="new 0 0 512 512" viewBox="0 0 512 512"><path fill="#231f20" d="M497,218.4c-5.4-5.4-14.1-5.4-19.4,0L338.2,357.8l-39-39c-5.4-5.4-14.1-5.4-19.4,0c-5.4,5.4-5.4,14.1,0,19.4
	l48.7,48.7c2.7,2.7,6.2,4,9.7,4s7-1.3,9.7-4l72.3-72.3c2.5,8.2,3.8,16.8,3.6,25.6c-0.9,45.9-39.1,82.4-85,81.6
	c-45.9-0.9-82.5-39.1-81.6-85c0.9-45.4,38.1-81.6,83.3-81.6c0.6,0,1.1,0,1.7,0c14.1,0.3,27.9,4.1,40,11.2c6.6,3.8,15,1.6,18.8-5
	c3.8-6.6,1.6-15-5-18.8c-10.7-6.2-22.4-10.5-34.5-12.8c7.7-22.2,11.6-44.4,11.6-66.3c0-53.9-38.5-97-89.6-100.2
	c-35.5-2.2-70.4,16.1-90.6,45c-20.2-28.9-55.2-47.2-90.6-45C70,65.3,42.3,83,26.1,111.8c-3.7,6.6-1.3,15,5.3,18.7
	c6.6,3.7,15,1.3,18.7-5.3c11.5-20.6,31.2-33.2,54-34.6c33-2.2,65.6,20.3,75.8,52c0,0.1,0.1,0.2,0.2,0.3c0.4,1.2,1,2.3,1.7,3.3
	c0.1,0.1,0.2,0.3,0.3,0.4c0.7,1,1.6,1.9,2.7,2.6c0.2,0.2,0.4,0.3,0.7,0.5c1,0.7,2.1,1.3,3.3,1.7c0,0,0,0,0.1,0c0,0,0,0,0,0
	c1.2,0.4,2.5,0.6,3.8,0.6c0.2,0,0.3,0.1,0.4,0.1c0.1,0,0.3-0.1,0.4-0.1c1.3,0,2.5-0.2,3.7-0.6c0,0,0.1,0,0.1,0
	c0.3-0.1,0.6-0.3,0.8-0.4c0.5-0.2,1-0.4,1.4-0.6c0.4-0.2,0.7-0.5,1.1-0.7c0.4-0.3,0.8-0.5,1.1-0.8c0.3-0.3,0.6-0.6,0.9-0.9
	c0.3-0.3,0.7-0.6,0.9-1c0.3-0.3,0.5-0.7,0.8-1.1c0.3-0.4,0.5-0.7,0.7-1.1c0.2-0.4,0.4-0.9,0.6-1.4c0.1-0.3,0.3-0.6,0.4-0.9
	c10.2-31.7,42.8-54,75.8-52c36.4,2.3,63.8,33.6,63.8,72.8c0,21.2-4.3,42.8-12.8,64.5c-56.5,3.9-102,50.5-103.1,108.2
	c-0.1,5.2,0.3,10.4,0.9,15.5c-11.5,8.3-23.3,15.8-37.5,23.8c-95.8-54.2-152.8-133-152.8-212c0-7.6-6.1-13.7-13.7-13.7
	s-13.7,6.1-13.7,13.7c0,90.9,64.7,180.4,173.2,239.6c0,0,0,0,0.1,0c0.1,0.1,0.2,0.1,0.3,0.2c0.6,0.3,1.3,0.5,1.9,0.7
	c0.4,0.1,0.8,0.4,1.2,0.5c1.1,0.3,2.3,0.5,3.5,0.5c0,0,0,0,0,0s0,0,0,0c1.2,0,2.3-0.2,3.5-0.5c0.4-0.1,0.8-0.3,1.2-0.5
	c0.6-0.2,1.3-0.4,1.9-0.7c14.6-8,26.8-15.3,38.3-23.2c16.2,39.7,54.8,68.2,100.4,69.1c0.8,0,1.5,0,2.3,0
	c60,0,109.5-48.2,110.7-108.5c0.3-16.6-3-32.5-9.7-47.4l55.5-55.5C502.3,232.5,502.3,223.8,497,218.4z"/></svg>