<svg xmlns="http://www.w3.org/2000/svg" width="48" height="48" viewBox="0 0 48 48"><g transform="translate(542.988 -1346.339)"><g transform="matrix(1.92 0 0 1.92 -590.114 1315.793)"><circle cx="37.045" cy="28.409" r="12.5" fill="#50b748" fill-rule="evenodd"/></g><path fill="#fff" d="m -523.09105,1355.5378 a 5.6612983,5.6612983 0 0 0 -5.66211,5.6602 5.6612983,5.6612983 0 0 0 0.0195,0.4375 5.2258072,5.2258072 0 0 0 -0.0195,0 5.2258072,5.2258072 0 0 0 -5.2246,5.2266 5.2258072,5.2258072 0 0 0 5.2246,5.2266 5.2258072,5.2258072 0 0 0 2.25977,-0.5215 5.6612983,5.6612983 0 0 0 3.40234,1.1465 5.6612983,5.6612983 0 0 0 0.10352,-0.01 l 0,-0.3672 -0.33398,0 a 1.0001,1.0001 0 0 1 -0.68165,-1.7324 l 8.9961,-8.375 a 5.2258072,5.2258072 0 0 0 -2.42188,-0.5977 5.2258072,5.2258072 0 0 0 -0.0234,0 5.6612983,5.6612983 0 0 0 0.0234,-0.4355 5.6612983,5.6612983 0 0 0 -5.66211,-5.6602 z m -0.30468,1.3164 a 0.43552742,0.43552742 0 0 1 0.0371,0.8692 c -1.5703,0.1217 -2.86081,1.2768 -3.1543,2.8242 a 0.43552742,0.43552742 0 1 1 -0.85547,-0.1621 c 0.36599,-1.9297 1.98319,-3.3775 3.94141,-3.5293 a 0.43552742,0.43552742 0 0 1 0.0312,0 l 0,0 z m 9.74218,5.4844 -9.66796,9 1.33398,0 0,13 6,0 0,-7.9609 5.04297,0 0,7.9609 5.95703,0 0,-13 1,0 -9.66602,-9 z m -16.83007,1.0703 a 0.43552742,0.43552742 0 0 1 0.002,0 0.43552742,0.43552742 0 0 1 0.19921,0.8164 c -0.70784,0.4114 -1.22168,1.0895 -1.42382,1.8828 -0.20215,0.7934 -0.0771,1.6341 0.34766,2.334 a 0.43552742,0.43552742 0 1 1 -0.74414,0.4512 c -0.54586,-0.8996 -0.70707,-1.9804 -0.44727,-3 0.25979,-1.0196 0.92034,-1.8932 1.83008,-2.4219 a 0.43552742,0.43552742 0 0 1 0.19336,-0.06 0.43552742,0.43552742 0 0 1 0.043,0 z m 23.49609,1.9297 0,1.9024 2,1.8418 0,-3.7442 -2,0 z m -19.15234,7.543 0,6.1719 c 0,0.975 -0.39763,1.853 -1.03907,2.4843 l -3.90429,0 a 0.50005003,0.50005003 0 1 0 0,1 l 8.0957,0 0,-8.834 c -0.0342,7e-4 -0.0673,0.01 -0.10156,0.01 a 1.0001,1.0001 0 0 1 -0.004,0 c -1.07842,0 -2.10758,-0.321 -3.04688,-0.83 z m -8.49414,8.6562 a 0.50005003,0.50005003 0 1 0 0,1 l 1.3125,0 a 0.50005003,0.50005003 0 1 0 0,-1 l -1.3125,0 z"/></g></svg>