<svg xmlns="http://www.w3.org/2000/svg" width="48" height="48" viewBox="0 0 48 48"><path fill-rule="evenodd" d="M 24 0 C 10.751088 0 0 10.7511 0 24 C 0 37.2489 10.751088 48 24 48 C 37.248912 48 48 37.2489 48 24 C 48 10.7511 37.248912 0 24 0 z M 24 1 C 36.708472 1 47 11.2916 47 24 C 47 36.7085 36.708472 47 24 47 C 11.291528 47 1 36.7085 1 24 C 1 11.2916 11.291528 1 24 1 z M 18.998047 9.0039062 C 17.714664 9.0039062 16.432201 9.4160875 15.361328 10.242188 C 13.877149 11.388687 13.076512 13.132581 13.0625 14.925781 C 10.94982 15.111081 9.1029222 16.480541 8.3515625 18.494141 C 7.5460628 20.652941 8.1591126 23.088722 9.890625 24.607422 C 11.459227 25.983122 13.651223 26.337391 15.560547 25.587891 L 15.560547 32.212891 C 15.560547 33.586891 14.615191 34.7104 13.341797 35 L 7.5527344 35 A 0.50005 0.50005 0 1 0 7.5527344 36 L 13.302734 36 A 0.50026702 0.50026702 0 0 0 13.462891 36 L 16.451172 36 A 0.50005 0.50005 0 1 0 16.451172 35 L 15.359375 35 C 16.095447 34.2958 16.560547 33.311591 16.560547 32.212891 L 16.560547 25.482422 C 16.560547 24.416422 16.131157 23.446547 15.433594 22.748047 C 15.084794 22.398747 14.66764 22.115222 14.205078 21.919922 C 13.742701 21.724922 13.233867 21.617188 12.701172 21.617188 A 0.50004997 0.50004997 0 1 0 12.701172 22.617188 C 13.099206 22.617188 13.474264 22.697197 13.816406 22.841797 C 14.158363 22.986197 14.466083 23.196178 14.724609 23.455078 C 15.033015 23.763878 15.258613 24.146412 15.400391 24.570312 C 13.788364 25.297112 11.895077 25.034469 10.550781 23.855469 C 9.1294572 22.608869 8.6276156 20.61645 9.2890625 18.84375 C 9.9046665 17.19385 11.408842 16.075122 13.136719 15.919922 C 13.211219 16.381722 13.322175 16.841709 13.509766 17.287109 A 0.50023525 0.50023525 0 1 0 14.431641 16.898438 C 13.555345 14.817638 14.187467 12.412203 15.972656 11.033203 C 17.758666 9.6553031 20.239381 9.6553031 22.025391 11.033203 C 23.81227 12.410003 24.447957 14.814684 23.574219 16.896484 A 0.50004997 0.50004997 0 1 0 24.496094 17.283203 C 24.682177 16.839803 24.791075 16.381175 24.865234 15.921875 C 25.592707 15.987875 26.288824 16.223788 26.902344 16.617188 L 18.828125 24.134766 A 0.50004997 0.50004997 0 0 0 19.167969 25 L 20.001953 25 L 20.001953 35 L 18.689453 35 A 0.50005 0.50005 0 1 0 18.689453 36 L 20.001953 36 L 20.001953 37.5 A 0.50004997 0.50004997 0 0 0 20.501953 38 L 37.501953 38 A 0.50004997 0.50004997 0 0 0 38.001953 37.5 L 38.001953 25 L 38.501953 25 A 0.50004997 0.50004997 0 0 0 38.841797 24.134766 L 38.001953 23.353516 L 38.001953 18.5 A 0.50004997 0.50004997 0 0 0 37.501953 18 L 35.501953 18 A 0.50004997 0.50004997 0 0 0 35.001953 18.5 L 35.001953 20.558594 L 29.175781 15.134766 A 0.50004997 0.50004997 0 0 0 28.810547 15.001953 A 0.50004997 0.50004997 0 0 0 28.494141 15.134766 L 27.650391 15.921875 C 26.849582 15.355075 25.918964 15.013334 24.941406 14.927734 C 24.927186 13.133034 24.123923 11.388087 22.636719 10.242188 C 21.565846 9.4160875 20.28143 9.0039062 18.998047 9.0039062 z M 18.941406 10.992188 L 18.941406 10.996094 A 0.50046139 0.50046139 0 0 0 18.919922 10.996094 A 0.50004997 0.50004997 0 0 0 18.886719 10.996094 C 16.962173 11.145494 15.371248 12.572403 15.011719 14.470703 A 0.50004997 0.50004997 0 1 0 15.994141 14.65625 C 16.270652 13.19635 17.484341 12.108941 18.962891 11.994141 A 0.5010917 0.5010917 0 0 0 18.941406 10.992188 z M 28.835938 16.183594 L 37.228516 24 L 20.441406 24 L 28.835938 16.183594 z M 12.197266 17.017578 A 0.50004997 0.50004997 0 0 0 12.144531 17.019531 L 12.144531 17.021484 A 0.50004997 0.50004997 0 0 0 11.921875 17.089844 C 11.025878 17.611244 10.37685 18.471262 10.121094 19.476562 C 9.8653267 20.481862 10.023043 21.548547 10.560547 22.435547 A 0.50004997 0.50004997 0 1 0 11.416016 21.917969 C 11.017373 21.260169 10.900102 20.470409 11.089844 19.724609 C 11.279578 18.978909 11.759714 18.341578 12.423828 17.955078 A 0.50004997 0.50004997 0 0 0 12.197266 17.017578 z M 36.001953 19 L 37.001953 19 L 37.001953 22.421875 L 36.001953 21.490234 L 36.001953 19 z M 21.001953 25 L 37.001953 25 L 37.001953 37 L 32.044922 37 L 32.044922 29.539062 A 0.50005 0.50005 0 0 0 31.544922 29.039062 L 26.501953 29.039062 A 0.50005 0.50005 0 0 0 26.001953 29.539062 L 26.001953 37 L 21.001953 37 L 21.001953 25 z M 27.001953 30.039062 L 31.044922 30.039062 L 31.044922 37 L 27.001953 37 L 27.001953 30.039062 z " color="#000" font-family="sans-serif" font-weight="400" overflow="visible" white-space="normal" style="line-height:normal;text-indent:0;text-align:start;text-decoration-line:none;text-decoration-style:solid;text-decoration-color:#000;text-transform:none;block-progression:tb;isolation:auto;mix-blend-mode:normal"/></svg>