<svg xmlns="http://www.w3.org/2000/svg" viewBox="0 0 64 64"><path fill="#9191e8" d="M30.6426,41.2646a1.4967,1.4967,0,0,1-.624-.1367L13.0693,33.3633a1.5,1.5,0,0,1,1.25-2.7266l16.9493,7.7647a1.5,1.5,0,0,1-.626,2.8632Z"/><path fill="#9191e8" d="M13.6953,33.5a1.5,1.5,0,0,1-.626-2.8633l16.9493-7.7646a1.4992,1.4992,0,0,1,2.125,1.3633V32a1.5,1.5,0,0,1-3,0V26.5723l-14.8243,6.791A1.4967,1.4967,0,0,1,13.6953,33.5Z"/><path fill="#9191e8" d="M50.3057,33.5H30.6436a1.5,1.5,0,0,1,0-3H50.3057a1.5,1.5,0,0,1,0,3Z"/></svg>