<svg xmlns="http://www.w3.org/2000/svg" id="Layer_1" width="28" height="28" viewBox="0 0 28 28"><path id="XMLID_388_" stroke-miterlimit="10" d="M 14 0 C 6.2739353 -2e-007 0 6.273936 0 14 C 0 21.726065 6.2739353 28 14 28 C 21.726064 28 28 21.726064 28 14 C 28 6.273936 21.726064 3e-007 14 0 z M 14 1 C 21.185623 1.0000002 27 6.814376 27 14 C 27 21.185624 21.185623 27 14 27 C 6.8143754 27 1 21.185624 1 14 C 1 6.814376 6.8143754 0.99999985 14 1 z M 12.851562 5.0292969 C 12.730248 5.0260169 12.61286 5.0476664 12.503906 5.0839844 C 12.29145 5.1548034 12.092299 5.2975433 11.966797 5.5351562 C 11.397966 6.4638779 11.289135 7.6083137 11.621094 8.7148438 C 11.964152 9.8583708 12.76807 10.653627 13.634766 11.195312 L 13.654297 11.207031 L 13.675781 11.21875 C 13.924853 11.343284 14.176622 11.330451 14.394531 11.257812 C 14.61244 11.185173 14.822731 11.043993 14.947266 10.794922 C 15.391988 9.9054788 15.623232 8.7734101 15.279297 7.6269531 C 14.936237 6.4834261 14.130368 5.6881699 13.263672 5.1464844 L 13.244141 5.1347656 L 13.222656 5.1230469 C 13.09812 5.0607789 12.972877 5.0325749 12.851562 5.0292969 z M 12.814453 6.0625 C 13.505979 6.513615 14.074055 7.0931985 14.320312 7.9140625 C 14.568203 8.7403665 14.408372 9.5759608 14.076172 10.273438 C 13.388554 9.8230338 12.823381 9.2452524 12.578125 8.4277344 C 12.316539 7.5557794 12.410835 6.725139 12.814453 6.0625 z M 17.798828 10.169922 C 16.75068 10.169922 15.646718 10.616954 14.845703 11.417969 C 14.514006 11.749666 14.264795 12.113551 14.070312 12.496094 C 13.883795 12.150842 13.655802 11.819865 13.353516 11.517578 C 12.552501 10.716563 11.448539 10.271484 10.400391 10.271484 C 10.13928 10.271484 9.8698878 10.355235 9.6542969 10.546875 C 9.438706 10.738512 9.298828 11.046094 9.2988281 11.371094 C 9.2988281 12.419242 9.7626958 13.44043 10.546875 14.224609 C 11.122928 14.800662 11.816314 15.214224 12.599609 15.390625 L 12.599609 16.097656 C 11.671917 15.328774 10.560313 14.970703 9.4003906 14.970703 C 9.1392796 14.970703 8.872109 15.065393 8.6835938 15.253906 C 8.4950784 15.442421 8.4003907 15.709592 8.4003906 15.970703 C 8.4003906 17.191915 8.8409465 18.518681 9.8457031 19.523438 C 10.65197 20.329704 11.593685 20.769845 12.599609 20.921875 L 12.599609 21.470703 C 12.599609 21.881814 12.745468 22.272813 13.021484 22.548828 C 13.297499 22.824843 13.688499 22.970703 14.099609 22.970703 C 14.51072 22.970703 14.901719 22.824843 15.177734 22.548828 C 15.453749 22.272813 15.599609 21.881814 15.599609 21.470703 L 15.599609 20.884766 C 16.529138 20.704733 17.400276 20.275506 18.152344 19.523438 C 19.157097 18.518681 19.599609 17.191915 19.599609 15.970703 C 19.599609 15.709592 19.504919 15.442421 19.316406 15.253906 C 19.127891 15.065391 18.86072 14.970703 18.599609 14.970703 C 17.521095 14.970703 16.48563 15.283949 15.599609 15.945312 L 15.599609 15.390625 C 16.382904 15.214224 17.076292 14.800662 17.652344 14.224609 C 18.436524 13.440431 18.900391 12.404817 18.900391 11.271484 C 18.900391 10.954817 18.757473 10.694974 18.566406 10.503906 C 18.37534 10.312838 18.115494 10.169922 17.798828 10.169922 z M 17.798828 11.169922 C 17.782158 11.169922 17.825435 11.177018 17.859375 11.210938 C 17.893305 11.244867 17.900391 11.288144 17.900391 11.271484 C 17.900391 12.138151 17.561133 12.901757 16.945312 13.517578 C 16.529295 13.933595 16.080393 14.221912 15.589844 14.373047 C 15.568294 13.998671 15.43147 13.646315 15.177734 13.392578 C 15.085524 13.300368 14.977621 13.228589 14.863281 13.166016 C 15.028598 12.782749 15.240001 12.437732 15.552734 12.125 C 16.151719 11.526015 17.046976 11.169922 17.798828 11.169922 z M 10.400391 11.271484 C 11.152243 11.271484 12.047499 11.625625 12.646484 12.224609 C 12.937222 12.515348 13.141911 12.833037 13.302734 13.183594 C 13.200985 13.242784 13.104863 13.309199 13.021484 13.392578 C 12.767747 13.646315 12.630927 13.998671 12.609375 14.373047 C 12.118827 14.221912 11.669923 13.933596 11.253906 13.517578 C 10.638085 12.901758 10.298828 12.122946 10.298828 11.371094 C 10.298828 11.296094 10.308949 11.303282 10.318359 11.294922 C 10.327759 11.286522 10.361501 11.271484 10.400391 11.271484 z M 14.099609 13.970703 C 14.288498 13.970703 14.396718 14.025623 14.470703 14.099609 C 14.544683 14.173589 14.599609 14.281814 14.599609 14.470703 L 14.599609 21.470703 C 14.599609 21.659592 14.544689 21.767812 14.470703 21.841797 C 14.396713 21.915777 14.288498 21.970703 14.099609 21.970703 C 13.910721 21.970703 13.802501 21.915783 13.728516 21.841797 C 13.654526 21.767807 13.599609 21.659592 13.599609 21.470703 L 13.599609 14.470703 C 13.599609 14.376263 13.613739 14.302102 13.636719 14.242188 C 13.659699 14.182277 13.691516 14.136602 13.728516 14.099609 C 13.752276 14.075849 13.787953 14.059646 13.820312 14.041016 L 14.099609 13.970703 z M 9.4003906 15.970703 C 10.48928 15.970703 11.437756 16.316662 12.246094 17.125 L 12.546875 17.423828 A 0.50005 0.50005 0 0 0 12.599609 17.470703 L 12.599609 19.910156 C 11.850198 19.772071 11.181491 19.445164 10.552734 18.816406 C 9.7574906 18.021163 9.4003906 16.949491 9.4003906 15.970703 z M 18.599609 15.970703 C 18.599609 16.949491 18.240556 18.021163 17.445312 18.816406 C 16.872235 19.389484 16.26856 19.714071 15.599609 19.873047 L 15.599609 17.277344 L 15.753906 17.125 C 16.562244 16.316662 17.51072 15.970703 18.599609 15.970703 z " color="#000" font-family="sans-serif" font-weight="400" overflow="visible" white-space="normal" style="line-height:normal;text-indent:0;text-align:start;text-decoration-line:none;text-decoration-style:solid;text-decoration-color:#000;text-transform:none;block-progression:tb;isolation:auto;mix-blend-mode:normal"/></svg>