<svg xmlns="http://www.w3.org/2000/svg" id="Layer_1" width="28" height="28" viewBox="0 0 28 28"><g id="g4142"><circle id="circle3922-0-1-0" cx="14" cy="14" r="14" fill="#50b748" fill-rule="evenodd"/><path style="line-height:normal;text-indent:0;text-align:start;text-decoration-line:none;text-decoration-style:solid;text-decoration-color:#000;text-transform:none;block-progression:tb;isolation:auto;mix-blend-mode:normal" id="XMLID_388_" fill="#fff" stroke-miterlimit="10" d="m 12.492017,5.0294602 c -0.121315,-0.00328 -0.238702,0.018369 -0.347657,0.054687 -0.212455,0.070819 -0.411607,0.2135589 -0.537109,0.4511719 -0.568831,0.9287219 -0.677662,2.0731569 -0.345703,3.1796879 0.343058,1.143527 1.146975,1.938783 2.013672,2.480468 l 0.01953,0.01172 0.02148,0.01172 c 0.249072,0.124535 0.500841,0.111699 0.71875,0.03906 0.217909,-0.07264 0.428199,-0.213819 0.552734,-0.46289 0.444722,-0.889443 0.675967,-2.021512 0.332032,-3.167969 -0.34306,-1.143527 -1.148929,-1.9387833 -2.015625,-2.4804688 l -0.01953,-0.011719 -0.02149,-0.011719 c -0.124526,-0.062267 -0.249769,-0.090471 -0.371084,-0.093749 z m -0.03711,1.0332032 c 0.691526,0.451115 1.2596,1.030699 1.505858,1.851562 0.247891,0.826305 0.08806,1.661898 -0.24414,2.3593746 -0.687619,-0.4504026 -1.252791,-1.0281836 -1.498047,-1.8457026 -0.261586,-0.871954 -0.16729,-1.702596 0.236328,-2.365234 z m 4.984374,4.1074216 c -1.048148,0 -2.15211,0.447031 -2.953125,1.248047 -0.331697,0.331696 -0.580907,0.695582 -0.77539,1.078125 -0.186517,-0.345252 -0.414511,-0.67623 -0.716797,-0.978516 -0.801016,-0.801015 -1.904977,-1.246094 -2.953125,-1.246094 -0.2611108,0 -0.530503,0.08375 -0.7460939,0.275391 -0.2155909,0.191636 -0.3554688,0.499219 -0.3554687,0.824219 0,1.048148 0.4638674,2.069336 1.2480466,2.853515 0.576053,0.576053 1.269439,0.989615 2.052734,1.166016 l 0,0.707031 c -0.927691,-0.768882 -2.039295,-1.126953 -3.1992172,-1.126953 -0.261111,0 -0.5282816,0.09469 -0.7167968,0.283203 -0.1885153,0.188515 -0.2832031,0.455686 -0.2832032,0.716797 0,1.221212 0.440556,2.547978 1.4453126,3.552734 0.8062666,0.806267 1.7479826,1.246408 2.7539056,1.398438 l 0,0.548828 c 0,0.411111 0.14586,0.80211 0.421875,1.078125 0.276016,0.276015 0.667014,0.421875 1.078125,0.421875 0.411111,0 0.80211,-0.14586 1.078125,-0.421875 0.276015,-0.276015 0.421875,-0.667014 0.421875,-1.078125 l 0,-0.585938 c 0.929529,-0.180033 1.800666,-0.609259 2.552734,-1.361328 1.004753,-1.004756 1.447266,-2.331522 1.447266,-3.552734 0,-0.261111 -0.09469,-0.528282 -0.283203,-0.716797 -0.188515,-0.188515 -0.455686,-0.283203 -0.716797,-0.283203 -1.078514,0 -2.113979,0.313246 -3,0.974609 l 0,-0.554687 c 0.783295,-0.176401 1.476682,-0.589963 2.052734,-1.166016 0.78418,-0.784179 1.248047,-1.819791 1.248047,-2.953125 0,-0.316666 -0.142917,-0.57651 -0.333984,-0.767578 -0.191066,-0.191068 -0.450912,-0.333984 -0.767578,-0.333984 z m 0,1 c -0.01667,0 0.02661,0.0071 0.06055,0.04102 0.03393,0.03393 0.04101,0.07721 0.04101,0.06055 0,0.866666 -0.339257,1.630273 -0.955078,2.246094 -0.416017,0.416017 -0.86492,0.704334 -1.355469,0.855469 -0.02155,-0.374376 -0.158373,-0.726733 -0.412109,-0.980469 -0.09221,-0.09221 -0.200113,-0.163991 -0.314453,-0.226563 0.165317,-0.383267 0.37672,-0.728283 0.689453,-1.041016 0.598985,-0.598984 1.494242,-0.955078 2.246094,-0.955078 z m -7.398437,0.101562 c 0.751852,0 1.647109,0.354141 2.246093,0.953125 0.290739,0.290739 0.495428,0.608428 0.65625,0.958985 -0.101749,0.05919 -0.19787,0.125605 -0.28125,0.208984 -0.253736,0.253737 -0.390557,0.606093 -0.412109,0.980469 -0.490548,-0.151135 -0.939451,-0.439451 -1.355469,-0.855469 -0.61582,-0.615821 -0.9550778,-1.394633 -0.9550778,-2.146484 0,-0.075 0.01012,-0.06781 0.01953,-0.07617 0.0094,-0.0084 0.04314,-0.02344 0.08203,-0.02344 z m 3.699219,2.699219 c 0.188889,0 0.297109,0.05492 0.371094,0.128906 0.07398,0.07399 0.128906,0.182205 0.128906,0.371094 l 0,7 c 0,0.188889 -0.05492,0.297109 -0.128906,0.371094 -0.07399,0.07398 -0.182205,0.128906 -0.371094,0.128906 -0.188888,0 -0.297108,-0.05492 -0.371093,-0.128906 -0.07399,-0.07399 -0.128907,-0.182205 -0.128907,-0.371094 l 0,-7 c 0,-0.09444 0.01413,-0.168601 0.03711,-0.228516 0.02298,-0.05991 0.0548,-0.105585 0.0918,-0.142578 0.02376,-0.02376 0.05944,-0.03996 0.0918,-0.05859 l 0.27929,-0.07032 z m -4.6992182,2 c 1.0888892,0 2.0373652,0.345959 2.8457032,1.154297 l 0.300781,0.298828 a 0.50005,0.50005 0 0 0 0.05273,0.04687 l 0,2.439453 C 11.490647,19.772229 10.821946,19.445327 10.193188,18.816569 9.3979452,18.021326 9.0408448,16.949654 9.0408448,15.970866 Z m 9.1992182,0 c 0,0.978788 -0.359053,2.05046 -1.154297,2.845703 -0.573078,0.573078 -1.176752,0.897665 -1.845703,1.056641 l 0,-2.595703 0.154297,-0.152344 c 0.808338,-0.808338 1.756814,-1.154297 2.845703,-1.154297 z" color="#000" font-family="sans-serif" font-weight="400" overflow="visible" white-space="normal"/></g></svg>