<svg xmlns="http://www.w3.org/2000/svg" enable-background="new 0 0 512 512" viewBox="0 0 512 512"><path fill="#bf6930" d="M435.53,504.5H127.781c-37.034,0-38.535-30.022-38.535-67.057V74.5c0,0,1.475-67,38.478-67
							h300.278c12.852,0,23.27,10.418,23.27,23.27v343.713c0,12.852-10.418,23.27-23.27,23.27h-0.004l-17.667,37.632l17.667,37.632
							h7.532c8.694,0,15.742,7.048,15.742,15.742v0C451.272,497.452,444.224,504.5,435.53,504.5z"/><path fill="#87ddf5" d="M60.724,74.5v362.943c0,35.199,27.126,64.044,61.612,66.818V7.735
								C87.855,10.482,60.724,39.313,60.724,74.5z"/><path fill="#ad5f2c" d="M428.002,397.753c12.852,0,23.27-10.418,23.27-23.27V30.77c0-12.852-10.418-23.27-23.27-23.27
							h-40c12.852,0,23.27,10.418,23.27,23.27v343.713c0,12.852-10.418,23.27-23.27,23.27h-0.004l-17.667,37.632l17.667,37.632
							h7.532c8.694,0,15.742,7.048,15.742,15.742v0c0,8.694-7.048,15.741-15.742,15.741h40c8.694,0,15.742-7.048,15.742-15.741v0
							c0-8.694-7.048-15.742-15.742-15.742h-7.532l-17.667-37.632l17.667-37.632H428.002z"/><path fill="#f0f5fa" d="M427.998,473.017H130.92c-21.116,0-38.234-16.848-38.234-37.632v0
							c0-20.784,17.118-37.632,38.234-37.632h297.078V473.017z"/><rect width="40" height="75.264" x="387.998" y="397.753" fill="#e4ecf2"/><path fill="#fff" d="M373.111,150.42c0-19.516-15.821-35.337-35.337-35.337c-6.534,0-12.649,1.781-17.9,4.872
									c0.571-2.941,0.879-5.975,0.879-9.083c0-26.174-21.218-47.392-47.392-47.392c-26.174,0-47.392,21.218-47.392,47.392
									c0,3.213,0.324,6.35,0.933,9.384c-5.362-3.28-11.666-5.173-18.412-5.173c-19.516,0-35.337,15.821-35.337,35.337
									c0,19.516,15.821,35.337,35.337,35.337l16.156,0.307v96.615h97.633v-96.615l15.953-0.318
									C357.536,185.499,373.111,169.783,373.111,150.42z"/><rect width="97.633" height="32.863" x="224.646" y="249.817" fill="#87ddf5"/><ellipse cx="373.111" cy="112.795" fill="#87ddf5" rx="40.149" ry="24.64" transform="rotate(-89.805 373.109 112.795)"/><rect width="220.732" height="28.402" x="175.086" y="321.199" fill="#fff"/><path fill="#060606" d="M435.562,404.329c13.355-3.355,23.274-15.464,23.274-29.846V30.77
			c0-16.967-13.803-30.77-30.77-30.77c0,0-304.149,0.099-306.06,0.246c-38.3,1.96-68.718,36.612-68.718,74.254v35.648
			c0,9.697,15,9.697,15,0V74.5c0-27.265,19.937-52.151,46.59-58.073c-0.309,125.033-0.305,251.685,0.01,376.72
			c-17.298,6.441-29.638,22.941-29.638,42.238c0,19.254,12.285,35.721,29.523,42.193c-0.132,5.838-0.16,11.933-0.077,17.942
			c-22.964-5.197-44.664-26.156-45.135-50.674c-0.741-35.936-1.106-86.137-1.273-134.95l0-159.874c0.039-9.98-14.138-9.659-15-0.055
			c-0.013,3.696-0.273,79.916,0,159.927l0,127.549c0,41.21,33.464,74.557,74.557,74.557h225.431c9.697,0,9.697-15,0-15H129.724
			c-0.095-5.492-0.101-11.094-0.01-16.515c0.423,0.011,0.844,0.032,1.27,0.032h304.61c10.654,0,10.654,16.483,0,16.483h-36.532
			c-9.697,0-9.697,15,0,15h36.532c12.815,0,23.242-10.426,23.242-23.241s-10.426-23.242-23.242-23.242h-0.032V404.329z M129.883,15
			h298.183c8.696,0,15.77,7.074,15.77,15.77v343.714c0,8.695-7.074,15.77-15.774,15.77H130.984c-0.37,0-0.735,0.019-1.103,0.028
			C129.573,265.699,129.573,139.541,129.883,15z M100.25,435.385c0-16.615,13.787-30.132,30.734-30.132h289.578v22.632H246.729
			c-4.142,0-7.5,3.357-7.5,7.5s3.358,7.5,7.5,7.5h173.834v22.632H130.984C114.037,465.517,100.25,452,100.25,435.385z"/><path fill="#060606" d="M208.416 193.258l8.73.166v56.394 32.862c0 4.143 3.358 7.5 7.5 7.5h97.633c4.142 0 7.5-3.357 7.5-7.5v-32.862-56.401l8.549-.171c10.214-.13 19.686-3.929 27.069-10.173l-.256 99.588c-.024 9.414 14.974 9.927 15 .039l.317-123.481c6.297-2.107 11.949-6.899 16.358-14.029 5.398-8.729 8.394-20.195 8.435-32.285s-2.876-23.575-8.214-32.341c-6.036-9.91-14.475-15.386-23.763-15.417-.026 0-.052 0-.079 0-16.859 0-30.346 18.329-32.044 42.6-4.333-.338-8.717-.049-12.942.919-1.162-29.249-25.319-52.685-54.848-52.685-29.563 0-53.743 23.49-54.852 52.787-3.264-.783-6.625-1.185-10.02-1.185-23.621 0-42.837 19.217-42.837 42.837C165.652 174.017 184.829 193.218 208.416 193.258zM314.779 275.18h-82.633v-17.862h82.633V275.18zM373.198 80.146c.008 0 .017 0 .025 0 3.819.013 7.829 3.009 11.003 8.22 3.861 6.339 6.057 15.265 6.025 24.487-.031 9.223-2.288 18.133-6.192 24.446-3.202 5.178-7.222 8.145-11.034 8.145-.009 0-.017 0-.025 0-3.819-.013-7.829-3.009-11.002-8.22-3.861-6.34-6.058-15.265-6.026-24.487C356.036 93.516 365.096 80.146 373.198 80.146zM208.49 122.583c5.131 0 10.145 1.407 14.499 4.07 5.476 3.35 12.531-1.582 11.267-7.875-.521-2.595-.786-5.255-.786-7.906 0-21.996 17.896-39.892 39.892-39.892 21.997 0 39.892 17.896 39.892 39.892 0 2.545-.25 5.119-.742 7.652-1.209 6.224 5.704 11.109 11.167 7.894 5.187-3.054 11.995-4.387 17.98-3.553 1.922 13.831 8.718 30.341 22.674 35.898-3.545 11.237-14.076 19.33-26.249 19.485l-15.954.318c-4.083.081-7.351 3.414-7.351 7.498v56.253h-18.711v-56.49c0-9.697-15-9.697-15 0v56.49h-15.872v-32.628c0-9.697-15-9.697-15 0v32.628h-18.05v-56.253c0-4.087-3.272-7.421-7.358-7.499l-16.156-.307c-.047-.001-.095-.001-.142-.001-15.35 0-27.837-12.488-27.837-27.838S193.14 122.583 208.49 122.583zM395.818 313.699H175.086c-4.142 0-7.5 3.357-7.5 7.5v28.402c0 4.143 3.358 7.5 7.5 7.5h220.732c4.142 0 7.5-3.357 7.5-7.5v-28.402C403.318 317.057 399.96 313.699 395.818 313.699zM388.318 342.102H182.586v-13.402h205.732V342.102z"/></svg>