<svg xmlns="http://www.w3.org/2000/svg" enable-background="new 0 0 64 64" viewBox="0 0 64 64"><path d="M61.8506241,41.4741211C61.6684952,41.1796875,61.3467178,41,61.0000381,41h-4.0483398
		c-0.3728638-4.1546021-3.0471802-7.7203369-6.9516602-9.2420654V3c0-0.5522461-0.4477539-1-1-1h-46c-0.5522461,0-1,0.4477539-1,1
		v58c0,0.5522461,0.4477539,1,1,1h46c0.5522461,0,1-0.4477539,1-1V51h7c0.3789063,0,0.7250977-0.2138672,0.8945313-0.5527344l4-8
		C62.0493546,42.137207,62.032753,41.769043,61.8506241,41.4741211z M54.9453506,41H31.0593662
		c0.0281372-0.2557373,0.0629272-0.5100708,0.1124268-0.760498c0.0058594-0.0297241,0.0150757-0.0584717,0.0212402-0.0881958
		c0.0498047-0.2393188,0.1085205-0.4761963,0.1774292-0.7095947c0.0263062-0.0891113,0.0587769-0.1760254,0.0878296-0.2642212
		c0.0568237-0.1723633,0.1160889-0.3438721,0.1832886-0.5122681c0.0389404-0.0975342,0.0819702-0.1932983,0.1243286-0.2893677
		c0.0687256-0.1559448,0.1411133-0.3102417,0.2188721-0.4621582c0.0491314-0.0960693,0.0999126-0.1913452,0.152586-0.2857056
		c0.0835571-0.1495972,0.1726074-0.2963257,0.2649536-0.4414063c0.0563354-0.088562,0.1117554-0.1776123,0.1713867-0.2643433
		c0.1055298-0.1535645,0.21875-0.3024902,0.3342896-0.4500732c0.0556641-0.071106,0.1079102-0.1443481,0.1658936-0.2139893
		c0.1778564-0.2137451,0.3642578-0.421875,0.5633545-0.6209717C35.3379288,33.9365234,37.5976944,33,40.0000381,33h6
		c0.9208984,0,1.8291016,0.1391602,2.6992188,0.4135742C52.1460342,34.5004883,54.5581436,37.4794922,54.9453506,41z M48.0000381,60
		h-44V4h44v27.1821289c-0.0481567-0.0088501-0.09729-0.0117798-0.1455688-0.0200195
		c-0.2058716-0.0351563-0.4130249-0.0619507-0.6209106-0.0852661c-0.100708-0.0112915-0.2007446-0.026123-0.3018799-0.0346069
		C46.6225357,31.0161133,46.3121109,31,46.0000381,31h-6c-2.9365234,0-5.6987305,1.1445313-7.7768555,3.2231445
		c-0.2458477,0.2458496-0.4763775,0.5026855-0.6957378,0.7667847c-0.0734253,0.0883789-0.1387939,0.1816406-0.2092285,0.2719727
		c-0.1402588,0.1799316-0.2788696,0.3605957-0.4069824,0.5477905c-0.0756836,0.1105957-0.1444702,0.2247314-0.2159424,0.3377686
		c-0.1107178,0.1751709-0.2190552,0.3512573-0.3192749,0.5318604c-0.0675659,0.1216431-0.130249,0.2452393-0.1929932,0.3692017
		c-0.0911865,0.1801147-0.1777954,0.3618164-0.258728,0.5465088c-0.0558472,0.1275635-0.109436,0.2556152-0.1603394,0.3851929
		c-0.0744019,0.1893311-0.1418457,0.3811035-0.2055664,0.5745239c-0.0426025,0.1293945-0.0856934,0.2583008-0.1234741,0.3894043
		c-0.0588379,0.2044067-0.1080322,0.4116211-0.1549683,0.619812c-0.0278931,0.1235352-0.0592041,0.2457886-0.0828247,0.3704834
		c-0.0454712,0.2400513-0.0779419,0.4832153-0.1074829,0.7272339c-0.0115967,0.0961914-0.0292969,0.1908569-0.0383911,0.2875977
		C29.0496616,40.9663696,29.0459995,40.9829102,29.0444736,41h-4.0444336c-0.3466797,0-0.668457,0.1796875-0.8505859,0.4741211
		c-0.1821289,0.2949219-0.1987305,0.6630859-0.0439453,0.9731445l4,8C28.2749424,50.7861328,28.6211338,51,29.0000401,51h18.9999981
		V60z M56.3818741,49h-7.3818359h-19.381834l-3-6h3.3818359h25.9999981h3.3818359L56.3818741,49z"/><path d="M11.0000391 15h25c.5522461 0 1-.4477539 1-1s-.4477539-1-1-1h-25c-.5522461 0-1 .4477539-1 1S10.447793 15 11.0000391 15zM11.0000391 20h21c.5522461 0 1-.4477539 1-1s-.4477539-1-1-1h-21c-.5522461 0-1 .4477539-1 1S10.447793 20 11.0000391 20zM11.0000391 25h14.000001c.5522461 0 1-.4477539 1-1s-.4477539-1-1-1h-14.000001c-.5522461 0-1 .4477539-1 1S10.447793 25 11.0000391 25zM20.0000401 28h-9.000001c-.5522461 0-1 .4477539-1 1s.4477539 1 1 1h9.000001c.5522461 0 1-.4477539 1-1S20.5522861 28 20.0000401 28zM17.0000401 33h-6.000001c-.5522461 0-1 .4477539-1 1s.4477539 1 1 1h6.000001c.5522461 0 1-.4477539 1-1S17.5522861 33 17.0000401 33zM42.0000381 34h-2c-.5522461 0-1 .4477539-1 1s.4477539 1 1 1h2c.5522461 0 1-.4477539 1-1S42.5522842 34 42.0000381 34zM38.0000381 37h-2c-.5522461 0-1 .4477539-1 1s.4477539 1 1 1h2c.5522461 0 1-.4477539 1-1S38.5522842 37 38.0000381 37zM46.0000381 37h-2c-.5522461 0-1 .4477539-1 1s.4477539 1 1 1h2c.5522461 0 1-.4477539 1-1S46.5522842 37 46.0000381 37zM11.0000391 38c-.5522461 0-1 .4477539-1 1v2c0 .5522461.4477539 1 1 1s1-.4477539 1-1v-2C12.0000391 38.4477539 11.5522852 38 11.0000391 38zM15.0000391 38c-.5522461 0-1 .4477539-1 1v2c0 .5522461.4477539 1 1 1s1.000001-.4477539 1.000001-1v-2C16.0000401 38.4477539 15.5522852 38 15.0000391 38zM19.0000401 38c-.5522461 0-1 .4477539-1 1v2c0 .5522461.4477539 1 1 1s1-.4477539 1-1v-2C20.0000401 38.4477539 19.5522861 38 19.0000401 38z"/></svg>