<svg xmlns="http://www.w3.org/2000/svg" width="48" height="48" viewBox="0 0 48 48"><path d="M 24 0 C 10.751088 0 0 10.7511 0 24 C 0 37.2489 10.751088 48 24 48 C 37.248912 48 48 37.2489 48 24 C 48 10.7511 37.248912 0 24 0 z M 24 1 C 36.708472 1 47 11.2916 47 24 C 47 36.7085 36.708472 47 24 47 C 11.291528 47 1 36.7085 1 24 C 1 11.2916 11.291528 1 24 1 z M 23.992188 10.982422 A 0.50005 0.50005 0 0 0 23.5 11.488281 L 23.5 14.673828 C 22.58583 13.490928 21.141029 12.722656 19.517578 12.722656 A 0.50005 0.50005 0 1 0 19.517578 13.722656 C 21.514333 13.722656 23.142407 15.132762 23.443359 16.976562 L 21.433594 16.976562 C 20.768628 16.976562 20.138158 17.230103 19.673828 17.658203 C 19.209498 18.086203 18.909846 18.726569 19.015625 19.417969 L 21.582031 36.189453 C 21.948245 38.587353 26.129676 38.627175 26.419922 36.171875 L 28.984375 19.416016 C 29.090154 18.724616 28.790502 18.08425 28.326172 17.65625 C 27.861842 17.22815 27.231372 16.974609 26.566406 16.974609 L 24.566406 16.974609 C 24.869839 15.122009 26.503768 13.722656 28.490234 13.722656 A 0.50005 0.50005 0 1 0 28.490234 12.722656 C 26.871694 12.722656 25.415897 13.478762 24.5 14.664062 L 24.5 11.488281 A 0.50005 0.50005 0 0 0 23.992188 10.982422 z M 21.433594 17.976562 L 26.566406 17.976562 C 26.967671 17.976562 27.377908 18.145131 27.648438 18.394531 C 27.918965 18.643931 28.046771 18.936378 27.996094 19.267578 L 27.734375 20.982422 L 24 20.982422 L 24 21.982422 L 27.580078 21.982422 L 27.121094 24.982422 L 24 24.982422 L 24 25.982422 L 26.96875 25.982422 L 26.509766 28.982422 L 24 28.982422 L 24 29.982422 L 26.355469 29.982422 L 25.896484 32.982422 L 24 32.982422 L 24 33.982422 L 25.744141 33.982422 L 25.429688 36.037109 A 0.50005 0.50005 0 0 0 25.427734 36.052734 C 25.277891 37.335334 22.753985 37.239509 22.570312 36.037109 L 20.003906 19.267578 C 19.953226 18.936378 20.081036 18.643931 20.351562 18.394531 C 20.622091 18.145131 21.032329 17.976562 21.433594 17.976562 z " color="#000" font-family="sans-serif" font-weight="400" overflow="visible" white-space="normal" style="line-height:normal;text-indent:0;text-align:start;text-decoration-line:none;text-decoration-style:solid;text-decoration-color:#000;text-transform:none;block-progression:tb;isolation:auto;mix-blend-mode:normal"/></svg>