<svg xmlns="http://www.w3.org/2000/svg" enable-background="new 0 0 70 70" viewBox="0 0 70 70"><path d="M65.0552368,28.338623c0.5447388-1.2999268,0.8344116-2.6893311,0.8344116-4.0837402
	c0-3.3352051-1.5921631-6.4572754-4.288208-8.5618896l2.4981689-3.1607666
	c0.2705078-0.3417969,0.2880859-0.8203125,0.0439453-1.1816406c-1.866394-2.7502441-4.8752441-2.9539795-6.53479-2.8254395
	l0.5689697-3.3884277C58.2519531,4.6904297,58.0195312,4.25,57.6083984,4.0615234
	c-4.0546875-1.8632812-7.2246094-0.0390625-8.3349609,1.1835938c-0.1982422,0.2197266-0.2900391,0.515625-0.2490234,0.8085938
	l0.411499,2.9908447c-3.4954834-0.3112793-5.2803345,2.0946045-5.3626709,2.2103271
	c-0.1855469,0.2578125-0.2363281,0.5888672-0.1386719,0.890625l1.4929199,4.5968018
	c-1.7988892,1.8431396-2.8674316,4.1580811-3.0671387,6.6540527c-0.06427-0.0806885-0.1231689-0.1655273-0.1904297-0.2440186
	l-2.1025391-2.4160156l-4.71875-5.8505859c-0.4901733-0.6025391-0.9494629-1.217041-1.392395-1.8338623
	c0.4332886-0.2431641,0.8511353-0.5195312,1.227356-0.8634033c0.3457031-0.3164062,0.4257812-0.8310547,0.1914062-1.2373047
	c-1.1025391-1.9140625-2.7773438-3.203125-4.7148438-3.6289062c-0.9005127-0.1989746-1.809082-0.1896973-2.6815186,0.0075684
	c-0.3618774-0.8444824-0.8701782-2.4077148-0.6212158-4.1911621c0.0478516-0.3447266-0.0859375-0.6894531-0.3544922-0.9101562
	c-0.2685547-0.2226562-0.6328125-0.2880859-0.9609375-0.1738281l-3.6474609,1.2539062
	c-0.3427734,0.1171875-0.5947266,0.4121094-0.6591797,0.7685547c-0.3302002,1.8365479,0.2054443,3.9528809,1.5325928,6.1541748
	c-2.1414795,2.3297119-2.4495239,6.0445557-0.5863037,9.2589111c0.2636719,0.4560547,0.8359375,0.6298828,1.3105469,0.3945312
	c0.3075562-0.1530762,0.593689-0.3361816,0.8679199-0.5349121C26.0731812,22.0772705,27.015625,24.8902588,27.7566528,28h-3.8102417
	c-0.9960938-4.9414062-2.3433838-10.675415-3.0294189-12.2021484c-0.8681641-1.9267578-2.4345703-3.3994141-4.4101562-4.1474609
	c-0.7608643-0.2877197-1.5475464-0.4521484-2.3372192-0.4992676c0.2525024-0.3930664,0.4750366-0.807373,0.6438599-1.2526855
	c0.6386719-1.6855469,0.5830078-3.5185547-0.1572266-5.1621094c-0.2275391-0.5029297-0.8203125-0.7285156-1.3222656-0.5009766
	c-1.0783081,0.4858398-1.9855347,1.230957-2.6654053,2.1594238C9.9493408,5.5286865,9.0076294,4.8283691,7.8818359,4.4013672
	C7.6337891,4.3056641,7.3583984,4.3144531,7.1171875,4.4238281C6.875,4.5332031,6.6865234,4.7333984,6.5917969,4.9814453
	c-0.4185791,1.1047363-0.53302,2.2717285-0.3577881,3.4080811C5.0895996,8.2836914,3.9313354,8.4680176,2.8544922,8.953125
	C2.6123047,9.0625,2.4238281,9.2626953,2.3291016,9.5107422c-0.09375,0.2480469-0.0849609,0.5234375,0.0234375,0.765625
	c0.7412109,1.6435547,2.0771484,2.9003906,3.7607422,3.5390625c0.4488525,0.1696777,0.9098511,0.276123,1.3737793,0.3479004
	c-1.7559204,2.2409668-2.2468262,5.361084-0.9987793,8.1442871C6.9550781,23.3227539,8.5545654,25.6993408,10.1881714,28H6.6669922
	C4.09375,28,2,30.09375,2,32.6669922s2.09375,4.6660156,4.6669922,4.6660156h0.885376l6.7738037,27.1435547
	C14.84375,66.5507812,16.6992188,68,18.8378906,68h32.3242188c2.1386719,0,3.9941406-1.4492188,4.5117188-3.5234375
	l6.7738037-27.1435547h0.885376C65.90625,37.3330078,68,35.2402344,68,32.6669922
	C68,30.703125,66.7767944,29.0262451,65.0552368,28.338623z M62.0390625,11.9150391l-2.1191406,2.6809082
	c-0.9868164-0.5327148-2.0343628-0.9233398-3.1351929-1.1633301l0.4802856-2.8602295
	C58.1550903,10.4404297,60.4874878,10.2845459,62.0390625,11.9150391z M56.0722656,5.5976562l-1.2689209,7.5551758
	c-0.2358398-0.0136719-0.4706421-0.0239258-0.7056885-0.0239258c-0.6974487,0-1.3839111,0.0648193-2.057373,0.1762695
	l-0.9631348-7.003418C51.7675781,5.7548828,53.5126953,4.7167969,56.0722656,5.5976562z M49.7194824,11.1053467l0.3706665,2.6939697
	c-1.0768433,0.3671875-2.0911865,0.881958-3.0170288,1.5354004l-1.0574951-3.2556152
	C46.5526123,11.5836182,47.782959,10.7756348,49.7194824,11.1053467z M47.2441406,17.7460938
	c1.8339844-1.6875,4.2685547-2.6171875,6.8535156-2.6171875c0.4609375,0,0.9189453,0.03125,1.4042969,0.0957031
	c1.4902344,0.1962891,2.8808594,0.7021484,4.1328125,1.5048828c2.6640625,1.7070312,4.2548828,4.5195312,4.2548828,7.5253906
	c0,1.2871094-0.3168945,2.5661621-0.8887329,3.7451172H45.1818237c-0.5578613-1.1695557-0.866394-2.4482422-0.866394-3.7451172
	C44.3154297,21.7861328,45.3544922,19.4746094,47.2441406,17.7460938z M25.296875,4.4257812
	c0.0527344,1.5439453,0.4767456,2.8334961,0.8259277,3.6558838c-0.1376953,0.0828857-0.2757568,0.1651611-0.4089355,0.2591553
	c-0.2926636,0.2070312-0.5882568,0.4069824-0.8835449,0.6079102c-0.8165894-1.4299316-1.2294922-2.7957764-1.185791-3.9555664
	L25.296875,4.4257812z M23.9472656,17.5371094c-1.0341797-2.5683594-0.4160156-5.3076172,1.6191406-6.6679688
	c0.4384766-0.2929688,0.8710938-0.5908203,1.3017578-0.8955078c1.0009766-0.7070312,2.2001953-0.9541016,3.3623047-0.6982422
	c1.1308594,0.2480469,2.1484375,0.9296875,2.9287109,1.9482422c-0.9960938,0.6201172-2.1972656,0.8291016-3.3408203,0.5605469
	c-0.4208984-0.0966797-0.859375,0.0849609-1.0839844,0.4560547s-0.1845703,0.8447266,0.0996094,1.1728516
	c1.0625,1.2255859,1.5400391,2.8759766,1.3535156,4.5644531c-1.2783203-0.5849609-2.265625-1.6708984-2.7792969-3.0927734
	c-0.1435547-0.3974609-0.5205078-0.6601562-0.9404297-0.6601562c-0.0117188,0-0.0224609,0-0.0341797,0.0009766
	C26,14.2402344,25.625,14.5332031,25.5058594,14.9501953c-0.234436,0.8226318-0.583252,1.5095215-1.0402832,2.0594482
	c-0.0042114,0.0047607-0.0067139,0.010376-0.0108643,0.0152588C24.2981567,17.2116699,24.1292114,17.3828125,23.9472656,17.5371094z
	 M26.3568115,17.7962646c0.0673828-0.0980225,0.1426392-0.1876221,0.2056885-0.2904053
	c1.0175781,1.3789062,2.4785156,2.3642578,4.1611328,2.7568359c0.0771484,0.0175781,0.1533203,0.0263672,0.2285156,0.0263672
	c0.4404297,0,0.8417969-0.2929688,0.9628906-0.7353516c0.5390625-1.9589844,0.3710938-3.9736328-0.4296875-5.6904297
	c0.1778564-0.019043,0.3510132-0.0651855,0.5265503-0.098999c0.559082,0.8018799,1.1499023,1.6015625,1.78302,2.380249
	l4.7392578,5.8759766l2.1210938,2.4384766C41.4981079,25.4431152,42.0275879,26.6762695,42.2208862,28H29.8140869
	C28.9677734,24.3330078,27.8327026,20.9768066,26.3568115,17.7962646z M13.1748047,6.6494141
	c0.15625,0.84375,0.0800781,1.7167969-0.2324219,2.5400391c-0.1704712,0.4503174-0.4215088,0.8544922-0.7143555,1.227417
	c-0.031311-0.7003174-0.1758423-1.3851318-0.4151611-2.0341797C12.1307373,7.6999512,12.5900269,7.1054688,13.1748047,6.6494141z
	 M8.1875,6.8037109c0.7194214,0.4968262,1.2733154,1.1762695,1.6231079,1.9482422
	C9.8154907,8.7634277,9.819519,8.7744141,9.8248901,8.7858887c0.3419189,0.7702637,0.4821777,1.6304932,0.3782349,2.4934082
	c-0.7149658-0.4936523-1.265686-1.168457-1.6157837-1.9344482C8.5820923,9.3325195,8.5759277,9.3212891,8.5701904,9.309082
	C8.2244263,8.5358887,8.0830078,7.6710205,8.1875,6.8037109z M4.7675781,10.4345703
	c0.7298584-0.1326904,1.4765625-0.0839844,2.196167,0.1291504c0.3329468,0.6220703,0.7526855,1.1817627,1.25,1.6622314
	c-0.4705811-0.0290527-0.9398193-0.1094971-1.3914795-0.2816162C6,11.6328125,5.2958984,11.1113281,4.7675781,10.4345703z
	 M11.2752075,26.0734863c0.4398193-0.2573242,0.9122314-0.4306641,1.4347534-0.5148926
	c0.5449219-0.0878906,0.9160156-0.6005859,0.828125-1.1464844c-0.0878906-0.5449219-0.6015625-0.9189453-1.1464844-0.828125
	c-0.812439,0.1306152-1.567627,0.4116211-2.2550659,0.8354492c-1.0061646-1.4912109-1.6289673-2.5065918-1.8279419-2.9389648
	c-0.6455078-1.4404297-0.6933594-3.0488281-0.1328125-4.5263672c0.5605469-1.4785156,1.6611328-2.6474609,3.1015625-3.2939453
	c1.4394531-0.6484375,3.0449219-0.6972656,4.5205078-0.1396484c1.3578491,0.5146484,2.4367676,1.5013428,3.1090698,2.7729492
	c-0.6255493,0.2352295-1.2123413,0.5595703-1.7428589,0.9946289c-0.4277344,0.3505859-0.4892578,0.9804688-0.1396484,1.4072266
	c0.1982422,0.2412109,0.484375,0.3662109,0.7744141,0.3662109c0.2226562,0,0.4472656-0.0742188,0.6328125-0.2265625
	c0.3632202-0.2980957,0.7542725-0.5155029,1.1742554-0.6730957C20.2195435,20.2946777,21.104126,24.0595703,21.9053955,28
	h-9.2571411C12.1502686,27.3110352,11.6901855,26.6655273,11.2752075,26.0734863z M53.7324219,63.9921875
	C53.4384766,65.1748047,52.3808594,66,51.1621094,66H18.8378906c-1.21875,0-2.2763672-0.8251953-2.5703125-2.0078125
	L9.6142578,37.3330078h50.7714844L53.7324219,63.9921875z M63.3330078,35.3330078h-1.6669922H8.3339844H6.6669922
	C5.1962891,35.3330078,4,34.1367188,4,32.6669922C4,31.1962891,5.1962891,30,6.6669922,30h36.6484375h0.0097656h20.0078125
	C64.8037109,30,66,31.1962891,66,32.6669922C66,34.1367188,64.8037109,35.3330078,63.3330078,35.3330078z"/><path d="M44.6914062 61.7832031c.0458984.0058594.0908203.0087891.1357422.0087891.4931641 0 .921875-.3642578.9902344-.8652344l2.4775391-18.25c.0742188-.5478516-.3095703-1.0517578-.8564453-1.1259766-.5507812-.0634766-1.0517578.3095703-1.1259766.8564453l-2.4775391 18.25C43.7607422 61.2050781 44.1445312 61.7089844 44.6914062 61.7832031zM35 61.7919922c.5527344 0 1-.4472656 1-1v-18.25c0-.5527344-.4472656-1-1-1s-1 .4472656-1 1v18.25C34 61.3447266 34.4472656 61.7919922 35 61.7919922zM25.1728516 61.7919922c.0449219 0 .0898438-.0029297.1357422-.0087891.546875-.0742188.9306641-.578125.8564453-1.1259766l-2.4775391-18.25c-.0742188-.546875-.5742188-.9189453-1.1259766-.8564453-.546875.0742188-.9306641.578125-.8564453 1.1259766l2.4775391 18.25C24.2509766 61.4277344 24.6796875 61.7919922 25.1728516 61.7919922zM46.1337891 26.0761719c.5527344 0 1-.4472656 1-1 0-2.0820312 1.125-4.0019531 3.0097656-5.1376953.4736328-.2851562.6259766-.8994141.3408203-1.3720703-.2851562-.4736328-.9003906-.6279297-1.3720703-.3408203-2.4912109 1.5-3.9785156 4.0605469-3.9785156 6.8505859C45.1337891 25.6289062 45.5810547 26.0761719 46.1337891 26.0761719z"/></svg>